<svg width="14" height="14" viewBox="0 0 14 14" fill="none" xmlns="http://www.w3.org/2000/svg">
    <path d="M6.42974 3.45517C6.19403 3.17232 5.77366 3.1341 5.49081 3.36981C5.20795 3.60552 5.16974 4.0259 5.40545 4.30875L5.9176 3.88196L6.42974 3.45517ZM8.12732 6.53363L8.63947 6.96042C8.84549 6.71319 8.84549 6.35407 8.63947 6.10684L8.12732 6.53363ZM5.40545 8.75851C5.16974 9.04136 5.20795 9.46173 5.49081 9.69744C5.77366 9.93315 6.19403 9.89494 6.42974 9.61209L5.91759 9.1853L5.40545 8.75851ZM5.9176 3.88196L5.40545 4.30875L7.61517 6.96042L8.12732 6.53363L8.63947 6.10684L6.42974 3.45517L5.9176 3.88196ZM8.12732 6.53363L7.61517 6.10684L5.40545 8.75851L5.91759 9.1853L6.42974 9.61209L8.63947 6.96042L8.12732 6.53363ZM6.66797 0.666626L6.66797 1.33329C9.61349 1.33329 12.0013 3.72111 12.0013 6.66663L12.668 6.66663L13.3346 6.66663C13.3346 2.98473 10.3499 -4.08709e-05 6.66797 -4.071e-05L6.66797 0.666626ZM12.668 6.66663L12.0013 6.66663C12.0013 9.61214 9.61349 12 6.66797 12L6.66797 12.6666L6.66797 13.3333C10.3499 13.3333 13.3346 10.3485 13.3346 6.66663L12.668 6.66663ZM6.66797 12.6666L6.66797 12C3.72245 12 1.33464 9.61214 1.33464 6.66663L0.667969 6.66663L0.00130206 6.66663C0.00130222 10.3485 2.98607 13.3333 6.66797 13.3333L6.66797 12.6666ZM0.667969 6.66663L1.33464 6.66663C1.33464 3.72111 3.72245 1.33329 6.66797 1.33329L6.66797 0.666626L6.66797 -4.071e-05C2.98607 -4.0549e-05 0.0013019 2.98473 0.00130206 6.66663L0.667969 6.66663Z" fill="#235CD0"/>
</svg>
