<svg width="18" height="14" viewBox="0 0 18 14" fill="none" xmlns="http://www.w3.org/2000/svg">
<path d="M17.1818 1.63636H16.3636V0.818182C16.3636 0.601187 16.2774 0.393079 16.124 0.23964C15.9706 0.0862012 15.7625 0 15.5455 0C13.0909 0 10.3786 0.130909 9 1.44C7.62136 0.130909 4.90909 0 2.45455 0C2.23755 0 2.02944 0.0862012 1.876 0.23964C1.72256 0.393079 1.63636 0.601187 1.63636 0.818182V1.63636H0.818182C0.601187 1.63636 0.393079 1.72256 0.23964 1.876C0.086201 2.02944 0 2.23755 0 2.45455V12.2727C0 12.4897 0.086201 12.6978 0.23964 12.8513C0.393079 13.0047 0.601187 13.0909 0.818182 13.0909H17.1818C17.3988 13.0909 17.6069 13.0047 17.7604 12.8513C17.9138 12.6978 18 12.4897 18 12.2727V2.45455C18 2.23755 17.9138 2.02944 17.7604 1.876C17.6069 1.72256 17.3988 1.63636 17.1818 1.63636ZM15.5455 0.818182V10.6364C13.3077 10.6364 10.8695 10.7427 9.40909 11.7409V2.18864C10.4809 0.936818 13.1318 0.818182 15.5455 0.818182ZM8.59091 2.18864V11.7409C7.13045 10.7427 4.69227 10.6364 2.45455 10.6364V0.818182C4.86818 0.818182 7.51909 0.936818 8.59091 2.18864ZM0.818182 2.45455H1.63636V10.6364C1.63636 10.8534 1.72256 11.0615 1.876 11.2149C2.02944 11.3683 2.23755 11.4545 2.45455 11.4545C4.45091 11.4545 6.60682 11.5364 7.89955 12.2727H0.818182V2.45455ZM17.1818 12.2727H10.1005C11.3932 11.5364 13.5491 11.4545 15.5455 11.4545C15.7625 11.4545 15.9706 11.3683 16.124 11.2149C16.2774 11.0615 16.3636 10.8534 16.3636 10.6364V2.45455H17.1818V12.2727Z" fill="black"/>
</svg>
