<svg width="16" height="16" viewBox="0 0 16 16" fill="none" xmlns="http://www.w3.org/2000/svg">
    <g clip-path="url(#clip0_776_5517)">
        <path d="M14.4 1.6H13.6V0.8C13.6 0.32 13.28 0 12.8 0C12.32 0 12 0.32 12 0.8V1.6H4V0.8C4 0.32 3.68 0 3.2 0C2.72 0 2.4 0.32 2.4 0.8V1.6H0.8C0.4 1.6 0 1.92 0 2.4V13.6C0 14.08 0.4 14.4 0.8 14.4H5.68C5.12 13.44 4.8 12.32 4.8 11.2C4.8 7.68 7.68 4.8 11.2 4.8C12.72 4.8 14.08 5.36 15.2 6.24V2.4C15.2 2 14.8 1.6 14.4 1.6Z" fill="#50556F"/>
        <path d="M11.2 6.39999C8.56 6.39999 6.4 8.55999 6.4 11.2C6.4 13.84 8.56 16 11.2 16C13.84 16 16 13.84 16 11.2C16 8.55999 13.84 6.39999 11.2 6.39999ZM12.8 12H11.2C10.72 12 10.4 11.68 10.4 11.2V8.79999C10.4 8.31999 10.72 7.99999 11.2 7.99999C11.68 7.99999 12 8.31999 12 8.79999V10.4H12.8C13.28 10.4 13.6 10.72 13.6 11.2C13.6 11.68 13.28 12 12.8 12Z" fill="#50556F"/>
    </g>
    <defs>
        <clipPath id="clip0_776_5517">
            <rect width="16" height="16" fill="white"/>
        </clipPath>
    </defs>
</svg>
