<svg width="18" height="14" viewBox="0 0 18 14" fill="none" xmlns="http://www.w3.org/2000/svg">
<path d="M9 12.2727H2.04545C1.71996 12.2727 1.4078 12.1434 1.17764 11.9133C0.947483 11.6831 0.818182 11.3709 0.818182 11.0455H5.96455L6.13636 11.2173C6.28977 11.3694 6.49712 11.4547 6.71318 11.4545H8.59091C8.69941 11.4545 8.80346 11.4114 8.88018 11.3347C8.9569 11.258 9 11.154 9 11.0455C9 10.937 8.9569 10.8329 8.88018 10.7562C8.80346 10.6795 8.69941 10.6364 8.59091 10.6364H6.71727L6.54545 10.4645C6.39205 10.3124 6.1847 10.2271 5.96864 10.2273H2.04545V1.63636C2.04545 1.41937 2.13166 1.21126 2.28509 1.05782C2.43853 0.904383 2.64664 0.818182 2.86364 0.818182H14.3182C14.5352 0.818182 14.7433 0.904383 14.8967 1.05782C15.0502 1.21126 15.1364 1.41937 15.1364 1.63636V2.86364C15.1364 2.97213 15.1795 3.07619 15.2562 3.15291C15.3329 3.22963 15.437 3.27273 15.5455 3.27273C15.654 3.27273 15.758 3.22963 15.8347 3.15291C15.9114 3.07619 15.9545 2.97213 15.9545 2.86364V1.63636C15.9545 1.20237 15.7821 0.786157 15.4753 0.47928C15.1684 0.172402 14.7522 0 14.3182 0H2.86364C2.42965 0 2.01343 0.172402 1.70655 0.47928C1.39967 0.786157 1.22727 1.20237 1.22727 1.63636V10.2273H0.818182C0.601187 10.2273 0.393079 10.3135 0.23964 10.4669C0.086201 10.6204 0 10.8285 0 11.0455C0 11.5879 0.215503 12.1082 0.5991 12.4918C0.982697 12.8754 1.50297 13.0909 2.04545 13.0909H9C9.1085 13.0909 9.21255 13.0478 9.28927 12.9711C9.36599 12.8944 9.40909 12.7903 9.40909 12.6818C9.40909 12.5733 9.36599 12.4693 9.28927 12.3925C9.21255 12.3158 9.1085 12.2727 9 12.2727Z" fill="black"/>
<path d="M13.9087 3.27272C14.0172 3.27272 14.1213 3.22962 14.198 3.1529C14.2747 3.07618 14.3178 2.97212 14.3178 2.86363V2.04544C14.3178 1.93695 14.2747 1.83289 14.198 1.75617C14.1213 1.67945 14.0172 1.63635 13.9087 1.63635H3.27237C3.16387 1.63635 3.05982 1.67945 2.9831 1.75617C2.90638 1.83289 2.86328 1.93695 2.86328 2.04544V8.99999C2.86328 9.10849 2.90638 9.21254 2.9831 9.28926C3.05982 9.36598 3.16387 9.40908 3.27237 9.40908H8.59055C8.69905 9.40908 8.80311 9.36598 8.87983 9.28926C8.95654 9.21254 8.99964 9.10849 8.99964 8.99999C8.99964 8.89149 8.95654 8.78744 8.87983 8.71072C8.80311 8.634 8.69905 8.5909 8.59055 8.5909H3.68146V2.45453H13.4996V2.86363C13.4996 2.97212 13.5427 3.07618 13.6195 3.1529C13.6962 3.22962 13.8002 3.27272 13.9087 3.27272Z" fill="black"/>
<path d="M17.182 4.09094H11.4547C11.0207 4.09094 10.6045 4.26334 10.2976 4.57022C9.99076 4.8771 9.81836 5.29332 9.81836 5.72731V11.4546C9.81836 11.8886 9.99076 12.3048 10.2976 12.6117C10.6045 12.9185 11.0207 13.0909 11.4547 13.0909H17.182C17.399 13.0909 17.6071 13.0047 17.7605 12.8513C17.914 12.6979 18.0002 12.4898 18.0002 12.2728V4.90912C18.0002 4.69213 17.914 4.48402 17.7605 4.33058C17.6071 4.17714 17.399 4.09094 17.182 4.09094ZM10.6365 11.4546V5.72731C10.6365 5.51031 10.7227 5.3022 10.8762 5.14876C11.0296 4.99533 11.2377 4.90912 11.4547 4.90912V12.2728C11.2377 12.2728 11.0296 12.1866 10.8762 12.0331C10.7227 11.8797 10.6365 11.6716 10.6365 11.4546ZM12.2729 12.2728V4.90912H17.182V12.2728H12.2729Z" fill="black"/>
<path d="M15.5455 9.81818C15.654 9.81818 15.758 9.77508 15.8347 9.69836C15.9114 9.62164 15.9545 9.51759 15.9545 9.40909C15.9545 9.30059 15.9114 9.19654 15.8347 9.11982C15.758 9.0431 15.654 9 15.5455 9H13.9091C13.8006 9 13.6965 9.0431 13.6198 9.11982C13.5431 9.19654 13.5 9.30059 13.5 9.40909C13.5 9.51759 13.5431 9.62164 13.6198 9.69836C13.6965 9.77508 13.8006 9.81818 13.9091 9.81818H15.5455Z" fill="black"/>
<path d="M15.9554 10.6364H13.5009C13.3924 10.6364 13.2883 10.6795 13.2116 10.7562C13.1349 10.8329 13.0918 10.9369 13.0918 11.0454C13.0918 11.1539 13.1349 11.258 13.2116 11.3347C13.2883 11.4114 13.3924 11.4545 13.5009 11.4545H15.9554C16.0639 11.4545 16.168 11.4114 16.2447 11.3347C16.3214 11.258 16.3645 11.1539 16.3645 11.0454C16.3645 10.9369 16.3214 10.8329 16.2447 10.7562C16.168 10.6795 16.0639 10.6364 15.9554 10.6364Z" fill="black"/>
<path d="M15.9554 5.72729H13.5009C13.3924 5.72729 13.2883 5.7704 13.2116 5.84711C13.1349 5.92383 13.0918 6.02789 13.0918 6.13639V7.77275C13.0918 7.88125 13.1349 7.9853 13.2116 8.06202C13.2883 8.13874 13.3924 8.18184 13.5009 8.18184H15.9554C16.0639 8.18184 16.168 8.13874 16.2447 8.06202C16.3214 7.9853 16.3645 7.88125 16.3645 7.77275V6.13639C16.3645 6.02789 16.3214 5.92383 16.2447 5.84711C16.168 5.7704 16.0639 5.72729 15.9554 5.72729ZM15.5463 7.36366H13.91V6.54548H15.5463V7.36366Z" fill="black"/>
</svg>
