<svg width="19" height="16" viewBox="0 0 19 16" fill="none" xmlns="http://www.w3.org/2000/svg">
<path d="M17.4581 13.2544C18.2049 13.2544 18.8125 12.6468 18.8125 11.9V8.35414C18.8125 7.60731 18.2049 6.9997 17.4581 6.9997H11.1059C10.3591 6.9997 9.75151 7.60731 9.75151 8.35414V11.9C9.75151 12.6468 10.3591 13.2544 11.1059 13.2544H12.0571V14.3336H9.25309C8.95076 13.0647 8.08863 12.0262 6.95564 11.4733C7.55618 11.0274 7.99351 10.3736 8.16042 9.61934C8.1613 9.61534 8.16225 9.61136 8.16302 9.60732C8.20999 9.39109 8.23495 9.16673 8.23495 8.93664C8.23495 7.19548 6.8184 5.77893 5.07723 5.77893C3.33607 5.77893 1.91952 7.19541 1.91952 8.93657C1.91952 9.97469 2.42314 10.8973 3.19882 11.4732C1.93108 12.0919 1.0022 13.3183 0.817497 14.7954C0.772921 15.1003 1.03303 15.3944 1.34074 15.3882H18.2852C18.5764 15.3882 18.8125 15.1521 18.8125 14.8608C18.8125 14.5696 18.5764 14.3335 18.2852 14.3335H16.5069V13.2543H17.4581V13.2544ZM10.8061 11.9V8.35414C10.8061 8.18884 10.9406 8.05434 11.1059 8.05434H17.4581C17.6234 8.05434 17.7578 8.18884 17.7578 8.35414V11.9C17.7578 12.0653 17.6234 12.1998 17.4581 12.1998H11.1059C10.9406 12.1998 10.8061 12.0653 10.8061 11.9ZM2.97415 8.93657C2.97415 7.77693 3.91759 6.83349 5.07723 6.83349C6.23687 6.83349 7.17926 7.75788 7.17926 8.97816H5.70203C5.41081 8.97816 5.17472 9.21426 5.17472 9.50548C5.17472 9.7967 5.41081 10.0328 5.70203 10.0328H6.87123C6.50116 10.6362 5.83548 11.0397 5.07723 11.0397C3.91759 11.0397 2.97415 10.0963 2.97415 8.93657ZM1.99559 14.3336C2.41977 13.0229 3.65369 12.0943 5.07723 12.0943C6.50074 12.0943 7.73466 13.0229 8.15884 14.3336H1.99559ZM15.4523 14.3336H13.1117V13.2544H15.4523V14.3336Z" fill="#242938"/>
<path d="M13.9465 10.5345C14.2832 10.8168 14.8122 10.566 14.8081 10.1271C14.8145 9.73676 14.3737 9.47183 14.0323 9.66202C13.7054 9.82682 13.6578 10.3094 13.9465 10.5345Z" fill="#242938"/>
<path d="M7.18279 5.29212H8.45292L9.00695 5.92613C9.10711 6.04073 9.25184 6.10647 9.40402 6.10647C9.55621 6.10647 9.70097 6.04073 9.80109 5.92613L10.3551 5.29212H11.6252C12.4444 5.29212 13.1108 4.62569 13.1108 3.80659V1.48552C13.1108 0.666388 12.4444 0 11.6252 0H7.18279C6.36365 0 5.69727 0.666423 5.69727 1.48552V3.80659C5.69727 4.62573 6.36365 5.29212 7.18279 5.29212ZM6.7519 1.48552C6.7519 1.24791 6.94518 1.05463 7.18279 1.05463H11.6252C11.8628 1.05463 12.0561 1.24795 12.0561 1.48552V3.80659C12.0561 4.0442 11.8628 4.23748 11.6252 4.23748H10.1156C9.9634 4.23748 9.81863 4.30322 9.71851 4.41783L9.40402 4.77774L9.08949 4.41783C8.98934 4.30322 8.84461 4.23748 8.69243 4.23748H7.18282C6.94521 4.23748 6.75193 4.04417 6.75193 3.80659L6.7519 1.48552Z" fill="#242938"/>
</svg>
