<svg width="17" height="16" viewBox="0 0 17 16" fill="none" xmlns="http://www.w3.org/2000/svg">
<path d="M14.276 13.8674H2.7255C2.37274 13.8674 2.08594 14.1565 2.08594 14.507V15.3605C2.08594 15.7133 2.375 16 2.7255 16H14.2715C14.6242 16 14.911 15.711 14.911 15.3605V14.507C14.9179 14.1519 14.6288 13.8674 14.276 13.8674Z" fill="#6C7086"/>
<path d="M8.05329 12.7226C8.17848 12.8478 8.34235 12.9115 8.50393 12.9115C8.6678 12.9115 8.83167 12.8478 8.95457 12.7226L13.329 8.34822C13.5771 8.10016 13.5771 7.69504 13.329 7.44239L12.7236 6.83698C12.4755 6.58889 12.0703 6.58889 11.8177 6.83698L9.56908 9.08792V0.63956C9.56908 0.286771 9.28002 0 8.92955 0H8.07605C7.72329 0 7.43648 0.28448 7.43648 0.63956V9.09019L5.18557 6.83925C4.93748 6.59118 4.53009 6.59118 4.27974 6.83925L3.67433 7.44465C3.42626 7.69272 3.42626 8.10013 3.67433 8.35048L8.05329 12.7226Z" fill="#6C7086"/>
</svg>
