<svg width="167" height="159" viewBox="0 0 167 159" fill="none" xmlns="http://www.w3.org/2000/svg">
<path d="M88.2081 159C131.723 159 166.998 123.407 166.998 79.5C166.998 35.5934 131.723 0 88.2081 0C44.6935 0 9.41797 35.5934 9.41797 79.5C9.41797 123.407 44.6935 159 88.2081 159Z" fill="url(#paint0_linear_1424_22042)"/>
<path d="M76.2498 130.641H8.56341C7.79057 130.641 7.16406 131.275 7.16406 132.057V142.752C7.16406 143.533 7.79057 144.167 8.56341 144.167H76.2498C77.0227 144.167 77.6492 143.533 77.6492 142.752V132.057C77.6492 131.275 77.0227 130.641 76.2498 130.641Z" fill="#88A2FF"/>
<path d="M72.3321 119.788H4.39514C3.6915 119.788 3.12109 120.365 3.12109 121.077V129.716C3.12109 130.428 3.6915 131.005 4.39514 131.005H72.3321C73.0358 131.005 73.6062 130.428 73.6062 129.716V121.077C73.6062 120.365 73.0358 119.788 72.3321 119.788Z" fill="#538FFF"/>
<path d="M14.2247 133.477H12.375V141.658H14.2247V133.477Z" fill="#EAEAEA"/>
<path d="M9.76765 122.061H7.91797V129.369H9.76765V122.061Z" fill="#EAEAEA"/>
<path d="M74.5157 95.9087H6.57873C5.8751 95.9087 5.30469 96.4857 5.30469 97.1974V105.837C5.30469 106.548 5.8751 107.125 6.57873 107.125H74.5157C75.2194 107.125 75.7898 106.548 75.7898 105.837V97.1974C75.7898 96.4857 75.2194 95.9087 74.5157 95.9087Z" fill="#88A2FF"/>
<path d="M11.9512 98.1812H10.1016V105.489H11.9512V98.1812Z" fill="#EAEAEA"/>
<path d="M49.9005 98.1812H48.0508V105.489H49.9005V98.1812Z" fill="#EAEAEA"/>
<path d="M81.6352 107.19H10.2291C9.46399 107.19 8.84375 107.817 8.84375 108.591V118.387C8.84375 119.161 9.46399 119.788 10.2291 119.788H81.6352C82.4003 119.788 83.0206 119.161 83.0206 118.387V108.591C83.0206 107.817 82.4003 107.19 81.6352 107.19Z" fill="#435E6D"/>
<path d="M15.4864 109.742H13.6367V117.95H15.4864V109.742Z" fill="#2D4351"/>
<path d="M21.3497 109.742H19.5V117.95H21.3497V109.742Z" fill="#2D4351"/>
<path d="M35.5133 134.396H18.9062V136.267H35.5133V134.396Z" fill="#EAEAEA"/>
<path d="M40.5459 138.723H18.9062V140.594H40.5459V138.723Z" fill="#EAEAEA"/>
<path d="M57.8718 134.396H39.8984V136.267H57.8718V134.396Z" fill="#EAEAEA"/>
<path d="M57.872 138.723H43.0625V140.594H57.872V138.723Z" fill="#EAEAEA"/>
<path d="M64.6397 112.553H26.4648V114.424H64.6397V112.553Z" fill="#2D4351"/>
<path d="M72.7915 83.2463H1.38535C0.620244 83.2463 0 83.8737 0 84.6476V94.4437C0 95.2176 0.620244 95.8449 1.38535 95.8449H72.7915C73.5566 95.8449 74.1768 95.2176 74.1768 94.4437V84.6476C74.1768 83.8737 73.5566 83.2463 72.7915 83.2463Z" fill="#435E6D"/>
<path d="M6.64656 85.7988H4.79688V94.007H6.64656V85.7988Z" fill="#2D4351"/>
<path d="M12.5059 85.7988H10.6562V94.007H12.5059V85.7988Z" fill="#2D4351"/>
<path d="M55.7959 88.6096H17.6211V90.4806H55.7959V88.6096Z" fill="#2D4351"/>
<path d="M44.6644 100.582H15.8359V102.452H44.6644V100.582Z" fill="#EAEAEA"/>
<path d="M57.2992 61.1715C57.2992 63.1171 57.1045 65.017 56.7312 66.8506C55.0354 75.2171 49.6664 82.2273 42.4044 86.0843C38.5486 88.1309 34.1591 89.2896 29.5018 89.2896C14.149 89.2896 1.70312 76.7007 1.70312 61.1715C1.70312 45.6423 14.149 33.0547 29.5018 33.0547C44.8545 33.0547 57.2985 45.6423 57.2985 61.1715H57.2992Z" fill="#538FFF"/>
<path d="M37.1177 54.1309C37.1177 54.1309 28.978 52.7946 22.0977 53.9759C22.0977 53.9759 27.2555 56.1306 30.3055 55.9684C33.3554 55.8063 37.1184 54.1303 37.1184 54.1303L37.1177 54.1309Z" fill="#4468EA"/>
<path d="M30.252 70.3653C30.252 70.3653 29.8189 63.357 30.3958 59.8223C33.6181 59.5038 36.2629 57.1973 37.1184 54.131C35.7394 54.1638 33.98 55.1765 30.787 54.7518C26.7206 54.2108 25.0884 53.588 22.0977 53.9759C22.8482 56.8962 25.215 59.1557 28.174 59.7219C28.6033 61.5896 29.4112 65.9916 28.7337 70.3962C28.7337 70.3962 25.0617 70.5422 22.7344 73.6465H36.1032C36.1032 73.6465 35.3348 71.2847 30.252 70.3646V70.3653Z" fill="white"/>
<path d="M21.1365 74.8554C20.9305 74.8554 20.7339 74.7377 20.6404 74.5363C20.0285 73.2168 19.7188 71.8046 19.7188 70.3389C19.7188 68.0813 20.4903 65.8739 21.8909 64.122C22.9042 62.8552 24.2151 61.8605 25.6831 61.2281C24.2151 60.5957 22.9042 59.6016 21.8909 58.3342C20.4903 56.5823 19.7188 54.3742 19.7188 52.1172C19.7188 51.7512 19.7385 51.3825 19.7785 51.0209C19.8116 50.7173 20.0813 50.4972 20.3828 50.5313C20.6837 50.5648 20.8999 50.8389 20.8669 51.1425C20.8319 51.4636 20.8141 51.7917 20.8141 52.1172C20.8141 56.2496 23.5937 59.7741 27.5742 60.6883C27.8235 60.7456 28.0003 60.9695 28.0003 61.2281C28.0003 61.4867 27.8235 61.7106 27.5742 61.7679C23.5943 62.6821 20.8141 66.2065 20.8141 70.3389C20.8141 71.6411 21.0895 72.8951 21.632 74.066C21.7605 74.3427 21.6422 74.6727 21.3687 74.8027C21.2937 74.8381 21.2148 74.8554 21.1365 74.8554Z" fill="white"/>
<path d="M38.7457 70.8927C38.4435 70.8927 38.198 70.645 38.198 70.3388C38.198 66.2064 35.4184 62.682 31.4379 61.7677C31.1885 61.7105 31.0117 61.4866 31.0117 61.2279C31.0117 60.9693 31.1885 60.7454 31.4379 60.6881C35.4178 59.7746 38.198 56.2495 38.198 52.1171C38.198 50.8149 37.9226 49.561 37.38 48.39C37.2515 48.1134 37.3698 47.7833 37.6433 47.6533C37.9175 47.5234 38.2432 47.643 38.3716 47.9197C38.9835 49.2393 39.2933 50.6515 39.2933 52.1171C39.2933 54.3747 38.5218 56.5821 37.1211 58.334C36.1079 59.6008 34.797 60.5955 33.3289 61.2279C34.797 61.8604 36.1079 62.8544 37.1211 64.1218C38.5218 65.8738 39.2933 68.0818 39.2933 70.3388C39.2933 70.6444 39.0484 70.8927 38.7457 70.8927Z" fill="white"/>
<path d="M20.3535 46.769H38.6544C39.0672 46.769 39.4024 47.1081 39.4024 47.5257V47.94C39.4024 48.3575 39.0672 48.6966 38.6544 48.6966H20.3535C19.9407 48.6966 19.6055 48.3575 19.6055 47.94V47.5257C19.6055 47.1081 19.9407 46.769 20.3535 46.769Z" fill="white"/>
<path d="M38.6544 73.6472H20.3535C19.9404 73.6472 19.6055 73.986 19.6055 74.4038V74.8175C19.6055 75.2354 19.9404 75.5741 20.3535 75.5741H38.6544C39.0675 75.5741 39.4024 75.2354 39.4024 74.8175V74.4038C39.4024 73.986 39.0675 73.6472 38.6544 73.6472Z" fill="white"/>
<path d="M56.7291 66.8505C55.0334 75.217 49.6643 82.2272 42.4023 86.0843V45.5554L56.7291 66.8499V66.8505Z" fill="#3E7ADB"/>
<path d="M127.472 145.545H57.3664C55.5721 145.545 53.9457 144.074 53.7338 142.258L52.8847 134.962L42.4252 45.0897C42.2134 43.2748 43.4964 41.8027 45.292 41.8027H115.398C117.192 41.8027 118.819 43.2748 119.031 45.0897L123.222 81.1002L126.086 105.715L127.064 114.117L130.34 142.258C130.552 144.074 129.267 145.545 127.473 145.545L127.472 145.545Z" fill="white"/>
<path d="M69.8936 71.3249H57.5819C56.2767 71.3249 55.135 70.2936 54.9817 68.9766L53.5321 56.5234C53.4545 55.8555 53.6536 55.1954 54.0785 54.7123C54.5008 54.2317 55.1203 53.9563 55.7787 53.9563H68.0904C69.395 53.9563 70.5373 54.9876 70.6906 56.3046L72.1402 68.7578C72.2178 69.4256 72.0187 70.0857 71.5938 70.5689C71.1715 71.0495 70.552 71.3249 69.8936 71.3249ZM55.778 55.8272C55.6438 55.8272 55.5338 55.8716 55.4606 55.9553C55.3843 56.0421 55.3525 56.1624 55.3691 56.304L56.8186 68.7572C56.8619 69.1278 57.2187 69.4533 57.5819 69.4533H69.8936C70.0278 69.4533 70.1379 69.4089 70.211 69.3253C70.2874 69.2384 70.3192 69.1181 70.3026 68.9766L68.853 56.5234C68.8098 56.1528 68.4529 55.8272 68.0897 55.8272H55.778Z" fill="#435E6D"/>
<path d="M79.6196 55.2058H110.204C110.977 55.2058 111.605 55.8521 111.605 56.6474C111.605 57.4427 110.977 58.089 110.204 58.089H79.6196C78.8468 58.089 78.2188 57.4427 78.2188 56.6474C78.2188 55.8521 78.8468 55.2058 79.6196 55.2058Z" fill="url(#paint1_linear_1424_22042)"/>
<path d="M80.1324 60.9722H101.105C101.635 60.9722 102.065 61.6185 102.065 62.4138C102.065 63.209 101.635 63.8553 101.105 63.8553H80.1324C79.6025 63.8553 79.1719 63.209 79.1719 62.4138C79.1719 61.6185 79.6025 60.9722 80.1324 60.9722Z" fill="url(#paint2_linear_1424_22042)"/>
<path d="M81.8425 66.7385H98.4455C98.865 66.7385 99.2059 67.3848 99.2059 68.1801C99.2059 68.9754 98.865 69.6217 98.4455 69.6217H81.8425C81.423 69.6217 81.082 68.9754 81.082 68.1801C81.082 67.3848 81.423 66.7385 81.8425 66.7385Z" fill="url(#paint3_linear_1424_22042)"/>
<path d="M73.3702 101.195H61.0585C59.7533 101.195 58.6115 100.164 58.4583 98.8472L57.0087 86.394C56.9311 85.7261 57.1301 85.066 57.5544 84.5829C57.9767 84.1023 58.5963 83.8269 59.2546 83.8269H71.5663C72.8715 83.8269 74.0133 84.8582 74.1666 86.1752L75.6161 98.6284C75.6937 99.2962 75.4947 99.9564 75.0698 100.44C74.6474 100.92 74.0279 101.195 73.3696 101.195H73.3702ZM59.2546 85.6985C59.1204 85.6985 59.0104 85.7429 58.9372 85.8265C58.8609 85.9134 58.8291 86.0337 58.8456 86.1752L60.2952 98.6284C60.3385 98.999 60.6953 99.3246 61.0585 99.3246H73.3702C73.5044 99.3246 73.6144 99.2802 73.6876 99.1965C73.7639 99.1097 73.7957 98.9894 73.7792 98.8478L72.3296 86.3946C72.2863 86.024 71.9295 85.6985 71.5663 85.6985H59.2546Z" fill="#435E6D"/>
<path d="M83.4321 84.9985H114.017C114.789 84.9985 115.417 85.6448 115.417 86.4401C115.417 87.2354 114.789 87.8817 114.017 87.8817H83.4321C82.6593 87.8817 82.0312 87.2354 82.0312 86.4401C82.0312 85.6448 82.6593 84.9985 83.4321 84.9985Z" fill="url(#paint4_linear_1424_22042)"/>
<path d="M83.9449 90.7649H104.917C105.447 90.7649 105.878 91.4112 105.878 92.2065C105.878 93.0018 105.447 93.6481 104.917 93.6481H83.9449C83.415 93.6481 82.9844 93.0018 82.9844 92.2065C82.9844 91.4112 83.415 90.7649 83.9449 90.7649Z" fill="url(#paint5_linear_1424_22042)"/>
<path d="M85.655 96.5312H102.258C102.677 96.5312 103.018 97.1776 103.018 97.9728C103.018 98.7681 102.677 99.4144 102.258 99.4144H85.655C85.2355 99.4144 84.8945 98.7681 84.8945 97.9728C84.8945 97.1776 85.2355 96.5312 85.655 96.5312Z" fill="url(#paint6_linear_1424_22042)"/>
<path d="M76.8507 131.067H64.539C63.2338 131.067 62.092 130.035 61.9387 128.718L60.4891 116.265C60.4115 115.597 60.6106 114.937 61.0349 114.454C61.4572 113.973 62.0768 113.698 62.7351 113.698H75.0468C76.352 113.698 77.4937 114.729 77.647 116.046L79.0966 128.5C79.1742 129.167 78.9751 129.827 78.5502 130.311C78.1279 130.791 77.5084 131.067 76.85 131.067H76.8507ZM62.7351 115.569C62.6009 115.569 62.4908 115.613 62.417 115.697C62.3407 115.784 62.3096 115.904 62.3255 116.046L63.775 128.499C63.8183 128.869 64.1751 129.195 64.5383 129.195H76.85C76.9842 129.195 77.0943 129.151 77.1681 129.067C77.2444 128.98 77.2756 128.86 77.2597 128.718L75.8101 116.265C75.7668 115.894 75.41 115.569 75.0468 115.569H62.7351Z" fill="#435E6D"/>
<path d="M86.2993 114.792H116.884C117.656 114.792 118.285 115.438 118.285 116.233C118.285 117.028 117.656 117.675 116.884 117.675H86.2993C85.5265 117.675 84.8984 117.028 84.8984 116.233C84.8984 115.438 85.5265 114.792 86.2993 114.792Z" fill="url(#paint7_linear_1424_22042)"/>
<path d="M86.8121 120.558H107.784C108.314 120.558 108.745 121.204 108.745 121.999C108.745 122.795 108.314 123.441 107.784 123.441H86.8121C86.2822 123.441 85.8516 122.795 85.8516 121.999C85.8516 121.204 86.2822 120.558 86.8121 120.558Z" fill="url(#paint8_linear_1424_22042)"/>
<path d="M88.5222 126.324H105.125C105.545 126.324 105.886 126.97 105.886 127.766C105.886 128.561 105.545 129.207 105.125 129.207H88.5222C88.1027 129.207 87.7617 128.561 87.7617 127.766C87.7617 126.97 88.1027 126.324 88.5222 126.324Z" fill="url(#paint9_linear_1424_22042)"/>
<g style="mix-blend-mode:multiply" opacity="0.24">
<path d="M63.2867 66.5606L59.3438 63.536L60.9091 61.9926L63.2168 63.7625L73.3111 55.7827L74.9547 57.3371L63.2867 66.5606Z" fill="#003889"/>
</g>
<g style="mix-blend-mode:multiply" opacity="0.24">
<path d="M66.8336 96.9207L62.8906 93.902L64.4566 92.3611L66.7643 94.1278L76.8599 86.1628L78.5029 87.714L66.8336 96.9207Z" fill="#003889"/>
</g>
<path d="M63.2883 66.5605L59.0234 63.0316L60.4253 61.2308L62.9206 63.2954L72.1671 53.9851L73.9755 55.7981L63.2883 66.5605Z" fill="#538FFF"/>
<path d="M66.8234 96.9209L62.5586 93.392L63.9605 91.5912L66.4564 93.6564L75.7023 84.3455L77.5113 86.1591L66.8234 96.9209Z" fill="#538FFF"/>
<g style="mix-blend-mode:multiply" opacity="0.25">
<path d="M127.066 114.117L117.109 122.382L110.102 128.196L99.4095 137.072L93.2072 138.01C92.9426 138.05 92.7321 137.79 92.8218 137.535L94.9431 131.565L99.0024 128.196L106.007 122.382L126.088 105.714L127.066 114.116V114.117Z" fill="#254BB7"/>
</g>
<path d="M131.637 92.0205L93.6328 131.467L98.6761 136.438L136.68 96.9916L131.637 92.0205Z" fill="#538FFF"/>
<path d="M139.718 95.6285L132.895 88.9026L128.585 93.3762L135.408 100.102L139.718 95.6285Z" fill="#2D4351"/>
<path d="M93.6307 131.463L92.178 137.634C92.1156 137.898 92.3548 138.133 92.6137 138.063L98.6741 136.435L93.6307 131.463Z" fill="#2D4351"/>
<path d="M134.518 99.225L131.996 96.7393L96.1468 133.949L98.6687 136.435L134.518 99.225Z" fill="#3E7ADB"/>
<path d="M151.879 111.602C153.486 111.602 154.789 110.284 154.789 108.659C154.789 107.033 153.486 105.715 151.879 105.715C150.272 105.715 148.969 107.033 148.969 108.659C148.969 110.284 150.272 111.602 151.879 111.602Z" fill="#F0F0FF"/>
<defs>
<linearGradient id="paint0_linear_1424_22042" x1="88.2081" y1="0" x2="88.2081" y2="159" gradientUnits="userSpaceOnUse">
<stop stop-color="white" stop-opacity="0"/>
<stop offset="1" stop-color="#D9E8FF"/>
</linearGradient>
<linearGradient id="paint1_linear_1424_22042" x1="78.2188" y1="56.6474" x2="111.605" y2="56.6474" gradientUnits="userSpaceOnUse">
<stop stop-color="#94BAFF"/>
<stop offset="1" stop-color="#94BAFF" stop-opacity="0"/>
</linearGradient>
<linearGradient id="paint2_linear_1424_22042" x1="79.1719" y1="62.4138" x2="102.065" y2="62.4138" gradientUnits="userSpaceOnUse">
<stop stop-color="#94BAFF"/>
<stop offset="1" stop-color="#94BAFF" stop-opacity="0"/>
</linearGradient>
<linearGradient id="paint3_linear_1424_22042" x1="81.082" y1="68.1801" x2="99.2059" y2="68.1801" gradientUnits="userSpaceOnUse">
<stop stop-color="#94BAFF"/>
<stop offset="1" stop-color="#94BAFF" stop-opacity="0"/>
</linearGradient>
<linearGradient id="paint4_linear_1424_22042" x1="82.0312" y1="86.4401" x2="115.417" y2="86.4401" gradientUnits="userSpaceOnUse">
<stop stop-color="#94BAFF"/>
<stop offset="1" stop-color="#94BAFF" stop-opacity="0"/>
</linearGradient>
<linearGradient id="paint5_linear_1424_22042" x1="82.9844" y1="92.2065" x2="105.878" y2="92.2065" gradientUnits="userSpaceOnUse">
<stop stop-color="#94BAFF"/>
<stop offset="1" stop-color="#94BAFF" stop-opacity="0"/>
</linearGradient>
<linearGradient id="paint6_linear_1424_22042" x1="84.8945" y1="97.9728" x2="103.018" y2="97.9728" gradientUnits="userSpaceOnUse">
<stop stop-color="#94BAFF"/>
<stop offset="1" stop-color="#94BAFF" stop-opacity="0"/>
</linearGradient>
<linearGradient id="paint7_linear_1424_22042" x1="84.8984" y1="116.233" x2="118.285" y2="116.233" gradientUnits="userSpaceOnUse">
<stop stop-color="#94BAFF"/>
<stop offset="1" stop-color="#94BAFF" stop-opacity="0"/>
</linearGradient>
<linearGradient id="paint8_linear_1424_22042" x1="85.8516" y1="121.999" x2="108.745" y2="121.999" gradientUnits="userSpaceOnUse">
<stop stop-color="#94BAFF"/>
<stop offset="1" stop-color="#94BAFF" stop-opacity="0"/>
</linearGradient>
<linearGradient id="paint9_linear_1424_22042" x1="87.7617" y1="127.766" x2="105.886" y2="127.766" gradientUnits="userSpaceOnUse">
<stop stop-color="#94BAFF"/>
<stop offset="1" stop-color="#94BAFF" stop-opacity="0"/>
</linearGradient>
</defs>
</svg>
