<svg width="24" height="24" viewBox="0 0 24 24" fill="none" xmlns="http://www.w3.org/2000/svg">
<path d="M4.50763 17.1818H19.4933C19.9097 17.1818 20.1458 16.5379 19.9006 16.169C19.3329 15.3147 18.7814 14.0555 18.7814 12.537L18.8058 10.4599C18.8058 6.33993 15.7588 3 12 3C8.29581 3 5.29296 6.29145 5.29296 10.3517L5.26855 12.537C5.26855 14.0451 4.69736 15.2975 4.10557 16.1514C3.85054 16.5194 4.08602 17.1818 4.50763 17.1818Z" fill="#9A9DAC"/>
<path d="M9.33333 20.0909C10.041 20.6562 10.9755 21 12 21C13.0245 21 13.959 20.6562 14.6667 20.0909M4.50763 17.1818C4.08602 17.1818 3.85054 16.5194 4.10557 16.1514C4.69736 15.2975 5.26855 14.0451 5.26855 12.537L5.29296 10.3517C5.29296 6.29145 8.29581 3 12 3C15.7588 3 18.8058 6.33993 18.8058 10.4599L18.7814 12.537C18.7814 14.0555 19.3329 15.3147 19.9006 16.169C20.1458 16.5379 19.9097 17.1818 19.4933 17.1818H4.50763Z" stroke="#9A9DAC" stroke-width="2" stroke-linecap="round" stroke-linejoin="round"/>
</svg>
