<svg width="24" height="24" viewBox="0 0 24 24" fill="none" xmlns="http://www.w3.org/2000/svg">
<path d="M7.36657 2.52637C6.75239 2.52637 6.16335 2.7759 5.72906 3.22006C5.29477 3.66423 5.05078 4.26664 5.05078 4.89479V19.1053C5.05078 19.7335 5.29477 20.3359 5.72906 20.78C6.16335 21.2242 6.75239 21.4737 7.36657 21.4737H18.3666C18.5201 21.4737 18.6674 21.4114 18.7759 21.3003C18.8845 21.1893 18.9455 21.0387 18.9455 20.8816C18.9455 20.7246 18.8845 20.574 18.7759 20.4629C18.6674 20.3519 18.5201 20.2895 18.3666 20.2895H7.36657C7.05948 20.2895 6.76496 20.1648 6.54782 19.9427C6.33067 19.7206 6.20868 19.4194 6.20868 19.1053H17.7876C18.0947 19.1053 18.3892 18.9806 18.6064 18.7585C18.8235 18.5364 18.9455 18.2352 18.9455 17.9211V4.89479C18.9455 4.26664 18.7015 3.66423 18.2672 3.22006C17.8329 2.7759 17.2439 2.52637 16.6297 2.52637H7.36657ZM8.23499 5.48689H15.7613C15.9916 5.48689 16.2125 5.58047 16.3754 5.74703C16.5382 5.91359 16.6297 6.1395 16.6297 6.37505C16.6297 6.61061 16.5382 6.83651 16.3754 7.00307C16.2125 7.16964 15.9916 7.26321 15.7613 7.26321H8.23499C8.00467 7.26321 7.78379 7.16964 7.62093 7.00307C7.45806 6.83651 7.36657 6.61061 7.36657 6.37505C7.36657 6.1395 7.45806 5.91359 7.62093 5.74703C7.78379 5.58047 8.00467 5.48689 8.23499 5.48689Z" fill="#235CD0"/>
</svg>
