<svg width="32" height="32" viewBox="0 0 32 32" fill="none" xmlns="http://www.w3.org/2000/svg">
<path d="M18.9861 7.97485C14.5611 7.97485 10.9609 11.5749 10.9609 16C10.9609 20.425 14.5611 24.0251 18.9861 24.0251C23.4112 24.0251 27.0112 20.425 27.0112 16C27.0112 11.5749 23.4112 7.97485 18.9861 7.97485ZM22.7704 16.9375H18.0486V10.3568H19.9236V15.0625H22.7704V16.9375Z" fill="#F44336"/>
<path d="M19.0234 2.9876C16.1684 2.97991 13.5273 3.89228 11.3784 5.44397H4.28275C3.16406 5.44397 2.25725 6.35085 2.25725 7.46947C2.25725 8.58816 3.16412 9.49497 4.28275 9.49497H7.71556C7.0615 10.626 6.57331 11.8647 6.28288 13.1777H2.0255C0.906875 13.1778 0 14.0846 0 15.2033C0 16.322 0.906875 17.2288 2.0255 17.2288H6.03325C6.15425 18.5206 6.46413 19.7573 6.935 20.9115H5.48825C4.36956 20.9115 3.46275 21.8184 3.46275 22.937C3.46275 24.0557 4.36962 24.9625 5.48825 24.9625H9.55412C11.9249 27.457 15.2745 29.0123 18.9876 29.0123C26.1741 29.0124 32 23.1866 32 16C32 8.81047 26.2129 3.00697 19.0234 2.9876ZM18.9876 25.9001C13.5286 25.9001 9.08744 21.4589 9.08744 16C9.08744 10.541 13.5286 6.09985 18.9876 6.09985C24.4465 6.09985 28.8877 10.541 28.8877 16C28.8877 21.4589 24.4465 25.9001 18.9876 25.9001Z" fill="#F44336"/>
</svg>
