<svg width="24" height="24" viewBox="0 0 24 24" fill="none" xmlns="http://www.w3.org/2000/svg">
<path d="M19.879 15.3151L8.41635 16.7479L5.77754 7.00462H21.5984L19.879 15.3151Z" fill="#235CD0"/>
<path d="M11.9984 20.4999C11.9984 21.3284 11.3269 21.9999 10.4984 21.9999C9.67001 21.9999 8.99844 21.3284 8.99844 20.4999C8.99844 19.6715 9.67001 18.9999 10.4984 18.9999C11.3269 18.9999 11.9984 19.6715 11.9984 20.4999Z" fill="#235CD0"/>
<path d="M19.9984 20.4999C19.9984 21.3284 19.3269 21.9999 18.4984 21.9999C17.67 21.9999 16.9984 21.3284 16.9984 20.4999C16.9984 19.6715 17.67 18.9999 18.4984 18.9999C19.3269 18.9999 19.9984 19.6715 19.9984 20.4999Z" fill="#235CD0"/>
<path d="M2.39844 1.99268C1.84615 1.99268 1.39844 2.44039 1.39844 2.99268C1.39844 3.54496 1.84615 3.99268 2.39844 3.99268V1.99268ZM4.69097 2.99268L5.6562 2.73126C5.53814 2.29536 5.14258 1.99268 4.69097 1.99268V2.99268ZM8.41635 16.7479L7.45112 17.0093C7.58139 17.4903 8.04591 17.802 8.54038 17.7402L8.41635 16.7479ZM19.879 15.3151L20.0031 16.3073C20.4278 16.2543 20.7716 15.9368 20.8583 15.5177L19.879 15.3151ZM21.5984 7.00462L22.5777 7.20722C22.6386 6.91271 22.5638 6.60641 22.3739 6.37319C22.184 6.13998 21.8992 6.00462 21.5984 6.00462V7.00462ZM5.77754 7.00462L4.81231 7.26603L5.77754 7.00462ZM2.39844 3.99268H4.69097V1.99268H2.39844V3.99268ZM8.54038 17.7402L20.0031 16.3073L19.755 14.3228L8.29231 15.7556L8.54038 17.7402ZM20.8583 15.5177L22.5777 7.20722L20.6192 6.80201L18.8998 15.1125L20.8583 15.5177ZM3.72575 3.25409L4.81231 7.26603L6.74277 6.7432L5.6562 2.73126L3.72575 3.25409ZM4.81231 7.26603L7.45112 17.0093L9.38157 16.4865L6.74277 6.7432L4.81231 7.26603ZM21.5984 6.00462H5.77754V8.00462H21.5984V6.00462ZM10.9984 20.4999C10.9984 20.7761 10.7746 20.9999 10.4984 20.9999V22.9999C11.8791 22.9999 12.9984 21.8807 12.9984 20.4999H10.9984ZM10.4984 20.9999C10.2223 20.9999 9.99844 20.7761 9.99844 20.4999H7.99844C7.99844 21.8807 9.11773 22.9999 10.4984 22.9999V20.9999ZM9.99844 20.4999C9.99844 20.2238 10.2223 19.9999 10.4984 19.9999V17.9999C9.11773 17.9999 7.99844 19.1192 7.99844 20.4999H9.99844ZM10.4984 19.9999C10.7746 19.9999 10.9984 20.2238 10.9984 20.4999H12.9984C12.9984 19.1192 11.8791 17.9999 10.4984 17.9999V19.9999ZM18.9984 20.4999C18.9984 20.7761 18.7746 20.9999 18.4984 20.9999V22.9999C19.8792 22.9999 20.9984 21.8807 20.9984 20.4999H18.9984ZM18.4984 20.9999C18.2223 20.9999 17.9984 20.7761 17.9984 20.4999H15.9984C15.9984 21.8807 17.1177 22.9999 18.4984 22.9999V20.9999ZM17.9984 20.4999C17.9984 20.2238 18.2223 19.9999 18.4984 19.9999V17.9999C17.1177 17.9999 15.9984 19.1192 15.9984 20.4999H17.9984ZM18.4984 19.9999C18.7746 19.9999 18.9984 20.2238 18.9984 20.4999H20.9984C20.9984 19.1192 19.8792 17.9999 18.4984 17.9999V19.9999Z" fill="#235CD0"/>
</svg>
