<svg width="16" height="16" viewBox="0 0 16 16" fill="none" xmlns="http://www.w3.org/2000/svg">
<path d="M2.725 5.67L6.83 7.725C7.19 7.905 7.595 8 8 8C8.405 8 8.81 7.905 9.17 7.725L13.275 5.67C13.725 5.445 14 5.00001 14 4.50001C14 4.00001 13.725 3.555 13.275 3.33L9.17 1.275C8.445 0.915005 7.555 0.915005 6.83 1.275L2.725 3.33C2.275 3.555 2 4.00001 2 4.50001C2 5.00001 2.275 5.445 2.725 5.67Z" fill="#50556F"/>
<path d="M12.445 11.595C12.34 11.525 12.205 11.55 12.12 11.645C11.115 12.785 9.64 13.5 8 13.5C6.36 13.5 4.885 12.785 3.88 11.645C3.8 11.55 3.66 11.525 3.555 11.595C2.615 12.22 2 13.29 2 14.505C2 14.78 2.225 15 2.495 15H13.5C13.775 15 13.995 14.78 13.995 14.505C14 13.29 13.385 12.22 12.445 11.595Z" fill="#50556F"/>
<path d="M9.38557 8.73495C9.37057 8.73495 9.35557 8.73995 9.34057 8.74495C8.91557 8.91495 8.46057 8.99995 8.00057 8.99995C7.44057 8.99995 6.88057 8.86995 6.38557 8.61995L3.88557 7.36995C3.72557 7.28995 3.54057 7.39995 3.52057 7.57495C3.51057 7.68995 3.50557 7.80995 3.50057 7.92495C3.46557 10.1 5.04557 12.05 7.18557 12.43C8.65057 12.685 10.0206 12.225 11.0006 11.345C11.9256 10.51 12.5006 9.28995 12.5006 7.98995V7.92495C12.4956 7.80995 12.4906 7.68995 12.4806 7.57495C12.4606 7.39995 12.2756 7.28995 12.1156 7.36995L10.6406 8.10995C10.5556 8.15495 10.5006 8.23995 10.5006 8.33495V9.49995C10.5006 9.77495 10.2756 9.99995 10.0006 9.99995C9.72557 9.99995 9.50057 9.77495 9.50057 9.49995V8.84996C9.50057 8.78496 9.45057 8.73495 9.38557 8.73495Z" fill="#50556F"/>
</svg>
