<svg width="16" height="16" viewBox="0 0 16 16" fill="none" xmlns="http://www.w3.org/2000/svg">
<path d="M10.6667 1.49996C10.6667 1.03972 10.2936 0.666626 9.83333 0.666626C9.3731 0.666626 9 1.03972 9 1.49996V2.49996C9 2.9602 9.3731 3.33329 9.83333 3.33329C10.2936 3.33329 10.6667 2.9602 10.6667 2.49996V1.49996Z" fill="#235CD0"/>
<path d="M11.3346 1.66663V2.49996C11.3346 2.89778 11.1766 3.27931 10.8953 3.56062C10.614 3.84192 10.2325 3.99996 9.83464 3.99996C9.43681 3.99996 9.05528 3.84192 8.77398 3.56062C8.49267 3.27931 8.33464 2.89778 8.33464 2.49996V1.66663H5.33464V2.49996C5.33464 2.89778 5.1766 3.27931 4.8953 3.56062C4.61399 3.84192 4.23246 3.99996 3.83464 3.99996C3.43681 3.99996 3.05528 3.84192 2.77398 3.56062C2.49267 3.27931 2.33464 2.89778 2.33464 2.49996V1.66663C1.89261 1.66663 1.46868 1.84222 1.15612 2.15478C0.843563 2.46734 0.667969 2.89127 0.667969 3.33329V4.99996H13.0013V3.33329C13.0013 2.89127 12.8257 2.46734 12.5131 2.15478C12.2006 1.84222 11.7767 1.66663 11.3346 1.66663Z" fill="#235CD0"/>
<path d="M4.66667 1.49996C4.66667 1.03972 4.29357 0.666626 3.83333 0.666626C3.3731 0.666626 3 1.03972 3 1.49996V2.49996C3 2.9602 3.3731 3.33329 3.83333 3.33329C4.29357 3.33329 4.66667 2.9602 4.66667 2.49996V1.49996Z" fill="#235CD0"/>
<path d="M8.0013 12C8.00105 11.3396 8.16448 10.6895 8.47697 10.1078C8.78946 9.52615 9.24126 9.03097 9.79197 8.66663H9.33464C9.15782 8.66663 8.98826 8.59639 8.86323 8.47136C8.73821 8.34634 8.66797 8.17677 8.66797 7.99996V7.33329C8.66797 7.15648 8.73821 6.98691 8.86323 6.86189C8.98826 6.73686 9.15782 6.66663 9.33464 6.66663H10.0013C10.1781 6.66663 10.3477 6.73686 10.4727 6.86189C10.5977 6.98691 10.668 7.15648 10.668 7.33329V7.99996C10.6679 8.08595 10.651 8.1711 10.6183 8.25063C11.3808 7.96382 12.2139 7.92199 13.0013 8.13096V5.66663H0.667969V12C0.667969 12.2188 0.711078 12.4356 0.794836 12.6378C0.878594 12.84 1.00136 13.0237 1.15612 13.1785C1.31089 13.3332 1.49462 13.456 1.69683 13.5398C1.89904 13.6235 2.11577 13.6666 2.33464 13.6666H8.36797C8.12654 13.1442 8.00143 12.5755 8.0013 12ZM4.66797 11.3333C4.66797 11.5101 4.59773 11.6797 4.47271 11.8047C4.34768 11.9297 4.17811 12 4.0013 12H3.33464C3.15782 12 2.98826 11.9297 2.86323 11.8047C2.73821 11.6797 2.66797 11.5101 2.66797 11.3333V10.6666C2.66797 10.4898 2.73821 10.3202 2.86323 10.1952C2.98826 10.0702 3.15782 9.99996 3.33464 9.99996H4.0013C4.17811 9.99996 4.34768 10.0702 4.47271 10.1952C4.59773 10.3202 4.66797 10.4898 4.66797 10.6666V11.3333ZM4.66797 7.99996C4.66797 8.17677 4.59773 8.34634 4.47271 8.47136C4.34768 8.59639 4.17811 8.66663 4.0013 8.66663H3.33464C3.15782 8.66663 2.98826 8.59639 2.86323 8.47136C2.73821 8.34634 2.66797 8.17677 2.66797 7.99996V7.33329C2.66797 7.15648 2.73821 6.98691 2.86323 6.86189C2.98826 6.73686 3.15782 6.66663 3.33464 6.66663H4.0013C4.17811 6.66663 4.34768 6.73686 4.47271 6.86189C4.59773 6.98691 4.66797 7.15648 4.66797 7.33329V7.99996ZM7.66797 11.3333C7.66797 11.5101 7.59773 11.6797 7.47271 11.8047C7.34768 11.9297 7.17811 12 7.0013 12H6.33464C6.15782 12 5.98826 11.9297 5.86323 11.8047C5.73821 11.6797 5.66797 11.5101 5.66797 11.3333V10.6666C5.66797 10.4898 5.73821 10.3202 5.86323 10.1952C5.98826 10.0702 6.15782 9.99996 6.33464 9.99996H7.0013C7.17811 9.99996 7.34768 10.0702 7.47271 10.1952C7.59773 10.3202 7.66797 10.4898 7.66797 10.6666V11.3333ZM7.66797 7.99996C7.66797 8.17677 7.59773 8.34634 7.47271 8.47136C7.34768 8.59639 7.17811 8.66663 7.0013 8.66663H6.33464C6.15782 8.66663 5.98826 8.59639 5.86323 8.47136C5.73821 8.34634 5.66797 8.17677 5.66797 7.99996V7.33329C5.66797 7.15648 5.73821 6.98691 5.86323 6.86189C5.98826 6.73686 6.15782 6.66663 6.33464 6.66663H7.0013C7.17811 6.66663 7.34768 6.73686 7.47271 6.86189C7.59773 6.98691 7.66797 7.15648 7.66797 7.33329V7.99996Z" fill="#235CD0"/>
<path d="M12.0013 8.66663C11.342 8.66663 10.6976 8.86212 10.1494 9.22839C9.60124 9.59467 9.174 10.1153 8.92171 10.7243C8.66941 11.3334 8.6034 12.0037 8.73202 12.6503C8.86064 13.2969 9.17811 13.8908 9.64428 14.357C10.1105 14.8232 10.7044 15.1406 11.351 15.2692C11.9976 15.3979 12.6678 15.3319 13.2769 15.0796C13.886 14.8273 14.4066 14.4 14.7729 13.8519C15.1391 13.3037 15.3346 12.6592 15.3346 12C15.3346 11.5622 15.2484 11.1288 15.0809 10.7243C14.9134 10.3199 14.6679 9.95247 14.3583 9.64294C14.0488 9.33341 13.6813 9.08788 13.2769 8.92036C12.8725 8.75284 12.439 8.66663 12.0013 8.66663ZM13.237 13.2356C13.1745 13.2981 13.0897 13.3332 13.0013 13.3332C12.9129 13.3332 12.8281 13.2981 12.7656 13.2356L11.7656 12.2356C11.7031 12.1731 11.668 12.0884 11.668 12V9.99996C11.668 9.91155 11.7031 9.82677 11.7656 9.76426C11.8281 9.70174 11.9129 9.66663 12.0013 9.66663C12.0897 9.66663 12.1745 9.70174 12.237 9.76426C12.2995 9.82677 12.3346 9.91155 12.3346 9.99996V11.862L13.237 12.7643C13.2995 12.8268 13.3346 12.9116 13.3346 13C13.3346 13.0883 13.2995 13.1731 13.237 13.2356Z" fill="#235CD0"/>
</svg>
