<svg width="50" height="50" viewBox="0 0 50 50" fill="none" xmlns="http://www.w3.org/2000/svg">
<rect width="50" height="50" rx="6" fill="#FEECEB"/>
<path d="M38.0544 11.0078H23.9956C22.3687 11.0078 21.05 12.3267 21.05 13.9534V20.8784C21.7932 21.2478 22.5962 21.6472 23.3457 22.0198L24.4924 19.7253C25.1868 18.3379 26.8794 17.7742 28.2664 18.4673C29.6562 19.1628 30.2195 20.8508 29.5237 22.241L27.4795 26.3303C27.5337 26.8716 27.4856 27.4172 27.333 27.9453H28.6826L25.123 37.7334C24.9119 38.314 25.3201 38.9915 26.0044 38.9915C26.387 38.9915 26.7468 38.7554 26.885 38.374L30.6775 27.9453H31.3345L35.1655 38.3772C35.3049 38.7566 35.6638 38.9915 36.0461 38.9915C36.6855 38.9915 37.1543 38.3528 36.9255 37.731L33.3318 27.9453H38.0544C39.6812 27.9453 41 26.6265 41 24.9998V13.9534C41 12.3267 39.6812 11.0078 38.0544 11.0078ZM36.0457 23.929H31.8394C31.3218 23.929 30.9019 23.509 30.9019 22.9915C30.9019 22.4734 31.3218 22.054 31.8394 22.054H36.0457C36.5637 22.054 36.9832 22.4734 36.9832 22.9915C36.9832 23.509 36.5637 23.929 36.0457 23.929ZM36.0457 20.4141H31.8394C31.3218 20.4141 30.9019 19.9946 30.9019 19.4766C30.9019 18.959 31.3218 18.5391 31.8394 18.5391H36.0457C36.5637 18.5391 36.9832 18.959 36.9832 19.4766C36.9832 19.9946 36.5637 20.4141 36.0457 20.4141ZM36.0457 16.8997H26.0044C25.4863 16.8997 25.0669 16.4797 25.0669 15.9622C25.0669 15.4446 25.4863 15.0247 26.0044 15.0247H36.0457C36.5637 15.0247 36.9832 15.4446 36.9832 15.9622C36.9832 16.4797 36.5637 16.8997 36.0457 16.8997Z" fill="#F44336"/>
<path d="M25.4951 27.5432C25.6646 27.0469 25.6633 26.5283 25.5203 26.0552L27.8469 21.4023C28.0784 20.9392 27.8909 20.376 27.4277 20.1445C26.9648 19.9128 26.4016 20.1006 26.1699 20.5637L24.1855 24.532C22.9995 23.9414 21.1975 23.0454 19.7458 22.3235C18.3953 21.6519 17.4314 21.0496 15.7869 21.0496H14.9585C16.239 21.0496 17.3818 20.4602 18.1299 19.5378C18.7007 18.8359 19.042 17.9414 19.042 16.9666C19.042 14.7109 17.2139 12.8828 14.958 12.8828C12.7031 12.8828 10.875 14.7109 10.875 16.9666C10.875 18.0498 11.2969 19.0342 11.9851 19.7646C12.7292 20.5559 13.7869 21.0493 14.9585 21.0496C13.3877 21.0496 11.8513 21.6863 10.7466 22.7939C9.62036 23.9172 9 25.4138 9 27.0081V30.0205C9 31.3174 9.84204 32.4209 11.0083 32.8135V38.0537C11.0083 38.5715 11.428 38.9912 11.9458 38.9912H17.9707C18.4885 38.9912 18.9082 38.5715 18.9082 38.0537V27.5203C19.7971 27.9646 20.9648 28.5483 21.9097 29.021C22.572 29.3521 23.3459 29.3818 24.0361 29.1011C24.7244 28.8179 25.2549 28.2542 25.4915 27.5542C25.4927 27.5505 25.4939 27.5469 25.4951 27.5432Z" fill="#F44336"/>
</svg>
