<svg width="16" height="16" viewBox="0 0 16 16" fill="none" xmlns="http://www.w3.org/2000/svg">
<g clip-path="url(#clip0_11590_61572)">
<path d="M10.6667 1.49996C10.6667 1.03972 10.2936 0.666626 9.83333 0.666626C9.3731 0.666626 9 1.03972 9 1.49996V2.49996C9 2.9602 9.3731 3.33329 9.83333 3.33329C10.2936 3.33329 10.6667 2.9602 10.6667 2.49996V1.49996Z" fill="#6C7086"/>
<path d="M11.3307 1.66663V2.49996C11.3307 2.89778 11.1727 3.27931 10.8914 3.56062C10.6101 3.84192 10.2286 3.99996 9.83073 3.99996C9.4329 3.99996 9.05137 3.84192 8.77007 3.56062C8.48876 3.27931 8.33073 2.89778 8.33073 2.49996V1.66663H5.33073V2.49996C5.33073 2.89778 5.17269 3.27931 4.89139 3.56062C4.61008 3.84192 4.22855 3.99996 3.83073 3.99996C3.4329 3.99996 3.05137 3.84192 2.77007 3.56062C2.48876 3.27931 2.33073 2.89778 2.33073 2.49996V1.66663C1.8887 1.66663 1.46478 1.84222 1.15222 2.15478C0.839657 2.46734 0.664063 2.89127 0.664062 3.33329V4.99996H12.9974V3.33329C12.9974 2.89127 12.8218 2.46734 12.5092 2.15478C12.1967 1.84222 11.7728 1.66663 11.3307 1.66663Z" fill="#6C7086"/>
<path d="M4.66667 1.49996C4.66667 1.03972 4.29357 0.666626 3.83333 0.666626C3.3731 0.666626 3 1.03972 3 1.49996V2.49996C3 2.9602 3.3731 3.33329 3.83333 3.33329C4.29357 3.33329 4.66667 2.9602 4.66667 2.49996V1.49996Z" fill="#6C7086"/>
<path d="M7.9974 12C7.99714 11.3396 8.16057 10.6895 8.47306 10.1078C8.78555 9.52615 9.23736 9.03097 9.78806 8.66663H9.33073C9.15392 8.66663 8.98435 8.59639 8.85933 8.47136C8.7343 8.34634 8.66406 8.17677 8.66406 7.99996V7.33329C8.66406 7.15648 8.7343 6.98691 8.85933 6.86189C8.98435 6.73686 9.15392 6.66663 9.33073 6.66663H9.9974C10.1742 6.66663 10.3438 6.73686 10.4688 6.86189C10.5938 6.98691 10.6641 7.15648 10.6641 7.33329V7.99996C10.664 8.08595 10.6471 8.1711 10.6144 8.25063C11.3769 7.96382 12.21 7.92199 12.9974 8.13096V5.66663H0.664062V12C0.664063 12.2188 0.707172 12.4356 0.79093 12.6378C0.874688 12.84 0.997454 13.0237 1.15222 13.1785C1.30698 13.3332 1.49071 13.456 1.69292 13.5398C1.89513 13.6235 2.11186 13.6666 2.33073 13.6666H8.36406C8.12263 13.1442 7.99753 12.5755 7.9974 12ZM4.66406 11.3333C4.66406 11.5101 4.59382 11.6797 4.4688 11.8047C4.34378 11.9297 4.17421 12 3.9974 12H3.33073C3.15392 12 2.98435 11.9297 2.85932 11.8047C2.7343 11.6797 2.66406 11.5101 2.66406 11.3333V10.6666C2.66406 10.4898 2.7343 10.3202 2.85932 10.1952C2.98435 10.0702 3.15392 9.99996 3.33073 9.99996H3.9974C4.17421 9.99996 4.34378 10.0702 4.4688 10.1952C4.59382 10.3202 4.66406 10.4898 4.66406 10.6666V11.3333ZM4.66406 7.99996C4.66406 8.17677 4.59382 8.34634 4.4688 8.47136C4.34378 8.59639 4.17421 8.66663 3.9974 8.66663H3.33073C3.15392 8.66663 2.98435 8.59639 2.85932 8.47136C2.7343 8.34634 2.66406 8.17677 2.66406 7.99996V7.33329C2.66406 7.15648 2.7343 6.98691 2.85932 6.86189C2.98435 6.73686 3.15392 6.66663 3.33073 6.66663H3.9974C4.17421 6.66663 4.34378 6.73686 4.4688 6.86189C4.59382 6.98691 4.66406 7.15648 4.66406 7.33329V7.99996ZM7.66406 11.3333C7.66406 11.5101 7.59382 11.6797 7.4688 11.8047C7.34378 11.9297 7.17421 12 6.9974 12H6.33073C6.15392 12 5.98435 11.9297 5.85932 11.8047C5.7343 11.6797 5.66406 11.5101 5.66406 11.3333V10.6666C5.66406 10.4898 5.7343 10.3202 5.85932 10.1952C5.98435 10.0702 6.15392 9.99996 6.33073 9.99996H6.9974C7.17421 9.99996 7.34378 10.0702 7.4688 10.1952C7.59382 10.3202 7.66406 10.4898 7.66406 10.6666V11.3333ZM7.66406 7.99996C7.66406 8.17677 7.59382 8.34634 7.4688 8.47136C7.34378 8.59639 7.17421 8.66663 6.9974 8.66663H6.33073C6.15392 8.66663 5.98435 8.59639 5.85932 8.47136C5.7343 8.34634 5.66406 8.17677 5.66406 7.99996V7.33329C5.66406 7.15648 5.7343 6.98691 5.85932 6.86189C5.98435 6.73686 6.15392 6.66663 6.33073 6.66663H6.9974C7.17421 6.66663 7.34378 6.73686 7.4688 6.86189C7.59382 6.98691 7.66406 7.15648 7.66406 7.33329V7.99996Z" fill="#6C7086"/>
<path d="M11.9974 8.66663C11.3381 8.66663 10.6937 8.86212 10.1455 9.22839C9.59733 9.59467 9.17009 10.1153 8.9178 10.7243C8.66551 11.3334 8.5995 12.0037 8.72811 12.6503C8.85673 13.2969 9.1742 13.8908 9.64038 14.357C10.1066 14.8232 10.7005 15.1406 11.3471 15.2692C11.9937 15.3979 12.6639 15.3319 13.273 15.0796C13.8821 14.8273 14.4027 14.4 14.769 13.8519C15.1352 13.3037 15.3307 12.6592 15.3307 12C15.3307 11.5622 15.2445 11.1288 15.077 10.7243C14.9095 10.3199 14.6639 9.95247 14.3544 9.64294C14.0449 9.33341 13.6774 9.08788 13.273 8.92036C12.8686 8.75284 12.4351 8.66663 11.9974 8.66663ZM13.2331 13.2356C13.1706 13.2981 13.0858 13.3332 12.9974 13.3332C12.909 13.3332 12.8242 13.2981 12.7617 13.2356L11.7617 12.2356C11.6992 12.1731 11.6641 12.0884 11.6641 12V9.99996C11.6641 9.91155 11.6992 9.82677 11.7617 9.76426C11.8242 9.70174 11.909 9.66663 11.9974 9.66663C12.0858 9.66663 12.1706 9.70174 12.2331 9.76426C12.2956 9.82677 12.3307 9.91155 12.3307 9.99996V11.862L13.2331 12.7643C13.2956 12.8268 13.3307 12.9116 13.3307 13C13.3307 13.0883 13.2956 13.1731 13.2331 13.2356Z" fill="#6C7086"/>
</g>
<defs>
<clipPath id="clip0_11590_61572">
<rect width="16" height="16" fill="white"/>
</clipPath>
</defs>
</svg>
