<svg width="40" height="40" viewBox="0 0 40 40" fill="none" xmlns="http://www.w3.org/2000/svg">
<rect width="40" height="40" rx="8" fill="url(#paint0_linear_7331_49862)"/>
<path d="M26.3 16.1881H26.1893C26.477 15.7507 26.6481 15.2147 26.6481 14.6382C26.6481 14.403 26.6198 14.1741 26.5657 13.9557L26.5699 13.9751C26.3142 12.9802 25.5157 12.2231 24.516 12.0315L24.4998 12.0289C24.3769 12.0105 24.2346 12 24.0902 12C23.0176 12 22.0799 12.5754 21.568 13.4344L21.5607 13.448L19.9998 15.6946L18.4384 13.448C17.9191 12.5754 16.9809 12 15.9088 12C15.7645 12 15.6227 12.0105 15.4836 12.0305L15.4993 12.0284C14.4834 12.2226 13.6854 12.9797 13.4339 13.9562L13.4297 13.9746C13.3798 14.1736 13.3515 14.4025 13.3515 14.6377C13.3515 15.2137 13.5226 15.7502 13.8166 16.1981L13.8098 16.187H13.6985C12.7566 16.1881 11.9932 16.9515 11.9922 17.8934V19.4684C11.9932 20.1735 12.4211 20.7783 13.0312 21.0382L13.0422 21.0424V26.2937C13.0433 27.2356 13.8067 27.999 14.7485 28H25.249C26.1908 27.9995 26.9547 27.2356 26.9553 26.2937V21.0424C27.5764 20.7783 28.0043 20.173 28.0053 19.4684V17.8934C28.0043 16.9515 27.2409 16.1881 26.299 16.187L26.3 16.1881ZM26.6938 17.8944V19.4695C26.6907 19.6858 26.5164 19.8601 26.3006 19.8632H20.6561V17.5006H26.3C26.5164 17.5038 26.6907 17.6781 26.6938 17.8939V17.8944ZM22.6391 14.1967C22.9247 13.6669 23.4754 13.3131 24.1091 13.3131C24.1637 13.3131 24.2178 13.3157 24.2714 13.321L24.2645 13.3204C24.7701 13.4228 25.1665 13.8008 25.2952 14.2875L25.2973 14.297C25.3083 14.3752 25.3146 14.466 25.3146 14.5579C25.3146 15.2299 24.9812 15.8242 24.4704 16.1839L24.4641 16.1881H21.2551L22.6391 14.1967ZM14.7029 14.2964C14.8331 13.8008 15.2289 13.4228 15.7261 13.3215L15.7345 13.3199C15.7828 13.3147 15.839 13.312 15.8957 13.312C16.5278 13.312 17.0775 13.6664 17.3568 14.1872L17.361 14.1962L18.745 16.1876H15.5356C15.0189 15.8242 14.6855 15.2305 14.6855 14.5595C14.6855 14.4665 14.6918 14.3752 14.7044 14.2859L14.7034 14.2964H14.7029ZM13.3058 17.8944C13.3089 17.6781 13.4832 17.5038 13.699 17.5006H19.3435V19.8632H13.6996C13.4832 19.8601 13.3089 19.6858 13.3058 19.47V19.4695V17.8944ZM14.3558 26.2947V21.1758H19.3435V26.6885H14.7496C14.5333 26.6853 14.359 26.5105 14.3558 26.2947ZM25.6438 26.2947C25.6406 26.511 25.4663 26.6853 25.2505 26.6885H20.6561V21.1758H25.6438V26.2947Z" fill="white"/>
<defs>
<linearGradient id="paint0_linear_7331_49862" x1="0" y1="20" x2="40" y2="20" gradientUnits="userSpaceOnUse">
<stop stop-color="#F59C0B"/>
<stop offset="1" stop-color="#F2643C"/>
</linearGradient>
</defs>
</svg>
