<svg width="50" height="50" viewBox="0 0 50 50" fill="none" xmlns="http://www.w3.org/2000/svg">
<rect width="50" height="50" rx="6" fill="#EEF9ED"/>
<path d="M13.8949 12.7764C13.8941 12.7764 13.8931 12.7764 13.8922 12.7764C13.5896 12.7764 13.3049 12.8943 13.09 13.1088C12.8726 13.3255 12.7529 13.6142 12.7529 13.9215V31.0922C12.7529 31.7218 13.2672 32.2353 13.8994 32.237C16.5648 32.2433 21.0304 32.7988 24.111 36.0227V18.053C24.111 17.8396 24.0565 17.6391 23.9536 17.4732C21.4252 13.4013 16.5663 12.7826 13.8949 12.7764Z" fill="#53C749"/>
<path d="M37.2471 31.0923V13.9215C37.2471 13.6142 37.1274 13.3255 36.9101 13.1088C36.6952 12.8943 36.4103 12.7764 36.108 12.7764C36.107 12.7764 36.106 12.7764 36.1052 12.7764C33.4339 12.7827 28.575 13.4014 26.0465 17.4733C25.9436 17.6392 25.8892 17.8397 25.8892 18.0532V36.0227C28.9698 32.7988 33.4354 32.2433 36.1007 32.237C36.7329 32.2353 37.2471 31.7218 37.2471 31.0923Z" fill="#53C749"/>
<path d="M39.8549 16.7363H39.0247V31.0923C39.0247 32.7 37.7148 34.0109 36.1047 34.0149C33.8439 34.0203 30.1161 34.4623 27.4761 36.961C32.0421 35.8431 36.8554 36.5698 39.5986 37.195C39.9411 37.273 40.2951 37.1924 40.5695 36.9736C40.843 36.7555 40.9998 36.4293 40.9998 36.0793V17.8812C40.9999 17.2499 40.4862 16.7363 39.8549 16.7363Z" fill="#53C749"/>
<path d="M10.9752 31.0923V16.7363H10.1449C9.51373 16.7363 9 17.2499 9 17.8812V36.0789C9 36.4291 9.15688 36.7551 9.43033 36.9733C9.70454 37.1919 10.0582 37.2729 10.4012 37.1946C13.1444 36.5694 17.9579 35.8428 22.5237 36.9607C19.8837 34.4621 16.156 34.0202 13.8952 34.0148C12.2851 34.0109 10.9752 32.7 10.9752 31.0923Z" fill="#53C749"/>
</svg>
