<svg width="16" height="16" viewBox="0 0 16 16" fill="none" xmlns="http://www.w3.org/2000/svg">
<g clip-path="url(#clip0_1240_10348)">
<path d="M3.30693 12.7728H14.2056C14.239 12.7728 14.2713 12.7681 14.3024 12.7606C14.3049 12.7606 14.3069 12.761 14.3094 12.761C14.5421 12.761 14.7311 12.5722 14.7311 12.3394V0.421668C14.7311 0.188906 14.5421 0 14.3094 0H14.2065H3.98132H3.30752C2.18516 0 1.27223 0.913143 1.27223 2.03519C1.27223 2.05024 1.27519 2.06452 1.27665 2.07904C1.27519 3.11553 1.26234 12.6396 1.27519 13.8916C1.27439 13.9161 1.27139 13.94 1.27139 13.9647C1.27139 15.0437 2.11619 15.9269 3.17881 15.9937C3.20013 15.9969 3.22103 16 3.24315 16H14.3094C14.542 16 14.731 15.8112 14.731 15.5784V13.9911C14.731 13.7585 14.542 13.5695 14.3094 13.5695C14.0768 13.5695 13.8877 13.7585 13.8877 13.9911V15.1567H3.30693C2.66616 15.1567 2.14309 14.648 2.11738 14.0136C2.118 14.0023 2.12006 13.9916 2.11985 13.98C2.11943 13.9615 2.11881 13.9327 2.11839 13.8944C2.15524 13.27 2.67347 12.7728 3.30693 12.7728ZM3.59445 2.03519C3.59445 1.80242 3.78336 1.61352 4.01612 1.61352C4.24888 1.61352 4.43779 1.80242 4.43779 2.03519V10.6004C4.43779 10.833 4.24888 11.0221 4.01612 11.0221C3.78336 11.0221 3.59445 10.833 3.59445 10.6004V2.03519Z" fill="#6C7086"/>
</g>
<defs>
<clipPath id="clip0_1240_10348">
<rect width="16" height="16" fill="white"/>
</clipPath>
</defs>
</svg>
