<svg width="50" height="50" viewBox="0 0 50 50" fill="none" xmlns="http://www.w3.org/2000/svg">
<rect width="50" height="50" rx="6" fill="#E9EFFA"/>
<path d="M23.7499 15.2686C22.1674 15.2686 20.2524 15.2686 20.2524 15.2686V29.2529H23.7499V15.2686Z" fill="#6D74E8"/>
<path d="M18.3777 12.3809C18.3777 11.8627 17.9583 11.4434 17.4402 11.4434H11.8164C11.2983 11.4434 10.8789 11.8627 10.8789 12.3809V16.6765H18.3777V12.3809Z" fill="#6D74E8"/>
<path d="M10.8789 18.5518H18.3777V22.1455H10.8789V18.5518Z" fill="#6D74E8"/>
<path d="M10.8789 24.0205H18.3777V29.2536H10.8789V24.0205Z" fill="#6D74E8"/>
<path d="M39.1252 14.2559C39.1252 13.7384 38.7058 13.3184 38.1877 13.3184H32.8765V29.2534H39.1252V14.2559ZM36.0008 27.674C35.4833 27.674 35.0633 27.254 35.0633 26.7365C35.0633 26.2184 35.4833 25.799 36.0008 25.799C36.5183 25.799 36.9383 26.2184 36.9383 26.7365C36.9383 27.254 36.5183 27.674 36.0008 27.674ZM36.9383 23.0152C36.9383 23.5296 36.5152 23.9527 36.0008 23.9527C35.4865 23.9527 35.0633 23.5296 35.0633 23.0152V17.3809C35.0633 16.8665 35.4865 16.4434 36.0008 16.4434C36.5152 16.4434 36.9383 16.8665 36.9383 17.3809V23.0152Z" fill="#6D74E8"/>
<path d="M31.0012 12.416C31.0012 11.8985 30.5812 11.4785 30.0637 11.4785H26.5625C26.045 11.4785 25.625 11.8985 25.625 12.416V29.2529H31.0012V12.416Z" fill="#6D74E8"/>
<path d="M40.0625 31.1279H9.9375C9.42 31.1279 9 31.5479 9 32.0654V34.8779C9 35.3954 9.42 35.8154 9.9375 35.8154H10.875V37.6179C10.875 38.1361 11.295 38.5554 11.8125 38.5554C12.33 38.5554 12.75 38.1361 12.75 37.6179V35.8154H37.25V37.6179C37.25 38.1361 37.67 38.5554 38.1875 38.5554C38.705 38.5554 39.125 38.1361 39.125 37.6179V35.8154H40.0625C40.58 35.8154 41 35.3954 41 34.8779V32.0654C41 31.5479 40.58 31.1279 40.0625 31.1279Z" fill="#6D74E8"/>
</svg>
