<svg width="16" height="16" viewBox="0 0 16 16" fill="none" xmlns="http://www.w3.org/2000/svg">
<path d="M15.5312 5.5625H14.5312C14.2724 5.5625 14.0625 5.77237 14.0625 6.03125V12.9062C14.0625 13.1651 14.2724 13.375 14.5312 13.375H15.5312C15.7901 13.375 16 13.1651 16 12.9062V6.03125C16 5.77237 15.7901 5.5625 15.5312 5.5625Z" fill="#6C7086"/>
<path d="M9.06128 2.60328L9.84253 1.25012C10.0151 0.951181 9.91269 0.568931 9.61375 0.396338L9.0725 0.0838377C8.77356 -0.088756 8.39131 0.0136814 8.21875 0.312619L7.4375 1.66578L9.06128 2.60328Z" fill="#6C7086"/>
<path d="M0.556789 10.6035C0.824633 10.7562 1.16641 10.6565 1.32057 10.3895L5.15123 3.75461C4.79388 3.6697 4.41251 3.74523 4.11241 3.9703L2.78532 4.96561C2.39913 5.25526 2.07826 5.62301 1.84363 6.04489L0.139164 9.10976C-0.15343 9.63589 0.0301013 10.2995 0.551445 10.6005C0.553226 10.6015 0.555008 10.6025 0.556789 10.6035Z" fill="#6C7086"/>
<path d="M3.33884 9.00448H5.37109L8.59759 3.41602L6.97378 2.47852L3.20312 9.00955C3.24803 9.00655 3.29319 9.00448 3.33884 9.00448Z" fill="#6C7086"/>
<path d="M1.51677 11.9297L1.0318 12.7697C1.00899 12.8092 0.992084 12.8518 0.981584 12.8962L0.534365 14.7878C0.448771 15.1499 0.88574 15.4022 1.15649 15.147L2.57112 13.8139C2.6043 13.7827 2.63277 13.7467 2.65558 13.7072L3.03902 13.043C2.36962 12.9434 1.80599 12.5159 1.51677 11.9297Z" fill="#6C7086"/>
<path d="M7.06409 13.0664H4.10306L3.48438 14.138C3.68331 14.3442 3.96228 14.4726 4.27141 14.4726C4.87547 14.4726 5.36516 13.9829 5.36516 13.3789C5.36516 13.9829 5.85484 14.4726 6.45891 14.4726C7.06297 14.4726 7.55266 13.9829 7.55266 13.3789V13.3075C7.43919 13.2556 7.17934 13.1236 7.06409 13.0664Z" fill="#6C7086"/>
<path d="M8.93141 4.70703L6.45069 9.00375H7.18719C7.44606 9.00375 7.65594 9.21363 7.65594 9.4725C7.65594 9.73134 7.44613 9.94122 7.18725 9.94125H3.33594C2.73188 9.94125 2.24219 10.4309 2.24219 11.035C2.24219 11.6391 2.73188 12.1288 3.33594 12.1288H7.28744L7.80587 12.3878C8.69306 12.8314 9.68684 13.0662 10.6797 13.0662C11.5023 13.0662 12.3527 12.9046 13.1247 12.597V6.50366H12.3859L8.93141 4.70703Z" fill="#6C7086"/>
</svg>
