<svg width="50" height="50" viewBox="0 0 50 50" fill="none" xmlns="http://www.w3.org/2000/svg">
<rect width="50" height="50" rx="6" fill="#FFF6EF"/>
<g clip-path="url(#clip0_13331_33768)">
<path d="M40.0624 9H17.0024C16.4849 9 16.0649 9.42 16.0649 9.9375V11.6562C16.3099 11.6156 16.5618 11.5944 16.8187 11.5944C19.2762 11.5944 21.2918 13.5225 21.4331 15.9469L23.7262 13.8931C24.3737 13.2806 25.2456 12.9306 26.1256 12.9306H26.1362C27.1337 12.9306 28.0862 13.3581 28.7493 14.1044C30.0281 15.5444 29.8974 17.7556 28.4587 19.035L22.5762 24.2819L22.5749 27.4237L40.0624 27.4325C40.5799 27.4325 40.9999 27.0125 40.9999 26.495V9.9375C40.9999 9.42 40.5799 9 40.0624 9ZM37.1874 21.5H32.6924C32.1749 21.5 31.7549 21.08 31.7549 20.5625C31.7549 20.045 32.1749 19.625 32.6924 19.625H37.1874C37.7049 19.625 38.1249 20.045 38.1249 20.5625C38.1249 21.08 37.7049 21.5 37.1874 21.5ZM37.1874 17.75H32.6924C32.1749 17.75 31.7549 17.33 31.7549 16.8125C31.7549 16.295 32.1749 15.875 32.6924 15.875H37.1874C37.7049 15.875 38.1249 16.295 38.1249 16.8125C38.1249 17.33 37.7049 17.75 37.1874 17.75ZM37.1874 14H32.6924C32.1749 14 31.7549 13.58 31.7549 13.0625C31.7549 12.545 32.1749 12.125 32.6924 12.125H37.1874C37.7049 12.125 38.1249 12.545 38.1249 13.0625C38.1249 13.58 37.7049 14 37.1874 14Z" fill="#FDA45F"/>
<path d="M15.2929 35.454C16.7154 35.454 17.8685 34.3008 17.8685 32.8784C17.8685 31.4559 16.7154 30.3027 15.2929 30.3027C13.8704 30.3027 12.7173 31.4559 12.7173 32.8784C12.7173 34.3008 13.8704 35.454 15.2929 35.454Z" fill="#FDA45F"/>
<path d="M24.9999 35.454C26.4224 35.454 27.5756 34.3008 27.5756 32.8784C27.5756 31.4559 26.4224 30.3027 24.9999 30.3027C23.5775 30.3027 22.4243 31.4559 22.4243 32.8784C22.4243 34.3008 23.5775 35.454 24.9999 35.454Z" fill="#FDA45F"/>
<path d="M34.3543 35.4669C31.8265 35.65 29.8859 37.7807 29.8553 40.3089C29.8548 40.3085 29.8544 40.3082 29.854 40.3079C29.854 37.6454 27.6627 35.4541 25.0002 35.4541C22.3391 35.4541 20.1488 37.6432 20.1466 40.3038C20.1443 37.5262 17.7578 35.2629 14.94 35.4669C12.392 35.6515 10.4395 37.8147 10.4395 40.3694V40.3697C10.4395 40.7177 10.7215 40.9997 11.0695 40.9997H38.8691C39.2513 40.9997 39.561 40.69 39.561 40.3079V40.3077C39.561 37.5283 37.1735 35.2627 34.3543 35.4669Z" fill="#FDA45F"/>
<path d="M34.707 35.454C36.1295 35.454 37.2826 34.3008 37.2826 32.8784C37.2826 31.4559 36.1295 30.3027 34.707 30.3027C33.2845 30.3027 32.1313 31.4559 32.1313 32.8784C32.1313 34.3008 33.2845 35.454 34.707 35.454Z" fill="#FDA45F"/>
<path d="M16.8189 18.9716C18.3366 18.9716 19.5669 17.74 19.5669 16.2207C19.5669 14.7014 18.3366 13.4697 16.8189 13.4697C15.3012 13.4697 14.0708 14.7014 14.0708 16.2207C14.0708 17.74 15.3012 18.9716 16.8189 18.9716Z" fill="#FDA45F"/>
<path d="M27.3475 15.3495C27.0275 14.9895 26.5825 14.8057 26.1362 14.8057C25.7282 14.8028 25.3121 14.9665 25 15.2695L21.8206 18.1176C21.2013 18.6676 20.4019 18.972 19.5731 18.972H12.9213C10.7688 18.972 9 20.7188 9 22.8726V26.4951C9 27.0126 9.42 27.4326 9.9375 27.4326H11.3131L11.3363 23.0557C11.3388 22.5376 11.7606 22.122 12.2787 22.1232C12.7962 22.1257 13.2137 22.5476 13.2112 23.0657L13.1881 27.4326H20.7L20.7013 23.442L27.2119 17.6351C27.8806 17.0413 27.9412 16.0182 27.3475 15.3495Z" fill="#FDA45F"/>
</g>
<defs>
<clipPath id="clip0_13331_33768">
<rect width="32" height="32" fill="white" transform="translate(9 9)"/>
</clipPath>
</defs>
</svg>
