<svg width="70" height="70" viewBox="0 0 70 70" fill="none" xmlns="http://www.w3.org/2000/svg">
<rect width="70" height="70" rx="6" fill="#E9EFFA"/>
<path d="M48.0544 21.0082H33.9956C32.3687 21.0082 31.05 22.327 31.05 23.9537V30.8788C31.7932 31.2482 32.5962 31.6476 33.3457 32.0201L34.4924 29.7257C35.1868 28.3383 36.8794 27.7745 38.2664 28.4677C39.6562 29.1632 40.2195 30.8512 39.5237 32.2413L37.4795 36.3307C37.5337 36.8719 37.4856 37.4176 37.333 37.9457H38.6826L35.123 47.7338C34.9119 48.3143 35.3201 48.9918 36.0044 48.9918C36.387 48.9918 36.7468 48.7557 36.885 48.3744L40.6775 37.9457H41.3345L45.1655 48.3776C45.3049 48.757 45.6638 48.9918 46.0461 48.9918C46.6855 48.9918 47.1543 48.3531 46.9255 47.7313L43.3318 37.9457H48.0544C49.6812 37.9457 51 36.6268 51 35.0001V23.9537C51 22.327 49.6812 21.0082 48.0544 21.0082ZM46.0457 33.9293H41.8394C41.3218 33.9293 40.9019 33.5094 40.9019 32.9918C40.9019 32.4738 41.3218 32.0543 41.8394 32.0543H46.0457C46.5637 32.0543 46.9832 32.4738 46.9832 32.9918C46.9832 33.5094 46.5637 33.9293 46.0457 33.9293ZM46.0457 30.4144H41.8394C41.3218 30.4144 40.9019 29.995 40.9019 29.4769C40.9019 28.9594 41.3218 28.5394 41.8394 28.5394H46.0457C46.5637 28.5394 46.9832 28.9594 46.9832 29.4769C46.9832 29.995 46.5637 30.4144 46.0457 30.4144ZM46.0457 26.9H36.0044C35.4863 26.9 35.0669 26.4801 35.0669 25.9625C35.0669 25.4449 35.4863 25.025 36.0044 25.025H46.0457C46.5637 25.025 46.9832 25.4449 46.9832 25.9625C46.9832 26.4801 46.5637 26.9 46.0457 26.9Z" fill="#235CD0"/>
<path d="M35.4951 37.5436C35.6646 37.0472 35.6633 36.5287 35.5203 36.0555L37.8469 31.4027C38.0784 30.9396 37.8909 30.3763 37.4277 30.1449C36.9648 29.9132 36.4016 30.101 36.1699 30.5641L34.1855 34.5323C32.9995 33.9418 31.1975 33.0458 29.7458 32.3239C28.3953 31.6522 27.4314 31.0499 25.7869 31.0499H24.9585C26.239 31.0499 27.3818 30.4606 28.1299 29.5382C28.7007 28.8363 29.042 27.9418 29.042 26.9669C29.042 24.7113 27.2139 22.8832 24.958 22.8832C22.7031 22.8832 20.875 24.7113 20.875 26.9669C20.875 28.0502 21.2969 29.0345 21.9851 29.765C22.7292 30.5563 23.7869 31.0497 24.9585 31.0499C23.3877 31.0499 21.8513 31.6866 20.7466 32.7943C19.6204 33.9176 19 35.4142 19 37.0084V40.0209C19 41.3177 19.842 42.4213 21.0083 42.8138V48.0541C21.0083 48.5719 21.428 48.9916 21.9458 48.9916H27.9707C28.4885 48.9916 28.9082 48.5719 28.9082 48.0541V37.5206C29.7971 37.965 30.9648 38.5487 31.9097 39.0214C32.572 39.3524 33.3459 39.3822 34.0361 39.1014C34.7244 38.8182 35.2549 38.2545 35.4915 37.5546C35.4927 37.5509 35.4939 37.5472 35.4951 37.5436Z" fill="#235CD0"/>
</svg>
