<svg width="70" height="70" viewBox="0 0 70 70" fill="none" xmlns="http://www.w3.org/2000/svg">
<rect width="70" height="70" rx="6" fill="#F2F2FF"/>
<g clipPath="url(#clip0_1175_8983)">
<path d="M42.1809 36.2932C42.8723 36.2932 43.4328 35.7327 43.4328 35.0412V28.3905L35.9061 30.6892C35.6087 30.7797 35.3021 30.8253 34.9933 30.8253H34.9932C34.6834 30.8253 34.3762 30.7794 34.0801 30.6888L26.5547 28.3882V35.0412C26.5547 35.7327 27.1152 36.2932 27.8067 36.2932H42.1809Z" fill="#7880FF"/>
<path d="M47.5571 22.7795L35.3602 19.0545C35.1218 18.9818 34.8669 18.9818 34.6285 19.0545L22.4436 22.7796C21.9172 22.9405 21.5576 23.4264 21.5576 23.9768C21.5576 24.5273 21.9172 25.0132 22.4436 25.1741L22.956 25.3307V30.1922C22.956 30.709 23.375 31.128 23.8918 31.128C24.4086 31.128 24.8276 30.709 24.8276 30.1922V25.9029L34.6285 28.8991C34.8669 28.9721 35.1217 28.9717 35.3602 28.8991L47.5571 25.1741C48.0837 25.0133 48.4434 24.5273 48.4434 23.9768C48.4434 23.4263 48.0837 22.9403 47.5571 22.7795Z" fill="#7880FF"/>
<path d="M21.5724 39.2988H19.9651C19.4483 39.2988 19.0293 39.7178 19.0293 40.2346V45.2506C19.0293 45.7674 19.4483 46.1864 19.9651 46.1864H21.5724C21.5723 46.1794 21.5718 46.1725 21.5718 46.1655V39.3197C21.5718 39.3127 21.5723 39.3058 21.5724 39.2988Z" fill="#7880FF"/>
<path d="M50.0355 39.2988H48.4912C48.4913 39.3058 48.4918 39.3127 48.4918 39.3197V46.1655C48.4918 46.1725 48.4913 46.1794 48.4912 46.1864H50.0355C50.5523 46.1864 50.9713 45.7674 50.9713 45.2506V40.2346C50.9713 39.7178 50.5523 39.2988 50.0355 39.2988Z" fill="#7880FF"/>
<path d="M31.5823 48.5571L30.7369 49.4025C30.3715 49.768 30.3715 50.3605 30.737 50.7259C30.9197 50.9087 31.1592 51 31.3987 51C31.6382 51 31.8777 50.9087 32.0604 50.7259L32.9057 49.8805C33.5821 49.2042 34.0631 48.3851 34.3229 47.4914C33.6843 47.4007 33.0858 47.184 32.5534 46.8669C32.3881 47.5007 32.0576 48.0819 31.5823 48.5571Z" fill="#7880FF"/>
<path d="M38.4183 48.5571C37.9431 48.0819 37.6125 47.5008 37.4473 46.8672C36.9149 47.1842 36.3164 47.4008 35.6777 47.4915C35.9376 48.3851 36.4185 49.2042 37.0948 49.8805L37.9402 50.7259C38.123 50.9086 38.3625 51 38.602 51C38.8415 51 39.081 50.9087 39.2637 50.7259C39.6291 50.3604 39.6291 49.7679 39.2637 49.4025L38.4183 48.5571Z" fill="#7880FF"/>
<path d="M30.203 42.7426C30.203 41.3661 30.7865 40.124 31.7183 39.2483L24.4281 38.4385C23.919 38.3707 23.4321 38.8063 23.4436 39.3197V46.1655C23.4321 46.6784 23.9192 47.1154 24.4281 47.0467L31.7183 46.237C30.7865 45.3612 30.203 44.1191 30.203 42.7426Z" fill="#7880FF"/>
<path d="M46.3254 38.6594C46.1377 38.4912 45.8872 38.4109 45.6368 38.4384L38.2812 39.2465C39.2141 40.1223 39.7985 41.3651 39.7985 42.7426C39.7985 44.1201 39.2141 45.363 38.2812 46.2388L45.6369 47.0469C46.1439 47.1148 46.6325 46.6782 46.6204 46.1655V39.3197C46.6203 39.0677 46.513 38.8276 46.3254 38.6594Z" fill="#7880FF"/>
<path d="M35.5429 45.6072C37.1314 45.3115 38.1794 43.784 37.8837 42.1955C37.5879 40.607 36.0605 39.559 34.472 39.8547C32.8834 40.1504 31.8354 41.6779 32.1312 43.2664C32.4269 44.8549 33.9544 45.9029 35.5429 45.6072Z" fill="#7880FF"/>
</g>
<defs>
<clipPath id="clip0_1175_8983">
<rect width="32" height="32" fill="white" transform="translate(19 19)"/>
</clipPath>
</defs>
</svg>
