<svg width="16" height="17" viewBox="0 0 16 17" fill="none" xmlns="http://www.w3.org/2000/svg">
<path d="M8.00329 2.55572C8.00329 2.45719 7.96415 2.36269 7.89447 2.29302C7.8248 2.22335 7.7303 2.1842 7.63177 2.1842C7.53324 2.1842 7.43874 2.22335 7.36907 2.29302C7.2994 2.36269 7.26025 2.45719 7.26025 2.55572V2.92724H3.73084C3.18892 2.92724 2.66918 3.14252 2.28598 3.52572C1.90278 3.90892 1.6875 4.42865 1.6875 4.97058V9.80179C1.6875 10.3437 1.90278 10.8635 2.28598 11.2467C2.66918 11.6299 3.18892 11.8451 3.73084 11.8451H5.08019L3.97902 13.4969C3.95194 13.5375 3.93312 13.583 3.92364 13.6309C3.91416 13.6787 3.9142 13.728 3.92375 13.7759C3.93331 13.8237 3.95219 13.8692 3.97933 13.9098C4.00647 13.9503 4.04134 13.9851 4.08193 14.0122C4.12252 14.0393 4.16805 14.0581 4.21591 14.0676C4.26377 14.0771 4.31304 14.077 4.36089 14.0675C4.40874 14.0579 4.45424 14.039 4.49479 14.0119C4.53534 13.9847 4.57014 13.9499 4.59722 13.9093L5.97332 11.8451H7.64069V11.8436H8.74632C8.90213 11.6356 9.09992 11.4626 9.32687 11.3359C9.55381 11.2092 9.80486 11.1315 10.0637 11.108C9.85871 10.8803 9.70287 10.6127 9.60592 10.322C9.50897 10.0313 9.473 9.72373 9.50026 9.41851C9.52751 9.11328 9.6174 8.81696 9.76433 8.54804C9.91125 8.27911 10.112 8.04337 10.3542 7.85554C10.5963 7.6677 10.8745 7.5318 11.1715 7.45633C11.4685 7.38086 11.7779 7.36743 12.0803 7.41689C12.3827 7.46635 12.6717 7.57764 12.9292 7.74379C13.1867 7.90995 13.4071 8.12741 13.5768 8.38259V4.97132C13.5766 4.42926 13.3612 3.90945 12.9779 3.52615C12.5946 3.14286 12.0748 2.92744 11.5327 2.92724H8.00329V2.55572ZM3.9166 5.52786C3.9166 5.42932 3.95574 5.33483 4.02542 5.26516C4.09509 5.19548 4.18959 5.15634 4.28812 5.15634H6.51722C6.61575 5.15634 6.71025 5.19548 6.77992 5.26516C6.8496 5.33483 6.88874 5.42932 6.88874 5.52786C6.88874 5.62639 6.8496 5.72089 6.77992 5.79056C6.71025 5.86023 6.61575 5.89937 6.51722 5.89937H4.28812C4.18959 5.89937 4.09509 5.86023 4.02542 5.79056C3.95574 5.72089 3.9166 5.62639 3.9166 5.52786ZM4.28812 8.873H7.26025C7.35879 8.873 7.45328 8.91214 7.52296 8.98181C7.59263 9.05148 7.63177 9.14598 7.63177 9.24451C7.63177 9.34305 7.59263 9.43754 7.52296 9.50722C7.45328 9.57689 7.35879 9.61603 7.26025 9.61603H4.28812C4.18959 9.61603 4.09509 9.57689 4.02542 9.50722C3.95574 9.43754 3.9166 9.34305 3.9166 9.24451C3.9166 9.14598 3.95574 9.05148 4.02542 8.98181C4.09509 8.91214 4.18959 8.873 4.28812 8.873ZM4.28812 7.01541H8.00329C8.10182 7.01541 8.19632 7.05455 8.26599 7.12423C8.33566 7.1939 8.37481 7.2884 8.37481 7.38693C8.37481 7.48546 8.33566 7.57996 8.26599 7.64963C8.19632 7.7193 8.10182 7.75845 8.00329 7.75845H4.28812C4.18959 7.75845 4.09509 7.7193 4.02542 7.64963C3.95574 7.57996 3.9166 7.48546 3.9166 7.38693C3.9166 7.2884 3.95574 7.1939 4.02542 7.12423C4.09509 7.05455 4.18959 7.01541 4.28812 7.01541ZM13.2045 9.61454C13.2045 10.0087 13.048 10.3867 12.7693 10.6654C12.4906 10.944 12.1126 11.1006 11.7185 11.1006C11.3243 11.1006 10.9463 10.944 10.6677 10.6654C10.389 10.3867 10.2324 10.0087 10.2324 9.61454C10.2324 9.22041 10.389 8.84243 10.6677 8.56374C10.9463 8.28504 11.3243 8.12848 11.7185 8.12848C12.1126 8.12848 12.4906 8.28504 12.7693 8.56374C13.048 8.84243 13.2045 9.22041 13.2045 9.61454ZM14.3191 12.9582C14.3191 13.8833 13.576 14.8158 11.7185 14.8158C9.86087 14.8158 9.11784 13.887 9.11784 12.9582C9.11784 12.6626 9.23527 12.3791 9.44428 12.1701C9.6533 11.9611 9.93679 11.8436 10.2324 11.8436H13.2045C13.5001 11.8436 13.7836 11.9611 13.9926 12.1701C14.2017 12.3791 14.3191 12.6626 14.3191 12.9582Z" fill="#235CD0"/>
</svg>
