<svg width="24" height="24" viewBox="0 0 24 24" fill="none" xmlns="http://www.w3.org/2000/svg">
<path d="M19.8438 14.4428C19.8438 13.5532 19.2098 12.8088 18.3699 12.6376V10.6477C18.3699 10.4664 18.281 10.2967 18.132 10.1934C17.983 10.0902 17.7928 10.0665 17.6232 10.1302L16.5683 10.5258C15.8756 9.80564 15.0336 9.26323 14.1109 8.93026C15.0176 8.25841 15.6065 7.18088 15.6065 5.96828C15.6065 3.93656 13.9536 2.28369 11.9219 2.28369C9.89015 2.28369 8.23728 3.93656 8.23728 5.96828C8.23728 7.18088 8.82615 8.25841 9.73286 8.93026C8.81013 9.26327 7.96816 9.80568 7.27546 10.5258L6.22059 10.1302C6.05088 10.0665 5.86068 10.0902 5.71171 10.1934C5.56271 10.2967 5.47384 10.4664 5.47384 10.6477V12.6376C4.63393 12.8088 4 13.5531 4 14.4428C4 15.3326 4.63393 16.0769 5.47384 16.2481V18.3854C5.47384 18.6158 5.61676 18.822 5.83246 18.9029L11.7278 21.1136C11.8521 21.16 11.9916 21.16 12.1159 21.1136L18.0113 18.9029C18.227 18.822 18.3699 18.6158 18.3699 18.3854V16.2481C19.2098 16.0769 19.8438 15.3325 19.8438 14.4428ZM9.34266 5.96828C9.34266 4.54611 10.4997 3.38907 11.9219 3.38907C13.3441 3.38907 14.5011 4.54611 14.5011 5.96828C14.5011 7.39046 13.3441 8.5475 11.9219 8.5475C10.4997 8.5475 9.34266 7.39046 9.34266 5.96828ZM11.9219 9.65288C13.2168 9.65288 14.4535 10.1209 15.4185 10.957L11.9219 12.2682L8.42523 10.957C9.39026 10.1209 10.627 9.65288 11.9219 9.65288ZM5.10538 14.4428C5.10538 14.0365 5.43596 13.7059 5.8423 13.7059H6.21076V15.1798H5.8423C5.43596 15.1798 5.10538 14.8492 5.10538 14.4428ZM6.57922 16.2666C6.99915 16.181 7.31613 15.8088 7.31613 15.364V13.5217C7.31613 13.0769 6.99915 12.7047 6.57922 12.6191V11.4452L11.3692 13.2415V19.7986L6.57922 18.0024V16.2666ZM12.4746 19.7986V13.2415L17.2645 11.4452V12.6191C16.8446 12.7047 16.5276 13.0769 16.5276 13.5217V15.364C16.5276 15.8088 16.8446 16.181 17.2645 16.2666V18.0024L12.4746 19.7986ZM18.0015 15.1798H17.633V13.7059H18.0015C18.4078 13.7059 18.7384 14.0365 18.7384 14.4428C18.7384 14.8492 18.4078 15.1798 18.0015 15.1798Z" fill="#9A9DAC"/>
</svg>
