<svg width="70" height="70" viewBox="0 0 70 70" fill="none" xmlns="http://www.w3.org/2000/svg">
<rect width="70" height="70" rx="6" fill="#E9EFFA"/>
<g clipPath="url(#clip0_1175_9031)">
<path d="M29.2412 45.6843C29.5772 44.9684 30.0425 44.3249 30.6074 43.7844C30.338 43.2615 30.1589 42.6851 30.0917 42.0751C29.8152 42.1234 29.5313 42.1499 29.2412 42.1499C28.9511 42.1499 28.6672 42.1233 28.3907 42.0751C28.3235 42.6851 28.1444 43.2616 27.875 43.7844C28.4399 44.3249 28.9052 44.9684 29.2412 45.6843Z" fill="#235CD0"/>
<path d="M28.2084 40.0958C28.5312 40.2115 28.8789 40.2749 29.2415 40.2749C29.6042 40.2749 29.9519 40.2115 30.2747 40.0958C30.6149 38.9778 31.3419 38.0273 32.299 37.3995C32.3028 37.3371 32.3053 37.2745 32.3053 37.2112C32.3053 35.5191 30.9336 34.1473 29.2415 34.1473C27.5495 34.1473 26.1777 35.519 26.1777 37.2112C26.1777 37.2745 26.1803 37.3372 26.184 37.3995C27.1412 38.0274 27.8681 38.9779 28.2084 40.0958Z" fill="#235CD0"/>
<path d="M42.0554 43.6459C41.8243 43.1604 41.6706 42.6316 41.6093 42.0751C41.3328 42.1233 41.0489 42.1499 40.7588 42.1499C40.4686 42.1499 40.1848 42.1233 39.9083 42.0751C39.8411 42.6851 39.662 43.2615 39.3926 43.7844C39.9307 44.2993 40.3786 44.9078 40.7103 45.5831C41.036 44.855 41.4947 44.199 42.0554 43.6459Z" fill="#235CD0"/>
<path d="M39.725 40.0958C40.0479 40.2115 40.3956 40.2749 40.7582 40.2749C41.1208 40.2749 41.4685 40.2115 41.7914 40.0958C42.1316 38.9778 42.8585 38.0273 43.8156 37.3995C43.8156 37.3995 43.822 37.3013 43.822 37.2112C43.822 35.5191 42.4503 34.1473 40.7581 34.1473C39.066 34.1473 37.6943 35.519 37.6943 37.2112C37.6943 37.2745 37.6969 37.3372 37.7006 37.3995C38.6579 38.0274 39.3848 38.9779 39.725 40.0958Z" fill="#235CD0"/>
<path d="M27.1132 50.3205C27.5839 50.3205 27.9654 49.9389 27.9654 49.4682V48.3766C27.9654 47.1699 27.4853 46.0738 26.7071 45.2672C25.8412 46.0156 24.7143 46.4698 23.4827 46.4698C22.2511 46.4698 21.1242 46.0156 20.2582 45.2673C19.4801 46.0739 19 47.1699 19 48.3766V49.4682C19 49.9389 19.3816 50.3205 19.8522 50.3205H27.1132Z" fill="#235CD0"/>
<path d="M23.4828 44.5948C25.1749 44.5948 26.5466 43.2231 26.5466 41.531C26.5466 39.8389 25.1749 38.4672 23.4828 38.4672C21.7907 38.4672 20.4189 39.8389 20.4189 41.531C20.4189 43.2231 21.7907 44.5948 23.4828 44.5948Z" fill="#235CD0"/>
<path d="M38.6308 50.3205C39.1015 50.3205 39.4831 49.9389 39.4831 49.4682V48.3766C39.4831 47.1699 39.003 46.0739 38.2248 45.2672C37.3588 46.0156 36.232 46.4698 35.0003 46.4698C33.7687 46.4698 32.6418 46.0156 31.7759 45.2672C30.9977 46.0739 30.5176 47.1699 30.5176 48.3766V49.4682C30.5176 49.9389 30.8991 50.3205 31.3698 50.3205H38.6308Z" fill="#235CD0"/>
<path d="M35.0003 44.5948C36.6924 44.5948 38.0641 43.2231 38.0641 41.531C38.0641 39.8389 36.6924 38.4672 35.0003 38.4672C33.3082 38.4672 31.9365 39.8389 31.9365 41.531C31.9365 43.2231 33.3082 44.5948 35.0003 44.5948Z" fill="#235CD0"/>
<path d="M46.5169 46.4698C45.2344 46.4698 44.0649 45.9782 43.186 45.1739C42.4705 45.9685 42.0342 47.0192 42.0342 48.1701V49.2618C42.0342 49.7325 42.4157 50.114 42.8864 50.114H50.1473C50.618 50.114 50.9996 49.7325 50.9996 49.2618V48.1701C50.9996 47.0192 50.5632 45.9685 49.8477 45.1739C48.9689 45.9782 47.7993 46.4698 46.5169 46.4698Z" fill="#235CD0"/>
<path d="M46.5169 44.5948C48.209 44.5948 49.5807 43.2231 49.5807 41.531C49.5807 39.8389 48.209 38.4672 46.5169 38.4672C44.8248 38.4672 43.4531 39.8389 43.4531 41.531C43.4531 43.2231 44.8248 44.5948 46.5169 44.5948Z" fill="#235CD0"/>
<path d="M36.8123 26.4837C36.8123 27.6735 36.4191 28.7732 35.7559 29.6598C36.3839 30.4915 37.3802 31.0301 38.5004 31.0301H41.6035L45.986 33.4998C46.1289 33.5804 46.2876 33.6206 46.4462 33.6206C46.6097 33.6206 46.7732 33.5778 46.9192 33.4925C47.2069 33.3245 47.3837 33.0163 47.3837 32.6831V31.0013C49.0691 30.7818 50.375 29.3368 50.375 27.5926V24.226C50.375 22.3305 48.8329 20.7885 46.9375 20.7885H38.5003C37.7676 20.7885 37.0883 21.0196 36.5299 21.4118C36.712 21.9475 36.8122 22.5206 36.8122 23.1171V26.4837H36.8123ZM40.2244 24.9631H45.2134C45.7312 24.9631 46.1509 25.3829 46.1509 25.9006C46.1509 26.4184 45.7312 26.8381 45.2134 26.8381H40.2244C39.7066 26.8381 39.2869 26.4184 39.2869 25.9006C39.2869 25.3829 39.7066 24.9631 40.2244 24.9631Z" fill="#235CD0"/>
<path d="M31.4997 29.9212C33.3951 29.9212 34.9372 28.3791 34.9372 26.4837V23.1171C34.9372 21.2216 33.3951 19.6796 31.4997 19.6796H23.0625C21.1671 19.6796 19.625 21.2216 19.625 23.1171V26.4837C19.625 28.2279 20.931 29.6729 22.6163 29.8924V31.5741C22.6163 31.9073 22.7931 32.2155 23.0809 32.3836C23.2269 32.4689 23.3903 32.5116 23.5538 32.5116C23.7124 32.5116 23.8711 32.4714 24.0141 32.3909L28.3964 29.9212H31.4997ZM23.8491 24.7917C23.8491 24.2739 24.2688 23.8542 24.7866 23.8542H29.7756C30.2933 23.8542 30.7131 24.2739 30.7131 24.7917C30.7131 25.3094 30.2933 25.7292 29.7756 25.7292H24.7866C24.2688 25.7292 23.8491 25.3094 23.8491 24.7917Z" fill="#235CD0"/>
</g>
<defs>
<clipPath id="clip0_1175_9031">
<rect width="32" height="32" fill="white" transform="translate(19 19)"/>
</clipPath>
</defs>
</svg>
