<svg width="24" height="24" viewBox="0 0 24 24" fill="none" xmlns="http://www.w3.org/2000/svg">
<g clip-path="url(#clip0_8517_31169)">
<path d="M11.6319 18.7363C11.7348 18.8393 11.8698 18.8908 12.0048 18.8908C12.1397 18.8908 12.2747 18.8393 12.3776 18.7363L14.0879 17.0261C14.3849 16.729 14.5485 16.3341 14.5485 15.914C14.5485 15.4939 14.385 15.099 14.0879 14.802C13.7909 14.5049 13.3959 14.3413 12.9759 14.3413C12.6192 14.3413 12.2806 14.4592 12.0047 14.6767C11.7288 14.4592 11.3903 14.3413 11.0336 14.3413C10.6136 14.3413 10.2186 14.5049 9.92159 14.8019C9.62455 15.099 9.46094 15.4939 9.46094 15.914C9.46094 16.3341 9.62452 16.729 9.92159 17.026L11.6319 18.7363ZM10.6674 15.5477C10.7652 15.4499 10.8953 15.396 11.0337 15.396C11.1721 15.396 11.3021 15.4499 11.3999 15.5477L11.6319 15.7797C11.8378 15.9856 12.1717 15.9856 12.3777 15.7797L12.6096 15.5477C12.7075 15.4499 12.8375 15.396 12.9759 15.396C13.1143 15.396 13.2443 15.4499 13.3422 15.5478C13.44 15.6456 13.4939 15.7756 13.4939 15.914C13.4939 16.0524 13.44 16.1824 13.3422 16.2803L12.0048 17.6177L10.6674 16.2803C10.5696 16.1824 10.5157 16.0524 10.5157 15.914C10.5157 15.7756 10.5696 15.6456 10.6674 15.5477Z" fill="#9A9DAC"/>
<path d="M19.2179 10.1336H18.5005V4.58203C18.5005 4.2908 18.2644 4.05469 17.9732 4.05469H16.3662V3.52734C16.3662 3.23611 16.1301 3 15.8388 3H7.48023C6.40913 3 5.53771 3.87142 5.53771 4.94252V10.1336H4.78516C4.49392 10.1336 4.25781 10.3697 4.25781 10.661V12.7703C4.25781 13.0616 4.49392 13.2977 4.78516 13.2977H5.04563V20.4727C5.04563 20.7639 5.28174 21 5.57297 21H18.4301C18.7213 21 18.9574 20.7639 18.9574 20.4727V13.2977H19.2179C19.5091 13.2977 19.7452 13.0616 19.7452 12.7703V10.661C19.7453 10.3697 19.5092 10.1336 19.2179 10.1336ZM17.4458 5.10938V10.1336H16.3662V5.10938H17.4458ZM15.3115 10.1336H8.69158V4.05469H15.3115V10.1336ZM6.5924 4.94252C6.5924 4.45297 6.99068 4.05469 7.48023 4.05469H7.63689V10.1336H6.5924V4.94252ZM5.3125 11.1883H18.6905V12.243H5.3125V11.1883ZM17.9027 19.9453H6.10035V13.2977H17.9028V19.9453H17.9027Z" fill="#9A9DAC"/>
<path d="M10.2773 8.70605H13.7227C14.0139 8.70605 14.25 8.46994 14.25 8.17871V6.06934C14.25 5.7781 14.0139 5.54199 13.7227 5.54199H10.2773C9.98611 5.54199 9.75 5.7781 9.75 6.06934V8.17871C9.75 8.46994 9.98611 8.70605 10.2773 8.70605ZM10.8047 6.59668H13.1953V7.65137H10.8047V6.59668Z" fill="#9A9DAC"/>
</g>
<defs>
<clipPath id="clip0_8517_31169">
<rect width="18" height="18" fill="white" transform="translate(3 3)"/>
</clipPath>
</defs>
</svg>
