<svg width="70" height="70" viewBox="0 0 70 70" fill="none" xmlns="http://www.w3.org/2000/svg">
<rect width="70" height="70" rx="6" fill="#E9EFFA"/>
<path d="M35.0003 49.3333C32.6159 49.3378 30.288 48.6073 28.3336 47.2413C28.116 47.0896 27.9675 46.8577 27.9209 46.5965C27.8742 46.3353 27.9332 46.0663 28.0849 45.8487C28.2367 45.631 28.4686 45.4825 28.7298 45.4359C28.991 45.3893 29.26 45.4483 29.4776 45.6C30.9271 46.6092 32.6254 47.2019 34.3881 47.3139C36.1508 47.4259 37.9104 47.0528 39.476 46.2351C41.0415 45.4175 42.3532 44.1865 43.2684 42.6759C44.1837 41.1653 44.6676 39.4329 44.6676 37.6667C44.6676 35.9004 44.1837 34.168 43.2684 32.6574C42.3532 31.1468 41.0415 29.9159 39.476 29.0982C37.9104 28.2806 36.1508 27.9075 34.3881 28.0194C32.6254 28.1314 30.9271 28.7242 29.4776 29.7333C29.3698 29.8085 29.2483 29.8616 29.12 29.8898C28.9917 29.9179 28.8591 29.9205 28.7298 29.8974C28.6005 29.8743 28.477 29.826 28.3663 29.7552C28.2557 29.6844 28.1601 29.5924 28.0849 29.4847C28.0098 29.3769 27.9567 29.2554 27.9285 29.1271C27.9004 28.9988 27.8978 28.8662 27.9209 28.7368C27.9675 28.4757 28.116 28.2437 28.3336 28.092C29.8364 27.0457 31.5644 26.3679 33.3778 26.1133C35.1912 25.8587 37.0391 26.0346 38.7719 26.6267C40.5047 27.2187 42.0738 28.2104 43.3523 29.5214C44.6308 30.8324 45.5827 32.4259 46.131 34.1731C46.6794 35.9202 46.8087 37.7719 46.5087 39.5783C46.2086 41.3848 45.4876 43.0952 44.4039 44.5712C43.3201 46.0473 41.9042 47.2475 40.2705 48.0748C38.6369 48.9021 36.8315 49.3332 35.0003 49.3333Z" fill="#235CD0"/>
<path d="M28.3333 39.3334H23C22.7348 39.3334 22.4804 39.228 22.2929 39.0405C22.1054 38.8529 22 38.5986 22 38.3334C22 38.0682 22.1054 37.8138 22.2929 37.6263C22.4804 37.4387 22.7348 37.3334 23 37.3334H28.3333C28.5985 37.3334 28.8529 37.4387 29.0404 37.6263C29.228 37.8138 29.3333 38.0682 29.3333 38.3334C29.3333 38.5986 29.228 38.8529 29.0404 39.0405C28.8529 39.228 28.5985 39.3334 28.3333 39.3334Z" fill="#235CD0"/>
<path d="M29.2403 35.3334H21.667C21.4018 35.3334 21.1474 35.228 20.9599 35.0405C20.7723 34.8529 20.667 34.5986 20.667 34.3334C20.667 34.0682 20.7723 33.8138 20.9599 33.6263C21.1474 33.4387 21.4018 33.3334 21.667 33.3334H29.2403C29.5055 33.3334 29.7599 33.4387 29.9474 33.6263C30.135 33.8138 30.2403 34.0682 30.2403 34.3334C30.2403 34.5986 30.135 34.8529 29.9474 35.0405C29.7599 35.228 29.5055 35.3334 29.2403 35.3334Z" fill="#235CD0"/>
<path d="M29.667 43.3334H21.667C21.4018 43.3334 21.1474 43.228 20.9599 43.0405C20.7723 42.8529 20.667 42.5986 20.667 42.3334C20.667 42.0682 20.7723 41.8138 20.9599 41.6263C21.1474 41.4387 21.4018 41.3334 21.667 41.3334H29.667C29.9322 41.3334 30.1866 41.4387 30.3741 41.6263C30.5616 41.8138 30.667 42.0682 30.667 42.3334C30.667 42.5986 30.5616 42.8529 30.3741 43.0405C30.1866 43.228 29.9322 43.3334 29.667 43.3334Z" fill="#235CD0"/>
<path d="M47.8249 23.8547L43.3289 20.984C42.8067 20.6522 42.1742 20.5409 41.5701 20.6746C40.966 20.8083 40.4396 21.1761 40.1062 21.6974L39.3889 22.8214C39.0566 23.3431 38.945 23.9753 39.0785 24.5793C39.212 25.1833 39.5797 25.7096 40.1009 26.0427L44.5995 28.912C45.1215 29.2428 45.7531 29.3536 46.3564 29.2202C46.9597 29.0868 47.4857 28.72 47.8195 28.2L48.5369 27.076C48.8684 26.5541 48.9797 25.9221 48.8462 25.3183C48.7128 24.7145 48.3455 24.1883 47.8249 23.8547Z" fill="#235CD0"/>
<path d="M41.4521 29.8827C41.273 29.8823 41.0973 29.8339 40.9434 29.7424C40.7894 29.651 40.6628 29.5198 40.5769 29.3628C40.4909 29.2057 40.4487 29.0284 40.4547 28.8494C40.4606 28.6704 40.5145 28.4964 40.6107 28.3453L42.0441 26.0973C42.1147 25.9866 42.2065 25.8908 42.3141 25.8156C42.4218 25.7403 42.5432 25.6869 42.6715 25.6586C42.7998 25.6302 42.9324 25.6274 43.0617 25.6503C43.1911 25.6732 43.3147 25.7214 43.4254 25.792C43.5361 25.8627 43.6319 25.9544 43.7072 26.0621C43.7825 26.1697 43.8358 26.2912 43.8642 26.4194C43.8925 26.5477 43.8953 26.6803 43.8724 26.8097C43.8495 26.939 43.8014 27.0626 43.7307 27.1733L42.2961 29.42C42.2059 29.5622 42.0813 29.6791 41.9337 29.7601C41.7861 29.841 41.6204 29.8831 41.4521 29.8827Z" fill="#235CD0"/>
<path d="M34.9997 30C33.4834 30 32.0011 30.4497 30.7403 31.2921C29.4795 32.1345 28.4969 33.3319 27.9166 34.7328C27.3363 36.1337 27.1845 37.6752 27.4803 39.1624C27.7761 40.6496 28.5063 42.0157 29.5785 43.0879C30.6507 44.1601 32.0168 44.8902 33.504 45.1861C34.9912 45.4819 36.5327 45.3301 37.9336 44.7498C39.3345 44.1695 40.5319 43.1869 41.3743 41.9261C42.2167 40.6653 42.6663 39.183 42.6663 37.6667C42.6731 36.658 42.4794 35.6581 42.0965 34.7249C41.7136 33.7917 41.1491 32.9438 40.4358 32.2306C39.7226 31.5173 38.8747 30.9528 37.9415 30.5699C37.0083 30.187 36.0084 29.9933 34.9997 30ZM38.3223 36.1067L36.961 37.288C36.9861 37.4127 36.999 37.5395 36.9997 37.6667C37.0065 38.0994 36.875 38.5229 36.6243 38.8756C36.3737 39.2283 36.017 39.4918 35.6062 39.6277C35.1954 39.7637 34.752 39.7649 34.3404 39.6313C33.9289 39.4977 33.5707 39.2362 33.3181 38.8849C33.0655 38.5335 32.9317 38.1108 32.936 37.6781C32.9404 37.2454 33.0828 36.8254 33.3424 36.4793C33.602 36.1332 33.9654 35.8789 34.3795 35.7536C34.7937 35.6284 35.237 35.6385 35.645 35.7827L37.0103 34.596C37.2107 34.4221 37.4719 34.3348 37.7366 34.3534C38.0013 34.372 38.2477 34.4951 38.4217 34.6954C38.5957 34.8957 38.6829 35.1569 38.6643 35.4216C38.6457 35.6863 38.5227 35.9327 38.3223 36.1067Z" fill="#235CD0"/>
</svg>
