<svg width="14" height="13" viewBox="0 0 14 13" fill="none" xmlns="http://www.w3.org/2000/svg">
<path d="M7.00329 0.555721C7.00329 0.457189 6.96415 0.362692 6.89447 0.293019C6.8248 0.223346 6.7303 0.184204 6.63177 0.184204C6.53324 0.184204 6.43874 0.223346 6.36907 0.293019C6.2994 0.362692 6.26025 0.457189 6.26025 0.555721V0.927238H2.73084C2.18892 0.927238 1.66918 1.14252 1.28598 1.52572C0.90278 1.90892 0.6875 2.42865 0.6875 2.97058V7.80179C0.6875 8.34372 0.90278 8.86345 1.28598 9.24665C1.66918 9.62985 2.18892 9.84513 2.73084 9.84513H4.08019L2.97902 11.4969C2.95194 11.5375 2.93312 11.583 2.92364 11.6309C2.91416 11.6787 2.9142 11.728 2.92375 11.7759C2.93331 11.8237 2.95219 11.8692 2.97933 11.9098C3.00647 11.9503 3.04134 11.9851 3.08193 12.0122C3.12252 12.0393 3.16805 12.0581 3.21591 12.0676C3.26377 12.0771 3.31304 12.077 3.36089 12.0675C3.40874 12.0579 3.45424 12.039 3.49479 12.0119C3.53534 11.9847 3.57014 11.9499 3.59722 11.9093L4.97332 9.84513H6.64069V9.84365H7.74632C7.90213 9.63559 8.09992 9.4626 8.32687 9.33588C8.55381 9.20916 8.80486 9.13153 9.06372 9.10804C8.85871 8.88028 8.70287 8.61269 8.60592 8.32199C8.50897 8.0313 8.473 7.72373 8.50026 7.41851C8.52751 7.11328 8.6174 6.81696 8.76433 6.54804C8.91125 6.27911 9.11203 6.04337 9.35415 5.85554C9.59627 5.6677 9.87452 5.5318 10.1715 5.45633C10.4685 5.38086 10.7779 5.36743 11.0803 5.41689C11.3827 5.46635 11.6717 5.57764 11.9292 5.74379C12.1867 5.90995 12.4071 6.12741 12.5768 6.38259V2.97132C12.5766 2.42926 12.3612 1.90945 11.9779 1.52615C11.5946 1.14286 11.0748 0.927435 10.5327 0.927238H7.00329V0.555721ZM2.9166 3.52786C2.9166 3.42932 2.95574 3.33483 3.02542 3.26516C3.09509 3.19548 3.18959 3.15634 3.28812 3.15634H5.51722C5.61575 3.15634 5.71025 3.19548 5.77992 3.26516C5.8496 3.33483 5.88874 3.42932 5.88874 3.52786C5.88874 3.62639 5.8496 3.72089 5.77992 3.79056C5.71025 3.86023 5.61575 3.89937 5.51722 3.89937H3.28812C3.18959 3.89937 3.09509 3.86023 3.02542 3.79056C2.95574 3.72089 2.9166 3.62639 2.9166 3.52786ZM3.28812 6.873H6.26025C6.35879 6.873 6.45328 6.91214 6.52296 6.98181C6.59263 7.05148 6.63177 7.14598 6.63177 7.24451C6.63177 7.34305 6.59263 7.43754 6.52296 7.50722C6.45328 7.57689 6.35879 7.61603 6.26025 7.61603H3.28812C3.18959 7.61603 3.09509 7.57689 3.02542 7.50722C2.95574 7.43754 2.9166 7.34305 2.9166 7.24451C2.9166 7.14598 2.95574 7.05148 3.02542 6.98181C3.09509 6.91214 3.18959 6.873 3.28812 6.873ZM3.28812 5.01541H7.00329C7.10182 5.01541 7.19632 5.05455 7.26599 5.12423C7.33566 5.1939 7.37481 5.2884 7.37481 5.38693C7.37481 5.48546 7.33566 5.57996 7.26599 5.64963C7.19632 5.7193 7.10182 5.75845 7.00329 5.75845H3.28812C3.18959 5.75845 3.09509 5.7193 3.02542 5.64963C2.95574 5.57996 2.9166 5.48546 2.9166 5.38693C2.9166 5.2884 2.95574 5.1939 3.02542 5.12423C3.09509 5.05455 3.18959 5.01541 3.28812 5.01541ZM12.2045 7.61454C12.2045 8.00867 12.048 8.38666 11.7693 8.66535C11.4906 8.94404 11.1126 9.10061 10.7185 9.10061C10.3243 9.10061 9.94634 8.94404 9.66765 8.66535C9.38896 8.38666 9.23239 8.00867 9.23239 7.61454C9.23239 7.22041 9.38896 6.84243 9.66765 6.56374C9.94634 6.28504 10.3243 6.12848 10.7185 6.12848C11.1126 6.12848 11.4906 6.28504 11.7693 6.56374C12.048 6.84243 12.2045 7.22041 12.2045 7.61454ZM13.3191 10.9582C13.3191 11.8833 12.576 12.8158 10.7185 12.8158C8.86087 12.8158 8.11784 11.887 8.11784 10.9582C8.11784 10.6626 8.23527 10.3791 8.44428 10.1701C8.6533 9.96107 8.93679 9.84365 9.23239 9.84365H12.2045C12.5001 9.84365 12.7836 9.96107 12.9926 10.1701C13.2017 10.3791 13.3191 10.6626 13.3191 10.9582Z" fill="#235CD0"/>
</svg>
