<svg width="24" height="24" viewBox="0 0 24 24" fill="none" xmlns="http://www.w3.org/2000/svg">
<g clip-path="url(#clip0_8517_31160)">
<path d="M20.4727 3H3.52734C3.23611 3 3 3.23611 3 3.52734V17.2849C3 17.5761 3.23611 17.8122 3.52734 17.8122H10.1885C9.97722 18.4304 9.5803 19.266 8.85949 19.9453H6.91651C6.62528 19.9453 6.38917 20.1814 6.38917 20.4727C6.38917 20.7639 6.62528 21 6.91651 21H17.0835C17.3747 21 17.6108 20.7639 17.6108 20.4727C17.6108 20.1814 17.3747 19.9453 17.0835 19.9453H15.1405C14.4197 19.266 14.0228 18.4305 13.8115 17.8122H20.4727C20.7639 17.8122 21 17.5761 21 17.2849V3.52734C21 3.23611 20.7639 3 20.4727 3ZM4.05469 4.05469H19.9453V14.6481H4.05469V4.05469ZM13.7364 19.9453H10.2636C10.8186 19.1937 11.1263 18.4062 11.2945 17.8122H12.7055C12.8737 18.4062 13.1814 19.1937 13.7364 19.9453ZM4.05469 16.7575V15.7028H19.9453V16.7575H4.05469Z" fill="#9A9DAC"/>
<path d="M18.3633 5.10938H5.63672C5.34548 5.10938 5.10938 5.34548 5.10938 5.63672V13.0661C5.10938 13.3573 5.34548 13.5935 5.63672 13.5935H18.3633C18.6545 13.5935 18.8906 13.3573 18.8906 13.0661V5.63672C18.8906 5.34548 18.6545 5.10938 18.3633 5.10938ZM17.8359 12.5388H6.16406V6.16406H17.8359V12.5388Z" fill="#9A9DAC"/>
<path d="M10.26 11.3847C10.3425 11.4333 10.4349 11.4575 10.5274 11.4575C10.6156 11.4575 10.7039 11.4354 10.7836 11.3911L13.733 9.7517C13.9004 9.65867 14.0042 9.48226 14.0042 9.2908C14.0042 9.09934 13.9004 8.92289 13.733 8.8299L10.7836 7.19046C10.6203 7.09969 10.4211 7.10204 10.26 7.19686C10.0989 7.2916 10 7.4645 10 7.65139V10.9302C10.0001 11.1171 10.099 11.29 10.26 11.3847ZM11.0548 8.54784L12.3914 9.29083L11.0548 10.0338V8.54784Z" fill="#9A9DAC"/>
<path d="M16.6055 7.92188C16.8967 7.92188 17.1328 7.68578 17.1328 7.39453C17.1328 7.10329 16.8967 6.86719 16.6055 6.86719C16.3142 6.86719 16.0781 7.10329 16.0781 7.39453C16.0781 7.68578 16.3142 7.92188 16.6055 7.92188Z" fill="#9A9DAC"/>
</g>
<defs>
<clipPath id="clip0_8517_31160">
<rect width="18" height="18" fill="white" transform="translate(3 3)"/>
</clipPath>
</defs>
</svg>
