<svg width="70" height="70" viewBox="0 0 70 70" fill="none" xmlns="http://www.w3.org/2000/svg">
<rect width="70" height="70" rx="6" fill="#EEF9ED"/>
<path d="M23.8949 22.7764C23.8941 22.7764 23.8931 22.7764 23.8922 22.7764C23.5896 22.7764 23.3049 22.8943 23.09 23.1088C22.8726 23.3255 22.7529 23.6142 22.7529 23.9215V41.0922C22.7529 41.7218 23.2672 42.2353 23.8994 42.237C26.5648 42.2433 31.0304 42.7988 34.111 46.0227V28.053C34.111 27.8396 34.0565 27.6391 33.9536 27.4732C31.4252 23.4013 26.5663 22.7826 23.8949 22.7764Z" fill="#53C749"/>
<path d="M47.2467 41.0922V23.9214C47.2467 23.6141 47.127 23.3254 46.9096 23.1086C46.6947 22.8942 46.4098 22.7762 46.1075 22.7762C46.1065 22.7762 46.1055 22.7762 46.1047 22.7762C43.4334 22.7826 38.5745 23.4013 36.046 27.4731C35.9431 27.6391 35.8887 27.8396 35.8887 28.053V46.0225C38.9693 42.7987 43.4349 42.2432 46.1003 42.2368C46.7324 42.2352 47.2467 41.7217 47.2467 41.0922Z" fill="#53C749"/>
<path d="M49.8554 26.7362H49.0252V41.0922C49.0252 42.6998 47.7153 44.0108 46.1052 44.0148C43.8444 44.0201 40.1166 44.4622 37.4766 46.9609C42.0426 45.843 46.8559 46.5697 49.5991 47.1948C49.9416 47.2728 50.2956 47.1922 50.57 46.9735C50.8435 46.7553 51.0003 46.4292 51.0003 46.0791V27.8811C51.0004 27.2498 50.4867 26.7362 49.8554 26.7362Z" fill="#53C749"/>
<path d="M20.9752 41.0922V26.7362H20.1449C19.5137 26.7362 19 27.2498 19 27.8811V46.0788C19 46.429 19.1569 46.755 19.4303 46.9732C19.7045 47.1918 20.0582 47.2727 20.4012 47.1945C23.1444 46.5693 27.9579 45.8426 32.5237 46.9606C29.8837 44.462 26.156 44.02 23.8952 44.0146C22.2851 44.0108 20.9752 42.6998 20.9752 41.0922Z" fill="#53C749"/>
</svg>
