<svg width="25" height="28" viewBox="0 0 25 28" fill="none" xmlns="http://www.w3.org/2000/svg">
<path d="M2.51278 20.9091H22.4937C23.0489 20.9091 23.3637 20.0505 23.0368 19.5587C22.2798 18.4196 21.5445 16.7407 21.5445 14.716L21.577 11.9466C21.577 6.45325 17.5143 2 12.5026 2C7.56368 2 3.55989 6.3886 3.55989 11.8022L3.52734 14.716C3.52734 16.7269 2.76575 18.3967 1.9767 19.5353C1.63666 20.0259 1.95063 20.9091 2.51278 20.9091Z" fill="#FFC107"/>
<path d="M8.94705 24.7879C9.89062 25.5417 11.1366 26 12.5026 26C13.8686 26 15.1146 25.5417 16.0582 24.7879M2.51278 20.9091C1.95063 20.9091 1.63666 20.0259 1.9767 19.5353C2.76575 18.3967 3.52734 16.7269 3.52734 14.716L3.55989 11.8022C3.55989 6.3886 7.56368 2 12.5026 2C17.5143 2 21.577 6.45325 21.577 11.9466L21.5445 14.716C21.5445 16.7407 22.2798 18.4196 23.0368 19.5587C23.3637 20.0505 23.0489 20.9091 22.4937 20.9091H2.51278Z" stroke="#333333" stroke-width="2.66667" stroke-linecap="round" stroke-linejoin="round"/>
</svg>
