<svg width="70" height="70" viewBox="0 0 70 70" fill="none" xmlns="http://www.w3.org/2000/svg">
<rect width="70" height="70" rx="6" fill="#EEF9ED"/>
<g clipPath="url(#clip0_1175_9016)">
<path d="M32.4519 29.6034C31.8611 27.9292 33.477 26.2724 35.1649 26.8386C36.9839 27.4408 38.7061 28.3362 40.249 29.4729V19.9378C40.249 19.4199 39.8293 19 39.3115 19H19.9375C19.4197 19 19 19.4199 19 19.9378V50.0623C19 50.5801 19.4197 51 19.9375 51H30.9461H39.3115C39.8293 51 40.249 50.5801 40.249 50.0623V40.1154L36.8458 36.7121C34.8596 34.726 33.3404 32.2682 32.4519 29.6034ZM22.8511 30.5407L25.5264 23.5144C25.831 22.6417 26.9957 22.5871 27.4823 23.3285C27.5304 23.4015 27.5558 23.4577 27.5784 23.5167L30.2294 30.5434C30.4122 31.0279 30.1677 31.569 29.6833 31.7519C29.2114 31.9337 28.6575 31.6951 28.4751 31.2056L28.0438 30.0624H25.0396L24.6033 31.2083C24.419 31.6922 23.8776 31.9352 23.3936 31.7509C22.9097 31.5665 22.6669 31.0247 22.8511 30.5407ZM35.4644 47.7246H30.9461H23.6982C23.1934 47.7246 22.7591 47.3366 22.7353 46.8322C22.7099 46.2937 23.1389 45.8491 23.6718 45.8491H30.9461H35.4909C36.0237 45.8491 36.4527 46.2937 36.4273 46.8322C36.4035 47.3366 35.9691 47.7246 35.4644 47.7246ZM35.4644 43.9735H30.9461H23.6982C23.1934 43.9735 22.7591 43.5855 22.7353 43.0811C22.7099 42.5426 23.1389 42.0979 23.6718 42.0979H30.9461H35.4909C36.0237 42.0979 36.4527 42.5426 36.4273 43.0811C36.4035 43.5854 35.9691 43.9735 35.4644 43.9735ZM35.4644 40.2224H30.9461H23.6982C23.1934 40.2224 22.7591 39.8344 22.7353 39.3299C22.7099 38.7914 23.1389 38.3468 23.6718 38.3468H30.9461H35.4909C36.0237 38.3468 36.4527 38.7914 36.4273 39.3299C36.4035 39.8343 35.9691 40.2224 35.4644 40.2224Z" fill="#53C749"/>
<path d="M34.4883 28.6047C34.2932 28.5991 34.1551 28.8103 34.2241 28.9907C35.0202 31.3885 36.3851 33.5998 38.1716 35.3862L40.1061 37.3208L42.9211 34.5057L40.9866 32.5712C39.1967 30.7812 36.9803 29.4146 34.5772 28.619C34.5484 28.6095 34.5184 28.6047 34.4883 28.6047Z" fill="#53C749"/>
<path d="M50.3207 41.4328L49.9044 41.0165L50.0865 40.8344C50.6756 40.2453 51.0001 39.462 51.0001 38.6288C51.0001 37.7955 50.6756 37.0122 50.0865 36.4231L46.8058 33.1425C46.6228 32.9594 46.3828 32.8679 46.143 32.8679C45.903 32.8679 45.6631 32.9594 45.4801 33.1425C45.114 33.5085 45.114 34.1022 45.4801 34.4683L48.7607 37.749C49.3338 38.2966 49.185 39.2314 48.5786 39.6907L44.6835 35.7956C44.5781 35.6859 44.3886 35.6857 44.2831 35.7955L41.396 38.6828C41.2778 38.8419 41.2785 38.9241 41.3959 39.0832L47.0333 44.7205C47.8986 45.6223 49.4555 45.6224 50.3208 44.7205C51.2226 43.8552 51.2226 42.298 50.3207 41.4328Z" fill="#53C749"/>
<path d="M26.5487 26.1018L25.7539 28.1888H27.3363L26.5487 26.1018Z" fill="#53C749"/>
</g>
<defs>
<clipPath id="clip0_1175_9016">
<rect width="32" height="32" fill="white" transform="translate(19 19)"/>
</clipPath>
</defs>
</svg>
