<svg width="70" height="70" viewBox="0 0 70 70" fill="none" xmlns="http://www.w3.org/2000/svg">
<rect width="70" height="70" rx="6" fill="#FEECEB"/>
<path d="M24.45 30.34L32.66 34.45C33.38 34.81 34.19 35 35 35C35.81 35 36.62 34.81 37.34 34.45L45.55 30.34C46.45 29.89 47 29 47 28C47 27 46.45 26.11 45.55 25.66L37.34 21.55C35.89 20.83 34.11 20.83 32.66 21.55L24.45 25.66C23.55 26.11 23 27 23 28C23 29 23.55 29.89 24.45 30.34Z" fill="#F44336"/>
<path d="M43.89 42.19C43.68 42.05 43.41 42.1 43.24 42.29C41.23 44.57 38.28 46 35 46C31.72 46 28.77 44.57 26.76 42.29C26.6 42.1 26.32 42.05 26.11 42.19C24.23 43.44 23 45.58 23 48.01C23 48.56 23.45 49 23.99 49H46C46.55 49 46.99 48.56 46.99 48.01C47 45.58 45.77 43.44 43.89 42.19Z" fill="#F44336"/>
<path d="M37.7702 36.47C37.7402 36.47 37.7102 36.48 37.6802 36.49C36.8302 36.83 35.9202 37 35.0002 37C33.8802 37 32.7602 36.74 31.7702 36.24L26.7702 33.74C26.4502 33.58 26.0802 33.8 26.0402 34.15C26.0202 34.38 26.0102 34.62 26.0002 34.85C25.9302 39.2 29.0902 43.1 33.3702 43.86C36.3002 44.37 39.0402 43.45 41.0002 41.69C42.8502 40.02 44.0002 37.58 44.0002 34.98V34.85C43.9902 34.62 43.9802 34.38 43.9602 34.15C43.9202 33.8 43.5502 33.58 43.2302 33.74L40.2802 35.22C40.1102 35.31 40.0002 35.48 40.0002 35.67V38C40.0002 38.55 39.5502 39 39.0002 39C38.4502 39 38.0002 38.55 38.0002 38V36.7C38.0002 36.57 37.9002 36.47 37.7702 36.47Z" fill="#F44336"/>
</svg>
