<svg width="24" height="24" viewBox="0 0 24 24" fill="none" xmlns="http://www.w3.org/2000/svg">
<path d="M17.0754 8.37549H13.7137C13.0271 8.37549 12.4119 8.68627 12.0006 9.17423C11.5893 8.68627 10.9741 8.37549 10.2875 8.37549H6.92578C6.63454 8.37549 6.39844 8.6116 6.39844 8.90283V16.1516C6.39844 16.4428 6.63454 16.6789 6.92578 16.6789H17.0754C17.3667 16.6789 17.6028 16.4428 17.6028 16.1516V8.90283C17.6028 8.6116 17.3667 8.37549 17.0754 8.37549ZM13.7137 9.43017H16.5481V13.5149H12.5279V10.616C12.5279 9.96214 13.0599 9.43017 13.7137 9.43017ZM10.2875 9.43017C10.9413 9.43017 11.4732 9.96214 11.4732 10.616V13.5149H7.45311V9.43017H10.2875ZM7.45311 14.5696H11.4733V15.6243H7.45311V14.5696ZM12.5279 15.6243V14.5696H16.5481V15.6243H12.5279Z" fill="#235CD0"/>
<path d="M20.4726 17.8358H19.9452V8.5184L20.2176 8.66887C20.2985 8.71356 20.3859 8.73472 20.4721 8.73472C20.6579 8.73472 20.838 8.63635 20.9342 8.46226C21.0751 8.20731 20.9825 7.88648 20.7276 7.74568L18.8956 6.73372V3.52736C18.8956 3.23612 18.6595 3.00002 18.3682 3.00002H16.2589C15.9676 3.00002 15.7315 3.23612 15.7315 3.52736V4.98605L12.255 3.06576C12.0963 2.97808 11.9037 2.97808 11.745 3.06576L3.27245 7.74568C3.01754 7.88648 2.92501 8.20731 3.06584 8.46226C3.20661 8.71718 3.52744 8.80978 3.78239 8.66887L4.05478 8.5184V17.8358H3.52744C3.23621 17.8358 3.0001 18.0719 3.0001 18.3631V20.4725C3.0001 20.7637 3.23621 20.9998 3.52744 20.9998H20.4726C20.7638 20.9998 20.9999 20.7637 20.9999 20.4725V18.3631C20.9999 18.0719 20.7638 17.8358 20.4726 17.8358ZM16.7861 4.05469H17.8408V6.15118L16.7861 5.56861V4.05469ZM5.10946 7.93587L12 4.12979L18.8906 7.93587V17.8358H5.10946V7.93587ZM19.9452 19.9452H4.05478V18.8905H19.9452V19.9452Z" fill="#235CD0"/>
</svg>
