<svg width="70" height="70" viewBox="0 0 70 70" fill="none" xmlns="http://www.w3.org/2000/svg">
<rect width="70" height="70" rx="6" fill="#FFF6EF"/>
<g clipPath="url(#clip0_1175_8965)">
<path d="M50.0629 19H27.0029C26.4854 19 26.0654 19.42 26.0654 19.9375V21.6562C26.3104 21.6156 26.5623 21.5944 26.8192 21.5944C29.2767 21.5944 31.2923 23.5225 31.4336 25.9469L33.7267 23.8931C34.3742 23.2806 35.2461 22.9306 36.1261 22.9306H36.1367C37.1342 22.9306 38.0867 23.3581 38.7498 24.1044C40.0286 25.5444 39.8979 27.7556 38.4592 29.035L32.5767 34.2819L32.5754 37.4237L50.0629 37.4325C50.5804 37.4325 51.0004 37.0125 51.0004 36.495V19.9375C51.0004 19.42 50.5804 19 50.0629 19ZM47.1879 31.5H42.6929C42.1754 31.5 41.7554 31.08 41.7554 30.5625C41.7554 30.045 42.1754 29.625 42.6929 29.625H47.1879C47.7054 29.625 48.1254 30.045 48.1254 30.5625C48.1254 31.08 47.7054 31.5 47.1879 31.5ZM47.1879 27.75H42.6929C42.1754 27.75 41.7554 27.33 41.7554 26.8125C41.7554 26.295 42.1754 25.875 42.6929 25.875H47.1879C47.7054 25.875 48.1254 26.295 48.1254 26.8125C48.1254 27.33 47.7054 27.75 47.1879 27.75ZM47.1879 24H42.6929C42.1754 24 41.7554 23.58 41.7554 23.0625C41.7554 22.545 42.1754 22.125 42.6929 22.125H47.1879C47.7054 22.125 48.1254 22.545 48.1254 23.0625C48.1254 23.58 47.7054 24 47.1879 24Z" fill="#FDA45F"/>
<path d="M25.2924 45.4544C26.7149 45.4544 27.868 44.3013 27.868 42.8788C27.868 41.4563 26.7149 40.3032 25.2924 40.3032C23.8699 40.3032 22.7168 41.4563 22.7168 42.8788C22.7168 44.3013 23.8699 45.4544 25.2924 45.4544Z" fill="#FDA45F"/>
<path d="M35.0004 45.4543C36.4229 45.4543 37.5761 44.3012 37.5761 42.8787C37.5761 41.4562 36.4229 40.3031 35.0004 40.3031C33.578 40.3031 32.4248 41.4562 32.4248 42.8787C32.4248 44.3012 33.578 45.4543 35.0004 45.4543Z" fill="#FDA45F"/>
<path d="M44.3543 45.4672C41.8265 45.6502 39.8859 47.7809 39.8553 50.3091C39.8548 50.3088 39.8544 50.3084 39.854 50.3081C39.854 47.6456 37.6627 45.4543 35.0002 45.4543C32.3391 45.4543 30.1488 47.6434 30.1466 50.304C30.1443 47.5264 27.7578 45.2631 24.94 45.4672C22.392 45.6517 20.4395 47.8149 20.4395 50.3696V50.37C20.4395 50.7179 20.7215 51 21.0695 51H48.8691C49.2513 51 49.561 50.6902 49.561 50.3081V50.308C49.561 47.5285 47.1735 45.263 44.3543 45.4672Z" fill="#FDA45F"/>
<path d="M44.7075 45.4544C46.1299 45.4544 47.2831 44.3013 47.2831 42.8788C47.2831 41.4563 46.1299 40.3032 44.7075 40.3032C43.285 40.3032 42.1318 41.4563 42.1318 42.8788C42.1318 44.3013 43.285 45.4544 44.7075 45.4544Z" fill="#FDA45F"/>
<path d="M26.8184 28.9712C28.3361 28.9712 29.5664 27.7396 29.5664 26.2203C29.5664 24.701 28.3361 23.4694 26.8184 23.4694C25.3007 23.4694 24.0703 24.701 24.0703 26.2203C24.0703 27.7396 25.3007 28.9712 26.8184 28.9712Z" fill="#FDA45F"/>
<path d="M37.3475 25.3494C37.0275 24.9894 36.5825 24.8056 36.1362 24.8056C35.7282 24.8028 35.3121 24.9664 35 25.2694L31.8206 28.1175C31.2013 28.6675 30.4019 28.9719 29.5731 28.9719H22.9213C20.7688 28.9719 19 30.7188 19 32.8725V36.495C19 37.0125 19.42 37.4325 19.9375 37.4325H21.3131L21.3363 33.0556C21.3388 32.5375 21.7606 32.1219 22.2787 32.1231C22.7962 32.1256 23.2137 32.5475 23.2112 33.0656L23.1881 37.4325H30.7L30.7013 33.4419L37.2119 27.635C37.8806 27.0413 37.9412 26.0181 37.3475 25.3494Z" fill="#FDA45F"/>
</g>
<defs>
<clipPath id="clip0_1175_8965">
<rect width="32" height="32" fill="white" transform="translate(19 19)"/>
</clipPath>
</defs>
</svg>
