<svg width="24" height="24" viewBox="0 0 24 24" fill="none" xmlns="http://www.w3.org/2000/svg">
<path d="M19.4581 17.2543C20.2049 17.2543 20.8125 16.6467 20.8125 15.8998V12.354C20.8125 11.6072 20.2049 10.9996 19.4581 10.9996H13.1059C12.3591 10.9996 11.7515 11.6072 11.7515 12.354V15.8998C11.7515 16.6467 12.3591 17.2543 13.1059 17.2543H14.0571V18.3335H11.2531C10.9508 17.0645 10.0886 16.0261 8.95564 15.4732C9.55618 15.0273 9.99351 14.3735 10.1604 13.6192C10.1613 13.6152 10.1622 13.6112 10.163 13.6072C10.21 13.391 10.2349 13.1666 10.2349 12.9365C10.2349 11.1954 8.8184 9.77881 7.07723 9.77881C5.33607 9.77881 3.91952 11.1953 3.91952 12.9365C3.91952 13.9746 4.42314 14.8972 5.19882 15.4731C3.93108 16.0918 3.0022 17.3182 2.8175 18.7953C2.77292 19.1002 3.03303 19.3943 3.34074 19.388H20.2852C20.5764 19.388 20.8125 19.1519 20.8125 18.8607C20.8125 18.5695 20.5764 18.3334 20.2852 18.3334H18.5069V17.2542H19.4581V17.2543ZM12.8061 15.8998V12.354C12.8061 12.1887 12.9406 12.0542 13.1059 12.0542H19.4581C19.6234 12.0542 19.7578 12.1887 19.7578 12.354V15.8998C19.7578 16.0651 19.6234 16.1996 19.4581 16.1996H13.1059C12.9406 16.1996 12.8061 16.0651 12.8061 15.8998ZM4.97415 12.9365C4.97415 11.7768 5.91759 10.8334 7.07723 10.8334C8.23687 10.8334 9.17926 11.7578 9.17926 12.978H7.70203C7.41081 12.978 7.17472 13.2141 7.17472 13.5054C7.17472 13.7966 7.41081 14.0327 7.70203 14.0327H8.87123C8.50116 14.6361 7.83548 15.0396 7.07723 15.0396C5.91759 15.0396 4.97415 14.0961 4.97415 12.9365ZM3.99559 18.3334C4.41977 17.0227 5.65369 16.0942 7.07723 16.0942C8.50074 16.0942 9.73466 17.0227 10.1588 18.3334H3.99559ZM17.4523 18.3334H15.1117V17.2542H17.4523V18.3334Z" fill="#9A9DAC"/>
<path d="M15.9485 14.5346C16.2852 14.817 16.8141 14.5661 16.8101 14.1272C16.8165 13.7369 16.3757 13.472 16.0342 13.6621C15.7074 13.8269 15.6598 14.3095 15.9485 14.5346Z" fill="#9A9DAC"/>
<path d="M9.18083 9.29212H10.451L11.005 9.92613C11.1052 10.0407 11.2499 10.1065 11.4021 10.1065C11.5543 10.1065 11.699 10.0407 11.7991 9.92613L12.3531 9.29212H13.6233C14.4424 9.29212 15.1088 8.62569 15.1088 7.80659V5.48552C15.1088 4.66639 14.4424 4 13.6233 4H9.18083C8.3617 4 7.69531 4.66642 7.69531 5.48552V7.80659C7.69531 8.62573 8.3617 9.29212 9.18083 9.29212ZM8.74995 5.48552C8.74995 5.24791 8.94323 5.05463 9.18083 5.05463H13.6232C13.8608 5.05463 14.0542 5.24795 14.0542 5.48552V7.80659C14.0542 8.0442 13.8608 8.23748 13.6232 8.23748H12.1136C11.9614 8.23748 11.8167 8.30322 11.7166 8.41783L11.4021 8.77774L11.0875 8.41783C10.9874 8.30322 10.8427 8.23748 10.6905 8.23748H9.18087C8.94326 8.23748 8.74998 8.04417 8.74998 7.80659L8.74995 5.48552Z" fill="#9A9DAC"/>
</svg>
