<svg width="12" height="12" viewBox="0 0 12 12" fill="none" xmlns="http://www.w3.org/2000/svg">
<path d="M11.5387 6.4619C11.4205 6.4619 11.3026 6.4169 11.2124 6.32666L8.11174 3.22607C7.9315 3.04583 7.9315 2.75366 8.11174 2.57341C8.29197 2.39317 8.58412 2.39317 8.76435 2.57341L11.865 5.674C12.0452 5.85424 12.0452 6.14642 11.865 6.32666C11.7747 6.41667 11.6568 6.4619 11.5387 6.4619Z" fill="black"/>
<path d="M8.43804 9.56261C8.31989 9.56261 8.20197 9.5176 8.11174 9.42737C7.9315 9.24712 7.9315 8.95495 8.11174 8.77471L11.2124 5.67412C11.3926 5.49388 11.6847 5.49388 11.865 5.67412C12.0452 5.85436 12.0452 6.14654 11.865 6.32678L8.76458 9.42737C8.67435 9.51737 8.5562 9.56261 8.43804 9.56261Z" fill="black"/>
<path d="M11.5394 6.46196H2.77013C2.51536 6.46196 2.30859 6.25517 2.30859 6.00039C2.30859 5.7456 2.51536 5.53882 2.77013 5.53882H11.5394C11.7941 5.53882 12.0009 5.7456 12.0009 6.00039C12.0009 6.25517 11.7941 6.46196 11.5394 6.46196Z" fill="black"/>
<path d="M0.923078 12.0008C0.414001 12.0008 0 11.5868 0 11.0777C0 10.8229 0.20677 10.6161 0.461539 10.6161C0.716309 10.6161 0.923078 10.8229 0.923078 11.0777V11.0783C1.17785 11.0783 1.38462 11.2847 1.38462 11.5397C1.38462 11.7947 1.17785 12.0008 0.923078 12.0008Z" fill="black"/>
<path d="M4.15325 12.0008H0.922477C0.667707 12.0008 0.460938 11.794 0.460938 11.5392C0.460938 11.2844 0.667707 11.0776 0.922477 11.0776H4.15325C4.40802 11.0776 4.61479 11.2844 4.61479 11.5392C4.61479 11.794 4.40802 12.0008 4.15325 12.0008Z" fill="black"/>
<path d="M0.461539 11.5392C0.20677 11.5392 0 11.3324 0 11.0776V0.923116C0 0.668331 0.20677 0.461548 0.461539 0.461548C0.716309 0.461548 0.923078 0.668331 0.923078 0.923116V11.0776C0.923078 11.3324 0.716309 11.5392 0.461539 11.5392Z" fill="black"/>
<path d="M0.461308 1.38471C0.206308 1.38471 0 1.17792 0 0.923137C0 0.414027 0.414001 0 0.923078 0C1.17785 0 1.38462 0.206783 1.38462 0.461569C1.38462 0.716354 1.17785 0.923137 0.923078 0.923137H0.922386C0.922386 1.17792 0.716309 1.38471 0.461308 1.38471Z" fill="black"/>
<path d="M4.15325 0.923137H0.922477C0.667707 0.923137 0.460938 0.716354 0.460938 0.461569C0.460938 0.206783 0.667707 0 0.922477 0H4.15325C4.40802 0 4.61479 0.206783 4.61479 0.461569C4.61479 0.716354 4.40802 0.923137 4.15325 0.923137Z" fill="black"/>
</svg>
