<svg width="62" height="54" viewBox="0 0 62 54" fill="none" xmlns="http://www.w3.org/2000/svg">
<path d="M48.3215 4.00191C48.3215 4.05168 48.3599 4.07847 48.3907 4.10909C48.5942 4.31388 48.7996 4.51676 49.0031 4.71963C49.0492 4.76748 49.0953 4.81533 49.1413 4.86318C49.174 4.89954 49.1759 4.94739 49.1452 4.98184C49.101 5.0316 49.0549 5.07945 49.0089 5.1273C47.9299 6.24119 47.0218 7.47758 46.2865 8.84029C46.0925 9.19819 46.1559 9.15226 45.7508 9.15226C37.5222 9.15226 29.2954 9.15226 21.0668 9.15226C20.8556 9.15226 20.6444 9.15226 20.4332 9.158C18.4615 9.2269 16.7662 9.95802 15.3416 11.3073C14.2531 12.3389 13.5293 13.5925 13.1683 15.0471C12.9936 15.7495 12.9149 16.4634 12.9514 17.1869C13.1126 20.3448 15.0671 22.7564 17.4689 23.8607C18.1274 24.1631 18.8147 24.3698 19.5328 24.4789C19.9302 24.5382 20.3276 24.5535 20.7269 24.5688C20.8594 24.5746 20.9938 24.5688 21.1263 24.5688C27.5214 24.5688 33.9185 24.5688 40.3137 24.5688C40.7015 24.5688 41.0912 24.5803 41.479 24.5995C41.7344 24.6129 41.9878 24.6397 42.2412 24.676C42.9996 24.7851 43.7464 24.9516 44.476 25.1909C48.6671 26.5593 51.8273 29.9833 52.9216 34.0657C53.1002 34.7298 53.2307 35.4035 53.296 36.0868C53.367 36.8141 53.3843 37.5433 53.3286 38.2744C53.2441 39.4074 53.0214 40.5079 52.6471 41.5797C51.3166 45.398 48.1891 48.4143 44.3205 49.6201C43.6735 49.821 43.015 49.9742 42.343 50.0698C41.7056 50.1598 41.0624 50.2057 40.4173 50.2057C31.367 50.2057 22.3185 50.2057 13.2682 50.2057C13.201 50.2057 13.1338 50.2 13.0685 50.2057C12.9379 50.2172 12.8343 50.177 12.7421 50.0813C12.5271 49.8574 12.3044 49.6411 12.0855 49.421C12.0625 49.3981 12.0413 49.3713 12.0279 49.3406C12.0202 49.3234 12.0183 49.2928 12.0279 49.2794C12.0913 49.2028 12.1585 49.1301 12.2276 49.0574C13.0742 48.1732 13.8192 47.2124 14.4546 46.1674C14.6447 45.8554 14.8194 45.5339 14.9961 45.2142C15.0383 45.1377 15.094 45.0994 15.1804 45.0975C15.3128 45.0975 15.4472 45.0937 15.5797 45.0937C23.7181 45.0937 31.8585 45.0937 39.9969 45.0937C40.4193 45.0937 40.8416 45.086 41.2621 45.0477C41.8381 44.9941 42.4025 44.8717 42.9497 44.686C45.4763 43.8305 47.3002 41.7788 47.9529 39.4323C48.0873 38.9519 48.168 38.462 48.214 37.9643C48.262 37.4533 48.2409 36.9461 48.1795 36.4409C48.0739 35.5777 47.8224 34.7547 47.4326 33.9757C46.4343 31.9776 44.6161 30.4962 42.4524 29.9221C41.9264 29.7823 41.3907 29.6924 40.8436 29.6828C40.665 29.679 40.4884 29.6771 40.3098 29.6771C37.622 29.6771 34.9361 29.6771 32.2482 29.6771C28.4065 29.6771 24.5648 29.6752 20.7231 29.6771C16.4763 29.6771 12.7152 27.6388 10.3499 24.4636C9.24214 22.9765 8.49338 21.3228 8.10173 19.5123C7.98653 18.9821 7.90974 18.4462 7.8675 17.9046C7.8387 17.5505 7.8195 17.1984 7.82142 16.8443C7.8291 14.8997 8.25148 13.049 9.10199 11.2978C10.6801 8.04984 13.5677 5.60003 17.035 4.5646C17.7377 4.35407 18.4538 4.20862 19.1833 4.1244C19.4598 4.09378 19.7363 4.07656 20.0127 4.06125C20.1222 4.0555 20.2354 4.06507 20.3353 4H48.3177L48.3215 4.00191Z" fill="#235CD0"/>
<path d="M28.8018 39.9318C24.9159 39.9318 21.032 39.9318 17.1461 39.9318C17.0463 39.9318 16.9464 39.928 16.8466 39.9242C16.7852 39.9222 16.7468 39.8763 16.7525 39.8151C16.7813 39.5509 16.812 39.2868 16.8428 39.0246C16.8485 38.9691 16.86 38.9155 16.8639 38.86C16.9023 38.2189 16.956 37.5796 16.9272 36.9365C16.8965 36.2954 16.8677 35.6542 16.766 35.0188C16.7583 34.9767 16.7621 34.9307 16.7679 34.8867C16.7698 34.8695 16.7909 34.8504 16.8101 34.8427C16.8408 34.8312 16.8754 34.8274 16.9061 34.8255C17.0059 34.8236 17.1058 34.8236 17.2056 34.8236C24.9313 34.8236 32.6569 34.8236 40.3845 34.8217C40.6648 34.8217 40.9355 34.8542 41.2062 34.9288C41.9415 35.1355 42.8093 35.792 43.0243 36.9461C43.1222 37.4705 43.0531 37.9834 42.8112 38.4658C42.408 39.2581 41.7649 39.7385 40.8894 39.905C40.803 39.9222 40.7128 39.9242 40.6245 39.928C40.5246 39.9318 40.4248 39.928 40.325 39.928C36.4832 39.928 32.6435 39.928 28.8018 39.928V39.9318Z" fill="#235CD0"/>
<path d="M44.4317 14.3524C44.4317 14.5878 44.3741 14.8252 44.3587 15.0663C44.3433 15.2979 44.3184 15.5295 44.3011 15.7611C44.2838 16.0041 44.2665 16.2472 44.2589 16.4903C44.2512 16.7333 44.2512 16.9764 44.2589 17.2214C44.2646 17.4644 44.28 17.7075 44.2953 17.9506C44.3107 18.1822 44.3261 18.4137 44.3472 18.6453C44.3702 18.8865 44.4048 19.1257 44.4259 19.3688C44.3856 19.3822 44.3568 19.4013 44.3241 19.4032C44.2128 19.409 44.1014 19.409 43.992 19.409C36.3201 19.409 28.6482 19.409 20.9783 19.409C20.8784 19.409 20.7786 19.409 20.6787 19.409C19.6497 19.4243 18.5362 18.7104 18.2194 17.5257C17.9563 16.5419 18.227 15.6883 18.9624 14.9859C19.3675 14.5993 19.8647 14.3907 20.4176 14.3122C20.4714 14.3046 20.529 14.3046 20.5847 14.3046C20.696 14.3046 20.8074 14.3046 20.9168 14.3046C28.4447 14.3046 35.9707 14.3046 43.4986 14.3046C43.7539 14.3046 44.0093 14.3046 44.2646 14.3046C44.3203 14.3046 44.376 14.3046 44.4317 14.3524Z" fill="#235CD0"/>
<path d="M53.545 9.29407C53.5699 9.30746 53.6026 9.31703 53.6256 9.33809C53.6909 9.39742 53.7523 9.46058 53.8157 9.52374C56.1848 11.8855 58.554 14.2473 60.9231 16.6091C61.0076 16.6933 61.1055 16.7698 61.1708 16.8808C61.1573 16.9114 61.1497 16.9459 61.1285 16.967C61.0613 17.0397 60.9903 17.1105 60.9193 17.1813C58.5655 19.5278 56.2117 21.8723 53.8579 24.2188C53.7638 24.3126 53.6755 24.4121 53.5757 24.4867C53.5143 24.4944 53.4855 24.4599 53.4567 24.4293C53.1898 24.1633 52.9421 23.88 52.7098 23.5834C51.6155 22.19 50.907 20.6244 50.5807 18.8847C50.4232 18.0426 50.356 17.1947 50.4079 16.343C50.5653 13.719 51.5233 11.4281 53.3203 9.49503C53.3875 9.4223 53.449 9.34192 53.545 9.29407Z" fill="#235CD0"/>
<path d="M7.64814 44.9502C7.61934 44.9349 7.58671 44.9253 7.56367 44.9043C7.49839 44.8449 7.43503 44.7818 7.3736 44.7186C5.00253 42.3549 2.63146 39.9912 0.260398 37.6276C0.222001 37.5893 0.181683 37.5491 0.143285 37.5108C0.0357709 37.4011 0.0396102 37.2875 0.154804 37.1701C0.208561 37.1146 0.264238 37.061 0.319915 37.0055C1.03411 36.2936 1.74831 35.5816 2.46251 34.8696C4.09634 33.2428 5.72825 31.614 7.36208 29.9872C7.44655 29.903 7.52143 29.8016 7.62894 29.7499C7.71534 29.7748 7.76142 29.8398 7.81325 29.8953C8.66952 30.7949 9.35301 31.8093 9.85794 32.9423C10.2381 33.7959 10.503 34.6859 10.6509 35.6065C10.7622 36.307 10.8198 37.0132 10.7872 37.7232C10.6643 40.3759 9.73314 42.6994 7.93613 44.6708C7.84589 44.7684 7.76142 44.8717 7.64814 44.9502Z" fill="#235CD0"/>
</svg>
