<svg width="24" height="24" viewBox="0 0 24 24" fill="none" xmlns="http://www.w3.org/2000/svg">
<path d="M16.9091 4H7.45455C7.06878 4 6.69881 4.15325 6.42603 4.42603C6.15325 4.69881 6 5.06878 6 5.45455V18.5455C6 18.9312 6.15325 19.3012 6.42603 19.574C6.69881 19.8468 7.06878 20 7.45455 20H16.9091C17.102 20 17.287 19.9234 17.4234 19.787C17.5597 19.6506 17.6364 19.4656 17.6364 19.2727V4.72727C17.6364 4.53439 17.5597 4.3494 17.4234 4.21301C17.287 4.07662 17.102 4 16.9091 4ZM6.72727 18.5455V5.45455C6.72727 5.26166 6.8039 5.07668 6.94029 4.94029C7.07668 4.8039 7.26166 4.72727 7.45455 4.72727V19.2727C7.26166 19.2727 7.07668 19.1961 6.94029 19.0597C6.8039 18.9233 6.72727 18.7383 6.72727 18.5455ZM8.18182 19.2727V4.72727H16.9091V19.2727H8.18182Z" fill="black"/>
<path d="M15.0913 6.18176H10.0004C9.90391 6.18176 9.81142 6.22007 9.74323 6.28827C9.67503 6.35646 9.63672 6.44896 9.63672 6.5454V10.1818C9.63672 10.2782 9.67503 10.3707 9.74323 10.4389C9.81142 10.5071 9.90391 10.5454 10.0004 10.5454H15.0913C15.1877 10.5454 15.2802 10.5071 15.3484 10.4389C15.4166 10.3707 15.4549 10.2782 15.4549 10.1818V6.5454C15.4549 6.44896 15.4166 6.35646 15.3484 6.28827C15.2802 6.22007 15.1877 6.18176 15.0913 6.18176ZM14.7276 9.81813H10.364V6.90904H14.7276V9.81813Z" fill="black"/>
<path d="M13.9993 12.3636C14.0957 12.3636 14.1882 12.3253 14.2564 12.2571C14.3246 12.1889 14.3629 12.0964 14.3629 12C14.3629 11.9035 14.3246 11.8111 14.2564 11.7429C14.1882 11.6747 14.0957 11.6364 13.9993 11.6364H11.0902C10.9938 11.6364 10.9013 11.6747 10.8331 11.7429C10.7649 11.8111 10.7266 11.9035 10.7266 12C10.7266 12.0964 10.7649 12.1889 10.8331 12.2571C10.9013 12.3253 10.9938 12.3636 11.0902 12.3636H13.9993Z" fill="black"/>
<path d="M15.0913 13.4546H10.0004C9.90391 13.4546 9.81142 13.4929 9.74323 13.5611C9.67503 13.6293 9.63672 13.7218 9.63672 13.8182C9.63672 13.9147 9.67503 14.0072 9.74323 14.0754C9.81142 14.1436 9.90391 14.1819 10.0004 14.1819H15.0913C15.1877 14.1819 15.2802 14.1436 15.3484 14.0754C15.4166 14.0072 15.4549 13.9147 15.4549 13.8182C15.4549 13.7218 15.4166 13.6293 15.3484 13.5611C15.2802 13.4929 15.1877 13.4546 15.0913 13.4546Z" fill="black"/>
<path d="M15.0913 15.2727H10.0004C9.90391 15.2727 9.81142 15.311 9.74323 15.3792C9.67503 15.4474 9.63672 15.5399 9.63672 15.6363C9.63672 15.7328 9.67503 15.8253 9.74323 15.8935C9.81142 15.9617 9.90391 16 10.0004 16H15.0913C15.1877 16 15.2802 15.9617 15.3484 15.8935C15.4166 15.8253 15.4549 15.7328 15.4549 15.6363C15.4549 15.5399 15.4166 15.4474 15.3484 15.3792C15.2802 15.311 15.1877 15.2727 15.0913 15.2727Z" fill="black"/>
<path d="M15.0913 17.0909H10.0004C9.90391 17.0909 9.81142 17.1293 9.74323 17.1974C9.67503 17.2656 9.63672 17.3581 9.63672 17.4546C9.63672 17.551 9.67503 17.6435 9.74323 17.7117C9.81142 17.7799 9.90391 17.8182 10.0004 17.8182H15.0913C15.1877 17.8182 15.2802 17.7799 15.3484 17.7117C15.4166 17.6435 15.4549 17.551 15.4549 17.4546C15.4549 17.3581 15.4166 17.2656 15.3484 17.1974C15.2802 17.1293 15.1877 17.0909 15.0913 17.0909Z" fill="black"/>
</svg>
