<svg width="16" height="17" viewBox="0 0 16 17" fill="none" xmlns="http://www.w3.org/2000/svg">
<path d="M10.5 1H4.5C3.1195 1 2 2.1195 2 3.5V12C2 13.3805 3.1195 14.5 4.5 14.5H10V12.9445C9.3825 12.313 9 11.4505 9 10.5C9 8.57 10.5705 7 12.5 7C12.67 7 12.836 7.0165 13 7.04V3.5C13 2.1195 11.8805 1 10.5 1ZM7.09 12H4.5C4.2235 12 4 11.776 4 11.5C4 11.224 4.2235 11 4.5 11H7.09C7.3665 11 7.59 11.224 7.59 11.5C7.59 11.776 7.3665 12 7.09 12ZM7.21 9.5H4.5C4.2235 9.5 4 9.276 4 9C4 8.724 4.2235 8.5 4.5 8.5H7.21C7.4865 8.5 7.71 8.724 7.71 9C7.71 9.276 7.4865 9.5 7.21 9.5ZM8.725 7H4.5C4.2235 7 4 6.776 4 6.5C4 6.224 4.2235 6 4.5 6H8.725C9.0015 6 9.225 6.224 9.225 6.5C9.225 6.776 9.0015 7 8.725 7ZM10.5 4.5H4.5C4.2235 4.5 4 4.276 4 4C4 3.724 4.2235 3.5 4.5 3.5H10.5C10.7765 3.5 11 3.724 11 4C11 4.276 10.7765 4.5 10.5 4.5Z" fill="#6C7086"/>
<path d="M12.5 13.9999C11.9625 13.9999 11.455 13.8749 11 13.6584V15.4989C11 15.8984 11.445 16.1364 11.7775 15.9149L12.5 15.4329L13.2225 15.9149C13.555 16.1364 14 15.8984 14 15.4989V13.6584C13.545 13.8749 13.0375 13.9999 12.5 13.9999Z" fill="#6C7086"/>
<path d="M12.5 13C13.8807 13 15 11.8807 15 10.5C15 9.11929 13.8807 8 12.5 8C11.1193 8 10 9.11929 10 10.5C10 11.8807 11.1193 13 12.5 13Z" fill="#6C7086"/>
</svg>
