<svg width="16" height="17" viewBox="0 0 16 17" fill="none" xmlns="http://www.w3.org/2000/svg">
<g clip-path="url(#clip0_5943_7506)">
<path d="M8.0085 0.500244C3.58275 0.500244 0 4.08299 0 8.50874C0 12.9345 3.58275 16.5172 8.0085 16.5172C12.4343 16.5172 16.017 12.9345 16.017 8.50874C16.017 4.08299 12.4167 0.500244 8.0085 0.500244ZM8.72856 12.6535C8.51781 12.8467 8.25438 12.9345 7.93825 12.9345C7.62213 12.9345 7.35869 12.8467 7.14794 12.6535C6.93719 12.4603 6.83181 12.2144 6.83181 11.9334C6.83181 11.6349 6.93719 11.389 7.14794 11.2134C7.35869 11.0202 7.62213 10.9324 7.93825 10.9324C8.25438 10.9324 8.51781 11.0202 8.72856 11.2134C8.93931 11.4066 9.04469 11.6524 9.04469 11.9334C9.04469 12.232 8.93931 12.4779 8.72856 12.6535ZM10.6078 7.33206C10.4848 7.59549 10.2565 7.87649 9.9755 8.15749L9.29056 8.78974C9.09738 8.98293 8.95687 9.17612 8.88663 9.36931C8.81638 9.56249 8.76369 9.80837 8.76369 10.1245H7.06013C7.06013 9.54493 7.13038 9.08831 7.25331 8.75462C7.37625 8.42093 7.60456 8.12237 7.88556 7.87649C8.18413 7.63062 8.41244 7.40231 8.55294 7.19156C8.711 6.98081 8.78125 6.75249 8.78125 6.50662C8.78125 5.90949 8.51781 5.61093 8.0085 5.61093C7.76263 5.61093 7.56944 5.69874 7.42894 5.87437C7.28844 6.04999 7.20063 6.27831 7.20063 6.57687H5.18094C5.18094 5.78656 5.44438 5.15431 5.93613 4.71524C6.42788 4.27618 7.13038 4.04787 8.0085 4.04787C8.90419 4.04787 9.58913 4.25862 10.0809 4.66256C10.5726 5.06649 10.8185 5.66362 10.8185 6.41881C10.8185 6.75249 10.7483 7.05106 10.6078 7.33206Z" fill="#6C7086"/>
</g>
<defs>
<clipPath id="clip0_5943_7506">
<rect width="16" height="16" fill="white" transform="translate(0 0.5)"/>
</clipPath>
</defs>
</svg>
