<svg width="70" height="70" viewBox="0 0 70 70" fill="none" xmlns="http://www.w3.org/2000/svg">
<rect width="70" height="70" rx="6" fill="white"/>
<path d="M49.9108 2.2384H7.94891C6.77763 2.2384 5.82812 3.18791 5.82812 4.35918V33.3538C5.82812 34.5251 6.77763 35.4746 7.94891 35.4746H49.9108C51.082 35.4746 52.0315 34.5251 52.0315 33.3538V4.35918C52.0315 3.18791 51.082 2.2384 49.9108 2.2384Z" fill="#96A4AF"/>
<path fill-rule="evenodd" clip-rule="evenodd" d="M49.9106 35.3353H7.94891C6.78242 35.3353 5.82812 34.381 5.82812 33.2145V32.4616C6.0626 32.5514 6.31662 32.6009 6.58172 32.6009H48.5434C49.7099 32.6009 50.6642 31.6466 50.6642 30.4801V2.2384C51.4614 2.54397 52.0314 3.31848 52.0314 4.21987V33.2144C52.0314 34.3808 51.077 35.3351 49.9106 35.3351V35.3353Z" fill="#8696A3"/>
<path d="M9.65625 6.06653H48.2034V31.6465H9.65625V6.06653Z" fill="#E6F8FF"/>
<path fill-rule="evenodd" clip-rule="evenodd" d="M9.65625 6.06653H48.2033V7.43372H12.3906V31.6465H9.65625V6.06653Z" fill="#CBF0FF"/>
<path fill-rule="evenodd" clip-rule="evenodd" d="M33.2556 22.6183C33.6143 23.102 33.5129 23.7849 33.0292 24.1435C32.5455 24.5022 31.8626 24.4008 31.504 23.9171L26.3552 16.9788C25.9966 16.4951 26.0979 15.8122 26.5816 15.4536C27.0653 15.095 27.7482 15.1963 28.1068 15.68L33.2556 22.6183Z" fill="#465759"/>
<path fill-rule="evenodd" clip-rule="evenodd" d="M45.9279 27.0809H53.5041C54.9005 27.0809 57.0771 27.4869 57.5247 29.364L59.9895 39.7012C60.2264 40.6947 59.6073 41.7012 58.6139 41.9382C57.6204 42.1751 56.6139 41.556 56.3769 40.5625L56.1775 39.7261V40.7272C56.1775 41.0368 55.9241 42.473 55.6146 42.473H43.8177C43.5081 42.473 43.2549 42.2198 43.2549 41.9103V31.4937L37.9096 32.548C37.2147 32.6838 36.4737 32.4091 36.0456 31.7894L31.9134 25.8223C31.337 24.9879 31.5463 23.8441 32.3807 23.2678C33.2151 22.6914 34.3589 22.9006 34.9352 23.7352L38.3797 28.7091C41.312 28.0261 45.9281 27.0811 45.9281 27.0811L45.9279 27.0809Z" fill="#64B5F6"/>
<path fill-rule="evenodd" clip-rule="evenodd" d="M45.9281 27.0809H53.5042C54.7933 27.0809 56.747 27.427 57.3919 28.9569C56.5838 28.5638 55.6165 28.4481 54.8714 28.4481H47.2953C47.2953 28.4481 42.6792 29.3931 39.7469 30.0762L38.7421 28.6252C41.6767 27.9513 45.9282 27.0809 45.9282 27.0809H45.9281ZM57.7455 41.9354C57.6773 41.9186 57.6103 41.898 57.5447 41.8738V41.0934L57.7441 41.9298L57.7455 41.9354ZM44.6221 42.4731H43.8177C43.5081 42.4731 43.2549 42.2199 43.2549 41.9104V31.4938L44.6221 31.2242V42.4731ZM36.9415 32.476C36.5903 32.3516 36.2737 32.1194 36.0456 31.7894L31.9134 25.8223C31.337 24.9879 31.5463 23.8441 32.3807 23.2678C33.2151 22.6914 34.3589 22.9006 34.9352 23.7352L35.4065 24.4156C34.8697 24.2253 34.2523 24.2867 33.7479 24.635C32.9135 25.2113 32.7042 26.3551 33.2806 27.1895L36.9415 32.476Z" fill="#42A5F5"/>
<path fill-rule="evenodd" clip-rule="evenodd" d="M56.4447 40.7858C56.4176 40.7137 56.3946 40.6394 56.3763 40.5627L56.1768 39.7262V40.7274C56.1768 40.7516 56.1753 40.7826 56.1723 40.8194C55.7149 40.8176 55.2895 40.5264 55.1386 40.068L52.5805 32.3346C52.3918 31.7613 52.7035 31.1434 53.2769 30.9546C53.8503 30.7659 54.4681 31.0777 54.6569 31.6511L57.2151 39.3844C57.4038 39.9578 57.092 40.5756 56.5186 40.7645C56.494 40.7725 56.4693 40.7796 56.4447 40.7859V40.7858Z" fill="#42A5F5"/>
<path fill-rule="evenodd" clip-rule="evenodd" d="M50.1457 26.8991C52.7497 26.8991 54.8734 24.7753 54.8734 22.1713C54.8734 19.5674 52.7497 17.4436 50.1457 17.4436C47.5418 17.4436 45.418 19.5674 45.418 22.1713C45.418 24.7753 47.5418 26.8991 50.1457 26.8991Z" fill="#FFD6BD"/>
<path fill-rule="evenodd" clip-rule="evenodd" d="M52.6648 18.1704C53.9916 19.0077 54.8732 20.4864 54.8732 22.1713C54.8732 24.7824 52.7565 26.8991 50.1455 26.8991C48.4605 26.8991 46.9818 26.0175 46.1445 24.6907C46.8739 25.1509 47.7377 25.4175 48.664 25.4175C51.275 25.4175 53.3917 23.3008 53.3917 20.6897C53.3917 19.7636 53.1251 18.8998 52.6649 18.1704H52.6648Z" fill="#F9C6AA"/>
<path d="M37.7832 43.6338H65.9385V65.7963H37.7832V43.6338Z" fill="#DA8C36"/>
<path d="M37.7832 43.6338H40.5176V65.7963H37.7832V43.6338Z" fill="#CD7D25"/>
<path d="M35.4585 40.9739H68.2617C68.5419 40.9739 68.7694 41.2014 68.7694 41.4815V43.7822C68.7694 44.0624 68.5419 44.2897 68.2619 44.2897H35.4587C35.1785 44.2897 34.9512 44.0624 34.9512 43.7822V41.4814C34.9512 41.2012 35.1787 40.9739 35.4587 40.9739H35.4585Z" fill="#B76F21"/>
<path fill-rule="evenodd" clip-rule="evenodd" d="M35.4585 40.9739H68.2617C68.5409 40.9739 68.7694 41.2022 68.7694 41.4814V41.9077H36.8547C36.5755 41.9077 36.3472 42.136 36.3472 42.4152V44.2897H35.4587C35.1795 44.2897 34.9512 44.0614 34.9512 43.7822V41.4815C34.9512 41.2023 35.1796 40.974 35.4587 40.974L35.4585 40.9739Z" fill="#A3631D"/>
<path fill-rule="evenodd" clip-rule="evenodd" d="M18.4018 67.2243C18.679 63.5303 21.7882 60.5936 25.55 60.5936C29.3118 60.5936 32.421 63.5303 32.6981 67.2243C32.72 67.5161 32.4921 67.7618 32.1995 67.7618H18.9006C18.6079 67.7618 18.3801 67.5162 18.4018 67.2243Z" fill="#FFDA2D"/>
<path fill-rule="evenodd" clip-rule="evenodd" d="M23.625 60.8582C24.2382 60.686 24.8838 60.5936 25.55 60.5936C29.3118 60.5936 32.4209 63.5303 32.6981 67.2243C32.7199 67.5162 32.492 67.7618 32.1995 67.7618H30.6618C30.7047 67.6811 30.726 67.5873 30.7187 67.4884C30.4429 63.8123 27.3622 60.8865 23.625 60.8583V60.8582Z" fill="#FFC700"/>
<path fill-rule="evenodd" clip-rule="evenodd" d="M25.55 60.2195C27.6839 60.2195 29.4242 58.479 29.4242 56.3453C29.4242 54.2115 27.6838 52.4711 25.55 52.4711C23.4162 52.4711 21.6758 54.2115 21.6758 56.3453C21.6758 58.479 23.4162 60.2195 25.55 60.2195Z" fill="#FFD6BD"/>
<path fill-rule="evenodd" clip-rule="evenodd" d="M27.6146 53.0668C28.7019 53.7528 29.4243 54.9647 29.4243 56.3454C29.4243 58.4851 27.6898 60.2196 25.5501 60.2196C24.1694 60.2196 22.9575 59.4972 22.2715 58.4099C22.8692 58.7871 23.5772 59.0054 24.3361 59.0054C26.4757 59.0054 28.2103 57.2709 28.2103 55.1312C28.2103 54.3723 27.9917 53.6644 27.6146 53.0668Z" fill="#F9C6AA"/>
<path fill-rule="evenodd" clip-rule="evenodd" d="M1.23204 67.2243C1.50917 63.5303 4.61843 60.5936 8.38024 60.5936C12.1421 60.5936 15.2512 63.5303 15.5283 67.2243C15.5502 67.5161 15.3223 67.7618 15.0297 67.7618H1.73065C1.43794 67.7618 1.21017 67.5162 1.2319 67.2243H1.23204Z" fill="#FFDA2D"/>
<path fill-rule="evenodd" clip-rule="evenodd" d="M6.45508 60.8582C7.06826 60.686 7.71385 60.5936 8.38008 60.5936C12.1419 60.5936 15.251 63.5303 15.5281 67.2243C15.55 67.5162 15.3221 67.7618 15.0295 67.7618H13.4919C13.5348 67.6811 13.5561 67.5873 13.5487 67.4884C13.273 63.8123 10.1923 60.8865 6.45508 60.8583V60.8582Z" fill="#FFC700"/>
<path fill-rule="evenodd" clip-rule="evenodd" d="M8.38006 60.2195C10.514 60.2195 12.2543 58.479 12.2543 56.3453C12.2543 54.2115 10.5138 52.4711 8.38006 52.4711C6.24629 52.4711 4.50586 54.2115 4.50586 56.3453C4.50586 58.479 6.24629 60.2195 8.38006 60.2195Z" fill="#FFD6BD"/>
<path fill-rule="evenodd" clip-rule="evenodd" d="M10.4447 53.0668C11.532 53.7528 12.2544 54.9647 12.2544 56.3454C12.2544 58.4851 10.5199 60.2196 8.38021 60.2196C6.99949 60.2196 5.78762 59.4972 5.10156 58.4099C5.6993 58.7871 6.40723 59.0054 7.16615 59.0054C9.3058 59.0054 11.0404 57.2709 11.0404 55.1312C11.0404 54.3723 10.8217 53.6644 10.4447 53.0668Z" fill="#F9C6AA"/>
<path fill-rule="evenodd" clip-rule="evenodd" d="M35.5718 67.2243C35.8489 63.5303 38.9582 60.5936 42.72 60.5936C46.4818 60.5936 49.5909 63.5303 49.868 67.2243C49.8899 67.5161 49.662 67.7618 49.3694 67.7618H36.0705C35.7778 67.7618 35.5499 67.5162 35.5718 67.2243Z" fill="#FFDA2D"/>
<path fill-rule="evenodd" clip-rule="evenodd" d="M40.7949 60.8582C41.4081 60.686 42.0537 60.5936 42.7199 60.5936C46.4817 60.5936 49.5909 63.5303 49.868 67.2243C49.8899 67.5162 49.662 67.7618 49.3694 67.7618H47.8317C47.8746 67.6811 47.896 67.5873 47.8886 67.4884C47.6128 63.8123 44.5321 60.8865 40.7949 60.8583V60.8582Z" fill="#FFC700"/>
<path fill-rule="evenodd" clip-rule="evenodd" d="M42.7199 60.2195C44.8538 60.2195 46.5941 58.479 46.5941 56.3453C46.5941 54.2115 44.8537 52.4711 42.7199 52.4711C40.5861 52.4711 38.8457 54.2115 38.8457 56.3453C38.8457 58.479 40.5861 60.2195 42.7199 60.2195Z" fill="#FFD6BD"/>
<path fill-rule="evenodd" clip-rule="evenodd" d="M44.7845 53.0668C45.8718 53.7528 46.5943 54.9647 46.5943 56.3454C46.5943 58.4851 44.8597 60.2196 42.7201 60.2196C41.3393 60.2196 40.1275 59.4972 39.4414 58.4099C40.0391 58.7871 40.7471 59.0054 41.506 59.0054C43.6456 59.0054 45.3802 57.2709 45.3802 55.1312C45.3802 54.3723 45.1617 53.6644 44.7846 53.0668H44.7845Z" fill="#F9C6AA"/>
<path fill-rule="evenodd" clip-rule="evenodd" d="M52.7417 67.2243C53.0188 63.5303 56.1281 60.5936 59.8899 60.5936C63.6517 60.5936 66.7608 63.5303 67.038 67.2243C67.0598 67.5161 66.8319 67.7618 66.5393 67.7618H53.2404C52.9477 67.7618 52.7198 67.5162 52.7417 67.2243Z" fill="#FFDA2D"/>
<path fill-rule="evenodd" clip-rule="evenodd" d="M57.9648 60.8582C58.578 60.686 59.2236 60.5936 59.8898 60.5936C63.6517 60.5936 66.7608 63.5303 67.0379 67.2243C67.0598 67.5162 66.8319 67.7618 66.5393 67.7618H65.0016C65.0445 67.6811 65.0659 67.5873 65.0585 67.4884C64.7827 63.8123 61.7022 60.8865 57.9648 60.8583V60.8582Z" fill="#FFC700"/>
<path fill-rule="evenodd" clip-rule="evenodd" d="M59.8898 60.2195C62.0237 60.2195 63.764 58.479 63.764 56.3453C63.764 54.2115 62.0236 52.4711 59.8898 52.4711C57.7561 52.4711 56.0156 54.2115 56.0156 56.3453C56.0156 58.479 57.7561 60.2195 59.8898 60.2195Z" fill="#FFD6BD"/>
<path fill-rule="evenodd" clip-rule="evenodd" d="M61.9544 53.0668C63.0418 53.7528 63.7642 54.9647 63.7642 56.3454C63.7642 58.4851 62.0296 60.2196 59.89 60.2196C58.5093 60.2196 57.2974 59.4972 56.6113 58.4099C57.2091 58.7871 57.917 59.0054 58.6759 59.0054C60.8156 59.0054 62.5501 57.2709 62.5501 55.1312C62.5501 54.3723 62.3316 53.6644 61.9546 53.0668H61.9544Z" fill="#F9C6AA"/>
</svg>
