<svg width="38" height="32" viewBox="0 0 38 32" fill="none" xmlns="http://www.w3.org/2000/svg">
<path fill-rule="evenodd" clip-rule="evenodd" d="M37.1188 4.90434V15.8834C37.1188 19.9484 35.3256 23.4455 32.0245 25.818L23.4227 32L14.8207 25.818C11.5198 23.4455 9.72656 19.9484 9.72656 15.8834V4.90434C20.1083 -1.63478 26.7368 -1.63478 37.1188 4.90434Z" fill="#72D561"/>
<path fill-rule="evenodd" clip-rule="evenodd" d="M34.7925 6.21075C26.1852 1.04961 20.6718 1.04947 12.0645 6.21075V15.8866C12.0645 19.2005 13.4964 21.9935 16.1876 23.9276L23.4285 29.1315L30.6691 23.9277C33.3603 21.9935 34.7925 19.2008 34.7925 15.8867V6.21075Z" fill="#3CBE52"/>
<path d="M23.5616 21.6313C27.3074 21.5601 30.2863 18.4661 30.2151 14.7205C30.144 10.9749 27.0497 7.99614 23.3039 8.06731C19.5581 8.13848 16.5792 11.2326 16.6504 14.9782C16.7215 18.7238 19.8158 21.7025 23.5616 21.6313Z" fill="#64B5F6"/>
<path fill-rule="evenodd" clip-rule="evenodd" d="M25.7594 11.9888C26.1434 11.605 26.7659 11.605 27.1498 11.9888C27.5337 12.3728 27.5337 12.9952 27.1498 13.3791L22.5944 17.9342C22.1596 18.369 21.4412 18.3007 21.0922 17.8009L19.0745 15.262C18.7372 14.8377 18.8078 14.2204 19.232 13.8832C19.6563 13.5459 20.2736 13.6164 20.6109 14.0407L21.982 15.766L25.7594 11.9888Z" fill="#EFF4F7"/>
<path d="M10.2112 31.8299C15.3632 31.8299 19.5396 27.6537 19.5396 22.5021C19.5396 17.3504 15.3632 13.1742 10.2112 13.1742C5.05929 13.1742 0.882812 17.3504 0.882812 22.5021C0.882812 27.6537 5.05929 31.8299 10.2112 31.8299Z" fill="#E6F8FF"/>
<path fill-rule="evenodd" clip-rule="evenodd" d="M5.6111 27.666H7.11739C7.33101 27.666 7.50583 27.4912 7.50583 27.2776V20.4883C7.50583 20.2746 7.33101 20.0999 7.11739 20.0999H5.6111C5.39747 20.0999 5.22266 20.2747 5.22266 20.4883V27.2776C5.22266 27.4912 5.39747 27.666 5.6111 27.666Z" fill="#64B5F6"/>
<path fill-rule="evenodd" clip-rule="evenodd" d="M8.89265 27.4326C9.07246 27.5905 9.27449 27.6583 9.5052 27.6583H12.0715C13.079 27.674 13.5623 27.2161 14.5915 25.6646L16.1826 23.2656C17.0649 21.9357 15.9342 20.4054 14.4197 20.4175L12.3885 20.4337C12.7322 19.0953 13.1948 17.3069 13.3419 16.7591C13.3497 15.5132 12.2932 14.9457 11.7676 15.5579C11.7676 15.5579 10.4686 17.7242 8.89258 20.4617C8.89265 22.7691 8.89265 25.0764 8.89265 27.4326Z" fill="#FFD6BD"/>
</svg>
