<svg width="34" height="32" viewBox="0 0 34 32" fill="none" xmlns="http://www.w3.org/2000/svg">
<path fill-rule="evenodd" clip-rule="evenodd" d="M18.7313 5.97182C18.3066 5.97182 18.0715 5.48516 18.3313 5.15525L22.2409 0.194094C22.443 -0.0656745 22.8307 -0.0656745 23.0327 0.194094L26.9424 5.15525C27.2021 5.48516 26.9671 5.97182 26.5423 5.97182H24.9215V16.4177C24.9215 16.6068 24.7682 16.7602 24.579 16.7602H20.6946C20.5055 16.7602 20.3521 16.6068 20.3521 16.4177V5.97182H18.7313Z" fill="#8AC9FE"/>
<path fill-rule="evenodd" clip-rule="evenodd" d="M22.1387 0.343707L22.2566 0.194094C22.4587 -0.0656745 22.8463 -0.0656745 23.0484 0.194094L26.958 5.15525C27.2178 5.48516 26.9828 5.97182 26.558 5.97182H25.5304C25.9552 5.97182 26.1902 5.48516 25.9305 5.15525L22.1387 0.343707ZM24.9372 5.97182V16.4177C24.9372 16.6068 24.7839 16.7602 24.5947 16.7602H23.5671C23.7563 16.7602 23.9096 16.6068 23.9096 16.4177V5.97182H24.9372Z" fill="#60B7FF"/>
<path fill-rule="evenodd" clip-rule="evenodd" d="M25.2313 13.1021C24.8065 13.1021 24.5715 12.6155 24.8313 12.2855L28.7409 7.32439C28.943 7.06456 29.3306 7.06456 29.5327 7.32439L33.4423 12.2855C33.7022 12.6155 33.4671 13.1021 33.0423 13.1021H31.4216V23.548C31.4216 23.7371 31.2682 23.8905 31.079 23.8905H27.1946C27.0054 23.8905 26.852 23.7371 26.852 23.548V13.1021H25.2313Z" fill="#6CF5C2"/>
<path fill-rule="evenodd" clip-rule="evenodd" d="M28.6387 7.47401L28.7565 7.32439C28.9586 7.06456 29.3463 7.06456 29.5484 7.32439L33.458 12.2855C33.7178 12.6155 33.4827 13.1021 33.0579 13.1021H32.0303C32.4551 13.1021 32.6902 12.6155 32.4304 12.2855L28.6387 7.47401ZM31.4372 13.1021V23.548C31.4372 23.7371 31.2838 23.8905 31.0947 23.8905H30.0671C30.2562 23.8905 30.4096 23.7371 30.4096 23.548V13.1021H31.4372Z" fill="#00E499"/>
<path fill-rule="evenodd" clip-rule="evenodd" d="M10.3698 25.4222L7.36004 31.8246C7.31154 31.9277 7.20981 31.9955 7.09588 32.0004C6.98196 32.0053 6.87475 31.9467 6.81741 31.8481L5.40072 29.4101L2.62515 29.8964C2.51273 29.9161 2.3986 29.8716 2.32907 29.7811C2.25953 29.6906 2.24604 29.5689 2.29413 29.4653L5.29707 22.9946L10.3698 25.4222Z" fill="#FE646F"/>
<path fill-rule="evenodd" clip-rule="evenodd" d="M9.38356 24.9504L10.3698 25.4224L7.36004 31.8248C7.31154 31.9279 7.20981 31.9957 7.09588 32.0006C6.98196 32.0056 6.87475 31.9469 6.81741 31.8483L6.44337 31.2047L9.38356 24.9504ZM5.40072 29.4103L2.62515 29.8966C2.51273 29.9163 2.3986 29.8719 2.32907 29.7814C2.25953 29.6908 2.24604 29.5691 2.29413 29.4655L2.43826 29.155L4.99235 28.7076L5.40072 29.4103Z" fill="#FD4755"/>
<path fill-rule="evenodd" clip-rule="evenodd" d="M13.5566 24.2162L18.4246 21.3304L21.2851 28.3477C21.3282 28.4535 21.3096 28.5744 21.2367 28.6623C21.1637 28.7501 21.0483 28.7908 20.9363 28.7678L18.1359 28.1949L16.645 30.5951C16.5834 30.6942 16.4713 30.7503 16.355 30.7401C16.2387 30.73 16.1381 30.6553 16.0946 30.547L13.5566 24.2162Z" fill="#FE646F"/>
<path fill-rule="evenodd" clip-rule="evenodd" d="M17.6913 21.774L18.4393 21.3306L21.2998 28.3478C21.343 28.4536 21.3244 28.5745 21.2514 28.6624C21.1785 28.7503 21.063 28.7909 20.9511 28.7679L20.3378 28.6425C20.398 28.5568 20.411 28.4458 20.3711 28.3478L17.6913 21.774ZM18.1507 28.195L16.6598 30.5952C16.5982 30.6944 16.486 30.7505 16.3698 30.7403C16.2535 30.7301 16.1528 30.6554 16.1094 30.5471L15.9727 30.2061L17.3266 28.0265L18.1507 28.195Z" fill="#FD4755"/>
<path fill-rule="evenodd" clip-rule="evenodd" d="M14.0692 7.27195C15.074 7.5111 16.0331 7.9087 16.9117 8.45009L18.7588 7.63064L20.935 9.80682L20.1156 11.6538C20.6569 12.5324 21.0545 13.4915 21.2937 14.4963L23.1783 15.2217V18.3006L21.2937 19.026C21.0545 20.0294 20.6569 20.9886 20.1156 21.8671L20.935 23.7142L18.7588 25.8916L16.9117 25.0709C16.0331 25.6122 15.074 26.0112 14.0692 26.2503L13.3438 28.1336H10.2649L9.53951 26.249C8.53605 26.0099 7.5769 25.6122 6.69832 25.0709L4.85127 25.8916L2.67369 23.7142L3.49445 21.8684C2.95312 20.9886 2.55415 20.0294 2.31506 19.026L0.431641 18.3006V15.2217L2.31506 14.4963C2.55415 13.4915 2.95312 12.5324 3.49445 11.6538L2.67369 9.80682L4.85127 7.63064L6.69702 8.45009C7.5769 7.9087 8.53605 7.5111 9.53951 7.27195L10.2649 5.38733H13.3438L14.0692 7.27195Z" fill="#FFD23B"/>
<path fill-rule="evenodd" clip-rule="evenodd" d="M18.1189 7.90591L18.7395 7.63052L20.9158 9.8067L20.0964 11.6537C20.6377 12.5323 21.0353 13.4914 21.2744 14.4962L23.1591 15.2216V18.3005L21.2744 19.0259C21.0353 20.0293 20.6377 20.9885 20.0964 21.867L20.9158 23.714L18.7395 25.8915L18.1189 25.6161L20.0211 23.714L19.2003 21.867C19.7417 20.9885 20.1393 20.0293 20.3784 19.0259L22.2631 18.3005V15.2216L20.3784 14.4962C20.1393 13.4914 19.7417 12.5323 19.2003 11.6537L20.0211 9.8067L18.1189 7.90591ZM4.55664 7.90591L4.83203 7.63052L6.67778 8.44997C6.54748 8.52251 6.41848 8.59773 6.29223 8.67699L4.55664 7.90591ZM14.05 7.27183C15.0548 7.51098 16.0139 7.90858 16.8925 8.44997L16.3834 8.67699C15.5048 8.1356 14.1588 7.51098 13.1539 7.27183L12.4285 5.38721H13.3246L14.05 7.27183ZM6.67908 25.0708L4.83203 25.8915L4.55664 25.6161L6.29223 24.845C6.41848 24.923 6.54748 24.9982 6.67908 25.0708ZM16.8925 25.0708C16.0139 25.6121 15.0548 26.0111 14.05 26.2502L13.3246 28.1335H12.4285L13.1539 26.2502C14.1588 26.0111 15.5048 25.3864 16.3847 24.845L16.8925 25.0708Z" fill="#FFD064"/>
<path d="M11.8385 23.1672C15.377 23.1672 18.2455 20.2988 18.2455 16.7604C18.2455 13.2221 15.377 10.3536 11.8385 10.3536C8.30011 10.3536 5.43164 13.2221 5.43164 16.7604C5.43164 20.2988 8.30011 23.1672 11.8385 23.1672Z" fill="#FEA832"/>
<path fill-rule="evenodd" clip-rule="evenodd" d="M12.3523 23.1468C12.1828 23.1603 12.0115 23.1672 11.8385 23.1672C8.30243 23.1672 5.43164 20.2964 5.43164 16.7604C5.43164 13.2244 8.30243 10.3536 11.8385 10.3536C12.0115 10.3536 12.1828 10.3605 12.3523 10.374C9.05606 10.636 6.45922 13.3974 6.45922 16.7604C6.45922 20.1235 9.05606 22.8848 12.3523 23.1468Z" fill="#E5972D"/>
<path fill-rule="evenodd" clip-rule="evenodd" d="M10.9611 17.3431L14.1778 14.0929C14.5589 13.7098 15.1809 13.7078 15.564 14.0889C15.9471 14.47 15.9491 15.09 15.568 15.4751C14.2627 16.7922 12.9674 18.1171 11.6562 19.4283C11.2731 19.8113 10.6511 19.8113 10.268 19.4283L8.09395 17.2522C7.71087 16.8691 7.71087 16.2491 8.09395 15.8641C8.47704 15.481 9.09907 15.481 9.48208 15.8641L10.9611 17.3431Z" fill="#CF4436"/>
</svg>
