<svg width="26" height="32" viewBox="0 0 26 32" fill="none" xmlns="http://www.w3.org/2000/svg">
<path d="M19.2079 23.2357L15.8923 19.6119V15.2036H10.1109V19.6133L6.83203 23.2357H19.2079Z" fill="#FFDDCE"/>
<path d="M18.6031 23.1705L15.6306 22.2978L13.0007 25.3133L8.45367 20.099L3.62014 21.5176C1.7335 22.0714 0.4375 23.8023 0.4375 25.7685V30.4323C0.4375 31.2981 1.13947 32 2.00538 32H4.13179L4.515 31.7266H4.71432L5.09752 32H20.9017L21.4643 31.5986H21.9308V27.6154C21.9308 25.5595 20.5758 23.7496 18.6031 23.1705Z" fill="#407093"/>
<path d="M22.3806 21.5176L17.5476 20.0988L15.3008 22.675L18.3032 23.5564C20.1898 24.1102 21.4856 25.8411 21.4856 27.8071V31.5988H21.8666V32.0001H23.9951C24.861 32.0001 25.5629 31.2982 25.5629 30.4324V25.7683C25.5629 23.8023 24.2671 22.0714 22.3806 21.5176Z" fill="#365E7D"/>
<path d="M5.09079 31.9989V29.4345C5.09079 29.1678 4.8746 28.9517 4.6079 28.9517C4.3412 28.9517 4.125 29.1678 4.125 29.4345V31.9989H5.09079Z" fill="#365E7D"/>
<path d="M21.8603 31.9989V29.4345C21.8603 29.1678 21.6441 28.9517 21.3774 28.9517C21.1107 28.9517 20.8945 29.1678 20.8945 29.4345V31.9989H21.8603Z" fill="#365E7D"/>
<path d="M4.2953 9.44932L3.80022 8.90344H2.74205L2.24696 9.44932L1.59449 13.2787C1.53293 13.6402 1.81138 13.9701 2.17808 13.9701H4.36406C4.73076 13.9701 5.00921 13.6402 4.94765 13.2787L4.2953 9.44932Z" fill="#E4F6FF"/>
<path d="M3.75486 8.51827V3.67599C3.75486 3.4093 3.53866 3.19312 3.27196 3.19312C3.00526 3.19312 2.78906 3.4093 2.78906 3.67599V8.51827H3.75486Z" fill="#407093"/>
<path d="M15.6754 3.28894H15.5689H10.4288H10.3223C8.38712 3.28894 6.81836 4.85764 6.81836 6.79277V6.84796V10.1724L7.39782 10.6829H19.1793V6.84796V6.79277C19.1794 4.8577 17.6105 3.28894 15.6754 3.28894Z" fill="#EFC984"/>
<path d="M15.6832 3.28796H15.5767H15.123V10.6819H18.6522L19.1871 10.1714V6.84698V6.79179C19.1872 4.85672 17.6183 3.28796 15.6832 3.28796Z" fill="#EABC6B"/>
<path d="M13.0066 17.7551C13.0649 17.7551 13.1228 17.7541 13.1806 17.7521C14.5631 16.8741 15.5021 15.3604 15.5858 13.6217V7.50183H8.93758V9.11234C8.93758 9.6974 8.46325 10.1717 7.87822 10.1717H6.82617V11.904C6.82617 12.3466 7.185 12.7055 7.62771 12.7055C7.76734 12.7055 7.88103 12.8149 7.88978 12.9543C8.05879 15.6338 10.2844 17.7551 13.0066 17.7551Z" fill="#FFDDCE"/>
<path d="M18.1352 10.1715C17.5501 10.1715 17.0758 9.69728 17.0758 9.11222V7.50171H15.1221V13.4641C15.0335 15.3061 13.9734 16.8924 12.4434 17.7233C12.6285 17.7435 12.8162 17.7549 13.0067 17.7549C15.7289 17.7549 17.9545 15.6337 18.1236 12.9542C18.1324 12.8148 18.246 12.7054 18.3856 12.7054C18.8283 12.7054 19.1872 12.3465 19.1872 11.9039V10.1715H18.1352Z" fill="#FFCBBE"/>
<path d="M15.5849 5.4452V4.25157C14.9968 4.24694 14.5213 3.76919 14.5213 3.17994V1.0348L14.0701 0.311861L13.1705 0.0257345C13.0626 -0.00857817 12.9468 -0.00857817 12.8389 0.0257345L3.0453 3.14069C2.49897 3.31444 2.55409 4.10482 3.11924 4.20107L13.0047 5.88464L15.5849 5.4452Z" fill="#407093"/>
<path d="M15.5884 4.27021L14.1641 4.09402C13.3964 3.99908 12.62 3.99908 11.8524 4.09409L6.43164 4.76484V7.18035C6.43164 7.4421 6.64384 7.65429 6.9056 7.65429H15.5884V4.27021Z" fill="#4A80AA"/>
<path d="M22.9664 3.14072L14.0723 0.31189V3.14609C14.0723 3.72834 14.5421 4.20047 15.1233 4.20503V5.52429L22.8924 4.20116C23.4576 4.10478 23.5127 3.31447 22.9664 3.14072Z" fill="#365E7D"/>
<path d="M15.123 4.21252V7.65398H19.1113C19.373 7.65398 19.5852 7.44179 19.5852 7.18004V4.76446L15.123 4.21252Z" fill="#407093"/>
<path d="M4.29828 9.44892H2.25V8.10441C2.25 7.81872 2.48157 7.58716 2.76727 7.58716H3.78094C4.06664 7.58716 4.29822 7.81872 4.29822 8.10441L4.29828 9.44892Z" fill="#FFE07D"/>
<path d="M15.8896 17.9988C15.8896 19.8743 15.3452 21.7095 14.3224 23.2816L13 25.3141L20.3778 20.9302L15.8896 17.9988Z" fill="#4A80AA"/>
<path d="M10.1093 17.9987C10.1093 19.8742 10.6538 21.7094 11.6766 23.2814L12.9989 25.3139L5.62109 20.93L10.1093 17.9987Z" fill="#4A80AA"/>
<path d="M15.4606 20.8385C14.7018 21.0056 13.8704 21.0982 12.9979 21.0982C12.1255 21.0982 11.2939 21.0056 10.5352 20.8385C10.7986 21.6974 11.1804 22.5203 11.6755 23.2811L12.9979 25.3136L14.3203 23.2811C14.8153 22.5203 15.1972 21.6974 15.4606 20.8385Z" fill="#F4FBFF"/>
</svg>
