<svg width="70" height="70" viewBox="0 0 70 70" fill="none" xmlns="http://www.w3.org/2000/svg">
<path d="M65.0944 3.16736H40.8438L40.5153 4.13136L42.7763 8.26287L44.0012 16.6667L42.2582 27.5119L39.4471 29.2491L37.0527 34.2256L37.757 35.5872L48.8134 39.8035L52.1462 42.1014L53.7782 44.7423L55.049 45.5153H65.0943C67.5794 45.5153 69.6014 43.4934 69.6014 41.0082V7.67443C69.6016 5.18929 67.5797 3.16736 65.0944 3.16736Z" fill="#FFE02F"/>
<path d="M34.4476 4.1658L37.4757 8.53205V16.5023L30.5039 32.7481V39.6643L47.4055 45.515H49.9955H55.0496C53.6251 42.74 51.2977 40.4659 48.4633 39.2994C48.4362 39.2882 48.409 39.2774 48.3817 39.2668C48.3788 39.2657 41.5625 36.6246 38.4082 35.4023C37.6682 35.1156 37.3999 34.2004 37.877 33.5665C38.6697 32.5132 39.3154 31.3562 39.7942 30.1305C39.9227 29.8015 40.1845 29.5386 40.5195 29.4264C43.7917 28.3304 46.1563 25.2358 46.1563 21.5995C46.1563 19.8377 45.5974 18.1549 44.5958 16.7687C44.4488 16.5652 44.3703 16.3205 44.3703 16.0695V13.9657C44.3703 9.94012 43.0618 6.19812 40.8442 3.16748H35.1374L34.4476 4.1658Z" fill="#FBC700"/>
<path d="M65.0944 7.39282H42.3001L42.7763 8.2629L44.0012 16.6667L42.2582 27.5119L39.4471 29.2491L37.0527 34.2257L37.757 35.5872L48.8134 39.8035L50.9693 41.2899H65.0944C65.2497 41.2899 65.3761 41.1634 65.3761 41.0083V7.67446C65.3762 7.51929 65.2497 7.39282 65.0944 7.39282Z" fill="#98D829"/>
<path d="M37.4757 8.5321V20.094L30.5039 33.4029V38.8226L40.1449 42.3709L41.905 41.2898H51.7114C50.7355 40.4637 49.6436 39.7853 48.4633 39.2994C48.4362 39.2882 48.409 39.2774 48.3817 39.2669C48.3788 39.2658 41.5625 36.6247 38.4082 35.4024C37.6682 35.1157 37.3999 34.2005 37.877 33.5665C38.6697 32.5133 39.3154 31.3562 39.7942 30.1305C39.9227 29.8016 40.1845 29.5387 40.5195 29.4264C43.7917 28.3305 46.1563 25.2358 46.1563 21.5995C46.1563 19.8378 45.5974 18.1549 44.5958 16.7687C44.4488 16.5653 44.3703 16.3206 44.3703 16.0695V13.9657C44.3703 11.6542 43.9386 9.43636 43.1513 7.39282H38.5688L37.4757 8.5321Z" fill="#8CC825"/>
<path d="M59.9915 16.1047H49.7095C49.2116 16.1047 48.7812 16.4525 48.6768 16.9394L46.3539 27.7633L44.7611 23.1444C44.6143 22.7184 44.2132 22.4325 43.7626 22.4325H41.5719C40.9885 22.4325 40.5156 22.9054 40.5156 23.4888C40.5156 24.0722 40.9885 24.5451 41.5719 24.5451H43.0095L45.5927 32.0362C45.7402 32.4641 46.1428 32.7481 46.5909 32.7481C46.612 32.7481 46.6335 32.7474 46.655 32.7461C47.1283 32.7176 47.5246 32.377 47.6242 31.9133L50.5635 18.2173H59.9918C60.5751 18.2173 61.048 17.7444 61.048 17.161C61.048 16.5776 60.5749 16.1047 59.9915 16.1047Z" fill="#DBEDFF"/>
<path d="M59.3563 23.4996C58.8898 23.1493 58.2275 23.2434 57.8772 23.7099L55.9624 26.2591L54.0475 23.7099C53.6971 23.2433 53.0349 23.1491 52.5684 23.4996C52.102 23.85 52.0079 24.5121 52.3583 24.9786L54.6412 28.018L52.3583 31.0574C52.0079 31.5238 52.102 32.186 52.5684 32.5364C52.7586 32.6792 52.9812 32.7481 53.202 32.7481C53.5229 32.7481 53.8399 32.6025 54.0475 32.326L55.9624 29.7768L57.8772 32.326C58.0848 32.6023 58.4018 32.7481 58.7227 32.7481C58.9435 32.7481 59.1661 32.6792 59.3563 32.5364C59.8227 32.186 59.9168 31.5239 59.5664 31.0574L57.2835 28.018L59.5664 24.9786C59.9168 24.5121 59.8227 23.85 59.3563 23.4996Z" fill="#DBEDFF"/>
<path d="M46.8538 43.2067C46.4789 43.0615 42.4493 41.501 38.773 40.0772L37.4745 41.6934H15.1502L13.9772 40.0514L8.19809 42.3085L7.14549 43.5683L5.32617 46.9366V69.2493L6.22701 70H50.5198C51.5318 70 52.3521 69.1797 52.3521 68.1677C52.3521 67.5511 52.3521 52.3503 52.3521 51.7352C52.3521 47.8452 49.8615 44.4447 46.8538 43.2067Z" fill="#BC7F7F"/>
<path d="M5.79941 68.5902C5.79941 67.9626 5.79941 49.9273 5.79941 49.3015C5.79941 45.8203 7.66918 43.2151 9.60279 41.76L5.89881 43.2066C3.54807 44.1742 0.400391 47.2181 0.400391 51.7351V68.1676C0.400391 69.1795 1.2207 70 2.2327 70H6.46182C6.05713 69.6639 5.79941 69.1572 5.79941 68.5902Z" fill="#B06C6C"/>
<path d="M44.929 70V50.6564C44.929 50.0729 44.4561 49.6001 43.8727 49.6001C43.2893 49.6001 42.8164 50.073 42.8164 50.6564V70H44.929Z" fill="#B06C6C"/>
<path d="M9.9368 70V50.6564C9.9368 50.0729 9.46389 49.6001 8.88051 49.6001C8.29713 49.6001 7.82422 50.073 7.82422 50.6564V70H9.9368Z" fill="#B06C6C"/>
<path d="M38.1407 39.8297L36.7716 40.1412H15.3629L14.6138 39.8057L14.614 39.8035L13.9785 40.0516C14.3274 45.7295 18.4895 50.3755 23.936 51.4611L24.6118 50.822H28.0156L28.8185 51.4609C34.2566 50.3772 38.4145 45.7435 38.7744 40.0773C38.5604 39.9945 38.3514 39.9113 38.1407 39.8297Z" fill="#B5DCFF"/>
<path d="M30.2747 0.566528H28.4749L21.902 5.05323L19.2259 9.50424L18.6719 19.0087H39.8363L40.1437 18.2538V13.7675C40.1438 7.54821 35.9638 2.25842 30.2747 0.566528Z" fill="#7B6C79"/>
<path d="M20.4063 13.7677C20.4063 7.54824 24.5863 2.25846 30.2756 0.566563C29.0383 0.198652 27.7299 0 26.3772 0C18.8049 0 12.6094 6.19555 12.6094 13.7677V18.254L13.1822 19.0088H20.9792L20.4063 18.254V13.7677Z" fill="#665E68"/>
<path d="M24.0956 42.1716L23.6895 42.8406L23.935 43.1268V51.461C24.7244 51.6184 25.5406 51.7015 26.3762 51.7015C27.212 51.7015 28.0282 51.6184 28.8176 51.461V43.1157V42.1716H24.0956Z" fill="#DBEDFF"/>
<path d="M39.446 22.0189L41.1061 20.7983L41.5363 19.863C40.888 18.5089 39.505 17.5736 37.9034 17.5736C37.4274 17.5736 36.9709 17.6569 36.5471 17.8085L36.0703 18.2852V22.0189H39.446Z" fill="#FED1A3"/>
<path d="M11.3633 19.5865V20.6104L13.718 22.0189H16.6127V18.1325L16.2056 17.8085C15.7818 17.6567 15.3253 17.5736 14.8492 17.5736C13.3592 17.5736 12.0595 18.3835 11.3633 19.5865Z" fill="#FED1A3"/>
<path d="M37.9034 21.5993C37.4233 21.5993 36.9629 21.5148 36.5358 21.3608L36.0703 21.1386V25.1644L36.5358 25.3866C36.9628 25.5408 37.4231 25.6252 37.9034 25.6252C40.1269 25.6252 41.9293 23.8227 41.9293 21.5993C41.9293 20.8658 41.7321 20.1787 41.3894 19.5864C40.6932 20.7894 39.3933 21.5993 37.9034 21.5993Z" fill="#FFBC85"/>
<path d="M14.8481 21.5993C13.3583 21.5993 12.0583 20.7894 11.3622 19.5864C11.0194 20.1787 10.8223 20.8658 10.8223 21.5993C10.8223 23.8228 12.6246 25.6252 14.8481 25.6252C15.3274 25.6252 15.7871 25.5409 16.2134 25.3873L16.6116 24.8817V20.8559L16.2134 21.3614C15.7869 21.5153 15.3274 21.5993 14.8481 21.5993Z" fill="#FFBC85"/>
<path d="M32.004 36.7594L32.0039 33.383L31.5421 33.1398H25.9258V42.3709H28.3684L29.2005 42.0484L32.4047 38.3512L32.5244 37.6433C32.208 37.4662 32.005 37.1307 32.004 36.7594Z" fill="#FED1A3"/>
<path d="M26.2541 33.1398H21.2013L20.7547 33.4065V36.7531C20.7547 37.1719 20.5534 37.4187 20.3215 37.576L20.2148 37.6176V38.2101L23.7251 41.9249L24.3962 42.3707H26.254V33.1398H26.2541Z" fill="#FFBC85"/>
<path d="M29.549 12.6143C28.5279 13.1096 27.4663 13.436 26.3767 13.436C25.4683 13.436 24.5798 13.2071 23.7176 12.8448H22.6217L20.9492 15.3522V28.8265L23.6899 33.14L27.9891 34.9398C32.8153 34.2127 36.5481 29.9688 36.5481 24.9499V16.9339C36.5481 13.3387 32.7835 11.045 29.549 12.6143Z" fill="#FFE5C1"/>
<path d="M21.4418 25.0241V16.9337C21.4418 15.1411 22.3779 13.6725 23.7174 12.8445C23.5454 12.7722 23.3741 12.6966 23.2043 12.6142C19.9698 11.0449 16.2051 13.3385 16.2051 16.9337V25.0241C16.2051 30.2603 20.3049 35.0431 26.5077 35.0504C27.381 35.0514 28.2289 34.9369 29.038 34.7227C24.3774 33.5596 21.4418 29.4546 21.4418 25.0241Z" fill="#FED1A3"/>
<path d="M14.6133 39.8055C14.6615 39.904 14.7255 39.9965 14.8074 40.0784L20.1738 45.4448C20.5724 45.8435 21.2188 45.8435 21.6174 45.4448L24.1077 42.9546C24.5064 42.5559 24.5064 41.9095 24.1077 41.511L20.2148 37.618L14.6133 39.8055Z" fill="#DBEDFF"/>
<path d="M31.1468 45.4446C31.5454 45.8433 32.1918 45.8433 32.5904 45.4446L37.9567 40.0783C38.0319 40.0031 38.0928 39.919 38.1396 39.8296C35.3645 38.7548 32.9342 37.8137 32.6533 37.7048C32.6081 37.6873 32.5654 37.6663 32.5239 37.6432L28.6564 41.5107C28.2578 41.9094 28.2578 42.5556 28.6564 42.9543L31.1468 45.4446Z" fill="#DBEDFF"/>
</svg>
