<svg width="32" height="32" viewBox="0 0 32 32" fill="none" xmlns="http://www.w3.org/2000/svg">
<path fill-rule="evenodd" clip-rule="evenodd" d="M22.6171 32C22.2984 22.317 20.0598 24.4263 15.5243 21.2438H13.1436C12.3444 21.7978 11.4992 22.2823 10.6172 22.6919C7.76296 24.0583 6.30397 24.3224 6.05078 32H22.6171Z" fill="#4D6C8F"/>
<path fill-rule="evenodd" clip-rule="evenodd" d="M14.1898 31.9997L9.92578 23.0198C10.148 22.9141 10.3775 22.8066 10.618 22.6919C11.4999 22.2823 12.3451 21.7978 13.1443 21.2438H15.525C16.7672 22.1163 17.8365 22.5898 18.7417 23.0198L14.4777 31.9997H14.1898Z" fill="#456181"/>
<path fill-rule="evenodd" clip-rule="evenodd" d="M14.3329 30.5152L10.6191 22.6919C11.5005 22.2822 12.3451 21.7978 13.1437 21.2438H15.5244C16.3227 21.7981 17.1674 22.2826 18.049 22.6919L14.3329 30.5152Z" fill="#D3DDE6"/>
<path fill-rule="evenodd" clip-rule="evenodd" d="M9.67773 14.8869H18.9927V11.7065C18.9927 8.15831 16.0566 9.30762 14.4846 8.51906C12.0147 7.27862 9.67773 9.25312 9.67773 11.5446V14.8869Z" fill="#4D6C8F"/>
<path fill-rule="evenodd" clip-rule="evenodd" d="M11.1437 13.446C11.3696 13.574 11.5526 13.7662 11.6693 13.9982C11.786 14.2303 11.8313 14.4917 11.7994 14.7494C11.7675 15.0072 11.6599 15.2497 11.4901 15.4463C11.3204 15.6429 11.0961 15.7847 10.8458 15.8538C10.5954 15.9229 10.3302 15.9162 10.0836 15.8345C9.8371 15.7529 9.62031 15.5999 9.46071 15.395C9.30111 15.1901 9.20588 14.9424 9.18705 14.6834C9.16822 14.4244 9.22665 14.1656 9.35494 13.9397C9.43995 13.7898 9.55366 13.6582 9.68957 13.5522C9.82548 13.4463 9.98092 13.3682 10.147 13.3223C10.3131 13.2765 10.4866 13.2638 10.6577 13.285C10.8287 13.3062 10.9938 13.3609 11.1437 13.446ZM18.8176 13.446C19.0437 13.574 19.2268 13.7662 19.3436 13.9984C19.4605 14.2305 19.5059 14.492 19.474 14.7499C19.4421 15.0078 19.3345 15.2505 19.1647 15.4472C18.9948 15.6439 18.7705 15.7858 18.52 15.8549C18.2695 15.9241 18.0041 15.9174 17.7574 15.8356C17.5108 15.7539 17.2939 15.6008 17.1342 15.3958C16.9746 15.1907 16.8794 14.9429 16.8606 14.6838C16.8418 14.4246 16.9004 14.1656 17.0288 13.9397C17.2011 13.6377 17.486 13.4161 17.8213 13.3236C18.1565 13.2311 18.5147 13.2751 18.8176 13.446Z" fill="#CB9967"/>
<path fill-rule="evenodd" clip-rule="evenodd" d="M14.9764 22.2115L15.3189 28.441L14.3334 30.5157L13.3535 28.452L13.6996 22.2115H14.9764Z" fill="#E64C3C"/>
<path fill-rule="evenodd" clip-rule="evenodd" d="M15.0578 23.7106C14.8216 23.7712 14.5786 23.8012 14.3347 23.7999C14.0923 23.8014 13.8506 23.7726 13.6152 23.7142L13.699 22.2115H14.9759L15.0578 23.7106Z" fill="#CF4436"/>
<path fill-rule="evenodd" clip-rule="evenodd" d="M15.5731 21.2766L15.38 22.9742C15.309 23.4988 13.3508 23.5006 13.2908 22.9742L13.0977 21.2766L13.145 21.2438H15.5257L15.5731 21.2766Z" fill="#BA3D31"/>
<path fill-rule="evenodd" clip-rule="evenodd" d="M10.8535 12.5847C12.6148 12.6539 14.0684 12.4409 15.0976 11.2131C15.8351 12.0237 16.6895 12.3169 17.7277 12.5283L18.0739 16.4389C18.4873 21.1147 10.2743 21.1239 10.593 16.4389L10.8535 12.5847Z" fill="#FABD7F"/>
<path fill-rule="evenodd" clip-rule="evenodd" d="M22.1784 2.45537L22.9999 4.99999L25.6738 4.99455L23.5079 6.56099L24.3385 9.10198L22.1782 7.52642L20.0198 9.10198L20.8504 6.56099L18.6848 4.99455L21.3587 4.99999L22.1784 2.45537ZM14.3369 0L15.1584 2.54281L17.8305 2.53918L15.6647 4.10562L16.4953 6.6448L14.3369 5.07105L12.1784 6.6448L13.009 4.10562L10.8433 2.53918L13.5154 2.54281L14.3369 0ZM6.4936 2.45537L7.3151 4.99999L9.9872 4.99455L7.82328 6.56099L8.65384 9.10198L6.4936 7.52642L4.33512 9.10198L5.16574 6.56099L3 4.99455L5.67392 4.99999L6.4936 2.45537Z" fill="#FEA832"/>
<path fill-rule="evenodd" clip-rule="evenodd" d="M23.4347 15.9541L24.7389 16.7082L26.0449 17.4605L29.2179 22.9596L29.8828 21.0962L31.8281 21.4532L28.6533 15.9541L27.349 16.7082L26.0449 17.4605L22.8701 22.9596L22.207 21.0962L20.2617 21.4532L23.4347 15.9541Z" fill="#E64C3C"/>
<path fill-rule="evenodd" clip-rule="evenodd" d="M29.6913 18.9614C29.6109 19.4054 29.3622 19.8012 28.997 20.0663C28.6319 20.3313 28.1785 20.4451 27.7314 20.384L26.0447 17.4605L24.7385 16.7082L23.4343 15.9541L21.8223 18.7483C21.9838 18.8439 22.1597 18.9128 22.3432 18.9523C22.3591 18.9542 22.374 18.9613 22.3855 18.9725C22.397 18.9837 22.4046 18.9983 22.4069 19.0142C22.4989 19.4464 22.7509 19.8278 23.1124 20.0819C23.4739 20.336 23.9182 20.4439 24.3559 20.384L26.0445 17.4605L27.3492 16.7082L28.6534 15.9541L30.2654 18.7483C30.0882 18.8525 29.8939 18.9247 29.6916 18.9614H29.6913Z" fill="#CF4436"/>
<path fill-rule="evenodd" clip-rule="evenodd" d="M25.1546 10.6611C25.2671 10.5361 25.4046 10.4362 25.5582 10.3678C25.7118 10.2994 25.878 10.264 26.0462 10.264C26.2143 10.264 26.3806 10.2994 26.5342 10.3678C26.6878 10.4362 26.8253 10.5361 26.9378 10.6611C27.0186 10.7527 27.1246 10.8183 27.2426 10.8498C27.3605 10.8812 27.4852 10.877 27.6008 10.8378C27.7608 10.7863 27.9298 10.7689 28.0969 10.7868C28.264 10.8046 28.4256 10.8573 28.5711 10.9414C28.7166 11.0255 28.8429 11.1392 28.9418 11.275C29.0407 11.4109 29.11 11.566 29.1453 11.7303C29.1695 11.8503 29.2285 11.9604 29.3151 12.0469C29.4016 12.1334 29.5117 12.1925 29.6317 12.2167C29.7959 12.2517 29.9509 12.3209 30.0868 12.4196C30.2226 12.5184 30.3361 12.6446 30.4201 12.79C30.5041 12.9354 30.5565 13.0969 30.5742 13.2639C30.5918 13.4309 30.5741 13.5997 30.5223 13.7595C30.4832 13.8753 30.4793 14 30.5111 14.118C30.5429 14.236 30.6089 14.342 30.7008 14.4225C30.8253 14.5353 30.9248 14.6729 30.9928 14.8264C31.0609 14.98 31.0961 15.1461 31.0961 15.3141C31.0961 15.4821 31.0609 15.6482 30.9928 15.8017C30.9248 15.9553 30.8253 16.0929 30.7008 16.2057C30.609 16.2867 30.543 16.3929 30.5113 16.5112C30.4795 16.6295 30.4834 16.7545 30.5223 16.8706C30.5866 17.0695 30.5979 17.2817 30.555 17.4862C30.5121 17.6908 30.4166 17.8806 30.2779 18.037C30.1393 18.1933 29.9622 18.3107 29.7642 18.3777C29.5662 18.4446 29.3542 18.4587 29.149 18.4186C29.1891 18.6237 29.175 18.8357 29.108 19.0336C29.041 19.2315 28.9235 19.4085 28.7671 19.5471C28.6107 19.6856 28.4208 19.781 28.2162 19.8236C28.0117 19.8662 27.7995 19.8547 27.6008 19.7902C27.485 19.7512 27.3603 19.7474 27.2423 19.7791C27.1243 19.8109 27.0184 19.8768 26.9378 19.9686C26.825 20.0931 26.6874 20.1926 26.5338 20.2607C26.3803 20.3288 26.2142 20.364 26.0462 20.364C25.8782 20.364 25.7121 20.3288 25.5585 20.2607C25.405 20.1926 25.2674 20.0931 25.1546 19.9686C25.074 19.8768 24.968 19.8109 24.8501 19.7791C24.7321 19.7473 24.6074 19.7512 24.4916 19.7901C24.3317 19.8421 24.1628 19.86 23.9956 19.8425C23.8284 19.825 23.6668 19.7726 23.5212 19.6887C23.3756 19.6047 23.2492 19.4912 23.1503 19.3553C23.0514 19.2194 22.9821 19.0643 22.947 18.8999C22.9232 18.7801 22.8645 18.67 22.7783 18.5835C22.6921 18.4969 22.5822 18.4378 22.4625 18.4136C22.298 18.3788 22.1427 18.3099 22.0066 18.2113C21.8706 18.1126 21.7567 17.9864 21.6726 17.841C21.5884 17.6955 21.5358 17.5339 21.5181 17.3668C21.5004 17.1996 21.5181 17.0307 21.5699 16.8708C21.6087 16.7548 21.6127 16.63 21.5813 16.5118C21.5499 16.3937 21.4845 16.2873 21.3932 16.2059C21.2682 16.0934 21.1683 15.9559 21.0999 15.8023C21.0314 15.6487 20.9961 15.4824 20.9961 15.3143C20.9961 15.1461 21.0314 14.9799 21.0999 14.8262C21.1683 14.6726 21.2682 14.5351 21.3932 14.4227C21.4846 14.3417 21.5501 14.2357 21.5815 14.1178C21.6129 13.9999 21.6089 13.8753 21.5699 13.7597C21.518 13.5998 21.5004 13.4308 21.5181 13.2636C21.5358 13.0965 21.5884 12.9349 21.6726 12.7895C21.7567 12.644 21.8705 12.5178 22.0066 12.4192C22.1427 12.3205 22.298 12.2516 22.4625 12.2168C22.582 12.1923 22.6917 12.1331 22.7779 12.0466C22.8641 11.9601 22.9229 11.8502 22.947 11.7305C22.9822 11.5662 23.0516 11.4111 23.1505 11.2752C23.2494 11.1393 23.3757 11.0256 23.5212 10.9415C23.6668 10.8574 23.8283 10.8048 23.9954 10.7869C24.1626 10.7691 24.3316 10.7865 24.4916 10.838C24.6072 10.8772 24.7318 10.8814 24.8498 10.8499C24.9678 10.8185 25.0738 10.7529 25.1546 10.6613V10.6611Z" fill="#FFD23B"/>
<path fill-rule="evenodd" clip-rule="evenodd" d="M26.0472 18.4133C26.66 18.413 27.2588 18.231 27.7682 17.8903C28.2775 17.5497 28.6743 17.0657 28.9086 16.4995C29.1429 15.9333 29.204 15.3104 29.0842 14.7095C28.9645 14.1085 28.6693 13.5566 28.2359 13.1235C27.8025 12.6903 27.2505 12.3954 26.6495 12.276C26.0485 12.1565 25.4256 12.218 24.8596 12.4526C24.2935 12.6871 23.8097 13.0842 23.4693 13.5937C23.1289 14.1032 22.9473 14.7022 22.9473 15.3149C22.9488 16.1365 23.2759 16.9239 23.857 17.5047C24.4381 18.0855 25.2257 18.4122 26.0472 18.4133Z" fill="#FEA832"/>
<path fill-rule="evenodd" clip-rule="evenodd" d="M5.39385 15.3584C5.60516 14.5588 5.70353 13.2109 5.27729 12.5934C4.91848 12.0725 4.15892 12.1271 4.18623 12.8559C4.25179 14.5079 3.57999 14.8904 1.54688 14.9233V19.6282C2.96949 19.4407 2.49587 20.1673 5.3611 20.1673H6.92028C7.0548 20.1658 7.1833 20.1113 7.2779 20.0157C7.3725 19.92 7.42556 19.7909 7.42556 19.6564C7.42556 19.5219 7.3725 19.3928 7.2779 19.2971C7.1833 19.2015 7.0548 19.147 6.92028 19.1455H7.26084C7.33837 19.1463 7.41529 19.1317 7.48716 19.1026C7.55902 19.0735 7.62439 19.0304 7.6795 18.9759C7.73461 18.9213 7.77836 18.8564 7.80822 18.7848C7.83808 18.7133 7.85345 18.6365 7.85345 18.559C7.85345 18.4814 7.83808 18.4047 7.80822 18.3331C7.77836 18.2615 7.73461 18.1966 7.6795 18.1421C7.62439 18.0875 7.55902 18.0445 7.48716 18.0153C7.41529 17.9862 7.33837 17.9716 7.26084 17.9724H7.44834C7.62177 17.9724 7.7881 17.9035 7.91074 17.7809C8.03337 17.6583 8.10227 17.4919 8.10227 17.3185C8.10227 17.1451 8.03337 16.9787 7.91074 16.8561C7.7881 16.7335 7.62177 16.6646 7.44834 16.6646C7.83089 16.6646 8.14596 16.4096 8.14596 16.0107C8.14543 15.8376 8.07631 15.6718 7.95375 15.5495C7.83119 15.4273 7.66518 15.3586 7.49208 15.3586L5.39385 15.3584Z" fill="#FABD7F"/>
<path fill-rule="evenodd" clip-rule="evenodd" d="M2.52687 14.8651V19.683C2.28093 19.6047 2.01862 19.5664 1.54688 19.6284V14.9234C1.87434 14.9212 2.20145 14.9017 2.52687 14.8651Z" fill="#E1AA72"/>
<path fill-rule="evenodd" clip-rule="evenodd" d="M0.304813 14.4187H1.98811C2.00559 14.4186 2.02291 14.422 2.03907 14.4287C2.05523 14.4354 2.06991 14.4452 2.08227 14.4575C2.09462 14.4699 2.10441 14.4846 2.11107 14.5007C2.11772 14.5169 2.12112 14.5342 2.12105 14.5517V20.0344C2.12085 20.0696 2.10679 20.1033 2.0819 20.1282C2.05701 20.1531 2.02331 20.1671 1.98811 20.1673H0.304813C0.269617 20.1671 0.235918 20.1531 0.211031 20.1282C0.186143 20.1033 0.172074 20.0696 0.171877 20.0344V14.5519C0.171786 14.5344 0.175161 14.5171 0.181806 14.5009C0.188451 14.4847 0.198236 14.47 0.210595 14.4576C0.222954 14.4452 0.237643 14.4354 0.253814 14.4287C0.269986 14.4221 0.287319 14.4186 0.304813 14.4187Z" fill="#69A7FF"/>
<path d="M8.06914 17.1147H5.96172C5.84237 17.1147 5.72791 17.0673 5.64352 16.9829C5.55913 16.8985 5.51172 16.7841 5.51172 16.6647C5.51172 16.5454 5.55913 16.4309 5.64352 16.3465C5.72791 16.2621 5.84237 16.2147 5.96172 16.2147H8.11651C8.02901 16.4952 7.76133 16.6647 7.44777 16.6647C7.58533 16.6654 7.71922 16.7092 7.83063 16.7899C7.94203 16.8706 8.02535 16.9842 8.06889 17.1147H8.06914ZM7.42621 19.5956C7.41086 19.4719 7.35102 19.358 7.25787 19.2752C7.16471 19.1924 7.0446 19.1463 6.91996 19.1456H7.26052C7.39197 19.1454 7.51957 19.1011 7.62292 19.0199C7.72628 18.9387 7.79943 18.8251 7.8307 18.6975H5.96197C5.84288 18.6975 5.72868 18.7448 5.64448 18.829C5.56027 18.9132 5.51297 19.0274 5.51297 19.1465C5.51297 19.2655 5.56027 19.3798 5.64448 19.464C5.72868 19.5482 5.84288 19.5955 5.96197 19.5955L7.42621 19.5956ZM7.83058 18.4225C7.79942 18.2946 7.72635 18.1808 7.62302 18.0993C7.51968 18.0177 7.39203 17.9731 7.26039 17.9725H7.44789C7.58546 17.9718 7.71935 17.928 7.83075 17.8473C7.94215 17.7666 8.02548 17.653 8.06901 17.5225H5.96172C5.84237 17.5225 5.72791 17.5699 5.64352 17.6543C5.55913 17.7387 5.51172 17.8532 5.51172 17.9725C5.51172 18.0919 5.55913 18.2063 5.64352 18.2907C5.72791 18.3751 5.84237 18.4225 5.96172 18.4225H7.83058Z" fill="#E1AA72"/>
<path d="M7.97148 29.4807C7.85214 29.4807 7.73768 29.4333 7.65329 29.3489C7.56889 29.2645 7.52148 29.15 7.52148 29.0307C7.52148 28.9113 7.56889 28.7969 7.65329 28.7125C7.73768 28.6281 7.85214 28.5807 7.97148 28.5807H11.2228C11.3422 28.5807 11.4566 28.6281 11.541 28.7125C11.6254 28.7969 11.6728 28.9113 11.6728 29.0307C11.6728 29.15 11.6254 29.2645 11.541 29.3489C11.4566 29.4333 11.3422 29.4807 11.2228 29.4807H7.97148Z" fill="#D3DDE6"/>
<path fill-rule="evenodd" clip-rule="evenodd" d="M9.59977 26.8431L10.2063 27.9361L10.8129 29.0308H9.59977H8.38672L8.99321 27.9361L9.59977 26.8431Z" fill="#D3DDE6"/>
<path fill-rule="evenodd" clip-rule="evenodd" d="M1.35062 14.4187V19.3239C1.35042 19.3592 1.33634 19.3929 1.31144 19.4178C1.28655 19.4427 1.25283 19.4567 1.21762 19.4569H0.171875V20.0344C0.172072 20.0696 0.186141 20.1033 0.211029 20.1282C0.235917 20.1531 0.269615 20.1671 0.304812 20.1673H1.98811C2.02331 20.1671 2.05701 20.1531 2.0819 20.1282C2.10678 20.1033 2.12085 20.0696 2.12105 20.0344V14.5519C2.12114 14.5344 2.11777 14.5171 2.11112 14.5009C2.10447 14.4847 2.09469 14.47 2.08233 14.4576C2.06997 14.4452 2.05528 14.4354 2.03911 14.4287C2.02294 14.4221 2.00561 14.4186 1.98811 14.4187H1.35062Z" fill="#5F96E6"/>
<path fill-rule="evenodd" clip-rule="evenodd" d="M4.82117 12.5937C5.24735 13.2112 5.14904 14.5591 4.93773 15.3587H5.39523C5.60654 14.5591 5.70491 13.2112 5.27867 12.5937C5.06373 12.2822 4.70673 12.1766 4.45898 12.2968C4.60643 12.3579 4.73254 12.4612 4.82148 12.5937H4.82117Z" fill="#E1AA72"/>
<path fill-rule="evenodd" clip-rule="evenodd" d="M16.9802 12.7686L17.0768 13.8651L17.1678 14.887L17.2206 15.4933L17.3263 16.6791C17.4666 18.2728 16.6068 19.3238 15.4228 19.8321C16.9675 19.4841 18.2425 18.3512 18.0731 16.4383L18.0239 15.8919L17.9364 14.8865L17.798 13.3291L17.7269 12.5276C16.6887 12.3163 15.8345 12.0231 15.0968 11.2125C14.9471 11.3926 14.7799 11.5574 14.5977 11.7043C15.2789 12.3273 16.0567 12.5805 16.9801 12.7681L16.9802 12.7686Z" fill="#E1AA72"/>
<path fill-rule="evenodd" clip-rule="evenodd" d="M12.6938 9.26385C14.2603 10.0489 17.1801 8.91229 17.2038 12.4076C17.3713 12.4513 17.5462 12.4914 17.7265 12.5278L17.7976 13.3293C18.0008 13.2681 18.2159 13.2575 18.4242 13.2984C18.6325 13.3394 18.8275 13.4307 18.9925 13.5643V11.7065C18.9925 8.15823 16.0563 9.30754 14.4843 8.51897C13.1364 7.84135 11.8268 8.12191 10.916 8.88872C11.5318 8.84838 12.1468 8.9781 12.6938 9.26372V9.26385Z" fill="#456181"/>
<path fill-rule="evenodd" clip-rule="evenodd" d="M17.7559 23.3043C19.7758 24.3371 20.836 25.5611 21.0491 32.0001H22.6152C22.3621 24.3206 20.9027 24.0583 18.047 22.6923L17.7559 23.3043Z" fill="#456181"/>
<path fill-rule="evenodd" clip-rule="evenodd" d="M17.7545 23.3039L18.0459 22.6919C17.1831 22.2882 16.3546 21.8148 15.5687 21.2766L15.4648 22.1837C16.3211 22.6462 17.1023 22.9687 17.7545 23.3039Z" fill="#BEC7CF"/>
<path fill-rule="evenodd" clip-rule="evenodd" d="M24.8772 4.99636L22.7132 6.56099L23.2961 8.34061L24.3398 9.10198L23.5091 6.56099L25.6748 4.99455L24.8772 4.99636ZM8.65501 9.10198L7.82446 6.56099L9.98838 4.99455L9.19239 4.99636L7.02846 6.56099L7.60971 8.34061L8.65501 9.10198ZM6.52209 4.99999L7.31627 4.99818L6.49478 2.45537L6.09766 3.68849L6.52209 4.99999ZM13.9408 1.23125L14.3634 2.54274L15.1575 2.54093L14.338 0L13.9408 1.23125ZM17.0341 2.53918L14.8717 4.10562L15.4529 5.88343L16.4966 6.6448L15.6659 4.10562L17.8316 2.53918H17.0341ZM21.7828 3.68849L22.2069 4.99999L23.001 4.99818L22.1796 2.45537L21.7828 3.68849Z" fill="#E5972D"/>
<path fill-rule="evenodd" clip-rule="evenodd" d="M26.9033 19.7905C26.7872 19.7515 26.6622 19.7476 26.544 19.7794C26.4257 19.8112 26.3195 19.8771 26.2385 19.969C26.0932 20.1312 25.906 20.2503 25.6975 20.3133C25.8111 20.3472 25.929 20.3643 26.0475 20.3643C26.2153 20.3642 26.3813 20.329 26.5347 20.2609C26.688 20.1927 26.8254 20.0932 26.9379 19.9687C26.9847 19.916 27.0402 19.8716 27.1019 19.8375C27.0345 19.8273 26.9681 19.8114 26.9033 19.7901V19.7905ZM26.2385 10.6612C26.3196 10.7528 26.426 10.8185 26.5442 10.8499C26.6625 10.8813 26.7874 10.8772 26.9033 10.8379C26.9681 10.8171 27.0345 10.8019 27.1019 10.7924C27.0406 10.7577 26.9852 10.7133 26.9379 10.6611C26.8257 10.5361 26.6884 10.4361 26.5349 10.3677C26.3814 10.2992 26.2153 10.2639 26.0473 10.264C25.9286 10.2636 25.8105 10.2815 25.6973 10.3169C25.9058 10.3798 26.0929 10.4989 26.2383 10.6611L26.2385 10.6612ZM28.4517 18.4187C28.5074 18.7103 28.4536 19.0121 28.3007 19.2665C28.1478 19.5209 27.9065 19.71 27.6229 19.7976C27.821 19.8577 28.0313 19.8656 28.2334 19.8205C28.4354 19.7753 28.6224 19.6786 28.776 19.5398C28.9296 19.401 29.0447 19.2248 29.1101 19.0284C29.1755 18.8319 29.189 18.6219 29.1492 18.4187C29.4389 18.4745 29.739 18.4219 29.9925 18.2712C30.1707 18.1674 30.3184 18.0185 30.4206 17.8395C30.5045 17.6941 30.5569 17.5328 30.5745 17.3659C30.5921 17.199 30.5744 17.0303 30.5226 16.8707C30.4836 16.7546 30.4798 16.6296 30.5115 16.5113C30.5433 16.3931 30.6092 16.2868 30.7011 16.2058C30.8256 16.093 30.925 15.9554 30.9931 15.8019C31.0612 15.6483 31.0964 15.4822 31.0964 15.3142C31.0964 15.1462 31.0612 14.9801 30.9931 14.8266C30.925 14.673 30.8256 14.5354 30.7011 14.4226C30.6092 14.3421 30.5431 14.2362 30.5114 14.1182C30.4796 14.0002 30.4835 13.8754 30.5226 13.7596C30.5744 13.5998 30.592 13.431 30.5744 13.264C30.5568 13.097 30.5043 12.9356 30.4204 12.7901C30.3364 12.6447 30.2228 12.5185 30.087 12.4197C29.9512 12.321 29.7962 12.2518 29.6319 12.2168C29.512 12.1926 29.4019 12.1336 29.3153 12.0471C29.2288 11.9605 29.1697 11.8504 29.1456 11.7305C29.1108 11.568 29.0427 11.4145 28.9456 11.2797C28.8484 11.1449 28.7244 11.0317 28.5812 10.9473C28.4381 10.8629 28.2791 10.8091 28.1141 10.7894C27.9491 10.7696 27.7818 10.7843 27.6228 10.8325C27.7101 10.8586 27.794 10.8953 27.8724 10.9418C28.0181 11.0255 28.1446 11.139 28.2435 11.2749C28.3423 11.4108 28.4114 11.566 28.4461 11.7305C28.4706 11.8503 28.5297 11.9603 28.6162 12.0467C28.7027 12.1332 28.8127 12.1923 28.9325 12.2168C29.0967 12.2518 29.2518 12.321 29.3876 12.4197C29.5234 12.5185 29.637 12.6447 29.7209 12.7901C29.8049 12.9356 29.8574 13.097 29.875 13.264C29.8926 13.431 29.8749 13.5998 29.8232 13.7596C29.7841 13.8754 29.7802 14.0001 29.812 14.1181C29.8437 14.2361 29.9097 14.342 30.0017 14.4225C30.1261 14.5353 30.2256 14.6729 30.2937 14.8265C30.3618 14.9801 30.3969 15.1462 30.3969 15.3142C30.3969 15.4821 30.3618 15.6482 30.2937 15.8018C30.2256 15.9554 30.1261 16.093 30.0017 16.2058C29.9098 16.2867 29.8439 16.393 29.8121 16.5113C29.7804 16.6296 29.7842 16.7546 29.8232 16.8707C29.8745 17.0265 29.893 17.1914 29.8773 17.3547C29.8616 17.5181 29.8121 17.6764 29.7321 17.8197C29.7288 17.8265 29.7252 17.8332 29.7212 17.8397C29.5958 18.0559 29.4062 18.2279 29.1788 18.3316C28.9513 18.4354 28.6972 18.4658 28.4517 18.4187Z" fill="#E6BD35"/>
<path fill-rule="evenodd" clip-rule="evenodd" d="M23.9106 15.3149C23.9106 14.5764 24.1743 13.8622 24.6542 13.3008C25.134 12.7395 25.7985 12.3679 26.5281 12.253C26.3689 12.2288 26.2082 12.2166 26.0472 12.2166C25.6402 12.2164 25.2372 12.2964 24.8611 12.452C24.485 12.6076 24.1433 12.8358 23.8554 13.1235C23.5675 13.4113 23.3392 13.7529 23.1833 14.1289C23.0275 14.5049 22.9473 14.9079 22.9473 15.3149C22.9466 15.6995 23.0183 16.0807 23.1585 16.4387C23.3842 17.0212 23.781 17.5216 24.2967 17.8741C24.8124 18.2266 25.4228 18.4146 26.0474 18.4133C26.2084 18.4132 26.3691 18.401 26.5282 18.3769C25.7987 18.2621 25.1341 17.8905 24.6542 17.3291C24.1744 16.7677 23.9107 16.0535 23.9108 15.3149H23.9106Z" fill="#E5972D"/>
<path fill-rule="evenodd" clip-rule="evenodd" d="M23.8721 19.823L22.5625 22.0944L22.8703 22.9596L24.7173 19.7593C24.6402 19.7563 24.5631 19.7669 24.4896 19.7905C24.2902 19.8551 24.0773 19.8664 23.8721 19.8233V19.823Z" fill="#CF4436"/>
<path fill-rule="evenodd" clip-rule="evenodd" d="M29.2773 18.4371L30.924 21.2878L31.8274 21.4535L29.9895 18.2714C29.7751 18.3993 29.5262 18.4572 29.2773 18.4371Z" fill="#CF4436"/>
</svg>
