<svg width="70" height="70" viewBox="0 0 70 70" fill="none" xmlns="http://www.w3.org/2000/svg">
<rect width="70" height="70" rx="6" fill="white"/>
<g clip-path="url(#clip0_1381_20873)">
<path d="M19.918 3.18567V32.2541L22.7635 36.4228H65.4464C66.5464 36.4228 67.4383 35.531 67.4383 34.431V3.18567H19.918Z" fill="#EAF6FF"/>
<path d="M63.4547 3.18567V34.431C63.4547 35.531 62.5629 36.4228 61.4629 36.4228H65.4466C66.5466 36.4228 67.4385 35.531 67.4385 34.431V3.18567H63.4547Z" fill="#D8ECFE"/>
<path d="M65.0299 4.55287L65.2575 4.52566L65.7838 4.3657L66.1783 4.22133L66.8712 2.74887L66.3997 0.448848L65.6394 0.169805L65.1684 0.021875L65.066 0.0101172L64.9537 0H18.4956C17.867 0 17.3574 0.509551 17.3574 1.13818V3.41455C17.3574 4.04318 17.867 4.55273 18.4956 4.55273H64.8777L65.0299 4.55287Z" fill="#60B7FF"/>
<path d="M23.0551 55.7169L24.163 56.6027H30.7471C31.3612 55.8267 31.7288 54.8468 31.7288 53.7804C31.7288 51.2659 29.6904 49.2275 27.1759 49.2275C24.6614 49.2275 22.623 51.2659 22.623 53.7804C22.6229 54.4732 22.7784 55.1293 23.0551 55.7169Z" fill="#FED2A4"/>
<path d="M29.112 49.6597C29.3887 50.2474 29.544 50.9035 29.544 51.5962C29.544 54.1107 27.5057 56.149 24.9912 56.149C24.2986 56.149 23.6424 55.9937 23.0547 55.717C23.7824 57.2629 25.3536 58.3334 27.1755 58.3334C29.6901 58.3334 31.7284 56.295 31.7284 53.7805C31.7284 51.9586 30.6579 50.3874 29.112 49.6597Z" fill="#FFBD86"/>
<path d="M35.0001 70H20.9902C20.0842 70 19.3496 69.2654 19.3496 68.3594V62.8861C19.3496 60.3716 21.3879 58.3333 23.9025 58.3333H30.4472C32.9617 58.3333 35.0001 60.3716 35.0001 62.8861V70Z" fill="#60B7FF"/>
<path d="M30.4466 58.3334H26.4629C28.9774 58.3334 31.0158 60.3717 31.0158 62.8862V70H34.9995L37.025 66.7974L34.9995 62.8861C34.9995 60.3717 32.9611 58.3334 30.4466 58.3334Z" fill="#26A6FE"/>
<path d="M40.2519 56.7568H46.2682C46.9586 55.9586 47.3772 54.9187 47.3772 53.7805C47.3772 51.266 45.3389 49.2277 42.8244 49.2277C40.31 49.2277 38.2715 51.266 38.2715 53.7805C38.2715 54.4731 38.4268 55.1293 38.7035 55.717L40.2519 56.7568Z" fill="#FED2A4"/>
<path d="M44.7624 49.6597C45.0391 50.2474 45.1944 50.9035 45.1944 51.5962C45.1944 54.1107 43.1561 56.149 40.6416 56.149C39.9489 56.149 39.2928 55.9937 38.7051 55.717C39.4328 57.2629 41.004 58.3334 42.8259 58.3334C45.3404 58.3334 47.3788 56.295 47.3788 53.7805C47.3789 51.9586 46.3084 50.3874 44.7624 49.6597Z" fill="#FFBD86"/>
<path d="M50.6503 70H35V62.8861C35 60.3716 37.0383 58.3333 39.5529 58.3333H46.0976C48.6121 58.3333 50.6505 60.3716 50.6505 62.8861L50.6503 70Z" fill="#FFE177"/>
<path d="M46.097 58.3334H42.1133C44.6278 58.3334 46.6662 60.3717 46.6662 62.8862V70H50.6499L52.1148 66.2584L50.6499 62.8862C50.6497 60.3717 48.6114 58.3334 46.097 58.3334Z" fill="#FFD15B"/>
<path d="M55.7266 56.853H61.8342C62.5752 56.0432 63.0276 54.9648 63.0276 53.7805C63.0276 51.266 60.9893 49.2277 58.4747 49.2277C55.9602 49.2277 53.9219 51.266 53.9219 53.7805C53.9219 54.4731 54.0772 55.1293 54.3539 55.717L55.7266 56.853Z" fill="#FED2A4"/>
<path d="M60.4128 49.6597C60.6895 50.2474 60.8448 50.9035 60.8448 51.5962C60.8448 54.1107 58.8065 56.149 56.292 56.149C55.5993 56.149 54.9432 55.9937 54.3555 55.717C55.0832 57.2629 56.6544 58.3334 58.4763 58.3334C60.9908 58.3334 63.0292 56.295 63.0292 53.7805C63.0292 51.9586 61.9587 50.3874 60.4128 49.6597Z" fill="#FFBD86"/>
<path d="M64.6602 70H50.6504V62.8861C50.6504 60.3716 52.6887 58.3333 55.2033 58.3333H61.748C64.2625 58.3333 66.3009 60.3716 66.3009 62.8861V68.3594C66.3009 69.2654 65.5663 70 64.6602 70Z" fill="#FD8087"/>
<path d="M61.7474 58.3334H57.7637C60.2782 58.3334 62.3165 60.3717 62.3165 62.8862V68.3594C62.3165 69.2654 61.582 70 60.6759 70H64.6596C65.5657 70 66.3003 69.2654 66.3003 68.3594V62.8861C66.3003 60.3717 64.2619 58.3334 61.7474 58.3334Z" fill="#FE646F"/>
<path d="M68.8626 0H64.8789C65.5075 0 66.0171 0.509551 66.0171 1.13818V3.41455C66.0171 4.04318 65.5075 4.55273 64.8789 4.55273H68.8626C69.4913 4.55273 70.0008 4.04318 70.0008 3.41455V1.13818C70.0008 0.509551 69.4913 0 68.8626 0Z" fill="#26A6FE"/>
<path d="M22.7642 31.8699H11.2398L7.8251 34.0769L4.41588 31.8733C1.96492 31.9459 0 33.9542 0 36.4226V47.8047C0 48.5904 0.636973 49.2274 1.4227 49.2274H12.8048C13.5905 49.2274 14.2276 48.5904 14.2276 47.8047V36.4226H22.7642C24.0215 36.4226 25.0406 35.4034 25.0406 34.1462C25.0406 32.889 24.0215 31.8699 22.7642 31.8699Z" fill="#918291"/>
<path d="M11.0967 47.8047C11.0967 48.5904 10.4597 49.2274 9.67383 49.2274H12.8039C13.5896 49.2274 14.2267 48.5904 14.2267 47.8047V36.4226H12.9873C11.9431 36.4226 11.0967 37.2692 11.0967 38.3133V47.8047Z" fill="#7A6D79"/>
<path d="M3.70365 29.2535L5.15137 30.4329H11.1425C11.9077 29.6183 12.3772 28.5229 12.3772 27.317C12.3772 24.8025 10.3389 22.7642 7.82436 22.7642C5.30996 22.7642 3.27148 24.8025 3.27148 27.317C3.27162 28.0096 3.42693 28.6658 3.70365 29.2535Z" fill="#FFBD86"/>
<path d="M9.7624 23.1962C10.0391 23.7839 10.1944 24.44 10.1944 25.1327C10.1944 27.6472 8.15609 29.6855 5.64156 29.6855C4.94895 29.6855 4.29283 29.5302 3.70508 29.2535C4.43283 30.7994 6.004 31.8699 7.82592 31.8699C10.3404 31.8699 12.3788 29.8315 12.3788 27.317C12.3789 25.4951 11.3084 23.9239 9.7624 23.1962Z" fill="#F6A96C"/>
<path d="M8.6025 37.6932L11.2395 31.8698H4.41016L7.04719 37.6932C7.35002 38.3618 8.29967 38.3618 8.6025 37.6932Z" fill="#EAF6FF"/>
<path d="M26.8272 22.7642L27.2892 22.689L28.0495 22.4484L30.3014 20.8605L30.5323 18.012L29.9549 11.6604L27.9018 9.26089L27.2442 9.18064L26.8625 9.12294L26.568 9.10571H16.7881C15.5308 9.10571 14.5117 10.125 14.5117 11.3821V20.4878C14.5117 21.7451 15.531 22.7642 16.7881 22.7642H17.3572V25.2616C17.3572 25.9205 18.0719 26.3309 18.641 25.999L24.1865 22.7641H26.4629L26.8272 22.7642Z" fill="#FFE177"/>
<path d="M30.4466 9.10571H26.4629C27.7202 9.10571 28.7393 10.125 28.7393 11.3821V20.4878C28.7393 21.7451 27.72 22.7642 26.4629 22.7642H30.4466C31.7039 22.7642 32.723 21.745 32.723 20.4878V11.3821C32.7231 10.1248 31.7039 9.10571 30.4466 9.10571Z" fill="#FFD15B"/>
<path d="M28.1702 14.6838H19.0645C18.4982 14.6838 18.0391 14.2247 18.0391 13.6584C18.0391 13.0922 18.4982 12.6331 19.0645 12.6331H28.1702C28.7365 12.6331 29.1956 13.0922 29.1956 13.6584C29.1956 14.2247 28.7365 14.6838 28.1702 14.6838Z" fill="#918291"/>
<path d="M23.6173 19.2367H19.0645C18.4982 19.2367 18.0391 18.7776 18.0391 18.2113C18.0391 17.645 18.4982 17.1859 19.0645 17.1859H23.6173C24.1836 17.1859 24.6427 17.645 24.6427 18.2113C24.6427 18.7776 24.1836 19.2367 23.6173 19.2367Z" fill="#918291"/>
<path d="M48.3735 19.8059H38.4141C37.8478 19.8059 37.3887 19.3468 37.3887 18.7805C37.3887 18.2142 37.8478 17.7551 38.4141 17.7551H48.3735C48.9398 17.7551 49.3989 18.2142 49.3989 18.7805C49.3989 19.3468 48.9398 19.8059 48.3735 19.8059Z" fill="#918291"/>
<path d="M55.4872 14.6838H38.4141C37.8478 14.6838 37.3887 14.2247 37.3887 13.6584C37.3887 13.0922 37.8478 12.6331 38.4141 12.6331H55.4872C56.0535 12.6331 56.5126 13.0922 56.5126 13.6584C56.5126 14.2247 56.0535 14.6838 55.4872 14.6838Z" fill="#918291"/>
<path d="M55.4872 24.9277H38.4141C37.8478 24.9277 37.3887 24.4686 37.3887 23.9023C37.3887 23.3361 37.8478 22.877 38.4141 22.877H55.4872C56.0535 22.877 56.5126 23.3361 56.5126 23.9023C56.5126 24.4686 56.0535 24.9277 55.4872 24.9277Z" fill="#918291"/>
<path d="M48.3735 30.0497H38.4141C37.8478 30.0497 37.3887 29.5906 37.3887 29.0243C37.3887 28.458 37.8478 27.9989 38.4141 27.9989H48.3735C48.9398 27.9989 49.3989 28.458 49.3989 29.0243C49.3989 29.5906 48.9398 30.0497 48.3735 30.0497Z" fill="#918291"/>
</g>
<defs>
<clipPath id="clip0_1381_20873">
<rect width="70" height="70" fill="white"/>
</clipPath>
</defs>
</svg>
