<svg width="16" height="17" viewBox="0 0 16 17" fill="none" xmlns="http://www.w3.org/2000/svg">
<path d="M9.49306 4.48755C7.28053 4.48755 5.48047 6.28758 5.48047 8.50011C5.48047 10.7126 7.28053 12.5127 9.49306 12.5127C11.7056 12.5127 13.5056 10.7126 13.5056 8.50011C13.5056 6.28758 11.7056 4.48755 9.49306 4.48755ZM11.3852 8.96886H9.02431V5.67852H9.96181V8.03136H11.3852V8.96886Z" fill="#6C7086"/>
<path d="M9.51169 1.99392C8.08422 1.99008 6.76366 2.44626 5.68922 3.22211H2.14138C1.58203 3.22211 1.12863 3.67555 1.12863 4.23486C1.12863 4.7942 1.58206 5.24761 2.14138 5.24761H3.85778C3.53075 5.81311 3.28666 6.43245 3.14144 7.08898H1.01275C0.453438 7.08901 0 7.54242 0 8.10176C0 8.66111 0.453438 9.11451 1.01275 9.11451H3.01662C3.07712 9.76042 3.23206 10.3788 3.4675 10.9559H2.74412C2.18478 10.9559 1.73137 11.4093 1.73137 11.9686C1.73137 12.528 2.18481 12.9814 2.74412 12.9814H4.77706C5.96244 14.2286 7.63725 15.0063 9.49378 15.0063C13.0871 15.0063 16 12.0934 16 8.50014C16 4.90536 13.1064 2.00361 9.51169 1.99392ZM9.49378 13.4502C6.76431 13.4502 4.54372 11.2296 4.54372 8.50011C4.54372 5.77064 6.76431 3.55005 9.49378 3.55005C12.2232 3.55005 14.4438 5.77064 14.4438 8.50011C14.4438 11.2296 12.2232 13.4502 9.49378 13.4502Z" fill="#6C7086"/>
</svg>
