<svg width="16" height="17" viewBox="0 0 16 17" fill="none" xmlns="http://www.w3.org/2000/svg">
<g clip-path="url(#clip0_5943_7517)">
<path d="M15.5312 6.43579H14.5312C14.2724 6.43579 14.0625 6.64567 14.0625 6.90454V13.7795C14.0625 14.0384 14.2724 14.2483 14.5312 14.2483H15.5312C15.7901 14.2483 16 14.0384 16 13.7795V6.90454C16 6.64567 15.7901 6.43579 15.5312 6.43579Z" fill="#6C7086"/>
<path d="M9.06519 3.47754L9.84644 2.12439C10.019 1.82545 9.91659 1.4432 9.61766 1.27061L9.07641 0.958105C8.77747 0.785512 8.39522 0.887949 8.22266 1.18689L7.44141 2.54004L9.06519 3.47754Z" fill="#6C7086"/>
<path d="M0.556789 11.4783C0.824633 11.631 1.16641 11.5312 1.32057 11.2642L5.15123 4.62936C4.79388 4.54446 4.41251 4.61999 4.11241 4.84505L2.78532 5.84036C2.39913 6.13002 2.07826 6.49777 1.84363 6.91965L0.139164 9.98452C-0.15343 10.5106 0.0301013 11.1742 0.551445 11.4752C0.553226 11.4762 0.555008 11.4772 0.556789 11.4783Z" fill="#6C7086"/>
<path d="M3.33494 9.87778H5.36719L8.59369 4.28931L6.96988 3.35181L3.19922 9.88284C3.24413 9.87984 3.28928 9.87778 3.33494 9.87778Z" fill="#6C7086"/>
<path d="M1.51287 12.8047L1.0279 13.6447C1.00508 13.6842 0.988178 13.7268 0.977678 13.7712L0.530459 15.6628C0.444865 16.0249 0.881834 16.2772 1.15258 16.022L2.56721 14.6889C2.6004 14.6577 2.62887 14.6217 2.65168 14.5822L3.03512 13.918C2.36571 13.8184 1.80208 13.3909 1.51287 12.8047Z" fill="#6C7086"/>
<path d="M7.068 13.9404H4.10697L3.48828 15.012C3.68722 15.2182 3.96619 15.3466 4.27531 15.3466C4.87938 15.3466 5.36906 14.857 5.36906 14.2529C5.36906 14.857 5.85875 15.3466 6.46281 15.3466C7.06688 15.3466 7.55656 14.857 7.55656 14.2529V14.1815C7.44309 14.1296 7.18325 13.9976 7.068 13.9404Z" fill="#6C7086"/>
<path d="M8.93141 5.58105L6.45069 9.87777H7.18719C7.44606 9.87777 7.65594 10.0876 7.65594 10.3465C7.65594 10.6054 7.44613 10.8152 7.18725 10.8153H3.33594C2.73188 10.8153 2.24219 11.305 2.24219 11.909C2.24219 12.5131 2.73188 13.0028 3.33594 13.0028H7.28744L7.80587 13.2618C8.69306 13.7054 9.68684 13.9402 10.6797 13.9402C11.5023 13.9402 12.3527 13.7786 13.1247 13.471V7.37768H12.3859L8.93141 5.58105Z" fill="#6C7086"/>
</g>
<defs>
<clipPath id="clip0_5943_7517">
<rect width="16" height="16" fill="white" transform="translate(0 0.5)"/>
</clipPath>
</defs>
</svg>
