<svg width="52" height="61" viewBox="0 0 52 61" fill="none" xmlns="http://www.w3.org/2000/svg">
<g clip-path="url(#clip0_1477_19570)">
<path d="M29.0864 3.95929H22.922V9.40059H29.0864V3.95929Z" fill="#2A7BF2"/>
<path d="M31.3222 4.63838H20.6868C19.4367 4.63838 18.4194 3.60039 18.4194 2.31759C18.4194 1.03805 19.4335 -0.00320435 20.6868 -0.00320435H31.3222C32.5723 -0.00320435 33.5896 1.03479 33.5896 2.31759C33.5896 3.59713 32.5754 4.63838 31.3222 4.63838Z" fill="#6CAFFF"/>
<path d="M47.3041 15.2367L45.0964 12.9771L43.191 14.9274L45.3986 17.1871L47.3041 15.2367Z" fill="#2A7BF2"/>
<path d="M47.8566 16.3009L44.0457 12.4002C43.5961 11.94 43.5961 11.199 44.0457 10.7388C44.4954 10.2786 45.2193 10.2786 45.6689 10.7388L49.4798 14.6394C49.9295 15.0997 49.9295 15.8406 49.4798 16.3009C49.0302 16.7611 48.3063 16.7611 47.8566 16.3009Z" fill="#6CAFFF"/>
<path d="M6.60855 17.1891L8.81616 14.9294L6.91071 12.9791L4.7031 15.2387L6.60855 17.1891Z" fill="#2A7BF2"/>
<path d="M4.14111 16.3009L7.95198 12.4002C8.40163 11.94 8.40163 11.199 7.95198 10.7388C7.50233 10.2786 6.77842 10.2786 6.32877 10.7388L2.5179 14.6394C2.06825 15.0997 2.06825 15.8406 2.5179 16.3009C2.96755 16.7611 3.69146 16.7611 4.14111 16.3009Z" fill="#6CAFFF"/>
<path d="M26.0062 58.8783C39.2208 58.8783 49.9334 47.9134 49.9334 34.3876C49.9334 20.8617 39.2208 9.89682 26.0062 9.89682C12.7916 9.89682 2.0791 20.8617 2.0791 34.3876C2.0791 47.9134 12.7916 58.8783 26.0062 58.8783Z" fill="white"/>
<path opacity="0.3" d="M26.0027 9.89655V34.3873L47.2542 21.8335C47.2542 21.8335 37.3779 8.90426 26.0027 9.89655Z" fill="#C0DAFF"/>
<path opacity="0.22" d="M38.3543 56.5083L26.0033 34.3873H2.07612C2.07612 34.3873 0.567716 65.6838 38.3543 56.5083Z" fill="#7B66F7"/>
<path d="M26.0062 58.8783C39.2208 58.8783 49.9334 47.9134 49.9334 34.3876C49.9334 20.8617 39.2208 9.89682 26.0062 9.89682C12.7916 9.89682 2.0791 20.8617 2.0791 34.3876C2.0791 47.9134 12.7916 58.8783 26.0062 58.8783Z" stroke="#4A8BFF" stroke-width="4" stroke-miterlimit="10"/>
<path d="M26.0027 14.5972V18.6774" stroke="#7B66F7" stroke-width="1.58873" stroke-miterlimit="10" stroke-linecap="round"/>
<path d="M16.343 17.2474L18.3361 20.7824" stroke="#7B66F7" stroke-width="1.58873" stroke-miterlimit="10" stroke-linecap="round"/>
<path d="M9.25623 24.4905L12.7099 26.5306" stroke="#7B66F7" stroke-width="1.58873" stroke-miterlimit="10" stroke-linecap="round"/>
<path d="M6.672 34.3873H10.6614" stroke="#7B66F7" stroke-width="1.58873" stroke-miterlimit="10" stroke-linecap="round"/>
<path d="M9.25623 44.2811L12.7099 42.241" stroke="#7B66F7" stroke-width="1.58873" stroke-miterlimit="10" stroke-linecap="round"/>
<path d="M16.343 51.5275L18.3361 47.9924" stroke="#7B66F7" stroke-width="1.58873" stroke-miterlimit="10" stroke-linecap="round"/>
<path d="M26.0027 54.1778V50.0944" stroke="#7B66F7" stroke-width="1.58873" stroke-miterlimit="10" stroke-linecap="round"/>
<path d="M35.6727 51.5275L33.6764 47.9924" stroke="#7B66F7" stroke-width="1.58873" stroke-miterlimit="10" stroke-linecap="round"/>
<path d="M42.7498 44.2811L39.2961 42.241" stroke="#7B66F7" stroke-width="1.58873" stroke-miterlimit="10" stroke-linecap="round"/>
<path d="M45.3362 34.3873H41.35" stroke="#7B66F7" stroke-width="1.58873" stroke-miterlimit="10" stroke-linecap="round"/>
<path d="M42.7498 24.4905L39.2961 26.5306" stroke="#7B66F7" stroke-width="1.58873" stroke-miterlimit="10" stroke-linecap="round"/>
<path d="M35.6727 17.2474L33.6764 20.7824" stroke="#7B66F7" stroke-width="1.58873" stroke-miterlimit="10" stroke-linecap="round"/>
<path d="M25.0436 34.3873L25.8663 20.8607C25.8695 20.7857 25.9333 20.7269 26.0098 20.7334C26.0768 20.7367 26.131 20.7955 26.1342 20.8607L26.957 34.3873C26.9889 34.9291 26.5871 35.3926 26.0609 35.4285C25.5315 35.4612 25.0787 35.0499 25.0436 34.5113C25.0436 34.4721 25.0436 34.4264 25.0436 34.3905V34.3873Z" fill="#78AEFF"/>
<path d="M27.8228 34.3875C27.8228 35.419 27.0064 36.2546 25.9987 36.2546C24.9909 36.2546 24.1746 35.419 24.1746 34.3875C24.1746 33.356 24.9909 32.5204 25.9987 32.5204C27.0064 32.5204 27.8228 33.356 27.8228 34.3875Z" fill="#7B66F7"/>
</g>
<defs>
<clipPath id="clip0_1477_19570">
<rect width="52" height="61" fill="white"/>
</clipPath>
</defs>
</svg>
