<svg width="6" height="10" viewBox="0 0 6 10" fill="none" xmlns="http://www.w3.org/2000/svg">
<path d="M0.524609 8.9751C0.387109 8.8376 0.318359 8.6626 0.318359 8.4501C0.318359 8.2376 0.387109 8.0626 0.524609 7.9251L3.44961 5.0001L0.524609 2.0751C0.387109 1.9376 0.318359 1.7626 0.318359 1.5501C0.318359 1.3376 0.387109 1.1626 0.524609 1.0251C0.662109 0.887597 0.837109 0.818848 1.04961 0.818848C1.26211 0.818848 1.43711 0.887597 1.57461 1.0251L5.02461 4.4751C5.09961 4.5501 5.15286 4.63135 5.18436 4.71885C5.21536 4.80635 5.23086 4.9001 5.23086 5.0001C5.23086 5.1001 5.21536 5.19385 5.18436 5.28135C5.15286 5.36885 5.09961 5.4501 5.02461 5.5251L1.57461 8.9751C1.43711 9.1126 1.26211 9.18135 1.04961 9.18135C0.837109 9.18135 0.662109 9.1126 0.524609 8.9751Z" fill="#FF8345"/>
</svg>
