<svg width="15" height="12" viewBox="0 0 15 12" fill="none" xmlns="http://www.w3.org/2000/svg">
<path d="M4.99961 12C4.58711 12 4.23411 11.8533 3.94061 11.5597C3.64661 11.2657 3.49961 10.9125 3.49961 10.5V9C3.49961 8.7875 3.57136 8.60925 3.71486 8.46525C3.85886 8.32175 4.03711 8.25 4.24961 8.25H5.74961V6.5625C5.31211 6.5375 4.89661 6.4405 4.50311 6.2715C4.10911 6.103 3.74961 5.85 3.42461 5.5125V4.6875H2.56211L0.762109 2.8875C0.549609 2.675 0.443359 2.45625 0.443359 2.23125C0.443359 2.00625 0.549609 1.80625 0.762109 1.63125C1.12461 1.31875 1.57161 1.08125 2.10311 0.91875C2.63411 0.75625 3.19961 0.675 3.79961 0.675C4.13711 0.675 4.46536 0.7 4.78436 0.75C5.10286 0.8 5.42461 0.89375 5.74961 1.03125V0.75C5.74961 0.5375 5.82161 0.35925 5.96561 0.21525C6.10911 0.0717501 6.28711 0 6.49961 0H13.9996C14.2121 0 14.3901 0.0717501 14.5336 0.21525C14.6776 0.35925 14.7496 0.5375 14.7496 0.75V9.75C14.7496 10.375 14.5309 10.9062 14.0934 11.3438C13.6559 11.7812 13.1246 12 12.4996 12H4.99961ZM7.24961 8.25H10.9996C11.2121 8.25 11.3901 8.32175 11.5336 8.46525C11.6776 8.60925 11.7496 8.7875 11.7496 9V9.75C11.7496 9.9625 11.8216 10.1405 11.9656 10.284C12.1091 10.428 12.2871 10.5 12.4996 10.5C12.7121 10.5 12.8901 10.428 13.0336 10.284C13.1776 10.1405 13.2496 9.9625 13.2496 9.75V1.5H7.24961V1.95L11.5246 6.225C11.6121 6.3125 11.6716 6.39375 11.7031 6.46875C11.7341 6.54375 11.7496 6.6375 11.7496 6.75C11.7496 6.9625 11.6776 7.1405 11.5336 7.284C11.3901 7.428 11.2121 7.5 10.9996 7.5C10.8871 7.5 10.7934 7.4845 10.7184 7.4535C10.6434 7.422 10.5621 7.3625 10.4746 7.275L8.56211 5.3625L8.41211 5.5125C8.23711 5.6875 8.05261 5.84375 7.85861 5.98125C7.66511 6.11875 7.46211 6.225 7.24961 6.3V8.25ZM3.19961 3.1875H4.92461V4.8C5.07461 4.9 5.23086 4.96875 5.39336 5.00625C5.55586 5.04375 5.72461 5.0625 5.89961 5.0625C6.18711 5.0625 6.44661 5.01875 6.67811 4.93125C6.90911 4.84375 7.13711 4.6875 7.36211 4.4625L7.51211 4.3125L6.46211 3.2625C6.09961 2.9 5.69336 2.628 5.24336 2.4465C4.79336 2.2655 4.31211 2.175 3.79961 2.175C3.54961 2.175 3.31211 2.19375 3.08711 2.23125C2.86211 2.26875 2.63711 2.325 2.41211 2.4L3.19961 3.1875Z" fill="white"/>
</svg>
