<svg width="12" height="16" viewBox="0 0 12 16" fill="none" xmlns="http://www.w3.org/2000/svg">
<path d="M6 13.25C6.2125 13.25 6.39075 13.178 6.53475 13.034C6.67825 12.8905 6.75 12.7125 6.75 12.5V10.1187L7.425 10.7938C7.5625 10.9313 7.7345 11 7.941 11C8.147 11 8.325 10.925 8.475 10.775C8.6125 10.6375 8.68125 10.4625 8.68125 10.25C8.68125 10.0375 8.6125 9.8625 8.475 9.725L6.525 7.775C6.45 7.7 6.36875 7.64675 6.28125 7.61525C6.19375 7.58425 6.1 7.56875 6 7.56875C5.9 7.56875 5.80625 7.58425 5.71875 7.61525C5.63125 7.64675 5.55 7.7 5.475 7.775L3.525 9.725C3.3875 9.8625 3.31875 10.0345 3.31875 10.241C3.31875 10.447 3.39375 10.625 3.54375 10.775C3.68125 10.9125 3.85625 10.9813 4.06875 10.9813C4.28125 10.9813 4.45625 10.9125 4.59375 10.775L5.25 10.1187V12.5C5.25 12.7125 5.322 12.8905 5.466 13.034C5.6095 13.178 5.7875 13.25 6 13.25ZM1.5 15.5C1.0875 15.5 0.7345 15.3533 0.441 15.0597C0.147 14.7657 0 14.4125 0 14V2C0 1.5875 0.147 1.23425 0.441 0.94025C0.7345 0.64675 1.0875 0.5 1.5 0.5H6.88125C7.08125 0.5 7.272 0.5375 7.4535 0.6125C7.6345 0.6875 7.79375 0.79375 7.93125 0.93125L11.5687 4.56875C11.7062 4.70625 11.8125 4.8655 11.8875 5.0465C11.9625 5.228 12 5.41875 12 5.61875V14C12 14.4125 11.8533 14.7657 11.5597 15.0597C11.2657 15.3533 10.9125 15.5 10.5 15.5H1.5ZM7.5 5.75H10.5L6.75 2V5C6.75 5.2125 6.822 5.3905 6.966 5.534C7.1095 5.678 7.2875 5.75 7.5 5.75Z" fill="#4D4D4D"/>
</svg>
