<svg width="18" height="17" viewBox="0 0 18 17" fill="none" xmlns="http://www.w3.org/2000/svg">
<path d="M15.6917 5.82127L11.7958 1.97127L13.0792 0.687941C13.4306 0.336553 13.8623 0.160858 14.3744 0.160858C14.8859 0.160858 15.3174 0.336553 15.6687 0.687941L16.9521 1.97127C17.3035 2.32266 17.4868 2.74677 17.5021 3.24361C17.5174 3.73983 17.3493 4.16364 16.9979 4.51502L15.6917 5.82127ZM1.66667 16.89C1.40694 16.89 1.18939 16.802 1.014 16.626C0.838 16.4506 0.75 16.2331 0.75 15.9734V13.3838C0.75 13.2616 0.772917 13.1433 0.81875 13.029C0.864583 12.9141 0.933333 12.8109 1.025 12.7192L10.4667 3.27752L14.3625 7.17336L4.92083 16.615C4.82917 16.7067 4.72619 16.7754 4.61192 16.8213C4.49703 16.8671 4.37847 16.89 4.25625 16.89H1.66667Z" fill="#4D4D4D"/>
</svg>
