<svg width="29" height="22" viewBox="0 0 29 22" fill="none" xmlns="http://www.w3.org/2000/svg">
<path d="M3.33317 21.6667C2.59984 21.6667 1.97228 21.4058 1.4505 20.884C0.927837 20.3613 0.666504 19.7333 0.666504 19V3.00001C0.666504 2.26668 0.927837 1.63912 1.4505 1.11734C1.97228 0.594677 2.59984 0.333344 3.33317 0.333344H10.2332C10.5887 0.333344 10.9278 0.40001 11.2505 0.533344C11.5723 0.666677 11.8554 0.855565 12.0998 1.10001L13.9998 3.00001H24.6665C25.3998 3.00001 26.0278 3.26134 26.5505 3.78401C27.0723 4.30579 27.3332 4.93334 27.3332 5.66668H5.99984C5.2665 5.66668 4.63895 5.92757 4.11717 6.44934C3.5945 6.97201 3.33317 7.60001 3.33317 8.33334V19L5.9665 10.2333C6.14428 9.65557 6.47228 9.19423 6.9505 8.84934C7.42784 8.50534 7.95539 8.33334 8.53317 8.33334H25.7332C26.6443 8.33334 27.3612 8.69423 27.8838 9.41601C28.4056 10.1387 28.5443 10.9222 28.2998 11.7667L25.8998 19.7667C25.7221 20.3445 25.3945 20.8058 24.9172 21.1507C24.4389 21.4947 23.9109 21.6667 23.3332 21.6667H3.33317Z" fill="url(#paint0_linear_1262_27310)"/>
<defs>
<linearGradient id="paint0_linear_1262_27310" x1="0.666504" y1="0.333344" x2="21.2828" y2="27.151" gradientUnits="userSpaceOnUse">
<stop stop-color="#FF8345"/>
<stop offset="1" stop-color="#FF5500"/>
</linearGradient>
</defs>
</svg>
