<svg width="16" height="16" viewBox="0 0 16 16" fill="none" xmlns="http://www.w3.org/2000/svg">
<path d="M9.40626 15.5H6.59376C6.40626 15.5 6.24376 15.4375 6.10626 15.3125C5.96876 15.1875 5.88751 15.0312 5.86251 14.8438L5.63751 13.1C5.47501 13.0375 5.32201 12.9625 5.17851 12.875C5.03451 12.7875 4.89376 12.6938 4.75626 12.5938L3.12501 13.2687C2.95001 13.3313 2.77501 13.3375 2.60001 13.2875C2.42501 13.2375 2.28751 13.1313 2.18751 12.9688L0.800009 10.55C0.700009 10.3875 0.668759 10.2125 0.706259 10.025C0.743759 9.8375 0.837509 9.6875 0.987509 9.575L2.39376 8.50625C2.38126 8.41875 2.37501 8.33425 2.37501 8.25275V7.7465C2.37501 7.6655 2.38126 7.58125 2.39376 7.49375L0.987509 6.425C0.837509 6.3125 0.743759 6.1625 0.706259 5.975C0.668759 5.7875 0.700009 5.6125 0.800009 5.45L2.18751 3.03125C2.27501 2.85625 2.40926 2.74675 2.59026 2.70275C2.77176 2.65925 2.95001 2.66875 3.12501 2.73125L4.75626 3.40625C4.89376 3.30625 5.03751 3.2125 5.18751 3.125C5.33751 3.0375 5.48751 2.9625 5.63751 2.9L5.86251 1.15625C5.88751 0.96875 5.96876 0.8125 6.10626 0.6875C6.24376 0.5625 6.40626 0.5 6.59376 0.5H9.40626C9.59376 0.5 9.75626 0.5625 9.89376 0.6875C10.0313 0.8125 10.1125 0.96875 10.1375 1.15625L10.3625 2.9C10.525 2.9625 10.6783 3.0375 10.8223 3.125C10.9658 3.2125 11.1063 3.30625 11.2438 3.40625L12.875 2.73125C13.05 2.66875 13.225 2.6625 13.4 2.7125C13.575 2.7625 13.7125 2.86875 13.8125 3.03125L15.2 5.45C15.3 5.6125 15.3313 5.7875 15.2938 5.975C15.2563 6.1625 15.1625 6.3125 15.0125 6.425L13.6063 7.49375C13.6188 7.58125 13.625 7.6655 13.625 7.7465V8.25275C13.625 8.33425 13.6125 8.41875 13.5875 8.50625L14.9938 9.575C15.1438 9.6875 15.2375 9.8375 15.275 10.025C15.3125 10.2125 15.2813 10.3875 15.1813 10.55L13.7938 12.95C13.6938 13.1125 13.5533 13.222 13.3723 13.2785C13.1908 13.3345 13.0125 13.3313 12.8375 13.2687L11.2438 12.5938C11.1063 12.6938 10.9625 12.7875 10.8125 12.875C10.6625 12.9625 10.5125 13.0375 10.3625 13.1L10.1375 14.8438C10.1125 15.0312 10.0313 15.1875 9.89376 15.3125C9.75626 15.4375 9.59376 15.5 9.40626 15.5ZM8.03751 10.625C8.76251 10.625 9.38126 10.3688 9.89376 9.85625C10.4063 9.34375 10.6625 8.725 10.6625 8C10.6625 7.275 10.4063 6.65625 9.89376 6.14375C9.38126 5.63125 8.76251 5.375 8.03751 5.375C7.30001 5.375 6.67801 5.63125 6.17151 6.14375C5.66551 6.65625 5.41251 7.275 5.41251 8C5.41251 8.725 5.66551 9.34375 6.17151 9.85625C6.67801 10.3688 7.30001 10.625 8.03751 10.625Z" fill="#4D4D4D"/>
</svg>
