<svg width="16" height="14" viewBox="0 0 16 14" fill="none" xmlns="http://www.w3.org/2000/svg">
<path fill-rule="evenodd" clip-rule="evenodd" d="M6.19718 0.321876C7.2907 0.121323 8.41957 0.344072 9.35495 0.944971C10.1153 1.43344 10.7016 2.14209 11.0406 2.96919C11.3994 2.94011 11.7615 2.95901 12.1172 3.02614C12.6783 3.13204 13.2105 3.35557 13.679 3.682C14.1474 4.00844 14.5414 4.43039 14.835 4.92007C15.1287 5.40975 15.3152 5.95607 15.3825 6.52306C15.4498 7.09005 15.3962 7.66486 15.2253 8.20965C15.0544 8.75444 14.7701 9.25686 14.391 9.68384C14.0119 10.1108 13.5468 10.4527 13.0261 10.6869C12.5053 10.9212 11.9409 11.0425 11.37 11.0429C10.9978 11.0431 10.6959 10.7416 10.6956 10.3694C10.6953 9.99723 10.9969 9.6953 11.3691 9.69505C11.7497 9.69479 12.126 9.61392 12.4731 9.45776C12.8202 9.3016 13.1304 9.07369 13.3831 8.78904C13.6358 8.50438 13.8253 8.16943 13.9393 7.80624C14.0532 7.44305 14.0889 7.05984 14.0441 6.68185C13.9992 6.30385 13.8748 5.93964 13.6791 5.61319C13.4833 5.28673 13.2207 5.00543 12.9084 4.78781C12.5961 4.57019 12.2412 4.42117 11.8672 4.35057C11.4963 4.28056 11.1149 4.28923 10.7476 4.37596L9.86173 4.61709C9.5026 4.71483 9.13224 4.50295 9.03449 4.14382C8.93674 3.7847 9.14863 3.41433 9.50776 3.31658L9.69544 3.2655C9.45331 2.78513 9.08577 2.37402 8.62646 2.07895C7.97889 1.66295 7.19737 1.50874 6.44032 1.64758C5.68326 1.78642 5.00733 2.20794 4.54953 2.82667C4.096 3.43963 3.89018 4.20072 3.97256 4.95823C3.97502 4.97109 3.97888 4.99057 3.98412 5.01525C3.99506 5.06671 4.01158 5.13861 4.0335 5.2188C4.08188 5.39574 4.13982 5.54956 4.19079 5.63098C4.38828 5.94645 4.29263 6.36229 3.97716 6.55977C3.66168 6.75726 3.24585 6.66161 3.04836 6.34614C2.97475 6.22856 2.91404 6.09905 2.86449 5.97357C2.64179 6.1177 2.44778 6.30539 2.2953 6.52772C2.01644 6.9343 1.89565 7.42871 1.95562 7.91806C2.01558 8.40742 2.25218 8.85803 2.62096 9.18525C2.98953 9.51228 3.46479 9.69355 3.95752 9.69505H4.63044C5.00263 9.69505 5.30434 9.99677 5.30434 10.369C5.30434 10.7411 5.00263 11.0429 4.63044 11.0429H3.95653L3.95475 11.0429C3.13328 11.0407 2.34087 10.7386 1.72641 10.1934C1.11195 9.6482 0.717727 8.89737 0.61781 8.082C0.517892 7.26663 0.719157 6.44283 1.18379 5.76538C1.54119 5.24429 2.03549 4.83738 2.60718 4.58607C2.61646 3.66789 2.91439 2.77059 3.46605 2.025C4.12731 1.13128 5.10366 0.522429 6.19718 0.321876ZM8.29197 6.39189C8.34133 6.41557 8.38823 6.4455 8.4314 6.48154L10.1057 7.821C10.3964 8.05351 10.4435 8.47759 10.211 8.76822C9.97847 9.05885 9.55439 9.10597 9.26376 8.87347L8.67388 8.40157V13.0646C8.67388 13.4368 8.37216 13.7385 7.99998 13.7385C7.62779 13.7385 7.32607 13.4368 7.32607 13.0646V8.40157L6.73619 8.87347C6.44556 9.10597 6.02148 9.05885 5.78897 8.76822C5.55647 8.47759 5.60359 8.05351 5.89422 7.821L7.56855 6.48154C7.61172 6.4455 7.65861 6.41557 7.70798 6.39189C7.72315 6.38458 7.73863 6.37783 7.7544 6.37166C7.78254 6.36064 7.81121 6.35161 7.84021 6.34456C7.8928 6.33177 7.94645 6.32545 7.99998 6.32549C8.06143 6.32545 8.12306 6.33378 8.18304 6.35067C8.21718 6.36029 8.25079 6.37268 8.28352 6.38789L8.29197 6.39189ZM8.67388 7.00478V6.99942C8.67388 6.95092 8.66877 6.90361 8.65903 6.85802C8.66939 6.90646 8.6743 6.95569 8.67388 7.00478Z" fill="white"/>
</svg>
