<svg width="16" height="12" viewBox="0 0 16 12" fill="none" xmlns="http://www.w3.org/2000/svg">
<path d="M6.5 9C6.7125 9 6.89075 8.928 7.03475 8.784C7.17825 8.6405 7.25 8.4625 7.25 8.25V6.75H8.75C8.9625 6.75 9.14075 6.678 9.28475 6.534C9.42825 6.3905 9.5 6.2125 9.5 6C9.5 5.7875 9.42825 5.60925 9.28475 5.46525C9.14075 5.32175 8.9625 5.25 8.75 5.25H7.25V3.75C7.25 3.5375 7.17825 3.35925 7.03475 3.21525C6.89075 3.07175 6.7125 3 6.5 3C6.2875 3 6.1095 3.07175 5.966 3.21525C5.822 3.35925 5.75 3.5375 5.75 3.75V5.25H4.25C4.0375 5.25 3.85925 5.32175 3.71525 5.46525C3.57175 5.60925 3.5 5.7875 3.5 6C3.5 6.2125 3.57175 6.3905 3.71525 6.534C3.85925 6.678 4.0375 6.75 4.25 6.75H5.75V8.25C5.75 8.4625 5.822 8.6405 5.966 8.784C6.1095 8.928 6.2875 9 6.5 9ZM2 12C1.5875 12 1.2345 11.8533 0.941 11.5597C0.647 11.2657 0.5 10.9125 0.5 10.5V1.5C0.5 1.0875 0.647 0.7345 0.941 0.441C1.2345 0.147 1.5875 0 2 0H11C11.4125 0 11.7657 0.147 12.0597 0.441C12.3533 0.7345 12.5 1.0875 12.5 1.5V4.875L14.8625 2.5125C14.975 2.4 15.1095 2.37175 15.266 2.42775C15.422 2.48425 15.5 2.6 15.5 2.775V9.225C15.5 9.4 15.422 9.5155 15.266 9.5715C15.1095 9.628 14.975 9.6 14.8625 9.4875L12.5 7.125V10.5C12.5 10.9125 12.3533 11.2657 12.0597 11.5597C11.7657 11.8533 11.4125 12 11 12H2Z" fill="white"/>
</svg>
