<svg width="16" height="16" viewBox="0 0 16 16" fill="none" xmlns="http://www.w3.org/2000/svg">
<path d="M8.7875 9.125L11.9 7.1375C12.1375 6.9875 12.2562 6.775 12.2562 6.5C12.2562 6.225 12.1375 6.0125 11.9 5.8625L8.7875 3.875C8.5375 3.7 8.28125 3.6875 8.01875 3.8375C7.75625 3.9875 7.625 4.20625 7.625 4.49375V8.50625C7.625 8.79375 7.75625 9.0125 8.01875 9.1625C8.28125 9.3125 8.5375 9.3 8.7875 9.125ZM5 12.5C4.5875 12.5 4.2345 12.3533 3.941 12.0597C3.647 11.7657 3.5 11.4125 3.5 11V2C3.5 1.5875 3.647 1.23425 3.941 0.94025C4.2345 0.64675 4.5875 0.5 5 0.5H14C14.4125 0.5 14.7657 0.64675 15.0597 0.94025C15.3533 1.23425 15.5 1.5875 15.5 2V11C15.5 11.4125 15.3533 11.7657 15.0597 12.0597C14.7657 12.3533 14.4125 12.5 14 12.5H5ZM2 15.5C1.5875 15.5 1.2345 15.3533 0.941 15.0597C0.647 14.7657 0.5 14.4125 0.5 14V4.25C0.5 4.0375 0.572 3.85925 0.716 3.71525C0.8595 3.57175 1.0375 3.5 1.25 3.5C1.4625 3.5 1.64075 3.57175 1.78475 3.71525C1.92825 3.85925 2 4.0375 2 4.25V14H11.75C11.9625 14 12.1405 14.072 12.284 14.216C12.428 14.3595 12.5 14.5375 12.5 14.75C12.5 14.9625 12.428 15.1405 12.284 15.284C12.1405 15.428 11.9625 15.5 11.75 15.5H2Z" fill="#4D4D4D"/>
</svg>
