<svg width="14" height="16" viewBox="0 0 14 16" fill="none" xmlns="http://www.w3.org/2000/svg">
<path d="M0.25 15.35V0.649994C0.275 0.649994 0.3095 0.652994 0.3535 0.658994C0.397 0.665494 0.45 0.699994 0.5125 0.762494L1.1125 1.36249C1.1875 1.43749 1.275 1.47499 1.375 1.47499C1.475 1.47499 1.5625 1.43749 1.6375 1.36249L2.2375 0.762494C2.3125 0.687494 2.4 0.649994 2.5 0.649994C2.6 0.649994 2.6875 0.687494 2.7625 0.762494L3.3625 1.36249C3.4375 1.43749 3.525 1.47499 3.625 1.47499C3.725 1.47499 3.8125 1.43749 3.8875 1.36249L4.4875 0.762494C4.5625 0.687494 4.65 0.649994 4.75 0.649994C4.85 0.649994 4.9375 0.687494 5.0125 0.762494L5.6125 1.36249C5.6875 1.43749 5.775 1.47499 5.875 1.47499C5.975 1.47499 6.0625 1.43749 6.1375 1.36249L6.7375 0.762494C6.8125 0.687494 6.9 0.649994 7 0.649994C7.1 0.649994 7.1875 0.687494 7.2625 0.762494L7.8625 1.36249C7.9375 1.43749 8.025 1.47499 8.125 1.47499C8.225 1.47499 8.3125 1.43749 8.3875 1.36249L8.9875 0.762494C9.0625 0.687494 9.15 0.649994 9.25 0.649994C9.35 0.649994 9.4375 0.687494 9.5125 0.762494L10.1125 1.36249C10.1875 1.43749 10.275 1.47499 10.375 1.47499C10.475 1.47499 10.5625 1.43749 10.6375 1.36249L11.2375 0.762494C11.3125 0.687494 11.4 0.649994 11.5 0.649994C11.6 0.649994 11.6875 0.687494 11.7625 0.762494L12.3625 1.36249C12.4375 1.43749 12.525 1.47499 12.625 1.47499C12.725 1.47499 12.8125 1.43749 12.8875 1.36249L13.4875 0.762494C13.55 0.699994 13.6033 0.665494 13.6473 0.658994C13.6908 0.652994 13.725 0.649994 13.75 0.649994V15.35C13.725 15.35 13.6908 15.347 13.6473 15.341C13.6033 15.3345 13.55 15.3 13.4875 15.2375L12.8875 14.6375C12.8125 14.5625 12.725 14.525 12.625 14.525C12.525 14.525 12.4375 14.5625 12.3625 14.6375L11.7625 15.2375C11.6875 15.3125 11.6 15.35 11.5 15.35C11.4 15.35 11.3125 15.3125 11.2375 15.2375L10.6375 14.6375C10.5625 14.5625 10.475 14.525 10.375 14.525C10.275 14.525 10.1875 14.5625 10.1125 14.6375L9.5125 15.2375C9.4375 15.3125 9.35 15.35 9.25 15.35C9.15 15.35 9.0625 15.3125 8.9875 15.2375L8.3875 14.6375C8.3125 14.5625 8.225 14.525 8.125 14.525C8.025 14.525 7.9375 14.5625 7.8625 14.6375L7.2625 15.2375C7.1875 15.3125 7.1 15.35 7 15.35C6.9 15.35 6.8125 15.3125 6.7375 15.2375L6.1375 14.6375C6.0625 14.5625 5.975 14.525 5.875 14.525C5.775 14.525 5.6875 14.5625 5.6125 14.6375L5.0125 15.2375C4.9375 15.3125 4.85 15.35 4.75 15.35C4.65 15.35 4.5625 15.3125 4.4875 15.2375L3.8875 14.6375C3.8125 14.5625 3.725 14.525 3.625 14.525C3.525 14.525 3.4375 14.5625 3.3625 14.6375L2.7625 15.2375C2.6875 15.3125 2.6 15.35 2.5 15.35C2.4 15.35 2.3125 15.3125 2.2375 15.2375L1.6375 14.6375C1.5625 14.5625 1.475 14.525 1.375 14.525C1.275 14.525 1.1875 14.5625 1.1125 14.6375L0.5125 15.2375C0.45 15.3 0.397 15.3345 0.3535 15.341C0.3095 15.347 0.275 15.35 0.25 15.35ZM3.25 11.75H10.75C10.9625 11.75 11.1405 11.678 11.284 11.534C11.428 11.3905 11.5 11.2125 11.5 11C11.5 10.7875 11.428 10.6092 11.284 10.4652C11.1405 10.3217 10.9625 10.25 10.75 10.25H3.25C3.0375 10.25 2.85925 10.3217 2.71525 10.4652C2.57175 10.6092 2.5 10.7875 2.5 11C2.5 11.2125 2.57175 11.3905 2.71525 11.534C2.85925 11.678 3.0375 11.75 3.25 11.75ZM3.25 8.74999H10.75C10.9625 8.74999 11.1405 8.67799 11.284 8.53399C11.428 8.39049 11.5 8.21249 11.5 7.99999C11.5 7.78749 11.428 7.60924 11.284 7.46524C11.1405 7.32174 10.9625 7.24999 10.75 7.24999H3.25C3.0375 7.24999 2.85925 7.32174 2.71525 7.46524C2.57175 7.60924 2.5 7.78749 2.5 7.99999C2.5 8.21249 2.57175 8.39049 2.71525 8.53399C2.85925 8.67799 3.0375 8.74999 3.25 8.74999ZM3.25 5.74999H10.75C10.9625 5.74999 11.1405 5.67799 11.284 5.53399C11.428 5.39049 11.5 5.21249 11.5 4.99999C11.5 4.78749 11.428 4.60924 11.284 4.46524C11.1405 4.32174 10.9625 4.24999 10.75 4.24999H3.25C3.0375 4.24999 2.85925 4.32174 2.71525 4.46524C2.57175 4.60924 2.5 4.78749 2.5 4.99999C2.5 5.21249 2.57175 5.39049 2.71525 5.53399C2.85925 5.67799 3.0375 5.74999 3.25 5.74999Z" fill="url(#paint0_linear_1109_39312)"/>
<defs>
<linearGradient id="paint0_linear_1109_39312" x1="0.25" y1="0.649994" x2="14.8969" y2="14.1012" gradientUnits="userSpaceOnUse">
<stop stop-color="#FF8345"/>
<stop offset="1" stop-color="#FF5500"/>
</linearGradient>
</defs>
</svg>
