<svg width="16" height="17" viewBox="0 0 16 17" fill="none" xmlns="http://www.w3.org/2000/svg">
<path d="M3.41602 16.89C2.91185 16.89 2.4804 16.7107 2.12168 16.3519C1.76235 15.9926 1.58268 15.5608 1.58268 15.0567V3.14001C1.32296 3.14001 1.1051 3.05232 0.929099 2.87693C0.75371 2.70093 0.666016 2.48307 0.666016 2.22335C0.666016 1.96363 0.75371 1.74576 0.929099 1.56976C1.1051 1.39438 1.32296 1.30668 1.58268 1.30668H5.24935C5.24935 1.04696 5.33735 0.829098 5.51335 0.653098C5.68874 0.477709 5.90629 0.390015 6.16602 0.390015H9.83268C10.0924 0.390015 10.3103 0.477709 10.4863 0.653098C10.6617 0.829098 10.7493 1.04696 10.7493 1.30668H14.416C14.6757 1.30668 14.8933 1.39438 15.0687 1.56976C15.2447 1.74576 15.3327 1.96363 15.3327 2.22335C15.3327 2.48307 15.2447 2.70093 15.0687 2.87693C14.8933 3.05232 14.6757 3.14001 14.416 3.14001V15.0567C14.416 15.5608 14.2367 15.9926 13.8779 16.3519C13.5186 16.7107 13.0868 16.89 12.5827 16.89H3.41602ZM5.24935 12.3067C5.24935 12.5664 5.33735 12.784 5.51335 12.9593C5.68874 13.1353 5.90629 13.2233 6.16602 13.2233C6.42574 13.2233 6.6436 13.1353 6.8196 12.9593C6.99499 12.784 7.08268 12.5664 7.08268 12.3067V5.89001C7.08268 5.63029 6.99499 5.41243 6.8196 5.23643C6.6436 5.06104 6.42574 4.97335 6.16602 4.97335C5.90629 4.97335 5.68874 5.06104 5.51335 5.23643C5.33735 5.41243 5.24935 5.63029 5.24935 5.89001V12.3067ZM8.91602 12.3067C8.91602 12.5664 9.00402 12.784 9.18002 12.9593C9.3554 13.1353 9.57296 13.2233 9.83268 13.2233C10.0924 13.2233 10.3103 13.1353 10.4863 12.9593C10.6617 12.784 10.7493 12.5664 10.7493 12.3067V5.89001C10.7493 5.63029 10.6617 5.41243 10.4863 5.23643C10.3103 5.06104 10.0924 4.97335 9.83268 4.97335C9.57296 4.97335 9.3554 5.06104 9.18002 5.23643C9.00402 5.41243 8.91602 5.63029 8.91602 5.89001V12.3067Z" fill="#4D4D4D"/>
</svg>
