<svg width="16" height="14" viewBox="0 0 16 14" fill="none" xmlns="http://www.w3.org/2000/svg">
<path d="M1.04385 13.75C0.756348 13.75 0.543848 13.625 0.406348 13.375C0.268848 13.125 0.268848 12.875 0.406348 12.625L7.34385 0.625C7.48135 0.375 7.7001 0.25 8.0001 0.25C8.3001 0.25 8.51885 0.375 8.65635 0.625L15.5938 12.625C15.7313 12.875 15.7313 13.125 15.5938 13.375C15.4563 13.625 15.2438 13.75 14.9563 13.75H1.04385ZM8.0001 5.5C7.7876 5.5 7.6096 5.57175 7.4661 5.71525C7.3221 5.85925 7.2501 6.0375 7.2501 6.25V8.5C7.2501 8.7125 7.3221 8.8905 7.4661 9.034C7.6096 9.178 7.7876 9.25 8.0001 9.25C8.2126 9.25 8.39085 9.178 8.53485 9.034C8.67835 8.8905 8.7501 8.7125 8.7501 8.5V6.25C8.7501 6.0375 8.67835 5.85925 8.53485 5.71525C8.39085 5.57175 8.2126 5.5 8.0001 5.5ZM8.0001 11.5C8.2126 11.5 8.39085 11.428 8.53485 11.284C8.67835 11.1405 8.7501 10.9625 8.7501 10.75C8.7501 10.5375 8.67835 10.3595 8.53485 10.216C8.39085 10.072 8.2126 10 8.0001 10C7.7876 10 7.6096 10.072 7.4661 10.216C7.3221 10.3595 7.2501 10.5375 7.2501 10.75C7.2501 10.9625 7.3221 11.1405 7.4661 11.284C7.6096 11.428 7.7876 11.5 8.0001 11.5Z" fill="#4D4D4D"/>
</svg>
