<svg width="13" height="10" viewBox="0 0 13 10" fill="none" xmlns="http://www.w3.org/2000/svg">
<path d="M11.328 0.466237C11.4048 0.387899 11.4964 0.325665 11.5975 0.28318C11.6986 0.240694 11.8072 0.218811 11.9169 0.218811C12.0266 0.218811 12.1352 0.240694 12.2363 0.28318C12.3374 0.325665 12.4291 0.387899 12.5059 0.466237C12.8276 0.791362 12.8321 1.31674 12.5171 1.64749L5.86498 9.51124C5.78945 9.59417 5.6978 9.66083 5.59563 9.70713C5.49346 9.75342 5.38291 9.77839 5.27076 9.78049C5.15861 9.7826 5.04721 9.7618 4.94337 9.71937C4.83953 9.67695 4.74544 9.61378 4.66685 9.53374L0.619103 5.43199C0.462994 5.27278 0.375549 5.05871 0.375549 4.83574C0.375549 4.61277 0.462994 4.39869 0.619103 4.23949C0.695879 4.16115 0.787514 4.09891 0.88864 4.05643C0.989766 4.01394 1.09835 3.99206 1.20804 3.99206C1.31773 3.99206 1.42631 4.01394 1.52744 4.05643C1.62857 4.09891 1.7202 4.16115 1.79698 4.23949L5.23048 7.71911L11.3055 0.490987C11.3125 0.482293 11.32 0.474027 11.328 0.466237Z" fill="#198754"/>
</svg>
