<svg width="22" height="22" viewBox="0 0 22 22" fill="none" xmlns="http://www.w3.org/2000/svg">
<path d="M16.5 6.41667H5.49998V3.66667C5.49998 3.40694 5.58767 3.18908 5.76306 3.01308C5.93906 2.83769 6.15692 2.75 6.41665 2.75H15.5833C15.843 2.75 16.0606 2.83769 16.236 3.01308C16.412 3.18908 16.5 3.40694 16.5 3.66667V6.41667ZM16.5 11.4583C16.7597 11.4583 16.9773 11.3703 17.1526 11.1943C17.3286 11.0189 17.4166 10.8014 17.4166 10.5417C17.4166 10.2819 17.3286 10.0641 17.1526 9.88808C16.9773 9.71269 16.7597 9.625 16.5 9.625C16.2403 9.625 16.0227 9.71269 15.8473 9.88808C15.6713 10.0641 15.5833 10.2819 15.5833 10.5417C15.5833 10.8014 15.6713 11.0189 15.8473 11.1943C16.0227 11.3703 16.2403 11.4583 16.5 11.4583ZM7.33331 17.4167H14.6666V13.75H7.33331V17.4167ZM7.33331 19.25C6.82915 19.25 6.3977 19.0706 6.03898 18.7119C5.67965 18.3526 5.49998 17.9208 5.49998 17.4167V15.5833H2.74998C2.49026 15.5833 2.2727 15.4953 2.09731 15.3193C1.92131 15.1439 1.83331 14.9264 1.83331 14.6667V10.0833C1.83331 9.30417 2.10067 8.65119 2.6354 8.12442C3.17012 7.59703 3.81942 7.33333 4.58331 7.33333H17.4166C18.1958 7.33333 18.8491 7.59703 19.3765 8.12442C19.9033 8.65119 20.1666 9.30417 20.1666 10.0833V14.6667C20.1666 14.9264 20.0786 15.1439 19.9026 15.3193C19.7273 15.4953 19.5097 15.5833 19.25 15.5833H16.5V17.4167C16.5 17.9208 16.3206 18.3526 15.9619 18.7119C15.6026 19.0706 15.1708 19.25 14.6666 19.25H7.33331Z" fill="#4D4D4D"/>
</svg>
