<svg width="16" height="16" viewBox="0 0 16 16" fill="none" xmlns="http://www.w3.org/2000/svg">
<path d="M6.875 9.5H12.5V8H8.375L6.875 9.5ZM3.5 9.5H5.3375L9.7625 5.1125C9.8375 5.0375 9.875 4.94375 9.875 4.83125C9.875 4.71875 9.8375 4.625 9.7625 4.55L8.45 3.2375C8.375 3.1625 8.28125 3.125 8.16875 3.125C8.05625 3.125 7.9625 3.1625 7.8875 3.2375L3.5 7.6625V9.5ZM0.5 15.5V2C0.5 1.5875 0.647 1.23425 0.941 0.94025C1.2345 0.64675 1.5875 0.5 2 0.5H14C14.4125 0.5 14.7657 0.64675 15.0597 0.94025C15.3533 1.23425 15.5 1.5875 15.5 2V11C15.5 11.4125 15.3533 11.7657 15.0597 12.0597C14.7657 12.3533 14.4125 12.5 14 12.5H3.5L0.5 15.5Z" fill="#4D4D4D"/>
</svg>
