<svg width="18" height="12" viewBox="0 0 18 12" fill="none" xmlns="http://www.w3.org/2000/svg">
<path d="M14.25 7.5C14.0375 7.5 13.8595 7.428 13.716 7.284C13.572 7.1405 13.5 6.9625 13.5 6.75V5.25H12C11.7875 5.25 11.6095 5.178 11.466 5.034C11.322 4.8905 11.25 4.7125 11.25 4.5C11.25 4.2875 11.322 4.10925 11.466 3.96525C11.6095 3.82175 11.7875 3.75 12 3.75H13.5V2.25C13.5 2.0375 13.572 1.85925 13.716 1.71525C13.8595 1.57175 14.0375 1.5 14.25 1.5C14.4625 1.5 14.6405 1.57175 14.784 1.71525C14.928 1.85925 15 2.0375 15 2.25V3.75H16.5C16.7125 3.75 16.8905 3.82175 17.034 3.96525C17.178 4.10925 17.25 4.2875 17.25 4.5C17.25 4.7125 17.178 4.8905 17.034 5.034C16.8905 5.178 16.7125 5.25 16.5 5.25H15V6.75C15 6.9625 14.928 7.1405 14.784 7.284C14.6405 7.428 14.4625 7.5 14.25 7.5ZM6.75 6C5.925 6 5.21875 5.70625 4.63125 5.11875C4.04375 4.53125 3.75 3.825 3.75 3C3.75 2.175 4.04375 1.46875 4.63125 0.88125C5.21875 0.29375 5.925 0 6.75 0C7.575 0 8.28125 0.29375 8.86875 0.88125C9.45625 1.46875 9.75 2.175 9.75 3C9.75 3.825 9.45625 4.53125 8.86875 5.11875C8.28125 5.70625 7.575 6 6.75 6ZM1.5 12C1.2875 12 1.1095 11.928 0.966 11.784C0.822 11.6405 0.75 11.4625 0.75 11.25V9.9C0.75 9.475 0.8595 9.08425 1.0785 8.72775C1.297 8.37175 1.5875 8.1 1.95 7.9125C2.725 7.525 3.5125 7.23425 4.3125 7.04025C5.1125 6.84675 5.925 6.75 6.75 6.75C7.575 6.75 8.3875 6.84675 9.1875 7.04025C9.9875 7.23425 10.775 7.525 11.55 7.9125C11.9125 8.1 12.203 8.37175 12.4215 8.72775C12.6405 9.08425 12.75 9.475 12.75 9.9V11.25C12.75 11.4625 12.678 11.6405 12.534 11.784C12.3905 11.928 12.2125 12 12 12H1.5Z" fill="#4D4D4D"/>
</svg>
