<?xml version="1.0" encoding="UTF-8"?>
<svg xmlns="http://www.w3.org/2000/svg" xmlns:xlink="http://www.w3.org/1999/xlink" width="2251"
    height="2251" viewBox="0 0 2251 2251">
    <path fill-rule="nonzero" fill="rgb(0%, 0%, 0%)" fill-opacity="1"
        d="M 341.257812 1.710938 C 299.660156 4.699219 250.851562 13.488281 224.597656 22.460938 C 179.671875 38.101562 145.839844 72.03125 132.34375 115.109375 C 113.667969 174.871094 134.929688 246.609375 190.949219 313.589844 C 206.292969 331.871094 243.269531 366.5 264.347656 382.320312 C 366.769531 459.320312 499.699219 511.539062 670.160156 541.949219 C 763.15625 558.648438 899.597656 569.199219 936.019531 562.519531 C 952.84375 559.53125 972.070312 553.03125 984.089844 546.171875 C 1001.101562 536.679688 1021.429688 516.109375 1030.128906 499.578125 L 1037.519531 485.519531 L 1045.46875 494.308594 C 1067.101562 518.039062 1107.039062 531.929688 1139.941406 527.011719 C 1166.191406 523.140625 1191.160156 510.839844 1206.320312 494.308594 L 1214.269531 485.519531 L 1221.660156 499.578125 C 1227.210938 510.128906 1232.75 517.160156 1243.109375 527.011719 C 1272.320312 554.609375 1302.269531 564.808594 1354.21875 564.449219 C 1454.980469 563.929688 1596.789062 543.890625 1699.941406 515.761719 C 1839.71875 477.609375 1951.570312 420.121094 2028.300781 347.160156 C 2068.039062 309.191406 2093 275.261719 2109.089844 237.109375 C 2142.921875 156.589844 2124.621094 81 2061.199219 38.980469 C 2043.269531 27.03125 2017.570312 17.890625 1982.820312 11.378906 C 1812.171875 -21.140625 1628.03125 18.238281 1463.300781 121.960938 C 1358.46875 188.058594 1273.980469 272.269531 1233.121094 351.558594 L 1221.660156 373.878906 L 1212.96875 362.628906 C 1183.019531 324.128906 1127.371094 310.601562 1081.148438 330.460938 C 1065.070312 337.320312 1048.980469 349.449219 1038.808594 362.628906 L 1030.128906 373.878906 L 1018.660156 351.558594 C 977.800781 272.269531 893.496094 188.058594 788.484375 121.960938 C 648.34375 33.53125 489.53125 -9.191406 341.257812 1.710938 Z M 464.574219 145.519531 C 528.542969 156.070312 586.039062 174.351562 643.539062 202.828125 C 730.0625 245.550781 808.082031 306.019531 858.183594 369.308594 C 873.898438 389.179688 893.679688 422.410156 891.277344 424.691406 C 890.355469 425.570312 841.359375 422.410156 805.125 419.070312 C 598.425781 399.898438 422.050781 337.320312 328.871094 249.941406 C 294.667969 218.121094 271.1875 180.328125 273.035156 160.28125 C 273.589844 154.308594 274.144531 153.609375 281.539062 151.5 C 290.230469 149.210938 318.332031 144.460938 338.300781 142.179688 C 345.507812 141.300781 371.578125 140.941406 396.535156 141.300781 C 432.21875 141.648438 446.640625 142.53125 464.574219 145.519531 Z M 1933.449219 144.640625 C 1944.359375 146.398438 1958.78125 149.03125 1965.808594 150.621094 C 1977.640625 153.429688 1978.191406 153.78125 1978.75 159.410156 C 1980.78125 179.621094 1957.480469 217.769531 1922.910156 249.941406 C 1829.730469 337.320312 1653.359375 399.898438 1446.660156 419.070312 C 1410.421875 422.410156 1361.429688 425.570312 1360.5 424.691406 C 1359.210938 423.460938 1364.941406 411.859375 1373.820312 397.621094 C 1408.941406 340.828125 1480.488281 275.609375 1558.328125 229.730469 C 1641.160156 180.679688 1730.269531 150.441406 1817.351562 141.648438 C 1835.839844 139.710938 1914.21875 141.820312 1933.449219 144.640625 Z M 1933.449219 144.640625 " />
    <path fill-rule="nonzero" fill="rgb(0%, 0%, 0%)" fill-opacity="1"
        d="M 0.890625 788.25 L 0.890625 991.300781 L 1039.921875 991.300781 L 1039.921875 585.199219 L 0.890625 585.199219 Z M 0.890625 788.25 " />
    <path fill-rule="nonzero" fill="rgb(0%, 0%, 0%)" fill-opacity="1"
        d="M 1211.859375 788.25 L 1211.859375 991.300781 L 2250.890625 991.300781 L 2250.890625 585.199219 L 1211.859375 585.199219 Z M 1211.859375 788.25 " />
    <path fill-rule="nonzero" fill="rgb(0%, 0%, 0%)" fill-opacity="1"
        d="M 106.273438 1637.371094 L 106.273438 2250.042969 L 1039.921875 2250.042969 L 1039.921875 1024.699219 L 106.273438 1024.699219 Z M 106.273438 1637.371094 " />
    <path fill-rule="nonzero" fill="rgb(0%, 0%, 0%)" fill-opacity="1"
        d="M 1211.859375 1637.371094 L 1211.859375 2250.042969 L 2145.511719 2250.042969 L 2145.511719 1024.699219 L 1211.859375 1024.699219 Z M 1211.859375 1637.371094 " />
</svg>