<svg width="13" height="14" viewBox="0 0 13 14" fill="none" xmlns="http://www.w3.org/2000/svg">
<path d="M10.5 4.75C10.2875 4.75 10.1095 4.678 9.966 4.534C9.822 4.3905 9.75 4.2125 9.75 4V3.25H9C8.7875 3.25 8.6095 3.17825 8.466 3.03475C8.322 2.89075 8.25 2.7125 8.25 2.5C8.25 2.2875 8.322 2.10925 8.466 1.96525C8.6095 1.82175 8.7875 1.75 9 1.75H9.75V1C9.75 0.7875 9.822 0.60925 9.966 0.46525C10.1095 0.32175 10.2875 0.25 10.5 0.25C10.7125 0.25 10.8905 0.32175 11.034 0.46525C11.178 0.60925 11.25 0.7875 11.25 1V1.75H12C12.2125 1.75 12.3905 1.82175 12.534 1.96525C12.678 2.10925 12.75 2.2875 12.75 2.5C12.75 2.7125 12.678 2.89075 12.534 3.03475C12.3905 3.17825 12.2125 3.25 12 3.25H11.25V4C11.25 4.2125 11.178 4.3905 11.034 4.534C10.8905 4.678 10.7125 4.75 10.5 4.75ZM1.8 13.3C1.55 13.4 1.3125 13.378 1.0875 13.234C0.8625 13.0905 0.75 12.8813 0.75 12.6063V1.75C0.75 1.3375 0.897 0.98425 1.191 0.69025C1.4845 0.39675 1.8375 0.25 2.25 0.25H7.5C7.25 0.625 7.0625 0.9845 6.9375 1.3285C6.8125 1.672 6.75 2.0625 6.75 2.5C6.75 3.4 7.03425 4.19375 7.60275 4.88125C8.17175 5.56875 8.8875 6 9.75 6.175C10.0375 6.2125 10.2875 6.23125 10.5 6.23125C10.7125 6.23125 10.9625 6.2125 11.25 6.175V12.6063C11.25 12.8813 11.1375 13.0905 10.9125 13.234C10.6875 13.378 10.45 13.4 10.2 13.3L6 11.5L1.8 13.3Z" fill="#4D4D4D"/>
</svg>
