<svg width="16" height="16" viewBox="0 0 16 16" fill="none" xmlns="http://www.w3.org/2000/svg">
<path d="M7.06475 15.5C6.7998 15.5 6.57787 15.41 6.39896 15.23C6.21942 15.0506 6.12965 14.8281 6.12965 14.5625V8.9375L0.706109 2C0.472336 1.6875 0.437425 1.35938 0.601379 1.01563C0.764708 0.671875 1.04898 0.5 1.45418 0.5H14.5455C14.9507 0.5 15.2353 0.671875 15.3992 1.01563C15.5626 1.35938 15.5273 1.6875 15.2936 2L9.87003 8.9375V14.5625C9.87003 14.8281 9.78057 15.0506 9.60165 15.23C9.42212 15.41 9.19987 15.5 8.93493 15.5H7.06475Z" fill="white"/>
</svg>
