<svg width="12" height="16" viewBox="0 0 12 16" fill="none" xmlns="http://www.w3.org/2000/svg">
<path d="M1.5 15.5C1.0875 15.5 0.7345 15.3533 0.441 15.0597C0.147 14.7657 0 14.4125 0 14V2C0 1.5875 0.147 1.23425 0.441 0.94025C0.7345 0.64675 1.0875 0.5 1.5 0.5H10.5C10.9125 0.5 11.2657 0.64675 11.5597 0.94025C11.8533 1.23425 12 1.5875 12 2V14C12 14.4125 11.8533 14.7657 11.5597 15.0597C11.2657 15.3533 10.9125 15.5 10.5 15.5H1.5ZM5.8125 6.9125L7.125 6.125L8.4375 6.9125C8.5625 6.9875 8.6875 6.9875 8.8125 6.9125C8.9375 6.8375 9 6.73125 9 6.59375V2H5.25V6.59375C5.25 6.73125 5.3125 6.8375 5.4375 6.9125C5.5625 6.9875 5.6875 6.9875 5.8125 6.9125Z" fill="url(#paint0_linear_1109_36098)"/>
<defs>
<linearGradient id="paint0_linear_1109_36098" x1="0" y1="0.5" x2="14.6341" y2="12.2073" gradientUnits="userSpaceOnUse">
<stop stop-color="#FF8345"/>
<stop offset="1" stop-color="#FF5500"/>
</linearGradient>
</defs>
</svg>
