<svg width="22" height="15" viewBox="0 0 22 15" fill="none" xmlns="http://www.w3.org/2000/svg">
<path d="M11 12C12.25 12 13.3127 11.5627 14.188 10.688C15.0627 9.81267 15.5 8.75 15.5 7.5C15.5 6.25 15.0627 5.18733 14.188 4.312C13.3127 3.43733 12.25 3 11 3C9.75005 3 8.68738 3.43733 7.81205 4.312C6.93738 5.18733 6.50005 6.25 6.50005 7.5C6.50005 8.75 6.93738 9.81267 7.81205 10.688C8.68738 11.5627 9.75005 12 11 12ZM11 10.2C10.25 10.2 9.61272 9.93733 9.08805 9.412C8.56272 8.88733 8.30005 8.25 8.30005 7.5C8.30005 6.75 8.56272 6.11233 9.08805 5.587C9.61272 5.06233 10.25 4.8 11 4.8C11.75 4.8 12.3877 5.06233 12.913 5.587C13.4377 6.11233 13.7 6.75 13.7 7.5C13.7 8.25 13.4377 8.88733 12.913 9.412C12.3877 9.93733 11.75 10.2 11 10.2ZM11 15C8.68338 15 6.56672 14.3877 4.65005 13.163C2.73338 11.9377 1.28338 10.2833 0.300049 8.2C0.250049 8.11667 0.216716 8.01233 0.200049 7.887C0.183382 7.76233 0.175049 7.63333 0.175049 7.5C0.175049 7.36667 0.183382 7.23733 0.200049 7.112C0.216716 6.98733 0.250049 6.88333 0.300049 6.8C1.28338 4.71667 2.73338 3.06267 4.65005 1.838C6.56672 0.612666 8.68338 0 11 0C13.3167 0 15.4334 0.612666 17.35 1.838C19.2667 3.06267 20.7167 4.71667 21.7001 6.8C21.75 6.88333 21.7834 6.98733 21.8 7.112C21.8167 7.23733 21.8251 7.36667 21.8251 7.5C21.8251 7.63333 21.8167 7.76233 21.8 7.887C21.7834 8.01233 21.75 8.11667 21.7001 8.2C20.7167 10.2833 19.2667 11.9377 17.35 13.163C15.4334 14.3877 13.3167 15 11 15Z" fill="#4D4D4D"/>
</svg>
