<svg width="19" height="19" viewBox="0 0 19 19" fill="none" xmlns="http://www.w3.org/2000/svg">
<path d="M15.0408 10.6875C15.0408 10.1492 15.257 9.6599 15.6069 9.30207H10.2908C9.9234 9.30207 9.57101 9.15611 9.3112 8.89629C9.05138 8.63648 8.90542 8.28409 8.90542 7.91665V1.58728C6.96382 1.63979 5.11781 2.44142 3.75395 3.82433C2.39008 5.20724 1.61412 7.06418 1.58854 9.00633C1.56297 10.9485 2.28976 12.8252 3.61673 14.2435C4.94371 15.6619 6.76796 16.5119 8.7075 16.6155V15.4375C8.7075 15.0699 8.80985 14.7096 9.00309 14.397C9.19632 14.0843 9.47281 13.8316 9.80156 13.6673C10.1303 13.5029 10.4983 13.4333 10.8644 13.4663C11.2305 13.4993 11.5801 13.6336 11.8742 13.8542V13.0625C11.8742 12.6949 11.9765 12.3346 12.1698 12.022C12.363 11.7093 12.6395 11.4566 12.9682 11.2923C13.297 11.1279 13.665 11.0583 14.0311 11.0913C14.3971 11.1243 14.7468 11.2586 15.0408 11.4792V10.6875ZM10.0929 1.64903V7.91824C10.0929 8.02749 10.1816 8.11615 10.2908 8.11615H16.56C16.3421 6.47751 15.5907 4.95622 14.4218 3.78732C13.2529 2.61842 11.7316 1.86696 10.0929 1.64903V1.64903ZM17.02 9.50157C16.7051 9.50157 16.403 9.62668 16.1803 9.84938C15.9576 10.0721 15.8325 10.3741 15.8325 10.6891V17.0224C15.8325 17.3374 15.9576 17.6394 16.1803 17.8621C16.403 18.0848 16.7051 18.2099 17.02 18.2099C17.3349 18.2099 17.637 18.0848 17.8597 17.8621C18.0824 17.6394 18.2075 17.3374 18.2075 17.0224V10.6891C18.2075 10.3741 18.0824 10.0721 17.8597 9.84938C17.637 9.62668 17.3349 9.50157 17.02 9.50157V9.50157ZM10.6867 14.2516C10.3717 14.2516 10.0697 14.3767 9.84698 14.5994C9.62428 14.8221 9.49917 15.1241 9.49917 15.4391V17.0224C9.49917 17.3374 9.62428 17.6394 9.84698 17.8621C10.0697 18.0848 10.3717 18.2099 10.6867 18.2099C11.0016 18.2099 11.3037 18.0848 11.5264 17.8621C11.7491 17.6394 11.8742 17.3374 11.8742 17.0224V15.4391C11.8742 15.1241 11.7491 14.8221 11.5264 14.5994C11.3037 14.3767 11.0016 14.2516 10.6867 14.2516ZM12.6658 13.0641C12.6658 12.7491 12.7909 12.4471 13.0136 12.2244C13.2363 12.0017 13.5384 11.8766 13.8533 11.8766C14.1683 11.8766 14.4703 12.0017 14.693 12.2244C14.9157 12.4471 15.0408 12.7491 15.0408 13.0641V17.0224C15.0408 17.3374 14.9157 17.6394 14.693 17.8621C14.4703 18.0848 14.1683 18.2099 13.8533 18.2099C13.5384 18.2099 13.2363 18.0848 13.0136 17.8621C12.7909 17.6394 12.6658 17.3374 12.6658 17.0224V13.0641Z" fill="#4D4D4D"/>
</svg>
