<svg width="16" height="15" viewBox="0 0 16 15" fill="none" xmlns="http://www.w3.org/2000/svg">
<path d="M2 11.75V13.25H14V11.75H2ZM2 14.75C1.5875 14.75 1.2345 14.6033 0.941 14.3097C0.647 14.0157 0.5 13.6625 0.5 13.25V5C0.5 4.5875 0.647 4.2345 0.941 3.941C1.2345 3.647 1.5875 3.5 2 3.5H3.65C3.5875 3.3875 3.54675 3.26875 3.52775 3.14375C3.50925 3.01875 3.5 2.8875 3.5 2.75C3.5 2.125 3.71875 1.59375 4.15625 1.15625C4.59375 0.71875 5.125 0.5 5.75 0.5C6.125 0.5 6.47175 0.59675 6.79025 0.79025C7.10925 0.98425 7.3875 1.225 7.625 1.5125L8 2L8.375 1.5125C8.6 1.2125 8.875 0.96875 9.2 0.78125C9.525 0.59375 9.875 0.5 10.25 0.5C10.875 0.5 11.4062 0.71875 11.8438 1.15625C12.2812 1.59375 12.5 2.125 12.5 2.75C12.5 2.8875 12.4905 3.01875 12.4715 3.14375C12.453 3.26875 12.4125 3.3875 12.35 3.5H14C14.4125 3.5 14.7657 3.647 15.0597 3.941C15.3533 4.2345 15.5 4.5875 15.5 5V13.25C15.5 13.6625 15.3533 14.0157 15.0597 14.3097C14.7657 14.6033 14.4125 14.75 14 14.75H2ZM2 9.5H14V5H10.175L11.3187 6.55625C11.4312 6.70625 11.4655 6.878 11.4215 7.0715C11.378 7.2655 11.2875 7.43125 11.15 7.56875C10.9875 7.69375 10.8063 7.7375 10.6063 7.7C10.4062 7.6625 10.2437 7.5625 10.1187 7.4L8 4.55L5.88125 7.41875C5.74375 7.59375 5.572 7.69675 5.366 7.72775C5.1595 7.75925 4.9875 7.70625 4.85 7.56875C4.675 7.44375 4.572 7.28125 4.541 7.08125C4.5095 6.88125 4.55625 6.7 4.68125 6.5375L5.7875 5H2V9.5ZM5.75 3.5C5.9625 3.5 6.14075 3.42825 6.28475 3.28475C6.42825 3.14075 6.5 2.9625 6.5 2.75C6.5 2.5375 6.42825 2.35925 6.28475 2.21525C6.14075 2.07175 5.9625 2 5.75 2C5.5375 2 5.3595 2.07175 5.216 2.21525C5.072 2.35925 5 2.5375 5 2.75C5 2.9625 5.072 3.14075 5.216 3.28475C5.3595 3.42825 5.5375 3.5 5.75 3.5ZM10.25 3.5C10.4625 3.5 10.6407 3.42825 10.7847 3.28475C10.9283 3.14075 11 2.9625 11 2.75C11 2.5375 10.9283 2.35925 10.7847 2.21525C10.6407 2.07175 10.4625 2 10.25 2C10.0375 2 9.8595 2.07175 9.716 2.21525C9.572 2.35925 9.5 2.5375 9.5 2.75C9.5 2.9625 9.572 3.14075 9.716 3.28475C9.8595 3.42825 10.0375 3.5 10.25 3.5Z" fill="#4D4D4D"/>
</svg>
