<svg width="16" height="16" viewBox="0 0 16 16" fill="none" xmlns="http://www.w3.org/2000/svg">
<path d="M7.98125 13.25C8.15625 13.25 8.3095 13.1845 8.441 13.0535C8.572 12.922 8.6375 12.7688 8.6375 12.5938V12.3125C9.2625 12.2 9.8 11.9562 10.25 11.5812C10.7 11.2062 10.925 10.65 10.925 9.9125C10.925 9.3875 10.775 8.90625 10.475 8.46875C10.175 8.03125 9.575 7.65 8.675 7.325C7.925 7.075 7.40625 6.85625 7.11875 6.66875C6.83125 6.48125 6.6875 6.225 6.6875 5.9C6.6875 5.575 6.80325 5.31875 7.03475 5.13125C7.26575 4.94375 7.6 4.85 8.0375 4.85C8.2875 4.85 8.50625 4.89375 8.69375 4.98125C8.88125 5.06875 9.0375 5.1875 9.1625 5.3375C9.2875 5.4875 9.42825 5.59075 9.58475 5.64725C9.74075 5.70325 9.8875 5.7 10.025 5.6375C10.2125 5.5625 10.3408 5.43425 10.4097 5.25275C10.4783 5.07175 10.4625 4.90625 10.3625 4.75625C10.1625 4.46875 9.91575 4.225 9.62225 4.025C9.32825 3.825 9.0125 3.7125 8.675 3.6875V3.40625C8.675 3.23125 8.60925 3.078 8.47775 2.9465C8.34675 2.8155 8.19375 2.75 8.01875 2.75C7.84375 2.75 7.69075 2.8155 7.55975 2.9465C7.42825 3.078 7.3625 3.23125 7.3625 3.40625V3.6875C6.7375 3.825 6.25 4.1 5.9 4.5125C5.55 4.925 5.375 5.3875 5.375 5.9C5.375 6.4875 5.547 6.9625 5.891 7.325C6.2345 7.6875 6.775 8 7.5125 8.2625C8.3 8.55 8.847 8.80625 9.1535 9.03125C9.4595 9.25625 9.6125 9.55 9.6125 9.9125C9.6125 10.325 9.4655 10.628 9.1715 10.8215C8.878 11.0155 8.525 11.1125 8.1125 11.1125C7.7875 11.1125 7.49375 11.0343 7.23125 10.8778C6.96875 10.7218 6.75 10.4875 6.575 10.175C6.475 10 6.34375 9.88125 6.18125 9.81875C6.01875 9.75625 5.85625 9.75625 5.69375 9.81875C5.51875 9.88125 5.39075 10 5.30975 10.175C5.22825 10.35 5.225 10.5188 5.3 10.6812C5.5 11.1062 5.76875 11.453 6.10625 11.7215C6.44375 11.9905 6.85 12.175 7.325 12.275V12.5938C7.325 12.7688 7.39075 12.922 7.52225 13.0535C7.65325 13.1845 7.80625 13.25 7.98125 13.25ZM8 15.5C6.9625 15.5 5.9875 15.303 5.075 14.909C4.1625 14.5155 3.36875 13.9813 2.69375 13.3063C2.01875 12.6313 1.4845 11.8375 1.091 10.925C0.697 10.0125 0.5 9.0375 0.5 8C0.5 6.9625 0.697 5.9875 1.091 5.075C1.4845 4.1625 2.01875 3.36875 2.69375 2.69375C3.36875 2.01875 4.1625 1.48425 5.075 1.09025C5.9875 0.69675 6.9625 0.5 8 0.5C9.0375 0.5 10.0125 0.69675 10.925 1.09025C11.8375 1.48425 12.6313 2.01875 13.3063 2.69375C13.9813 3.36875 14.5155 4.1625 14.909 5.075C15.303 5.9875 15.5 6.9625 15.5 8C15.5 9.0375 15.303 10.0125 14.909 10.925C14.5155 11.8375 13.9813 12.6313 13.3063 13.3063C12.6313 13.9813 11.8375 14.5155 10.925 14.909C10.0125 15.303 9.0375 15.5 8 15.5Z" fill="#4D4D4D"/>
</svg>
