<svg width="18" height="18" viewBox="0 0 18 18" fill="none" xmlns="http://www.w3.org/2000/svg">
<path d="M5.99998 15C5.58748 15 5.23448 14.8533 4.94098 14.5597C4.64698 14.2657 4.49998 13.9125 4.49998 13.5V12C4.49998 11.7875 4.57173 11.6093 4.71523 11.4653C4.85923 11.3217 5.03748 11.25 5.24998 11.25H6.74998V9.5625C6.31248 9.5375 5.89698 9.4405 5.50348 9.2715C5.10948 9.103 4.74998 8.85 4.42498 8.5125V7.6875H3.56248L1.76248 5.8875C1.54998 5.675 1.44373 5.45625 1.44373 5.23125C1.44373 5.00625 1.54998 4.80625 1.76248 4.63125C2.12498 4.31875 2.57198 4.08125 3.10348 3.91875C3.63448 3.75625 4.19998 3.675 4.79998 3.675C5.13748 3.675 5.46573 3.7 5.78473 3.75C6.10323 3.8 6.42498 3.89375 6.74998 4.03125V3.75C6.74998 3.5375 6.82198 3.35925 6.96598 3.21525C7.10948 3.07175 7.28748 3 7.49998 3H15C15.2125 3 15.3905 3.07175 15.534 3.21525C15.678 3.35925 15.75 3.5375 15.75 3.75V12.75C15.75 13.375 15.5312 13.9062 15.0937 14.3438C14.6562 14.7812 14.125 15 13.5 15H5.99998ZM8.24998 11.25H12C12.2125 11.25 12.3905 11.3217 12.534 11.4653C12.678 11.6093 12.75 11.7875 12.75 12V12.75C12.75 12.9625 12.822 13.1405 12.966 13.284C13.1095 13.428 13.2875 13.5 13.5 13.5C13.7125 13.5 13.8905 13.428 14.034 13.284C14.178 13.1405 14.25 12.9625 14.25 12.75V4.5H8.24998V4.95L12.525 9.225C12.6125 9.3125 12.672 9.39375 12.7035 9.46875C12.7345 9.54375 12.75 9.6375 12.75 9.75C12.75 9.9625 12.678 10.1405 12.534 10.284C12.3905 10.428 12.2125 10.5 12 10.5C11.8875 10.5 11.7937 10.4845 11.7187 10.4535C11.6437 10.422 11.5625 10.3625 11.475 10.275L9.56248 8.3625L9.41248 8.5125C9.23748 8.6875 9.05298 8.84375 8.85898 8.98125C8.66548 9.11875 8.46248 9.225 8.24998 9.3V11.25ZM4.19998 6.1875H5.92498V7.8C6.07498 7.9 6.23123 7.96875 6.39373 8.00625C6.55623 8.04375 6.72498 8.0625 6.89998 8.0625C7.18748 8.0625 7.44698 8.01875 7.67848 7.93125C7.90948 7.84375 8.13748 7.6875 8.36248 7.4625L8.51248 7.3125L7.46248 6.2625C7.09998 5.9 6.69373 5.628 6.24373 5.4465C5.79373 5.2655 5.31248 5.175 4.79998 5.175C4.54998 5.175 4.31248 5.19375 4.08748 5.23125C3.86248 5.26875 3.63748 5.325 3.41248 5.4L4.19998 6.1875Z" fill="#4D4D4D"/>
</svg>
