<svg width="18" height="18" viewBox="0 0 18 18" fill="none" xmlns="http://www.w3.org/2000/svg">
<path d="M2.81252 14.8129C2.65002 14.6504 2.56877 14.4629 2.56877 14.2504C2.56877 14.0379 2.65002 13.8504 2.81252 13.6879L7.35002 9.15039C7.42502 9.07539 7.50627 9.02214 7.59377 8.99064C7.68127 8.95964 7.77502 8.94414 7.87502 8.94414C7.97502 8.94414 8.06877 8.95964 8.15627 8.99064C8.24377 9.02214 8.32502 9.07539 8.40002 9.15039L10.875 11.6254L15.675 6.22539C15.8125 6.06289 15.9908 5.98164 16.2098 5.98164C16.4283 5.98164 16.6125 6.05664 16.7625 6.20664C16.9 6.34414 16.972 6.50989 16.9785 6.70389C16.9845 6.89739 16.9188 7.06914 16.7813 7.21914L11.4 13.2754C11.325 13.3629 11.2408 13.4284 11.1473 13.4719C11.0533 13.5159 10.9563 13.5379 10.8563 13.5379C10.7563 13.5379 10.6595 13.5191 10.566 13.4816C10.472 13.4441 10.3875 13.3879 10.3125 13.3129L7.87502 10.8754L3.93752 14.8129C3.77502 14.9754 3.58752 15.0566 3.37502 15.0566C3.16252 15.0566 2.97502 14.9754 2.81252 14.8129ZM3.00002 9.97539C2.93752 9.97539 2.87502 9.95964 2.81252 9.92814C2.75002 9.89714 2.70002 9.84414 2.66252 9.76914L2.28752 8.96289L1.48127 8.58789C1.40627 8.55039 1.35327 8.50039 1.32227 8.43789C1.29077 8.37539 1.27502 8.31289 1.27502 8.25039C1.27502 8.18789 1.29077 8.12539 1.32227 8.06289C1.35327 8.00039 1.40627 7.95039 1.48127 7.91289L2.28752 7.53789L2.66252 6.73164C2.70002 6.65664 2.75002 6.60339 2.81252 6.57189C2.87502 6.54089 2.93752 6.52539 3.00002 6.52539C3.06252 6.52539 3.12502 6.54089 3.18752 6.57189C3.25002 6.60339 3.30002 6.65664 3.33752 6.73164L3.71252 7.53789L4.51877 7.91289C4.65627 7.97539 4.72502 8.08789 4.72502 8.25039C4.72502 8.41289 4.65627 8.52539 4.51877 8.58789L3.71252 8.96289L3.33752 9.76914C3.30002 9.84414 3.25002 9.89714 3.18752 9.92814C3.12502 9.95964 3.06252 9.97539 3.00002 9.97539ZM11.25 8.47539C11.1875 8.47539 11.125 8.45964 11.0625 8.42814C11 8.39714 10.95 8.34414 10.9125 8.26914L10.5375 7.46289L9.73127 7.08789C9.65627 7.05039 9.60327 7.00039 9.57227 6.93789C9.54077 6.87539 9.52502 6.81289 9.52502 6.75039C9.52502 6.68789 9.54077 6.62539 9.57227 6.56289C9.60327 6.50039 9.65627 6.45039 9.73127 6.41289L10.5375 6.03789L10.9125 5.23164C10.95 5.15664 11 5.10339 11.0625 5.07189C11.125 5.04089 11.1875 5.02539 11.25 5.02539C11.3125 5.02539 11.375 5.04089 11.4375 5.07189C11.5 5.10339 11.55 5.15664 11.5875 5.23164L11.9625 6.03789L12.7688 6.41289C12.8438 6.45039 12.897 6.50039 12.9285 6.56289C12.9595 6.62539 12.975 6.68789 12.975 6.75039C12.975 6.81289 12.9595 6.87539 12.9285 6.93789C12.897 7.00039 12.8438 7.05039 12.7688 7.08789L11.9625 7.46289L11.5875 8.26914C11.55 8.34414 11.5 8.39714 11.4375 8.42814C11.375 8.45964 11.3125 8.47539 11.25 8.47539ZM6.37502 6.22539C6.31252 6.22539 6.25002 6.20664 6.18752 6.16914C6.12502 6.13164 6.07502 6.07539 6.03752 6.00039L5.55002 4.95039L4.50002 4.46289C4.42502 4.42539 4.36877 4.37539 4.33127 4.31289C4.29377 4.25039 4.27502 4.18789 4.27502 4.12539C4.27502 4.06289 4.29377 4.00039 4.33127 3.93789C4.36877 3.87539 4.42502 3.82539 4.50002 3.78789L5.55002 3.30039L6.03752 2.25039C6.07502 2.17539 6.12502 2.11914 6.18752 2.08164C6.25002 2.04414 6.31252 2.02539 6.37502 2.02539C6.43752 2.02539 6.50002 2.04414 6.56252 2.08164C6.62502 2.11914 6.67502 2.17539 6.71252 2.25039L7.20002 3.30039L8.25002 3.78789C8.32502 3.82539 8.38127 3.87539 8.41877 3.93789C8.45627 4.00039 8.47502 4.06289 8.47502 4.12539C8.47502 4.18789 8.45627 4.25039 8.41877 4.31289C8.38127 4.37539 8.32502 4.42539 8.25002 4.46289L7.20002 4.95039L6.71252 6.00039C6.67502 6.07539 6.62502 6.13164 6.56252 6.16914C6.50002 6.20664 6.43752 6.22539 6.37502 6.22539Z" fill="#4D4D4D"/>
</svg>
