<svg width="16" height="11" viewBox="0 0 16 11" fill="none" xmlns="http://www.w3.org/2000/svg">
<path d="M9.49998 3.74955C9.28747 3.74955 9.10948 3.67755 8.96597 3.53355C8.82197 3.39005 8.74997 3.21205 8.74997 2.99955C8.74997 2.78705 8.82197 2.6088 8.96597 2.4648C9.10948 2.3213 9.28747 2.24955 9.49998 2.24955H14.75C14.9625 2.24955 15.1405 2.3213 15.284 2.4648C15.428 2.6088 15.5 2.78705 15.5 2.99955C15.5 3.21205 15.428 3.39005 15.284 3.53355C15.1405 3.67755 14.9625 3.74955 14.75 3.74955H9.49998ZM9.49998 9.74955C9.28747 9.74955 9.10948 9.67755 8.96597 9.53355C8.82197 9.39005 8.74997 9.21205 8.74997 8.99955C8.74997 8.78705 8.82197 8.6088 8.96597 8.4648C9.10948 8.3213 9.28747 8.24955 9.49998 8.24955H14.75C14.9625 8.24955 15.1405 8.3213 15.284 8.4648C15.428 8.6088 15.5 8.78705 15.5 8.99955C15.5 9.21205 15.428 9.39005 15.284 9.53355C15.1405 9.67755 14.9625 9.74955 14.75 9.74955H9.49998ZM2.63748 4.72455L1.02498 3.11205C0.887476 2.97455 0.818726 2.79955 0.818726 2.58705C0.818726 2.37455 0.887476 2.19955 1.02498 2.06205C1.16248 1.92455 1.33748 1.8558 1.54998 1.8558C1.76248 1.8558 1.93748 1.92455 2.07498 2.06205L3.14373 3.1308L5.80622 0.468299C5.95622 0.318299 6.13122 0.246299 6.33122 0.252299C6.53122 0.258799 6.70623 0.337049 6.85623 0.487049C6.99373 0.637049 7.06247 0.812049 7.06247 1.01205C7.06247 1.21205 6.99373 1.38705 6.85623 1.53705L3.68748 4.72455C3.53748 4.87455 3.36248 4.94955 3.16248 4.94955C2.96248 4.94955 2.78748 4.87455 2.63748 4.72455ZM2.63748 10.7245L1.02498 9.11205C0.887476 8.97455 0.818726 8.79955 0.818726 8.58705C0.818726 8.37455 0.887476 8.19955 1.02498 8.06205C1.16248 7.92455 1.33748 7.8558 1.54998 7.8558C1.76248 7.8558 1.93748 7.92455 2.07498 8.06205L3.14373 9.1308L5.80622 6.4683C5.95622 6.3183 6.13122 6.2463 6.33122 6.2523C6.53122 6.2588 6.70623 6.33705 6.85623 6.48705C6.99373 6.63705 7.06247 6.81205 7.06247 7.01205C7.06247 7.21205 6.99373 7.38705 6.85623 7.53705L3.68748 10.7245C3.53748 10.8745 3.36248 10.9496 3.16248 10.9496C2.96248 10.9496 2.78748 10.8745 2.63748 10.7245Z" fill="#4D4D4D"/>
</svg>
