<svg width="19" height="18" viewBox="0 0 19 18" fill="none" xmlns="http://www.w3.org/2000/svg">
<mask id="mask0_1150_21562" style="mask-type:alpha" maskUnits="userSpaceOnUse" x="2" y="2" width="15" height="14">
<path d="M2.75 8.25C2.75 5.42157 2.75 4.00736 3.62868 3.12868C4.50736 2.25 5.92157 2.25 8.75 2.25H10.25C13.0784 2.25 14.4926 2.25 15.3713 3.12868C16.25 4.00736 16.25 5.42157 16.25 8.25V9.75C16.25 12.5784 16.25 13.9926 15.3713 14.8713C14.4926 15.75 13.0784 15.75 10.25 15.75H8.75C5.92157 15.75 4.50736 15.75 3.62868 14.8713C2.75 13.9926 2.75 12.5784 2.75 9.75V8.25Z" fill="black"/>
</mask>
<g mask="url(#mask0_1150_21562)">
<path d="M10.1736 11.091L3.77413 4.05155C3.59954 3.85949 3.35203 3.75 3.09247 3.75C2.0749 3.75 1.25 4.5749 1.25 5.59247V11.6257C1.25 14.4542 1.25 15.8684 2.12868 16.7471C3.00736 17.6257 4.42157 17.6257 7.25 17.6257H13.2758C13.6531 17.6257 13.8418 17.6257 14.0064 17.6075C15.2336 17.4716 16.2522 16.5977 16.5731 15.4054C16.6161 15.2455 16.6448 15.0591 16.7022 14.6862L16.7022 14.6861C16.7411 14.4333 16.7605 14.3068 16.7692 14.1871C16.8333 13.3068 16.5064 12.443 15.8757 11.8256C15.79 11.7416 15.6917 11.6597 15.4952 11.496L15.4951 11.4959L14.133 10.3608C13.9719 10.2266 13.8914 10.1595 13.8223 10.1138C13.1263 9.65325 12.1881 9.84949 11.735 10.5504C11.69 10.6199 11.6432 10.7137 11.5494 10.9012L11.5494 10.9012L11.5494 10.9013C11.4962 11.0077 11.4696 11.0609 11.4451 11.0981C11.1957 11.4768 10.6699 11.5493 10.3274 11.2523C10.2937 11.2231 10.2537 11.1791 10.1737 11.091L10.1736 11.091Z" fill="url(#paint0_linear_1150_21562)"/>
<path fill-rule="evenodd" clip-rule="evenodd" d="M0.800049 5.59252C0.800049 4.32642 1.82642 3.30005 3.09252 3.30005C3.47886 3.30005 3.84727 3.46302 4.10715 3.74889L10.5054 10.787L10.5067 10.7883C10.5478 10.8336 10.5746 10.863 10.5952 10.8849C10.6154 10.9063 10.622 10.9121 10.6222 10.9123C10.7592 11.0311 10.9695 11.0021 11.0693 10.8506C11.0692 10.8508 11.0738 10.8437 11.0878 10.8169C11.1017 10.7904 11.1194 10.7551 11.1465 10.7008C11.1467 10.7006 11.1468 10.7003 11.147 10.7C11.1515 10.6909 11.156 10.6819 11.1604 10.6731C11.2411 10.5116 11.2984 10.397 11.3571 10.3062C11.9462 9.39495 13.1658 9.13984 14.0707 9.73856C14.1609 9.79824 14.2593 9.88029 14.398 9.99589L15.7996 11.1639C15.9806 11.3148 16.0918 11.4074 16.1906 11.5041C16.9159 12.2141 17.2917 13.2075 17.2181 14.2198C17.2081 14.3577 17.1861 14.5007 17.1502 14.7337L17.1472 14.7532C17.1471 14.7537 17.1471 14.7542 17.147 14.7546L17.1421 14.7867C17.0894 15.1291 17.0572 15.3383 17.0077 15.5225C16.6386 16.8935 15.4673 17.8985 14.056 18.0548C13.8664 18.0758 13.6547 18.0758 13.3081 18.0758H7.21563C5.83059 18.0758 4.74516 18.0758 3.89827 17.9619C3.03143 17.8454 2.34742 17.6022 1.81053 17.0653C1.27364 16.5284 1.03044 15.8444 0.913897 14.9776C0.800035 14.1307 0.800041 13.0452 0.800049 11.6602L0.800049 5.59252ZM3.09252 4.20005C2.32348 4.20005 1.70005 4.82348 1.70005 5.59252V11.6258C1.70005 13.0527 1.701 14.0776 1.80587 14.8576C1.909 15.6247 2.10513 16.0871 2.44693 16.4289C2.78872 16.7707 3.25115 16.9668 4.0182 17.07C4.79818 17.1748 5.82311 17.1758 7.25005 17.1758H13.2759C13.6647 17.1758 13.8231 17.1751 13.9569 17.1603C15 17.0448 15.8658 16.302 16.1386 15.2885C16.1736 15.1587 16.1983 15.0023 16.2573 14.6189C16.2573 14.6185 16.2574 14.6181 16.2575 14.6178C16.2975 14.3575 16.3134 14.252 16.3205 14.1545C16.3749 13.4063 16.0971 12.672 15.561 12.1472C15.4911 12.0788 15.4094 12.0103 15.2072 11.8418L13.8449 10.7065C13.6738 10.5639 13.617 10.5175 13.5741 10.4891C13.0868 10.1668 12.4301 10.3041 12.1129 10.7948C12.085 10.8379 12.0516 10.9031 11.9523 11.1017C11.9522 11.102 11.9521 11.1022 11.9519 11.1025C11.9483 11.1097 11.9447 11.117 11.9412 11.1241C11.899 11.2086 11.8607 11.2852 11.8209 11.3456C11.422 11.9515 10.5808 12.0675 10.0326 11.5923C9.97796 11.5449 9.92039 11.4815 9.85688 11.4116C9.85175 11.4059 9.84657 11.4002 9.84136 11.3945C9.84115 11.3942 9.84094 11.394 9.84074 11.3938L3.44121 4.3543C3.3519 4.25606 3.22529 4.20005 3.09252 4.20005Z" fill="#4D4D4D"/>
</g>
<path fill-rule="evenodd" clip-rule="evenodd" d="M10.2844 16.2H8.71552C7.33049 16.2 6.24506 16.2 5.39817 16.0861C4.53133 15.9696 3.84732 15.7264 3.31043 15.1895C2.77355 14.6526 2.53034 13.9686 2.4138 13.1017C2.29994 12.2548 2.29994 11.1694 2.29995 9.78437V8.21553C2.29994 6.83049 2.29994 5.74507 2.4138 4.89817C2.53034 4.03133 2.77355 3.34732 3.31043 2.81043C3.84732 2.27355 4.53133 2.03034 5.39817 1.9138C6.24507 1.79994 7.33049 1.79994 8.71553 1.79995H9.49995C9.74848 1.79995 9.94995 2.00142 9.94995 2.24995C9.94995 2.49848 9.74848 2.69995 9.49995 2.69995H8.74995C7.32302 2.69995 6.29808 2.70091 5.5181 2.80577C4.75105 2.9089 4.28862 3.10503 3.94683 3.44683C3.60503 3.78862 3.4089 4.25105 3.30577 5.0181C3.20091 5.79808 3.19995 6.82302 3.19995 8.24995V9.74995C3.19995 11.1769 3.20091 12.2018 3.30577 12.9818C3.4089 13.7488 3.60503 14.2113 3.94683 14.5531C4.28862 14.8949 4.75105 15.091 5.5181 15.1941C6.29808 15.299 7.32302 15.3 8.74995 15.3H10.25C11.6769 15.3 12.7018 15.299 13.4818 15.1941C14.2488 15.091 14.7113 14.8949 15.0531 14.5531C15.3949 14.2113 15.591 13.7488 15.6941 12.9818C15.799 12.2018 15.8 11.1769 15.8 9.74995V8.24995C15.8 8.00142 16.0014 7.79995 16.25 7.79995C16.4985 7.79995 16.7 8.00142 16.7 8.24995L16.7 9.78438C16.7 11.1694 16.7 12.2548 16.5861 13.1017C16.4696 13.9686 16.2264 14.6526 15.6895 15.1895C15.1526 15.7264 14.4686 15.9696 13.6017 16.0861C12.7548 16.2 11.6694 16.2 10.2844 16.2Z" fill="#4D4D4D"/>
<path fill-rule="evenodd" clip-rule="evenodd" d="M16.7 2.25005C16.7 2.00152 16.4985 1.80005 16.25 1.80005H12.5C12.2514 1.80005 12.05 2.00152 12.05 2.25005C12.05 2.49858 12.2514 2.70005 12.5 2.70005H14.9671L12.2188 4.89866C12.0248 5.05391 11.9933 5.33709 12.1486 5.53116C12.3038 5.72523 12.587 5.75669 12.7811 5.60144L15.8 3.18633V6.00005C15.8 6.24858 16.0014 6.45005 16.25 6.45005C16.4985 6.45005 16.7 6.24858 16.7 6.00005V2.25005Z" fill="#4D4D4D"/>
<defs>
<linearGradient id="paint0_linear_1150_21562" x1="1.25" y1="3.75" x2="15.0385" y2="19.1795" gradientUnits="userSpaceOnUse">
<stop stop-color="#FF8345"/>
<stop offset="1" stop-color="#FF5500"/>
</linearGradient>
</defs>
</svg>
