<svg width="18" height="18" viewBox="0 0 18 18" fill="none" xmlns="http://www.w3.org/2000/svg">
<path d="M6.75 8.25C6.5375 8.25 6.3595 8.178 6.216 8.034C6.072 7.8905 6 7.7125 6 7.5C6 7.2875 6.072 7.10925 6.216 6.96525C6.3595 6.82175 6.5375 6.75 6.75 6.75H11.25C11.4625 6.75 11.6407 6.82175 11.7847 6.96525C11.9283 7.10925 12 7.2875 12 7.5C12 7.7125 11.9283 7.8905 11.7847 8.034C11.6407 8.178 11.4625 8.25 11.25 8.25H6.75ZM6.75 10.5C6.5375 10.5 6.3595 10.428 6.216 10.284C6.072 10.1405 6 9.9625 6 9.75C6 9.5375 6.072 9.35925 6.216 9.21525C6.3595 9.07175 6.5375 9 6.75 9H11.25C11.4625 9 11.6407 9.07175 11.7847 9.21525C11.9283 9.35925 12 9.5375 12 9.75C12 9.9625 11.9283 10.1405 11.7847 10.284C11.6407 10.428 11.4625 10.5 11.25 10.5H6.75ZM6.75 12.75C6.5375 12.75 6.3595 12.678 6.216 12.534C6.072 12.3905 6 12.2125 6 12C6 11.7875 6.072 11.6093 6.216 11.4653C6.3595 11.3217 6.5375 11.25 6.75 11.25H11.25C11.4625 11.25 11.6407 11.3217 11.7847 11.4653C11.9283 11.6093 12 11.7875 12 12C12 12.2125 11.9283 12.3905 11.7847 12.534C11.6407 12.678 11.4625 12.75 11.25 12.75H6.75ZM13.5 6.75C13.2875 6.75 13.1095 6.678 12.966 6.534C12.822 6.3905 12.75 6.2125 12.75 6V5.25H12C11.7875 5.25 11.6095 5.17825 11.466 5.03475C11.322 4.89075 11.25 4.7125 11.25 4.5C11.25 4.2875 11.322 4.10925 11.466 3.96525C11.6095 3.82175 11.7875 3.75 12 3.75H12.75V3C12.75 2.7875 12.822 2.60925 12.966 2.46525C13.1095 2.32175 13.2875 2.25 13.5 2.25C13.7125 2.25 13.8905 2.32175 14.034 2.46525C14.178 2.60925 14.25 2.7875 14.25 3V3.75H15C15.2125 3.75 15.3905 3.82175 15.534 3.96525C15.678 4.10925 15.75 4.2875 15.75 4.5C15.75 4.7125 15.678 4.89075 15.534 5.03475C15.3905 5.17825 15.2125 5.25 15 5.25H14.25V6C14.25 6.2125 14.178 6.3905 14.034 6.534C13.8905 6.678 13.7125 6.75 13.5 6.75ZM3.75 15.75C3.3375 15.75 2.98425 15.6033 2.69025 15.3097C2.39675 15.0157 2.25 14.6625 2.25 14.25V3.75C2.25 3.3375 2.39675 2.98425 2.69025 2.69025C2.98425 2.39675 3.3375 2.25 3.75 2.25H9.75C9.9625 2.25 10.1408 2.32175 10.2847 2.46525C10.4283 2.60925 10.5 2.7875 10.5 3C10.5 3.2125 10.4283 3.3905 10.2847 3.534C10.1408 3.678 9.9625 3.75 9.75 3.75H3.75V14.25H14.25V8.25C14.25 8.0375 14.322 7.85925 14.466 7.71525C14.6095 7.57175 14.7875 7.5 15 7.5C15.2125 7.5 15.3905 7.57175 15.534 7.71525C15.678 7.85925 15.75 8.0375 15.75 8.25V14.25C15.75 14.6625 15.6033 15.0157 15.3097 15.3097C15.0157 15.6033 14.6625 15.75 14.25 15.75H3.75Z" fill="white"/>
</svg>
