<svg width="16" height="16" viewBox="0 0 16 16" fill="none" xmlns="http://www.w3.org/2000/svg">
<path d="M10.25 10.25V11.0187C10.25 11.2312 10.322 11.4062 10.466 11.5438C10.6095 11.6813 10.7875 11.75 11 11.75C11.2125 11.75 11.3905 11.678 11.534 11.534C11.678 11.3905 11.75 11.2125 11.75 11V10.25H12.5187C12.7312 10.25 12.9062 10.178 13.0438 10.034C13.1813 9.8905 13.25 9.7125 13.25 9.5C13.25 9.2875 13.178 9.10925 13.034 8.96525C12.8905 8.82175 12.7125 8.75 12.5 8.75H11.75V7.98125C11.75 7.76875 11.678 7.59375 11.534 7.45625C11.3905 7.31875 11.2125 7.25 11 7.25C10.7875 7.25 10.6095 7.32175 10.466 7.46525C10.322 7.60925 10.25 7.7875 10.25 8V8.75H9.48125C9.26875 8.75 9.09375 8.82175 8.95625 8.96525C8.81875 9.10925 8.75 9.2875 8.75 9.5C8.75 9.7125 8.822 9.8905 8.966 10.034C9.1095 10.178 9.2875 10.25 9.5 10.25H10.25ZM5 8H8.76875C8.98125 8 9.15625 7.928 9.29375 7.784C9.43125 7.6405 9.5 7.4625 9.5 7.25C9.5 7.0375 9.42825 6.85925 9.28475 6.71525C9.14075 6.57175 8.9625 6.5 8.75 6.5H4.98125C4.76875 6.5 4.59375 6.57175 4.45625 6.71525C4.31875 6.85925 4.25 7.0375 4.25 7.25C4.25 7.4625 4.32175 7.6405 4.46525 7.784C4.60925 7.928 4.7875 8 5 8ZM5 5.75H8.76875C8.98125 5.75 9.15625 5.678 9.29375 5.534C9.43125 5.3905 9.5 5.2125 9.5 5C9.5 4.7875 9.42825 4.60925 9.28475 4.46525C9.14075 4.32175 8.9625 4.25 8.75 4.25H4.98125C4.76875 4.25 4.59375 4.32175 4.45625 4.46525C4.31875 4.60925 4.25 4.7875 4.25 5C4.25 5.2125 4.32175 5.3905 4.46525 5.534C4.60925 5.678 4.7875 5.75 5 5.75ZM5 10.25H5.76875C5.98125 10.25 6.15625 10.178 6.29375 10.034C6.43125 9.8905 6.5 9.7125 6.5 9.5C6.5 9.2875 6.42825 9.10925 6.28475 8.96525C6.14075 8.82175 5.9625 8.75 5.75 8.75H4.98125C4.76875 8.75 4.59375 8.82175 4.45625 8.96525C4.31875 9.10925 4.25 9.2875 4.25 9.5C4.25 9.7125 4.32175 9.8905 4.46525 10.034C4.60925 10.178 4.7875 10.25 5 10.25ZM8 15.5C6.9625 15.5 5.9875 15.303 5.075 14.909C4.1625 14.5155 3.36875 13.9813 2.69375 13.3063C2.01875 12.6313 1.4845 11.8375 1.091 10.925C0.697 10.0125 0.5 9.0375 0.5 8C0.5 6.9625 0.697 5.9875 1.091 5.075C1.4845 4.1625 2.01875 3.36875 2.69375 2.69375C3.36875 2.01875 4.1625 1.48425 5.075 1.09025C5.9875 0.69675 6.9625 0.5 8 0.5C9.0375 0.5 10.0125 0.69675 10.925 1.09025C11.8375 1.48425 12.6313 2.01875 13.3063 2.69375C13.9813 3.36875 14.5155 4.1625 14.909 5.075C15.303 5.9875 15.5 6.9625 15.5 8C15.5 9.0375 15.303 10.0125 14.909 10.925C14.5155 11.8375 13.9813 12.6313 13.3063 13.3063C12.6313 13.9813 11.8375 14.5155 10.925 14.909C10.0125 15.303 9.0375 15.5 8 15.5Z" fill="#4D4D4D"/>
</svg>
