<svg width="18" height="18" viewBox="0 0 18 18" fill="none" xmlns="http://www.w3.org/2000/svg">
<path d="M1.66667 6.25C1.40694 6.25 1.18939 6.162 1.014 5.986C0.838 5.81061 0.75 5.59306 0.75 5.33333V1.66667C0.75 1.40694 0.838 1.18908 1.014 1.01308C1.18939 0.837694 1.40694 0.75 1.66667 0.75H5.33333C5.59306 0.75 5.81092 0.837694 5.98692 1.01308C6.16231 1.18908 6.25 1.40694 6.25 1.66667C6.25 1.92639 6.16231 2.14394 5.98692 2.31933C5.81092 2.49533 5.59306 2.58333 5.33333 2.58333H3.86667L6.08958 4.80625C6.25764 4.97431 6.34167 5.18056 6.34167 5.425C6.34167 5.66945 6.25 5.88333 6.06667 6.06667C5.89861 6.23472 5.68472 6.31875 5.425 6.31875C5.16528 6.31875 4.95139 6.23472 4.78333 6.06667L2.58333 3.86667V5.33333C2.58333 5.59306 2.49564 5.81061 2.32025 5.986C2.14425 6.162 1.92639 6.25 1.66667 6.25ZM11.9333 6.06667C11.7653 5.89861 11.6813 5.68472 11.6813 5.425C11.6813 5.16528 11.7653 4.95139 11.9333 4.78333L14.1333 2.58333H12.6667C12.4069 2.58333 12.1894 2.49533 12.014 2.31933C11.838 2.14394 11.75 1.92639 11.75 1.66667C11.75 1.40694 11.838 1.18908 12.014 1.01308C12.1894 0.837694 12.4069 0.75 12.6667 0.75H16.3333C16.5931 0.75 16.8106 0.837694 16.986 1.01308C17.162 1.18908 17.25 1.40694 17.25 1.66667V5.33333C17.25 5.59306 17.162 5.81061 16.986 5.986C16.8106 6.162 16.5931 6.25 16.3333 6.25C16.0736 6.25 15.8561 6.162 15.6807 5.986C15.5047 5.81061 15.4167 5.59306 15.4167 5.33333V3.86667L13.1938 6.08958C13.0257 6.25764 12.8194 6.34167 12.575 6.34167C12.3306 6.34167 12.1167 6.25 11.9333 6.06667ZM12.6667 17.25C12.4069 17.25 12.1894 17.162 12.014 16.986C11.838 16.8106 11.75 16.5931 11.75 16.3333C11.75 16.0736 11.838 15.8561 12.014 15.6807C12.1894 15.5047 12.4069 15.4167 12.6667 15.4167H14.1333L11.9104 13.1938C11.7424 13.0257 11.6583 12.8194 11.6583 12.575C11.6583 12.3306 11.75 12.1167 11.9333 11.9333C12.1014 11.7653 12.3153 11.6813 12.575 11.6813C12.8347 11.6813 13.0486 11.7653 13.2167 11.9333L15.4167 14.1333V12.6667C15.4167 12.4069 15.5047 12.1891 15.6807 12.0131C15.8561 11.8377 16.0736 11.75 16.3333 11.75C16.5931 11.75 16.8106 11.8377 16.986 12.0131C17.162 12.1891 17.25 12.4069 17.25 12.6667V16.3333C17.25 16.5931 17.162 16.8106 16.986 16.986C16.8106 17.162 16.5931 17.25 16.3333 17.25H12.6667ZM1.66667 17.25C1.40694 17.25 1.18939 17.162 1.014 16.986C0.838 16.8106 0.75 16.5931 0.75 16.3333V12.6667C0.75 12.4069 0.838 12.1891 1.014 12.0131C1.18939 11.8377 1.40694 11.75 1.66667 11.75C1.92639 11.75 2.14425 11.8377 2.32025 12.0131C2.49564 12.1891 2.58333 12.4069 2.58333 12.6667V14.1333L4.80625 11.9104C4.97431 11.7424 5.18056 11.6583 5.425 11.6583C5.66945 11.6583 5.88333 11.75 6.06667 11.9333C6.23472 12.1014 6.31875 12.3153 6.31875 12.575C6.31875 12.8347 6.23472 13.0486 6.06667 13.2167L3.86667 15.4167H5.33333C5.59306 15.4167 5.81092 15.5047 5.98692 15.6807C6.16231 15.8561 6.25 16.0736 6.25 16.3333C6.25 16.5931 6.16231 16.8106 5.98692 16.986C5.81092 17.162 5.59306 17.25 5.33333 17.25H1.66667Z" fill="#4D4D4D"/>
</svg>
