<svg width="14" height="16" viewBox="0 0 14 16" fill="none" xmlns="http://www.w3.org/2000/svg">
<path d="M0.25 15.3499V0.649902C0.275 0.649902 0.3095 0.652902 0.3535 0.658902C0.397 0.665402 0.45 0.699902 0.5125 0.762402L1.1125 1.3624C1.1875 1.4374 1.275 1.4749 1.375 1.4749C1.475 1.4749 1.5625 1.4374 1.6375 1.3624L2.2375 0.762402C2.3125 0.687402 2.4 0.649902 2.5 0.649902C2.6 0.649902 2.6875 0.687402 2.7625 0.762402L3.3625 1.3624C3.4375 1.4374 3.525 1.4749 3.625 1.4749C3.725 1.4749 3.8125 1.4374 3.8875 1.3624L4.4875 0.762402C4.5625 0.687402 4.65 0.649902 4.75 0.649902C4.85 0.649902 4.9375 0.687402 5.0125 0.762402L5.6125 1.3624C5.6875 1.4374 5.775 1.4749 5.875 1.4749C5.975 1.4749 6.0625 1.4374 6.1375 1.3624L6.7375 0.762402C6.8125 0.687402 6.9 0.649902 7 0.649902C7.1 0.649902 7.1875 0.687402 7.2625 0.762402L7.8625 1.3624C7.9375 1.4374 8.025 1.4749 8.125 1.4749C8.225 1.4749 8.3125 1.4374 8.3875 1.3624L8.9875 0.762402C9.0625 0.687402 9.15 0.649902 9.25 0.649902C9.35 0.649902 9.4375 0.687402 9.5125 0.762402L10.1125 1.3624C10.1875 1.4374 10.275 1.4749 10.375 1.4749C10.475 1.4749 10.5625 1.4374 10.6375 1.3624L11.2375 0.762402C11.3125 0.687402 11.4 0.649902 11.5 0.649902C11.6 0.649902 11.6875 0.687402 11.7625 0.762402L12.3625 1.3624C12.4375 1.4374 12.525 1.4749 12.625 1.4749C12.725 1.4749 12.8125 1.4374 12.8875 1.3624L13.4875 0.762402C13.55 0.699902 13.6033 0.665402 13.6473 0.658902C13.6908 0.652902 13.725 0.649902 13.75 0.649902V15.3499C13.725 15.3499 13.6908 15.3469 13.6473 15.3409C13.6033 15.3344 13.55 15.2999 13.4875 15.2374L12.8875 14.6374C12.8125 14.5624 12.725 14.5249 12.625 14.5249C12.525 14.5249 12.4375 14.5624 12.3625 14.6374L11.7625 15.2374C11.6875 15.3124 11.6 15.3499 11.5 15.3499C11.4 15.3499 11.3125 15.3124 11.2375 15.2374L10.6375 14.6374C10.5625 14.5624 10.475 14.5249 10.375 14.5249C10.275 14.5249 10.1875 14.5624 10.1125 14.6374L9.5125 15.2374C9.4375 15.3124 9.35 15.3499 9.25 15.3499C9.15 15.3499 9.0625 15.3124 8.9875 15.2374L8.3875 14.6374C8.3125 14.5624 8.225 14.5249 8.125 14.5249C8.025 14.5249 7.9375 14.5624 7.8625 14.6374L7.2625 15.2374C7.1875 15.3124 7.1 15.3499 7 15.3499C6.9 15.3499 6.8125 15.3124 6.7375 15.2374L6.1375 14.6374C6.0625 14.5624 5.975 14.5249 5.875 14.5249C5.775 14.5249 5.6875 14.5624 5.6125 14.6374L5.0125 15.2374C4.9375 15.3124 4.85 15.3499 4.75 15.3499C4.65 15.3499 4.5625 15.3124 4.4875 15.2374L3.8875 14.6374C3.8125 14.5624 3.725 14.5249 3.625 14.5249C3.525 14.5249 3.4375 14.5624 3.3625 14.6374L2.7625 15.2374C2.6875 15.3124 2.6 15.3499 2.5 15.3499C2.4 15.3499 2.3125 15.3124 2.2375 15.2374L1.6375 14.6374C1.5625 14.5624 1.475 14.5249 1.375 14.5249C1.275 14.5249 1.1875 14.5624 1.1125 14.6374L0.5125 15.2374C0.45 15.2999 0.397 15.3344 0.3535 15.3409C0.3095 15.3469 0.275 15.3499 0.25 15.3499ZM3.25 11.7499H10.75C10.9625 11.7499 11.1405 11.6779 11.284 11.5339C11.428 11.3904 11.5 11.2124 11.5 10.9999C11.5 10.7874 11.428 10.6092 11.284 10.4652C11.1405 10.3217 10.9625 10.2499 10.75 10.2499H3.25C3.0375 10.2499 2.85925 10.3217 2.71525 10.4652C2.57175 10.6092 2.5 10.7874 2.5 10.9999C2.5 11.2124 2.57175 11.3904 2.71525 11.5339C2.85925 11.6779 3.0375 11.7499 3.25 11.7499ZM3.25 8.7499H10.75C10.9625 8.7499 11.1405 8.6779 11.284 8.5339C11.428 8.3904 11.5 8.2124 11.5 7.9999C11.5 7.7874 11.428 7.60915 11.284 7.46515C11.1405 7.32165 10.9625 7.2499 10.75 7.2499H3.25C3.0375 7.2499 2.85925 7.32165 2.71525 7.46515C2.57175 7.60915 2.5 7.7874 2.5 7.9999C2.5 8.2124 2.57175 8.3904 2.71525 8.5339C2.85925 8.6779 3.0375 8.7499 3.25 8.7499ZM3.25 5.7499H10.75C10.9625 5.7499 11.1405 5.6779 11.284 5.5339C11.428 5.3904 11.5 5.2124 11.5 4.9999C11.5 4.7874 11.428 4.60915 11.284 4.46515C11.1405 4.32165 10.9625 4.2499 10.75 4.2499H3.25C3.0375 4.2499 2.85925 4.32165 2.71525 4.46515C2.57175 4.60915 2.5 4.7874 2.5 4.9999C2.5 5.2124 2.57175 5.3904 2.71525 5.5339C2.85925 5.6779 3.0375 5.7499 3.25 5.7499Z" fill="url(#paint0_linear_1791_32090)"/>
<defs>
<linearGradient id="paint0_linear_1791_32090" x1="0.25" y1="0.649902" x2="14.8969" y2="14.1011" gradientUnits="userSpaceOnUse">
<stop stop-color="#FF8345"/>
<stop offset="1" stop-color="#FF5500"/>
</linearGradient>
</defs>
</svg>
