<svg width="19" height="21" viewBox="0 0 19 21" fill="none" xmlns="http://www.w3.org/2000/svg">
<path d="M1.5 1C1.5 0.723858 1.27614 0.5 1 0.5C0.723858 0.5 0.5 0.723858 0.5 1H1.5ZM19 18L14 15.1132V20.8868L19 18ZM1.58579 17.4142L1.23223 17.7678L1.58579 17.4142ZM0.5 1V14H1.5V1H0.5ZM5 18.5H14.5V17.5H5V18.5ZM0.5 14C0.5 14.9287 0.498938 15.6755 0.577682 16.2612C0.658359 16.8612 0.830955 17.3665 1.23223 17.7678L1.93934 17.0607C1.75483 16.8762 1.63453 16.6171 1.56876 16.1279C1.50106 15.6244 1.5 14.9569 1.5 14H0.5ZM5 17.5C4.04306 17.5 3.37565 17.4989 2.87208 17.4312C2.3829 17.3655 2.12385 17.2452 1.93934 17.0607L1.23223 17.7678C1.63351 18.169 2.13876 18.3416 2.73883 18.4223C3.32452 18.5011 4.07133 18.5 5 18.5V17.5Z" fill="url(#paint0_linear_1262_27329)"/>
<defs>
<linearGradient id="paint0_linear_1262_27329" x1="1" y1="1" x2="17.9723" y2="18.9706" gradientUnits="userSpaceOnUse">
<stop stop-color="#FF8345"/>
<stop offset="1" stop-color="#FF5500"/>
</linearGradient>
</defs>
</svg>
