<svg width="18" height="18" viewBox="0 0 18 18" fill="none" xmlns="http://www.w3.org/2000/svg">
<path d="M9 11.25C9.4125 11.25 9.76575 11.103 10.0598 10.809C10.3533 10.5155 10.5 10.1625 10.5 9.75C10.5 9.3375 10.3533 8.98425 10.0598 8.69025C9.76575 8.39675 9.4125 8.25 9 8.25C8.5875 8.25 8.2345 8.39675 7.941 8.69025C7.647 8.98425 7.5 9.3375 7.5 9.75C7.5 10.1625 7.647 10.5155 7.941 10.809C8.2345 11.103 8.5875 11.25 9 11.25ZM4.5 16.5C4.0875 16.5 3.7345 16.3533 3.441 16.0597C3.147 15.7657 3 15.4125 3 15V3C3 2.5875 3.147 2.23425 3.441 1.94025C3.7345 1.64675 4.0875 1.5 4.5 1.5H11.25L15 6V14.6813L11.5688 11.25C11.7063 11.0375 11.8125 10.8062 11.8875 10.5562C11.9625 10.3062 12 10.0375 12 9.75C12 8.925 11.7063 8.21875 11.1187 7.63125C10.5312 7.04375 9.825 6.75 9 6.75C8.175 6.75 7.46875 7.04375 6.88125 7.63125C6.29375 8.21875 6 8.925 6 9.75C6 10.575 6.29375 11.2812 6.88125 11.8687C7.46875 12.4563 8.175 12.75 9 12.75C9.2875 12.75 9.5595 12.7125 9.816 12.6375C10.072 12.5625 10.3062 12.4562 10.5187 12.3187L14.4 16.2C14.2875 16.3 14.1438 16.375 13.9688 16.425C13.7937 16.475 13.6375 16.5 13.5 16.5H4.5Z" fill="#4D4D4D"/>
</svg>
