<svg width="63" height="24" viewBox="0 0 63 24" fill="none" xmlns="http://www.w3.org/2000/svg">
<path d="M0.597963 17.4527C0.433788 17.6748 0.480697 17.9879 0.702736 18.152C0.924775 18.3162 1.23786 18.2693 1.40204 18.0473L0.597963 17.4527ZM7.1 9.5L7.50204 9.20274C7.40776 9.07523 7.25858 9 7.1 9C6.94142 9 6.79224 9.07523 6.69796 9.20274L7.1 9.5ZM13.2 17.75L12.798 18.0473C12.8156 18.0712 12.8354 18.0934 12.857 18.1138L13.2 17.75ZM19.3 23.5L18.957 23.8638C19.1496 24.0454 19.4504 24.0454 19.643 23.8638L19.3 23.5ZM25.4 17.75L25.1381 17.3241C25.1091 17.3419 25.0819 17.3627 25.057 17.3862L25.4 17.75ZM31.5 14L31.7619 13.5741C31.6012 13.4753 31.3988 13.4753 31.2381 13.5741L31.5 14ZM37.6 17.75L37.3381 18.1759C37.4661 18.2546 37.6226 18.2716 37.7645 18.2222C37.9063 18.1728 38.0184 18.0622 38.0698 17.9211L37.6 17.75ZM43.7 1L44.1698 0.828903C44.0979 0.631426 43.9102 0.5 43.7 0.5C43.4898 0.5 43.3021 0.631426 43.2302 0.828903L43.7 1ZM49.8 17.75L49.3302 17.9211C49.3623 18.0094 49.4187 18.0868 49.4928 18.1445L49.8 17.75ZM55.9 22.5L55.5928 22.8945C55.7734 23.0352 56.0266 23.0352 56.2072 22.8945L55.9 22.5ZM62.3072 18.1445C62.5251 17.9748 62.5642 17.6607 62.3945 17.4428C62.2248 17.2249 61.9107 17.1858 61.6928 17.3555L62.3072 18.1445ZM1.40204 18.0473L7.50204 9.79726L6.69796 9.20274L0.597963 17.4527L1.40204 18.0473ZM6.69796 9.79726L12.798 18.0473L13.602 17.4527L7.50204 9.20274L6.69796 9.79726ZM12.857 18.1138L18.957 23.8638L19.643 23.1362L13.543 17.3862L12.857 18.1138ZM19.643 23.8638L25.743 18.1138L25.057 17.3862L18.957 23.1362L19.643 23.8638ZM25.6619 18.1759L31.7619 14.4259L31.2381 13.5741L25.1381 17.3241L25.6619 18.1759ZM31.2381 14.4259L37.3381 18.1759L37.8619 17.3241L31.7619 13.5741L31.2381 14.4259ZM38.0698 17.9211L44.1698 1.1711L43.2302 0.828903L37.1302 17.5789L38.0698 17.9211ZM43.2302 1.1711L49.3302 17.9211L50.2698 17.5789L44.1698 0.828903L43.2302 1.1711ZM49.4928 18.1445L55.5928 22.8945L56.2072 22.1055L50.1072 17.3555L49.4928 18.1445ZM56.2072 22.8945L62.3072 18.1445L61.6928 17.3555L55.5928 22.1055L56.2072 22.8945Z" fill="url(#paint0_linear_1595_7735)"/>
<defs>
<linearGradient id="paint0_linear_1595_7735" x1="1" y1="1" x2="15.6106" y2="40.6109" gradientUnits="userSpaceOnUse">
<stop stop-color="#FF8345"/>
<stop offset="1" stop-color="#FF5500"/>
</linearGradient>
</defs>
</svg>
