<svg width="16" height="12" viewBox="0 0 16 12" fill="none" xmlns="http://www.w3.org/2000/svg">
<path d="M11.75 8.25C11.225 8.25 10.7812 8.06875 10.4188 7.70625C10.0563 7.34375 9.875 6.9 9.875 6.375C9.875 5.85 10.0563 5.40625 10.4188 5.04375C10.7812 4.68125 11.225 4.5 11.75 4.5C12.275 4.5 12.7188 4.68125 13.0812 5.04375C13.4437 5.40625 13.625 5.85 13.625 6.375C13.625 6.9 13.4437 7.34375 13.0812 7.70625C12.7188 8.06875 12.275 8.25 11.75 8.25ZM8.75 12C8.5375 12 8.3595 11.928 8.216 11.784C8.072 11.6405 8 11.4625 8 11.25V10.95C8 10.65 8.078 10.372 8.234 10.116C8.3905 9.8595 8.6125 9.675 8.9 9.5625C9.35 9.375 9.81575 9.2345 10.2972 9.141C10.7782 9.047 11.2625 9 11.75 9C12.2375 9 12.722 9.047 13.2035 9.141C13.6845 9.2345 14.15 9.375 14.6 9.5625C14.8875 9.675 15.1095 9.8595 15.266 10.116C15.422 10.372 15.5 10.65 15.5 10.95V11.25C15.5 11.4625 15.428 11.6405 15.284 11.784C15.1405 11.928 14.9625 12 14.75 12H8.75ZM6.5 6C5.675 6 4.96875 5.70625 4.38125 5.11875C3.79375 4.53125 3.5 3.825 3.5 3C3.5 2.175 3.79375 1.46875 4.38125 0.88125C4.96875 0.29375 5.675 0 6.5 0C7.325 0 8.03125 0.29375 8.61875 0.88125C9.20625 1.46875 9.5 2.175 9.5 3C9.5 3.825 9.20625 4.53125 8.61875 5.11875C8.03125 5.70625 7.325 6 6.5 6ZM1.25 12C1.0375 12 0.8595 11.928 0.716 11.784C0.572 11.6405 0.5 11.4625 0.5 11.25V9.75C0.5 9.425 0.6125 9.10325 0.8375 8.78475C1.0625 8.46575 1.39375 8.1875 1.83125 7.95C2.50625 7.5875 3.24375 7.297 4.04375 7.0785C4.84375 6.8595 5.6625 6.75 6.5 6.75C6.8375 6.75 7.197 6.775 7.5785 6.825C7.9595 6.875 8.35 6.95 8.75 7.05V8.025C8.575 8.0875 8.425 8.15 8.3 8.2125C8.175 8.275 8.04375 8.34375 7.90625 8.41875C7.44375 8.68125 7.09375 9.025 6.85625 9.45C6.61875 9.875 6.5 10.225 6.5 10.5V12H1.25Z" fill="#4D4D4D"/>
</svg>
