<svg width="18" height="18" viewBox="0 0 18 18" fill="none" xmlns="http://www.w3.org/2000/svg">
<path d="M4.5 12H10.5V11.5875C10.5 10.85 10.147 10.3595 9.441 10.116C8.7345 9.872 8.0875 9.75 7.5 9.75C6.9125 9.75 6.26575 9.872 5.55975 10.116C4.85325 10.3595 4.5 10.85 4.5 11.5875V12ZM7.5 9C7.9125 9 8.26575 8.853 8.55975 8.559C8.85325 8.2655 9 7.9125 9 7.5C9 7.0875 8.85325 6.73425 8.55975 6.44025C8.26575 6.14675 7.9125 6 7.5 6C7.0875 6 6.7345 6.14675 6.441 6.44025C6.147 6.73425 6 7.0875 6 7.5C6 7.9125 6.147 8.2655 6.441 8.559C6.7345 8.853 7.0875 9 7.5 9ZM3 15C2.5875 15 2.2345 14.8533 1.941 14.5597C1.647 14.2657 1.5 13.9125 1.5 13.5V4.5C1.5 4.0875 1.647 3.7345 1.941 3.441C2.2345 3.147 2.5875 3 3 3H12C12.4125 3 12.7657 3.147 13.0597 3.441C13.3533 3.7345 13.5 4.0875 13.5 4.5V7.875L15.8625 5.5125C15.975 5.4 16.1095 5.37175 16.266 5.42775C16.422 5.48425 16.5 5.6 16.5 5.775V12.225C16.5 12.4 16.422 12.5155 16.266 12.5715C16.1095 12.628 15.975 12.6 15.8625 12.4875L13.5 10.125V13.5C13.5 13.9125 13.3533 14.2657 13.0597 14.5597C12.7657 14.8533 12.4125 15 12 15H3Z" fill="#4D4D4D"/>
</svg>
