<svg width="16" height="13" viewBox="0 0 16 13" fill="none" xmlns="http://www.w3.org/2000/svg">
<path d="M6.5 6C5.675 6 4.96875 5.70625 4.38125 5.11875C3.79375 4.53125 3.5 3.825 3.5 3C3.5 2.175 3.79375 1.46875 4.38125 0.88125C4.96875 0.29375 5.675 0 6.5 0C7.325 0 8.03125 0.29375 8.61875 0.88125C9.20625 1.46875 9.5 2.175 9.5 3C9.5 3.825 9.20625 4.53125 8.61875 5.11875C8.03125 5.70625 7.325 6 6.5 6ZM0.5 12V9.9C0.5 9.475 0.60625 9.08425 0.81875 8.72775C1.03125 8.37175 1.325 8.1 1.7 7.9125C2.45 7.5375 3.22825 7.25 4.03475 7.05C4.84075 6.85 5.6625 6.75 6.5 6.75H6.7535C6.8345 6.75 6.9125 6.7625 6.9875 6.7875C6.625 7.65 6.478 8.54075 6.5465 9.45975C6.6155 10.3783 6.9125 11.225 7.4375 12H0.5ZM11 12.75L10.775 11.625C10.625 11.5625 10.4843 11.497 10.3527 11.4285C10.2218 11.3595 10.0875 11.275 9.95 11.175L8.8625 11.5125L8.1125 10.2375L8.975 9.4875C8.95 9.3125 8.9375 9.15 8.9375 9C8.9375 8.85 8.95 8.6875 8.975 8.5125L8.1125 7.7625L8.8625 6.4875L9.95 6.825C10.0875 6.725 10.2218 6.6405 10.3527 6.5715C10.4843 6.503 10.625 6.4375 10.775 6.375L11 5.25H12.5L12.725 6.375C12.875 6.4375 13.0158 6.50625 13.1473 6.58125C13.2783 6.65625 13.4125 6.75 13.55 6.8625L14.6375 6.4875L15.3875 7.8L14.525 8.55C14.55 8.7 14.5625 8.85625 14.5625 9.01875C14.5625 9.18125 14.55 9.3375 14.525 9.4875L15.3875 10.2375L14.6375 11.5125L13.55 11.175C13.4125 11.275 13.2783 11.3595 13.1473 11.4285C13.0158 11.497 12.875 11.5625 12.725 11.625L12.5 12.75H11ZM11.75 10.5C12.1625 10.5 12.5157 10.3533 12.8097 10.0597C13.1033 9.76575 13.25 9.4125 13.25 9C13.25 8.5875 13.1033 8.23425 12.8097 7.94025C12.5157 7.64675 12.1625 7.5 11.75 7.5C11.3375 7.5 10.9845 7.64675 10.691 7.94025C10.397 8.23425 10.25 8.5875 10.25 9C10.25 9.4125 10.397 9.76575 10.691 10.0597C10.9845 10.3533 11.3375 10.5 11.75 10.5Z" fill="#4D4D4D"/>
</svg>
