<svg width="14" height="14" viewBox="0 0 14 14" fill="none" xmlns="http://www.w3.org/2000/svg">
<path d="M4.75 6.25C4.5375 6.25 4.3595 6.178 4.216 6.034C4.072 5.8905 4 5.7125 4 5.5C4 5.2875 4.072 5.10925 4.216 4.96525C4.3595 4.82175 4.5375 4.75 4.75 4.75H9.25C9.4625 4.75 9.64075 4.82175 9.78475 4.96525C9.92825 5.10925 10 5.2875 10 5.5C10 5.7125 9.92825 5.8905 9.78475 6.034C9.64075 6.178 9.4625 6.25 9.25 6.25H4.75ZM4.75 8.5C4.5375 8.5 4.3595 8.428 4.216 8.284C4.072 8.1405 4 7.9625 4 7.75C4 7.5375 4.072 7.35925 4.216 7.21525C4.3595 7.07175 4.5375 7 4.75 7H9.25C9.4625 7 9.64075 7.07175 9.78475 7.21525C9.92825 7.35925 10 7.5375 10 7.75C10 7.9625 9.92825 8.1405 9.78475 8.284C9.64075 8.428 9.4625 8.5 9.25 8.5H4.75ZM4.75 10.75C4.5375 10.75 4.3595 10.678 4.216 10.534C4.072 10.3905 4 10.2125 4 10C4 9.7875 4.072 9.60925 4.216 9.46525C4.3595 9.32175 4.5375 9.25 4.75 9.25H9.25C9.4625 9.25 9.64075 9.32175 9.78475 9.46525C9.92825 9.60925 10 9.7875 10 10C10 10.2125 9.92825 10.3905 9.78475 10.534C9.64075 10.678 9.4625 10.75 9.25 10.75H4.75ZM11.5 4.75C11.2875 4.75 11.1095 4.678 10.966 4.534C10.822 4.3905 10.75 4.2125 10.75 4V3.25H10C9.7875 3.25 9.6095 3.17825 9.466 3.03475C9.322 2.89075 9.25 2.7125 9.25 2.5C9.25 2.2875 9.322 2.10925 9.466 1.96525C9.6095 1.82175 9.7875 1.75 10 1.75H10.75V1C10.75 0.7875 10.822 0.60925 10.966 0.46525C11.1095 0.32175 11.2875 0.25 11.5 0.25C11.7125 0.25 11.8905 0.32175 12.034 0.46525C12.178 0.60925 12.25 0.7875 12.25 1V1.75H13C13.2125 1.75 13.3905 1.82175 13.534 1.96525C13.678 2.10925 13.75 2.2875 13.75 2.5C13.75 2.7125 13.678 2.89075 13.534 3.03475C13.3905 3.17825 13.2125 3.25 13 3.25H12.25V4C12.25 4.2125 12.178 4.3905 12.034 4.534C11.8905 4.678 11.7125 4.75 11.5 4.75ZM1.75 13.75C1.3375 13.75 0.98425 13.6033 0.69025 13.3097C0.39675 13.0157 0.25 12.6625 0.25 12.25V1.75C0.25 1.3375 0.39675 0.98425 0.69025 0.69025C0.98425 0.39675 1.3375 0.25 1.75 0.25H7.75C7.9625 0.25 8.14075 0.32175 8.28475 0.46525C8.42825 0.60925 8.5 0.7875 8.5 1C8.5 1.2125 8.42825 1.3905 8.28475 1.534C8.14075 1.678 7.9625 1.75 7.75 1.75H1.75V12.25H12.25V6.25C12.25 6.0375 12.322 5.85925 12.466 5.71525C12.6095 5.57175 12.7875 5.5 13 5.5C13.2125 5.5 13.3905 5.57175 13.534 5.71525C13.678 5.85925 13.75 6.0375 13.75 6.25V12.25C13.75 12.6625 13.6033 13.0157 13.3097 13.3097C13.0157 13.6033 12.6625 13.75 12.25 13.75H1.75Z" fill="#4D4D4D"/>
</svg>
