<svg width="18" height="18" viewBox="0 0 18 18" fill="none" xmlns="http://www.w3.org/2000/svg">
<path d="M9.75 6V3C9.75 2.7875 9.822 2.60925 9.966 2.46525C10.1095 2.32175 10.2875 2.25 10.5 2.25H15C15.2125 2.25 15.3905 2.32175 15.534 2.46525C15.678 2.60925 15.75 2.7875 15.75 3V6C15.75 6.2125 15.678 6.3905 15.534 6.534C15.3905 6.678 15.2125 6.75 15 6.75H10.5C10.2875 6.75 10.1095 6.678 9.966 6.534C9.822 6.3905 9.75 6.2125 9.75 6ZM2.25 9V3C2.25 2.7875 2.322 2.60925 2.466 2.46525C2.6095 2.32175 2.7875 2.25 3 2.25H7.5C7.7125 2.25 7.89075 2.32175 8.03475 2.46525C8.17825 2.60925 8.25 2.7875 8.25 3V9C8.25 9.2125 8.17825 9.3905 8.03475 9.534C7.89075 9.678 7.7125 9.75 7.5 9.75H3C2.7875 9.75 2.6095 9.678 2.466 9.534C2.322 9.3905 2.25 9.2125 2.25 9ZM9.75 15V9C9.75 8.7875 9.822 8.60925 9.966 8.46525C10.1095 8.32175 10.2875 8.25 10.5 8.25H15C15.2125 8.25 15.3905 8.32175 15.534 8.46525C15.678 8.60925 15.75 8.7875 15.75 9V15C15.75 15.2125 15.678 15.3905 15.534 15.534C15.3905 15.678 15.2125 15.75 15 15.75H10.5C10.2875 15.75 10.1095 15.678 9.966 15.534C9.822 15.3905 9.75 15.2125 9.75 15ZM2.25 15V12C2.25 11.7875 2.322 11.6093 2.466 11.4653C2.6095 11.3217 2.7875 11.25 3 11.25H7.5C7.7125 11.25 7.89075 11.3217 8.03475 11.4653C8.17825 11.6093 8.25 11.7875 8.25 12V15C8.25 15.2125 8.17825 15.3905 8.03475 15.534C7.89075 15.678 7.7125 15.75 7.5 15.75H3C2.7875 15.75 2.6095 15.678 2.466 15.534C2.322 15.3905 2.25 15.2125 2.25 15Z" fill="#4D4D4D"/>
</svg>
