<svg width="12" height="14" viewBox="0 0 12 14" fill="none" xmlns="http://www.w3.org/2000/svg">
<path d="M0.75 13.75V8.5C0.75 8.0875 0.897 7.73425 1.191 7.44025C1.4845 7.14675 1.8375 7 2.25 7H3V5.5H2.25C1.8375 5.5 1.4845 5.353 1.191 5.059C0.897 4.7655 0.75 4.4125 0.75 4V1.75C0.75 1.3375 0.897 0.98425 1.191 0.69025C1.4845 0.39675 1.8375 0.25 2.25 0.25H9.75C10.1625 0.25 10.5157 0.39675 10.8097 0.69025C11.1033 0.98425 11.25 1.3375 11.25 1.75V4C11.25 4.4125 11.1033 4.7655 10.8097 5.059C10.5157 5.353 10.1625 5.5 9.75 5.5H9V7H9.75C10.1625 7 10.5157 7.14675 10.8097 7.44025C11.1033 7.73425 11.25 8.0875 11.25 8.5V13.75H9.75V11.5H2.25V13.75H0.75ZM4.5 7H7.5V5.5H4.5V7Z" fill="#4D4D4D"/>
</svg>
