<svg width="16" height="12" viewBox="0 0 16 12" fill="none" xmlns="http://www.w3.org/2000/svg">
<path d="M10.25 9C10.4625 9 10.6407 8.928 10.7847 8.784C10.9283 8.6405 11 8.4625 11 8.25V7.5H11.75C11.9625 7.5 12.1405 7.428 12.284 7.284C12.428 7.1405 12.5 6.9625 12.5 6.75C12.5 6.5375 12.428 6.35925 12.284 6.21525C12.1405 6.07175 11.9625 6 11.75 6H11V5.25C11 5.0375 10.9283 4.85925 10.7847 4.71525C10.6407 4.57175 10.4625 4.5 10.25 4.5C10.0375 4.5 9.8595 4.57175 9.716 4.71525C9.572 4.85925 9.5 5.0375 9.5 5.25V6H8.75C8.5375 6 8.3595 6.07175 8.216 6.21525C8.072 6.35925 8 6.5375 8 6.75C8 6.9625 8.072 7.1405 8.216 7.284C8.3595 7.428 8.5375 7.5 8.75 7.5H9.5V8.25C9.5 8.4625 9.572 8.6405 9.716 8.784C9.8595 8.928 10.0375 9 10.25 9ZM2 12C1.5875 12 1.2345 11.8533 0.941 11.5597C0.647 11.2657 0.5 10.9125 0.5 10.5V1.5C0.5 1.0875 0.647 0.7345 0.941 0.441C1.2345 0.147 1.5875 0 2 0H5.88125C6.08125 0 6.272 0.0375001 6.4535 0.1125C6.6345 0.1875 6.79375 0.29375 6.93125 0.43125L8 1.5H14C14.4125 1.5 14.7657 1.647 15.0597 1.941C15.3533 2.2345 15.5 2.5875 15.5 3V10.5C15.5 10.9125 15.3533 11.2657 15.0597 11.5597C14.7657 11.8533 14.4125 12 14 12H2Z" fill="#4D4D4D"/>
</svg>
