<svg width="18" height="18" viewBox="0 0 18 18" fill="none" xmlns="http://www.w3.org/2000/svg">
<path d="M4.5 16.5004C3.875 16.5004 3.34375 16.2816 2.90625 15.8441C2.46875 15.4066 2.25 14.8754 2.25 14.2504V12.7504C2.25 12.5379 2.322 12.3599 2.466 12.2164C2.6095 12.0724 2.7875 12.0004 3 12.0004H4.5V2.04414C4.5 1.93164 4.55 1.86289 4.65 1.83789C4.75 1.81289 4.85 1.85039 4.95 1.95039L5.625 2.62539L6.4875 1.76289C6.5625 1.68789 6.65 1.65039 6.75 1.65039C6.85 1.65039 6.9375 1.68789 7.0125 1.76289L7.875 2.62539L8.7375 1.76289C8.8125 1.68789 8.9 1.65039 9 1.65039C9.1 1.65039 9.1875 1.68789 9.2625 1.76289L10.125 2.62539L10.9875 1.76289C11.0625 1.68789 11.15 1.65039 11.25 1.65039C11.35 1.65039 11.4375 1.68789 11.5125 1.76289L12.375 2.62539L13.2375 1.76289C13.3125 1.68789 13.4 1.65039 13.5 1.65039C13.6 1.65039 13.6875 1.68789 13.7625 1.76289L14.625 2.62539L15.3 1.95039C15.4 1.85039 15.5 1.80964 15.6 1.82814C15.7 1.84714 15.75 1.91914 15.75 2.04414V14.2504C15.75 14.8754 15.5312 15.4066 15.0938 15.8441C14.6562 16.2816 14.125 16.5004 13.5 16.5004H4.5ZM13.5 15.0004C13.7125 15.0004 13.8905 14.9284 14.034 14.7844C14.178 14.6409 14.25 14.4629 14.25 14.2504V3.75039H6V12.0004H12C12.2125 12.0004 12.3905 12.0724 12.534 12.2164C12.678 12.3599 12.75 12.5379 12.75 12.7504V14.2504C12.75 14.4629 12.822 14.6409 12.966 14.7844C13.1095 14.9284 13.2875 15.0004 13.5 15.0004ZM7.48125 6.75039C7.26875 6.75039 7.09375 6.67839 6.95625 6.53439C6.81875 6.39089 6.75 6.21289 6.75 6.00039C6.75 5.78789 6.822 5.60964 6.966 5.46564C7.1095 5.32214 7.2875 5.25039 7.5 5.25039H10.5C10.7125 5.25039 10.8907 5.32214 11.0347 5.46564C11.1783 5.60964 11.25 5.78789 11.25 6.00039C11.25 6.21289 11.1783 6.39089 11.0347 6.53439C10.8907 6.67839 10.7125 6.75039 10.5 6.75039H7.48125ZM7.48125 9.00039C7.26875 9.00039 7.09375 8.92839 6.95625 8.78439C6.81875 8.64089 6.75 8.46289 6.75 8.25039C6.75 8.03789 6.822 7.85964 6.966 7.71564C7.1095 7.57214 7.2875 7.50039 7.5 7.50039H10.5C10.7125 7.50039 10.8907 7.57214 11.0347 7.71564C11.1783 7.85964 11.25 8.03789 11.25 8.25039C11.25 8.46289 11.1783 8.64089 11.0347 8.78439C10.8907 8.92839 10.7125 9.00039 10.5 9.00039H7.48125ZM12.75 6.75039C12.5375 6.75039 12.3595 6.67839 12.216 6.53439C12.072 6.39089 12 6.21289 12 6.00039C12 5.78789 12.072 5.60964 12.216 5.46564C12.3595 5.32214 12.5375 5.25039 12.75 5.25039C12.9625 5.25039 13.1405 5.32214 13.284 5.46564C13.428 5.60964 13.5 5.78789 13.5 6.00039C13.5 6.21289 13.428 6.39089 13.284 6.53439C13.1405 6.67839 12.9625 6.75039 12.75 6.75039ZM12.75 9.00039C12.5375 9.00039 12.3595 8.92839 12.216 8.78439C12.072 8.64089 12 8.46289 12 8.25039C12 8.03789 12.072 7.85964 12.216 7.71564C12.3595 7.57214 12.5375 7.50039 12.75 7.50039C12.9625 7.50039 13.1405 7.57214 13.284 7.71564C13.428 7.85964 13.5 8.03789 13.5 8.25039C13.5 8.46289 13.428 8.64089 13.284 8.78439C13.1405 8.92839 12.9625 9.00039 12.75 9.00039Z" fill="url(#paint0_linear_1791_39263)"/>
<defs>
<linearGradient id="paint0_linear_1791_39263" x1="2.25" y1="1.65039" x2="17.0328" y2="15.0893" gradientUnits="userSpaceOnUse">
<stop stop-color="#FF8345"/>
<stop offset="1" stop-color="#FF5500"/>
</linearGradient>
</defs>
</svg>
