<svg width="19" height="19" viewBox="0 0 19 19" fill="none" xmlns="http://www.w3.org/2000/svg">
<path d="M1.58398 4.75C1.58398 4.12011 1.83421 3.51602 2.27961 3.07062C2.725 2.62522 3.3291 2.375 3.95898 2.375H5.14648C5.35645 2.375 5.55781 2.45841 5.70628 2.60687C5.85474 2.75534 5.93815 2.9567 5.93815 3.16667C5.93815 3.37663 5.85474 3.57799 5.70628 3.72646C5.55781 3.87493 5.35645 3.95833 5.14648 3.95833H3.95898C3.74902 3.95833 3.54766 4.04174 3.39919 4.19021C3.25073 4.33867 3.16732 4.54004 3.16732 4.75V5.9375C3.16732 6.14746 3.08391 6.34883 2.93544 6.49729C2.78698 6.64576 2.58561 6.72917 2.37565 6.72917C2.16569 6.72917 1.96432 6.64576 1.81586 6.49729C1.66739 6.34883 1.58398 6.14746 1.58398 5.9375V4.75ZM13.0632 3.16667C13.0632 2.9567 13.1466 2.75534 13.295 2.60687C13.4435 2.45841 13.6449 2.375 13.8548 2.375H15.0423C15.6722 2.375 16.2763 2.62522 16.7217 3.07062C17.1671 3.51602 17.4173 4.12011 17.4173 4.75V5.9375C17.4173 6.14746 17.3339 6.34883 17.1854 6.49729C17.037 6.64576 16.8356 6.72917 16.6257 6.72917C16.4157 6.72917 16.2143 6.64576 16.0659 6.49729C15.9174 6.34883 15.834 6.14746 15.834 5.9375V4.75C15.834 4.54004 15.7506 4.33867 15.6021 4.19021C15.4536 4.04174 15.2523 3.95833 15.0423 3.95833H13.8548C13.6449 3.95833 13.4435 3.87493 13.295 3.72646C13.1466 3.57799 13.0632 3.37663 13.0632 3.16667ZM2.37565 12.2708C2.58561 12.2708 2.78698 12.3542 2.93544 12.5027C3.08391 12.6512 3.16732 12.8525 3.16732 13.0625V14.25C3.16732 14.46 3.25073 14.6613 3.39919 14.8098C3.54766 14.9583 3.74902 15.0417 3.95898 15.0417H5.14648C5.35645 15.0417 5.55781 15.1251 5.70628 15.2735C5.85474 15.422 5.93815 15.6234 5.93815 15.8333C5.93815 16.0433 5.85474 16.2447 5.70628 16.3931C5.55781 16.5416 5.35645 16.625 5.14648 16.625H3.95898C3.3291 16.625 2.725 16.3748 2.27961 15.9294C1.83421 15.484 1.58398 14.8799 1.58398 14.25V13.0625C1.58398 12.8525 1.66739 12.6512 1.81586 12.5027C1.96432 12.3542 2.16569 12.2708 2.37565 12.2708V12.2708ZM16.6257 12.2708C16.8356 12.2708 17.037 12.3542 17.1854 12.5027C17.3339 12.6512 17.4173 12.8525 17.4173 13.0625V14.25C17.4173 14.8799 17.1671 15.484 16.7217 15.9294C16.2763 16.3748 15.6722 16.625 15.0423 16.625H13.8548C13.6449 16.625 13.4435 16.5416 13.295 16.3931C13.1466 16.2447 13.0632 16.0433 13.0632 15.8333C13.0632 15.6234 13.1466 15.422 13.295 15.2735C13.4435 15.1251 13.6449 15.0417 13.8548 15.0417H15.0423C15.2523 15.0417 15.4536 14.9583 15.6021 14.8098C15.7506 14.6613 15.834 14.46 15.834 14.25V13.0625C15.834 12.8525 15.9174 12.6512 16.0659 12.5027C16.2143 12.3542 16.4157 12.2708 16.6257 12.2708ZM4.75065 5.34375C4.96061 5.34375 5.16198 5.42716 5.31044 5.57562C5.45891 5.72409 5.54232 5.92545 5.54232 6.13542V12.8646C5.54232 13.0745 5.45891 13.2759 5.31044 13.4244C5.16198 13.5728 4.96061 13.6563 4.75065 13.6563C4.54069 13.6563 4.33932 13.5728 4.19086 13.4244C4.04239 13.2759 3.95898 13.0745 3.95898 12.8646V6.13542C3.95898 5.92545 4.04239 5.72409 4.19086 5.57562C4.33932 5.42716 4.54069 5.34375 4.75065 5.34375V5.34375ZM8.70898 6.13542C8.70898 5.92545 8.62558 5.72409 8.47711 5.57562C8.32864 5.42716 8.12728 5.34375 7.91732 5.34375C7.70735 5.34375 7.50599 5.42716 7.35752 5.57562C7.20906 5.72409 7.12565 5.92545 7.12565 6.13542V12.8646C7.12565 13.0745 7.20906 13.2759 7.35752 13.4244C7.50599 13.5728 7.70735 13.6563 7.91732 13.6563C8.12728 13.6563 8.32864 13.5728 8.47711 13.4244C8.62558 13.2759 8.70898 13.0745 8.70898 12.8646V6.13542ZM11.084 5.34375C11.2939 5.34375 11.4953 5.42716 11.6438 5.57562C11.7922 5.72409 11.8757 5.92545 11.8757 6.13542V12.8646C11.8757 13.0745 11.7922 13.2759 11.6438 13.4244C11.4953 13.5728 11.2939 13.6563 11.084 13.6563C10.874 13.6563 10.6727 13.5728 10.5242 13.4244C10.3757 13.2759 10.2923 13.0745 10.2923 12.8646V6.13542C10.2923 5.92545 10.3757 5.72409 10.5242 5.57562C10.6727 5.42716 10.874 5.34375 11.084 5.34375V5.34375ZM15.0423 6.13542C15.0423 5.92545 14.9589 5.72409 14.8104 5.57562C14.662 5.42716 14.4606 5.34375 14.2507 5.34375C14.0407 5.34375 13.8393 5.42716 13.6909 5.57562C13.5424 5.72409 13.459 5.92545 13.459 6.13542V12.8646C13.459 13.0745 13.5424 13.2759 13.6909 13.4244C13.8393 13.5728 14.0407 13.6563 14.2507 13.6563C14.4606 13.6563 14.662 13.5728 14.8104 13.4244C14.9589 13.2759 15.0423 13.0745 15.0423 12.8646V6.13542Z" fill="#4D4D4D"/>
</svg>
