<svg width="15" height="18" viewBox="0 0 15 18" fill="none" xmlns="http://www.w3.org/2000/svg">
<path d="M13.25 14.25H5C4.5875 14.25 4.2345 14.1033 3.941 13.8097C3.647 13.5157 3.5 13.1625 3.5 12.75V2.25C3.5 1.8375 3.647 1.48425 3.941 1.19025C4.2345 0.89675 4.5875 0.75 5 0.75H9.63125C9.83125 0.75 10.022 0.7875 10.2035 0.8625C10.3845 0.9375 10.5437 1.04375 10.6812 1.18125L14.3187 4.81875C14.4562 4.95625 14.5625 5.1155 14.6375 5.2965C14.7125 5.478 14.75 5.66875 14.75 5.86875V12.75C14.75 13.1625 14.6033 13.5157 14.3097 13.8097C14.0157 14.1033 13.6625 14.25 13.25 14.25ZM2 17.25C1.5875 17.25 1.2345 17.1033 0.941 16.8097C0.647 16.5157 0.5 16.1625 0.5 15.75V6C0.5 5.7875 0.572 5.60925 0.716 5.46525C0.8595 5.32175 1.0375 5.25 1.25 5.25C1.4625 5.25 1.64075 5.32175 1.78475 5.46525C1.92825 5.60925 2 5.7875 2 6V15.75H9.5C9.7125 15.75 9.89075 15.822 10.0347 15.966C10.1783 16.1095 10.25 16.2875 10.25 16.5C10.25 16.7125 10.1783 16.8905 10.0347 17.034C9.89075 17.178 9.7125 17.25 9.5 17.25H2ZM10.25 6H13.25L9.5 2.25V5.25C9.5 5.4625 9.572 5.64075 9.716 5.78475C9.8595 5.92825 10.0375 6 10.25 6Z" fill="#4D4D4D"/>
</svg>
