<svg width="18" height="18" viewBox="0 0 18 18" fill="none" xmlns="http://www.w3.org/2000/svg">
<path d="M4.5 16.5C4.0875 16.5 3.7345 16.3533 3.441 16.0597C3.147 15.7657 3 15.4125 3 15V3C3 2.5875 3.147 2.23425 3.441 1.94025C3.7345 1.64675 4.0875 1.5 4.5 1.5H13.5C13.9125 1.5 14.2657 1.64675 14.5597 1.94025C14.8533 2.23425 15 2.5875 15 3V15C15 15.4125 14.8533 15.7657 14.5597 16.0597C14.2657 16.3533 13.9125 16.5 13.5 16.5H4.5ZM8.8125 7.9125L10.125 7.125L11.4375 7.9125C11.5625 7.9875 11.6875 7.9875 11.8125 7.9125C11.9375 7.8375 12 7.73125 12 7.59375V3H8.25V7.59375C8.25 7.73125 8.3125 7.8375 8.4375 7.9125C8.5625 7.9875 8.6875 7.9875 8.8125 7.9125Z" fill="#4D4D4D"/>
</svg>
