<svg width="18" height="18" viewBox="0 0 18 18" fill="none" xmlns="http://www.w3.org/2000/svg">
<path fill-rule="evenodd" clip-rule="evenodd" d="M7.4998 11.7C7.25128 11.7 7.0498 11.4985 7.0498 11.25L7.0498 8.99995C7.0498 8.75142 7.25128 8.54995 7.4998 8.54995C7.74833 8.54995 7.9498 8.75142 7.9498 8.99995L7.9498 11.25C7.9498 11.4985 7.74833 11.7 7.4998 11.7Z" fill="#DC3545"/>
<path fill-rule="evenodd" clip-rule="evenodd" d="M10.4998 11.7C10.2513 11.7 10.0498 11.4985 10.0498 11.25L10.0498 8.99995C10.0498 8.75142 10.2513 8.54995 10.4998 8.54995C10.7483 8.54995 10.9498 8.75142 10.9498 8.99995L10.9498 11.25C10.9498 11.4985 10.7483 11.7 10.4998 11.7Z" fill="#DC3545"/>
<path d="M-nan -nanL2.25 5.25H15.75L-nan -nanL15.75 5.25C15.0511 5.25 14.7016 5.25 14.426 5.36418C14.0584 5.51642 13.7664 5.80843 13.6142 6.17597C13.5 6.45163 13.5 6.80109 13.5 7.5V12C13.5 13.4142 13.5 14.1213 13.0607 14.5607C12.6213 15 11.9142 15 10.5 15H7.5C6.08579 15 5.37868 15 4.93934 14.5607C4.5 14.1213 4.5 13.4142 4.5 12V7.5C4.5 6.80109 4.5 6.45163 4.38582 6.17597C4.23358 5.80843 3.94157 5.51642 3.57403 5.36418C3.29837 5.25 2.94891 5.25 2.25 5.25L-nan -nanZ" fill="#DC3545"/>
<path fill-rule="evenodd" clip-rule="evenodd" d="M3.03991 5.71328C2.84959 5.70029 2.60542 5.70005 2.2498 5.70005C2.00128 5.70005 1.7998 5.49858 1.7998 5.25005C1.7998 5.00152 2.00128 4.80005 2.2498 4.80005L2.26545 4.80005C2.27557 4.80005 2.28564 4.80005 2.29566 4.80005H15.7039C15.714 4.80005 15.724 4.80005 15.7342 4.80005L15.7498 4.80005V5.70005C15.3942 5.70005 15.15 5.70029 14.9597 5.71328C14.7734 5.72599 14.6718 5.74938 14.598 5.77998C14.3407 5.88654 14.1363 6.09095 14.0297 6.34823C13.9991 6.42209 13.9757 6.52367 13.963 6.70995C13.95 6.90026 13.9498 7.14444 13.9498 7.50005V12.0323C13.9498 12.712 13.9498 13.2674 13.8909 13.7059C13.8292 14.1643 13.6959 14.5617 13.3787 14.8789C13.0614 15.1961 12.664 15.3295 12.2057 15.3911C11.7672 15.4501 11.2117 15.4501 10.532 15.45H7.46759C6.78789 15.4501 6.23245 15.4501 5.79394 15.3911C5.33556 15.3295 4.93816 15.1961 4.62095 14.8789C4.30373 14.5617 4.17036 14.1643 4.10874 13.7059C4.04978 13.2674 4.04979 12.712 4.0498 12.0323L4.0498 7.50005C4.0498 7.14444 4.04956 6.90026 4.03658 6.70995C4.02387 6.52367 4.00047 6.42209 3.96988 6.34823C3.86331 6.09095 3.6589 5.88654 3.40162 5.77998C3.32776 5.74938 3.22618 5.72599 3.03991 5.71328ZM13.3566 5.70005H4.64298C4.70418 5.79582 4.75728 5.89738 4.80137 6.00382C4.88496 6.20562 4.91865 6.41659 4.93449 6.64868C4.94981 6.87327 4.94981 7.14823 4.9498 7.48441V12C4.9498 12.7199 4.95076 13.2145 5.00071 13.586C5.04892 13.9446 5.13522 14.1204 5.25734 14.2425C5.37947 14.3646 5.55529 14.4509 5.91386 14.4991C6.28537 14.5491 6.77998 14.55 7.4998 14.55H10.4998C11.2196 14.55 11.7142 14.5491 12.0858 14.4991C12.4443 14.4509 12.6201 14.3646 12.7423 14.2425C12.8644 14.1204 12.9507 13.9446 12.9989 13.586C13.0488 13.2145 13.0498 12.7199 13.0498 12V7.48444C13.0498 7.14825 13.0498 6.87327 13.0651 6.64868C13.081 6.41659 13.1147 6.20562 13.1982 6.00382C13.2423 5.89738 13.2954 5.79582 13.3566 5.70005Z" fill="#DC3545"/>
<path fill-rule="evenodd" clip-rule="evenodd" d="M9.99747 1.8856C9.7019 1.8289 9.35179 1.80005 8.99955 1.80005C8.64731 1.80005 8.2972 1.8289 8.00163 1.8856C7.85386 1.91395 7.71545 1.95005 7.59465 1.99524C7.48161 2.03754 7.34943 2.10029 7.24367 2.19896C7.06195 2.36851 7.05209 2.65326 7.22163 2.83498C7.38822 3.01353 7.66603 3.02617 7.84805 2.86572C7.8522 2.86343 7.87032 2.85303 7.91003 2.83818C7.97025 2.81565 8.05699 2.79139 8.17118 2.76948C8.39955 2.72568 8.69138 2.70005 8.99955 2.70005C9.30771 2.70005 9.59955 2.72568 9.82791 2.76948C9.94211 2.79139 10.0288 2.81565 10.0891 2.83818C10.1288 2.85303 10.1469 2.86343 10.151 2.86572C10.3331 3.02617 10.6109 3.01353 10.7775 2.83498C10.947 2.65326 10.9371 2.36851 10.7554 2.19896C10.6497 2.10029 10.5175 2.03754 10.4044 1.99524C10.2836 1.95005 10.1452 1.91395 9.99747 1.8856Z" fill="#DC3545"/>
</svg>
