<svg width="16" height="17" viewBox="0 0 16 17" fill="none" xmlns="http://www.w3.org/2000/svg">
<path d="M7.76177 5.28854C7.52606 5.00569 7.10569 4.96748 6.82284 5.20318C6.53999 5.43889 6.50177 5.85927 6.73748 6.14212L7.24963 5.71533L7.76177 5.28854ZM9.45935 8.367L9.9715 8.79379C10.1775 8.54656 10.1775 8.18744 9.9715 7.94021L9.45935 8.367ZM6.73748 10.5919C6.50177 10.8747 6.53999 11.2951 6.82284 11.5308C7.10569 11.7665 7.52606 11.7283 7.76177 11.4455L7.24963 11.0187L6.73748 10.5919ZM7.24963 5.71533L6.73748 6.14212L8.9472 8.79379L9.45935 8.367L9.9715 7.94021L7.76177 5.28854L7.24963 5.71533ZM9.45935 8.367L8.9472 7.94021L6.73748 10.5919L7.24963 11.0187L7.76177 11.4455L9.9715 8.79379L9.45935 8.367ZM8 2.5L8 3.16667C10.9455 3.16667 13.3333 5.55448 13.3333 8.5L14 8.5L14.6667 8.5C14.6667 4.8181 11.6819 1.83333 8 1.83333L8 2.5ZM14 8.5L13.3333 8.5C13.3333 11.4455 10.9455 13.8333 8 13.8333L8 14.5L8 15.1667C11.6819 15.1667 14.6667 12.1819 14.6667 8.5L14 8.5ZM8 14.5L8 13.8333C5.05448 13.8333 2.66667 11.4455 2.66667 8.5L2 8.5L1.33333 8.5C1.33333 12.1819 4.3181 15.1667 8 15.1667L8 14.5ZM2 8.5L2.66667 8.5C2.66667 5.55448 5.05448 3.16667 8 3.16667L8 2.5L8 1.83333C4.3181 1.83333 1.33333 4.8181 1.33333 8.5L2 8.5Z" fill="#6C7086"/>
</svg>
