<svg width="16" height="16" viewBox="0 0 16 16" fill="none" xmlns="http://www.w3.org/2000/svg">
<g clip-path="url(#clip0_6974_48544)">
<path d="M14.4 1.6H13.6V0.8C13.6 0.32 13.28 0 12.8 0C12.32 0 12 0.32 12 0.8V1.6H4V0.8C4 0.32 3.68 0 3.2 0C2.72 0 2.4 0.32 2.4 0.8V1.6H0.8C0.4 1.6 0 1.92 0 2.4V13.6C0 14.08 0.4 14.4 0.8 14.4H5.68C5.12 13.44 4.8 12.32 4.8 11.2C4.8 7.68 7.68 4.8 11.2 4.8C12.72 4.8 14.08 5.36 15.2 6.24V2.4C15.2 2 14.8 1.6 14.4 1.6Z" fill="white"/>
<path d="M11.1984 6.40002C8.55844 6.40002 6.39844 8.56002 6.39844 11.2C6.39844 13.84 8.55844 16 11.1984 16C13.8384 16 15.9984 13.84 15.9984 11.2C15.9984 8.56002 13.8384 6.40002 11.1984 6.40002ZM12.7984 12H11.1984C10.7184 12 10.3984 11.68 10.3984 11.2V8.80002C10.3984 8.32002 10.7184 8.00002 11.1984 8.00002C11.6784 8.00002 11.9984 8.32002 11.9984 8.80002V10.4H12.7984C13.2784 10.4 13.5984 10.72 13.5984 11.2C13.5984 11.68 13.2784 12 12.7984 12Z" fill="white"/>
</g>
<defs>
<clipPath id="clip0_6974_48544">
<rect width="16" height="16" fill="white"/>
</clipPath>
</defs>
</svg>
