<svg width="24" height="22" viewBox="0 0 24 22" fill="none" xmlns="http://www.w3.org/2000/svg">
<path fillRule="evenodd" clipRule="evenodd" d="M0 11.2009C0 10.8031 0.158018 10.4216 0.439291 10.1404C0.720564 9.8591 1.10205 9.70109 1.49983 9.70109H18.8769L12.4366 3.2638C12.155 2.98218 11.9968 2.60021 11.9968 2.20192C11.9968 1.80364 12.155 1.42167 12.4366 1.14004C12.7182 0.858413 13.1002 0.700195 13.4985 0.700195C13.8968 0.700195 14.2787 0.858413 14.5604 1.14004L23.5594 10.139C23.699 10.2784 23.8099 10.4439 23.8855 10.6261C23.9611 10.8083 24 11.0036 24 11.2009C24 11.3982 23.9611 11.5935 23.8855 11.7758C23.8099 11.958 23.699 12.1235 23.5594 12.2628L14.5604 21.2618C14.2787 21.5434 13.8968 21.7016 13.4985 21.7016C13.1002 21.7016 12.7182 21.5434 12.4366 21.2618C12.155 20.9802 11.9968 20.5982 11.9968 20.1999C11.9968 19.8016 12.155 19.4197 12.4366 19.138L18.8769 12.7007H1.49983C1.10205 12.7007 0.720564 12.5427 0.439291 12.2615C0.158018 11.9802 0 11.5987 0 11.2009Z" fill="url(#paint0_linear_951_19038)"/>
<defs>
<linearGradient id="paint0_linear_951_19038" x1="0" y1="0.700195" x2="20.8158" y2="24.488" gradientUnits="userSpaceOnUse">
<stop stopColor="#FF8345"/>
<stop offset="1" stopColor="#FF5500"/>
</linearGradient>
</defs>
</svg>
