<svg width="24" height="22" viewBox="0 0 24 22" fill="none" xmlns="http://www.w3.org/2000/svg">
<path fillRule="evenodd" clipRule="evenodd" d="M24 11.2009C24 11.5987 23.842 11.9802 23.5607 12.2615C23.2794 12.5427 22.8979 12.7007 22.5002 12.7007H5.12311L11.5634 19.138C11.7028 19.2775 11.8135 19.443 11.8889 19.6252C11.9644 19.8074 12.0032 20.0027 12.0032 20.1999C12.0032 20.3971 11.9644 20.5924 11.8889 20.7746C11.8135 20.9568 11.7028 21.1223 11.5634 21.2618C11.4239 21.4012 11.2584 21.5119 11.0762 21.5873C10.894 21.6628 10.6987 21.7016 10.5015 21.7016C10.3043 21.7016 10.109 21.6628 9.92682 21.5873C9.74462 21.5119 9.57907 21.4012 9.43963 21.2618L0.440632 12.2628C0.300958 12.1235 0.190141 11.958 0.11453 11.7758C0.0389195 11.5935 0 11.3982 0 11.2009C0 11.0036 0.0389195 10.8083 0.11453 10.6261C0.190141 10.4439 0.300958 10.2784 0.440632 10.139L9.43963 1.14004C9.72125 0.858413 10.1032 0.700195 10.5015 0.700195C10.8998 0.700195 11.2818 0.858413 11.5634 1.14004C11.845 1.42167 12.0032 1.80364 12.0032 2.20192C12.0032 2.60021 11.845 2.98218 11.5634 3.2638L5.12311 9.70109H22.5002C22.8979 9.70109 23.2794 9.8591 23.5607 10.1404C23.842 10.4216 24 10.8031 24 11.2009Z" fill="url(#paint0_linear_951_19036)"/>
<defs>
<linearGradient id="paint0_linear_951_19036" x1="0" y1="0.700195" x2="20.8158" y2="24.488" gradientUnits="userSpaceOnUse">
<stop stopColor="#FF8345"/>
<stop offset="1" stopColor="#FF5500"/>
</linearGradient>
</defs>
</svg>
