<svg width="16" height="17" viewBox="0 0 16 17" fill="none" xmlns="http://www.w3.org/2000/svg">
<g clip-path="url(#clip0_5841_44868)">
<path d="M14.4 2.43105H13.6V1.63105C13.6 1.15105 13.28 0.831055 12.8 0.831055C12.32 0.831055 12 1.15105 12 1.63105V2.43105H4V1.63105C4 1.15105 3.68 0.831055 3.2 0.831055C2.72 0.831055 2.4 1.15105 2.4 1.63105V2.43105H0.8C0.4 2.43105 0 2.75105 0 3.23105V14.4311C0 14.9111 0.4 15.2311 0.8 15.2311H5.68C5.12 14.2711 4.8 13.1511 4.8 12.0311C4.8 8.51105 7.68 5.63105 11.2 5.63105C12.72 5.63105 14.08 6.19105 15.2 7.07105V3.23105C15.2 2.83105 14.8 2.43105 14.4 2.43105Z" fill="#50556F"/>
<path d="M11.2004 7.23108C8.56039 7.23108 6.40039 9.39108 6.40039 12.0311C6.40039 14.6711 8.56039 16.8311 11.2004 16.8311C13.8404 16.8311 16.0004 14.6711 16.0004 12.0311C16.0004 9.39108 13.8404 7.23108 11.2004 7.23108ZM12.8004 12.8311H11.2004C10.7204 12.8311 10.4004 12.5111 10.4004 12.0311V9.63108C10.4004 9.15108 10.7204 8.83108 11.2004 8.83108C11.6804 8.83108 12.0004 9.15108 12.0004 9.63108V11.2311H12.8004C13.2804 11.2311 13.6004 11.5511 13.6004 12.0311C13.6004 12.5111 13.2804 12.8311 12.8004 12.8311Z" fill="#50556F"/>
</g>
<defs>
<clipPath id="clip0_5841_44868">
<rect width="16" height="16" fill="white" transform="translate(0 0.831055)"/>
</clipPath>
</defs>
</svg>
