<svg width="16" height="17" viewBox="0 0 16 17" fill="none" xmlns="http://www.w3.org/2000/svg">
  <g clipPath="url(#clip0_891_6358)">
    <path d="M15.5312 6.43587H14.5312C14.2724 6.43587 14.0625 6.64574 14.0625 6.90462V13.7796C14.0625 14.0385 14.2724 14.2484 14.5312 14.2484H15.5312C15.7901 14.2484 16 14.0385 16 13.7796V6.90462C16 6.64574 15.7901 6.43587 15.5312 6.43587Z" fill="#6C7086" />
    <path d="M9.06421 3.47753L9.84546 2.12437C10.0181 1.82543 9.91562 1.44318 9.61668 1.27059L9.07543 0.95809C8.77649 0.785496 8.39424 0.887934 8.22168 1.18687L7.44043 2.54003L9.06421 3.47753Z" fill="#6C7086" />
    <path d="M0.556789 11.4781C0.824633 11.6308 1.16641 11.5311 1.32057 11.2641L5.15123 4.62924C4.79388 4.54434 4.41251 4.61987 4.11241 4.84493L2.78532 5.84024C2.39913 6.1299 2.07826 6.49765 1.84363 6.91952L0.139164 9.9844C-0.15343 10.5105 0.0301013 11.1741 0.551445 11.4751C0.553226 11.4761 0.555008 11.4771 0.556789 11.4781Z" fill="#6C7086" />
    <path d="M3.33591 9.87787H5.36816L8.59466 4.2894L6.97085 3.3519L3.2002 9.88293C3.2451 9.87993 3.29026 9.87787 3.33591 9.87787Z" fill="#6C7086" />
    <path d="M1.51384 12.8047L1.02887 13.6447C1.00606 13.6842 0.989154 13.7268 0.978654 13.7712L0.531436 15.6628C0.445842 16.0249 0.882811 16.2772 1.15356 16.022L2.56819 14.6889C2.60137 14.6577 2.62984 14.6217 2.65265 14.5822L3.03609 13.918C2.36669 13.8184 1.80306 13.3909 1.51384 12.8047Z" fill="#6C7086" />
    <path d="M7.06702 13.9404H4.10599L3.4873 15.0119C3.68624 15.2181 3.96521 15.3466 4.27434 15.3466C4.8784 15.3466 5.36809 14.8569 5.36809 14.2528C5.36809 14.8569 5.85777 15.3466 6.46184 15.3466C7.0659 15.3466 7.55559 14.8569 7.55559 14.2528V14.1814C7.44212 14.1295 7.18227 13.9975 7.06702 13.9404Z" fill="#6C7086" />
    <path d="M8.93141 5.58115L6.45069 9.87787H7.18719C7.44606 9.87787 7.65594 10.0877 7.65594 10.3466C7.65594 10.6055 7.44613 10.8153 7.18725 10.8154H3.33594C2.73188 10.8154 2.24219 11.3051 2.24219 11.9091C2.24219 12.5132 2.73188 13.0029 3.33594 13.0029H7.28744L7.80587 13.2619C8.69306 13.7055 9.68684 13.9403 10.6797 13.9403C11.5023 13.9403 12.3527 13.7787 13.1247 13.4711V7.37777H12.3859L8.93141 5.58115Z" fill="#6C7086" />
  </g>
  <defs>
    <clipPath id="clip0_891_6358">
      <rect width="16" height="16" fill="white" transform="translate(0 0.5)" />
    </clipPath>
  </defs>
</svg>
