<svg width="20" height="20" viewBox="0 0 20 20" fill="none" xmlns="http://www.w3.org/2000/svg">
<path d="M13.9974 7.5H10.6224V11.2L12.3474 9.475C12.4724 9.35 12.6307 9.29167 12.7891 9.29167C12.9474 9.29167 13.1057 9.35 13.2307 9.475C13.4724 9.71667 13.4724 10.1167 13.2307 10.3583L10.4391 13.15C10.1974 13.3917 9.7974 13.3917 9.55573 13.15L6.76406 10.3583C6.5224 10.1167 6.5224 9.71667 6.76406 9.475C7.00573 9.23333 7.40573 9.23333 7.6474 9.475L9.3724 11.2V7.5H5.9974C3.33073 7.5 1.66406 9.16667 1.66406 11.8333V13.9917C1.66406 16.6667 3.33073 18.3333 5.9974 18.3333H13.9891C16.6557 18.3333 18.3224 16.6667 18.3224 14V11.8333C18.3307 9.16667 16.6641 7.5 13.9974 7.5Z" fill="white"/>
<path d="M13.9974 7.5H10.6224V11.2L12.3474 9.475C12.4724 9.35 12.6307 9.29167 12.7891 9.29167C12.9474 9.29167 13.1057 9.35 13.2307 9.475C13.4724 9.71667 13.4724 10.1167 13.2307 10.3583L10.4391 13.15C10.1974 13.3917 9.7974 13.3917 9.55573 13.15L6.76406 10.3583C6.5224 10.1167 6.5224 9.71667 6.76406 9.475C7.00573 9.23333 7.40573 9.23333 7.6474 9.475L9.3724 11.2V7.5H5.9974C3.33073 7.5 1.66406 9.16667 1.66406 11.8333V13.9917C1.66406 16.6667 3.33073 18.3333 5.9974 18.3333H13.9891C16.6557 18.3333 18.3224 16.6667 18.3224 14V11.8333C18.3307 9.16667 16.6641 7.5 13.9974 7.5Z" fill="black" fill-opacity="0.2"/>
<path d="M13.9974 7.5H10.6224V11.2L12.3474 9.475C12.4724 9.35 12.6307 9.29167 12.7891 9.29167C12.9474 9.29167 13.1057 9.35 13.2307 9.475C13.4724 9.71667 13.4724 10.1167 13.2307 10.3583L10.4391 13.15C10.1974 13.3917 9.7974 13.3917 9.55573 13.15L6.76406 10.3583C6.5224 10.1167 6.5224 9.71667 6.76406 9.475C7.00573 9.23333 7.40573 9.23333 7.6474 9.475L9.3724 11.2V7.5H5.9974C3.33073 7.5 1.66406 9.16667 1.66406 11.8333V13.9917C1.66406 16.6667 3.33073 18.3333 5.9974 18.3333H13.9891C16.6557 18.3333 18.3224 16.6667 18.3224 14V11.8333C18.3307 9.16667 16.6641 7.5 13.9974 7.5Z" fill="black" fill-opacity="0.2"/>
<path d="M13.9974 7.5H10.6224V11.2L12.3474 9.475C12.4724 9.35 12.6307 9.29167 12.7891 9.29167C12.9474 9.29167 13.1057 9.35 13.2307 9.475C13.4724 9.71667 13.4724 10.1167 13.2307 10.3583L10.4391 13.15C10.1974 13.3917 9.7974 13.3917 9.55573 13.15L6.76406 10.3583C6.5224 10.1167 6.5224 9.71667 6.76406 9.475C7.00573 9.23333 7.40573 9.23333 7.6474 9.475L9.3724 11.2V7.5H5.9974C3.33073 7.5 1.66406 9.16667 1.66406 11.8333V13.9917C1.66406 16.6667 3.33073 18.3333 5.9974 18.3333H13.9891C16.6557 18.3333 18.3224 16.6667 18.3224 14V11.8333C18.3307 9.16667 16.6641 7.5 13.9974 7.5Z" fill="black" fill-opacity="0.2"/>
<path d="M13.9974 7.5H10.6224V11.2L12.3474 9.475C12.4724 9.35 12.6307 9.29167 12.7891 9.29167C12.9474 9.29167 13.1057 9.35 13.2307 9.475C13.4724 9.71667 13.4724 10.1167 13.2307 10.3583L10.4391 13.15C10.1974 13.3917 9.7974 13.3917 9.55573 13.15L6.76406 10.3583C6.5224 10.1167 6.5224 9.71667 6.76406 9.475C7.00573 9.23333 7.40573 9.23333 7.6474 9.475L9.3724 11.2V7.5H5.9974C3.33073 7.5 1.66406 9.16667 1.66406 11.8333V13.9917C1.66406 16.6667 3.33073 18.3333 5.9974 18.3333H13.9891C16.6557 18.3333 18.3224 16.6667 18.3224 14V11.8333C18.3307 9.16667 16.6641 7.5 13.9974 7.5Z" fill="black" fill-opacity="0.2"/>
<path d="M10.625 2.29102C10.625 1.94935 10.3417 1.66602 10 1.66602C9.65833 1.66602 9.375 1.94935 9.375 2.29102V7.49935H10.625V2.29102Z" fill="white"/>
<path d="M10.625 2.29102C10.625 1.94935 10.3417 1.66602 10 1.66602C9.65833 1.66602 9.375 1.94935 9.375 2.29102V7.49935H10.625V2.29102Z" fill="black" fill-opacity="0.2"/>
<path d="M10.625 2.29102C10.625 1.94935 10.3417 1.66602 10 1.66602C9.65833 1.66602 9.375 1.94935 9.375 2.29102V7.49935H10.625V2.29102Z" fill="black" fill-opacity="0.2"/>
<path d="M10.625 2.29102C10.625 1.94935 10.3417 1.66602 10 1.66602C9.65833 1.66602 9.375 1.94935 9.375 2.29102V7.49935H10.625V2.29102Z" fill="black" fill-opacity="0.2"/>
<path d="M10.625 2.29102C10.625 1.94935 10.3417 1.66602 10 1.66602C9.65833 1.66602 9.375 1.94935 9.375 2.29102V7.49935H10.625V2.29102Z" fill="black" fill-opacity="0.2"/>
</svg>
