<svg width="20" height="20" viewBox="0 0 20 20" fill="none" xmlns="http://www.w3.org/2000/svg">
<path d="M10 12C10.5304 12 11.0391 11.7893 11.4142 11.4142C11.7893 11.0391 12 10.5304 12 10C12 9.46957 11.7893 8.96086 11.4142 8.58579C11.0391 8.21071 10.5304 8 10 8C9.46957 8 8.96086 8.21071 8.58579 8.58579C8.21071 8.96086 8 9.46957 8 10C8 10.5304 8.21071 11.0391 8.58579 11.4142C8.96086 11.7893 9.46957 12 10 12Z" fill="white"/>
<path d="M10 12C10.5304 12 11.0391 11.7893 11.4142 11.4142C11.7893 11.0391 12 10.5304 12 10C12 9.46957 11.7893 8.96086 11.4142 8.58579C11.0391 8.21071 10.5304 8 10 8C9.46957 8 8.96086 8.21071 8.58579 8.58579C8.21071 8.96086 8 9.46957 8 10C8 10.5304 8.21071 11.0391 8.58579 11.4142C8.96086 11.7893 9.46957 12 10 12Z" fill="black" fill-opacity="0.2"/>
<path d="M10 12C10.5304 12 11.0391 11.7893 11.4142 11.4142C11.7893 11.0391 12 10.5304 12 10C12 9.46957 11.7893 8.96086 11.4142 8.58579C11.0391 8.21071 10.5304 8 10 8C9.46957 8 8.96086 8.21071 8.58579 8.58579C8.21071 8.96086 8 9.46957 8 10C8 10.5304 8.21071 11.0391 8.58579 11.4142C8.96086 11.7893 9.46957 12 10 12Z" fill="black" fill-opacity="0.2"/>
<path d="M10 12C10.5304 12 11.0391 11.7893 11.4142 11.4142C11.7893 11.0391 12 10.5304 12 10C12 9.46957 11.7893 8.96086 11.4142 8.58579C11.0391 8.21071 10.5304 8 10 8C9.46957 8 8.96086 8.21071 8.58579 8.58579C8.21071 8.96086 8 9.46957 8 10C8 10.5304 8.21071 11.0391 8.58579 11.4142C8.96086 11.7893 9.46957 12 10 12Z" fill="black" fill-opacity="0.2"/>
<path d="M10 12C10.5304 12 11.0391 11.7893 11.4142 11.4142C11.7893 11.0391 12 10.5304 12 10C12 9.46957 11.7893 8.96086 11.4142 8.58579C11.0391 8.21071 10.5304 8 10 8C9.46957 8 8.96086 8.21071 8.58579 8.58579C8.21071 8.96086 8 9.46957 8 10C8 10.5304 8.21071 11.0391 8.58579 11.4142C8.96086 11.7893 9.46957 12 10 12Z" fill="black" fill-opacity="0.2"/>
<path fill-rule="evenodd" clip-rule="evenodd" d="M0.460938 10C1.73494 5.943 5.52494 3 10.0029 3C14.4809 3 18.2709 5.943 19.5449 10C18.2709 14.057 14.4809 17 10.0029 17C5.52494 17 1.73494 14.057 0.460938 10ZM14.0029 10C14.0029 11.0609 13.5815 12.0783 12.8314 12.8284C12.0812 13.5786 11.0638 14 10.0029 14C8.94207 14 7.92466 13.5786 7.17451 12.8284C6.42436 12.0783 6.00294 11.0609 6.00294 10C6.00294 8.93913 6.42436 7.92172 7.17451 7.17157C7.92466 6.42143 8.94207 6 10.0029 6C11.0638 6 12.0812 6.42143 12.8314 7.17157C13.5815 7.92172 14.0029 8.93913 14.0029 10Z" fill="white"/>
<path fill-rule="evenodd" clip-rule="evenodd" d="M0.460938 10C1.73494 5.943 5.52494 3 10.0029 3C14.4809 3 18.2709 5.943 19.5449 10C18.2709 14.057 14.4809 17 10.0029 17C5.52494 17 1.73494 14.057 0.460938 10ZM14.0029 10C14.0029 11.0609 13.5815 12.0783 12.8314 12.8284C12.0812 13.5786 11.0638 14 10.0029 14C8.94207 14 7.92466 13.5786 7.17451 12.8284C6.42436 12.0783 6.00294 11.0609 6.00294 10C6.00294 8.93913 6.42436 7.92172 7.17451 7.17157C7.92466 6.42143 8.94207 6 10.0029 6C11.0638 6 12.0812 6.42143 12.8314 7.17157C13.5815 7.92172 14.0029 8.93913 14.0029 10Z" fill="black" fill-opacity="0.2"/>
<path fill-rule="evenodd" clip-rule="evenodd" d="M0.460938 10C1.73494 5.943 5.52494 3 10.0029 3C14.4809 3 18.2709 5.943 19.5449 10C18.2709 14.057 14.4809 17 10.0029 17C5.52494 17 1.73494 14.057 0.460938 10ZM14.0029 10C14.0029 11.0609 13.5815 12.0783 12.8314 12.8284C12.0812 13.5786 11.0638 14 10.0029 14C8.94207 14 7.92466 13.5786 7.17451 12.8284C6.42436 12.0783 6.00294 11.0609 6.00294 10C6.00294 8.93913 6.42436 7.92172 7.17451 7.17157C7.92466 6.42143 8.94207 6 10.0029 6C11.0638 6 12.0812 6.42143 12.8314 7.17157C13.5815 7.92172 14.0029 8.93913 14.0029 10Z" fill="black" fill-opacity="0.2"/>
<path fill-rule="evenodd" clip-rule="evenodd" d="M0.460938 10C1.73494 5.943 5.52494 3 10.0029 3C14.4809 3 18.2709 5.943 19.5449 10C18.2709 14.057 14.4809 17 10.0029 17C5.52494 17 1.73494 14.057 0.460938 10ZM14.0029 10C14.0029 11.0609 13.5815 12.0783 12.8314 12.8284C12.0812 13.5786 11.0638 14 10.0029 14C8.94207 14 7.92466 13.5786 7.17451 12.8284C6.42436 12.0783 6.00294 11.0609 6.00294 10C6.00294 8.93913 6.42436 7.92172 7.17451 7.17157C7.92466 6.42143 8.94207 6 10.0029 6C11.0638 6 12.0812 6.42143 12.8314 7.17157C13.5815 7.92172 14.0029 8.93913 14.0029 10Z" fill="black" fill-opacity="0.2"/>
<path fill-rule="evenodd" clip-rule="evenodd" d="M0.460938 10C1.73494 5.943 5.52494 3 10.0029 3C14.4809 3 18.2709 5.943 19.5449 10C18.2709 14.057 14.4809 17 10.0029 17C5.52494 17 1.73494 14.057 0.460938 10ZM14.0029 10C14.0029 11.0609 13.5815 12.0783 12.8314 12.8284C12.0812 13.5786 11.0638 14 10.0029 14C8.94207 14 7.92466 13.5786 7.17451 12.8284C6.42436 12.0783 6.00294 11.0609 6.00294 10C6.00294 8.93913 6.42436 7.92172 7.17451 7.17157C7.92466 6.42143 8.94207 6 10.0029 6C11.0638 6 12.0812 6.42143 12.8314 7.17157C13.5815 7.92172 14.0029 8.93913 14.0029 10Z" fill="black" fill-opacity="0.2"/>
</svg>
