<svg width="32" height="32" viewBox="0 0 32 32" fill="none" xmlns="http://www.w3.org/2000/svg">
<g clipPath="url(#clip0_891_4536)">
<path d="M2.85019 11.3156C2.85019 10.7979 2.43044 10.3781 1.91269 10.3781H0.9375C0.41975 10.3781 0 10.7979 0 11.3156C0 11.8334 0.41975 12.2531 0.9375 12.2531H1.91269C2.43044 12.2531 2.85019 11.8334 2.85019 11.3156Z" fill="#F44336"/>
<path d="M3.33896 3.79012C4.18271 3.79012 4.60308 2.74943 3.97852 2.167L3.26533 1.50187C2.88665 1.14881 2.2934 1.16956 1.94033 1.54812C1.58721 1.92681 1.60796 2.52 1.98658 2.87312C2.56283 3.3435 2.7669 3.79012 3.33896 3.79012Z" fill="#F44336"/>
<path d="M2.6998 18.9618L1.98661 19.6269C1.60793 19.98 1.58724 20.5732 1.9403 20.9519C2.29355 21.3306 2.88668 21.3512 3.26536 20.9982L3.97855 20.3331C4.35724 19.98 4.37793 19.3867 4.02486 19.0081C3.67168 18.6294 3.07849 18.6087 2.6998 18.9618Z" fill="#F44336"/>
<path d="M31.0621 10.2469H30.0869C29.5692 10.2469 29.1494 10.6667 29.1494 11.1844C29.1494 11.7022 29.5692 12.1219 30.0869 12.1219H31.0621C31.5799 12.1219 31.9996 11.7022 31.9996 11.1844C31.9996 10.6667 31.5799 10.2469 31.0621 10.2469Z" fill="#F44336"/>
<path d="M29.3005 18.9618C28.9218 18.6088 28.3286 18.6295 27.9755 19.0081C27.6224 19.3868 27.6431 19.98 28.0218 20.3331L28.735 20.9982C29.1145 21.352 29.7076 21.3297 30.06 20.9519C30.4131 20.5732 30.3924 19.98 30.0137 19.6269L29.3005 18.9618Z" fill="#F44336"/>
<path d="M29.3005 3.53825L30.0137 2.87319C30.3924 2.52007 30.4131 1.92682 30.0599 1.54819C29.7068 1.16957 29.1136 1.14875 28.7349 1.50194L28.0218 2.167C27.6431 2.52013 27.6224 3.11338 27.9755 3.492C28.3287 3.87069 28.9219 3.89132 29.3005 3.53825Z" fill="#F44336"/>
<path d="M10.6875 25.4062C10.6875 26.5724 11.4016 27.5746 12.4152 28H19.5847C20.5984 27.5746 21.3125 26.5724 21.3125 25.4062V24.0625H10.6875V25.4062Z" fill="#F44336"/>
<path d="M12.5625 31.0625C12.5625 31.58 12.9825 32 13.5 32H18.5C19.0175 32 19.4375 31.58 19.4375 31.0625V29.875H12.5625V31.0625Z" fill="#F44336"/>
<path d="M26.8468 11.25C29.5143 8.52693 27.973 3.93418 24.2401 3.33962C23.3029 0.223929 19.5376 -1.01632 16.9375 0.939804V22.5312H19.75C21.8662 22.5312 23.6718 21.1413 24.2494 19.1589C27.962 18.5601 29.5193 13.9782 26.8468 11.25ZM18.8125 5.68749C18.8125 5.16974 19.2322 4.74999 19.75 4.74999C20.2678 4.74999 20.6875 5.16974 20.6875 5.68749C20.6875 6.64755 21.0514 6.82343 21.7764 7.17374C22.4628 7.50537 23.5 8.00649 23.5 9.43749C23.5 9.95524 23.0802 10.375 22.5625 10.375C22.0448 10.375 21.625 9.95524 21.625 9.43749C21.625 9.2318 21.625 9.18293 20.9608 8.86199C20.1573 8.4738 18.8125 7.82405 18.8125 5.68749ZM24.3732 14.5322C23.2939 16.0279 21.6266 16.6485 21.1518 16.6485C20.7439 16.6485 20.3686 16.3802 20.2509 15.9686C20.1085 15.4707 20.3967 14.9518 20.8945 14.8094C21.6695 14.5878 22.37 14.1039 22.8528 13.435C23.1558 13.0151 23.7417 12.9204 24.1616 13.2234C24.5814 13.5264 24.6762 14.1124 24.3732 14.5322Z" fill="#F44336"/>
<path d="M15.0626 22.5312V0.939803C12.4627 -1.01626 8.69723 0.223803 7.7601 3.33962C4.02504 3.93455 2.48698 8.52812 5.15342 11.25C2.47992 13.9791 4.03992 18.5603 7.75079 19.1589C8.33023 21.1478 10.1396 22.5312 12.2502 22.5312H15.0626ZM10.2237 7.17374C10.9487 6.82343 11.3126 6.64762 11.3126 5.68749C11.3126 5.16974 11.7324 4.74999 12.2501 4.74999C12.7679 4.74999 13.1876 5.16974 13.1876 5.68749C13.1876 7.82405 11.8428 8.4738 11.0394 8.86199C10.3751 9.18293 10.3751 9.2318 10.3751 9.43749C10.3751 9.95524 9.95535 10.375 9.4376 10.375C8.91985 10.375 8.5001 9.95524 8.5001 9.43749C8.5001 8.00649 9.53729 7.50537 10.2237 7.17374ZM11.7492 15.9686C11.6315 16.3802 11.2562 16.6485 10.8483 16.6485C10.3592 16.6485 8.80079 16.0327 7.76298 14.7128C7.44292 14.3057 7.51348 13.7164 7.92048 13.3964C8.3276 13.0763 8.91692 13.1469 9.23692 13.5539C9.70385 14.1477 10.3617 14.5967 11.1056 14.8094C11.6035 14.9518 11.8916 15.4707 11.7492 15.9686Z" fill="#F44336"/>
</g>
<defs>
<clipPath id="clip0_891_4536">
<rect width="32" height="32" fill="white"/>
</clipPath>
</defs>
</svg>
