<svg width="32" height="32" viewBox="0 0 32 32" fill="none" xmlns="http://www.w3.org/2000/svg">
<path d="M14.7504 6.26941C13.1679 6.26941 11.2529 6.26941 11.2529 6.26941V20.2538H14.7504V6.26941Z" fill="#6D74E8"/>
<path d="M9.37766 3.38123C9.37766 2.8631 8.95828 2.44373 8.44016 2.44373H2.81641C2.29828 2.44373 1.87891 2.8631 1.87891 3.38123V7.67685H9.37766V3.38123Z" fill="#6D74E8"/>
<path d="M1.87891 9.55188H9.37766V13.1456H1.87891V9.55188Z" fill="#6D74E8"/>
<path d="M1.87891 15.0206H9.37766V20.2538H1.87891V15.0206Z" fill="#6D74E8"/>
<path d="M30.1247 5.25623C30.1247 4.73873 29.7054 4.31873 29.1872 4.31873H23.876V20.2537H30.1247V5.25623ZM27.0004 18.6744C26.4829 18.6744 26.0629 18.2544 26.0629 17.7369C26.0629 17.2187 26.4829 16.7994 27.0004 16.7994C27.5179 16.7994 27.9379 17.2187 27.9379 17.7369C27.9379 18.2544 27.5179 18.6744 27.0004 18.6744ZM27.9379 14.0156C27.9379 14.53 27.5147 14.9531 27.0004 14.9531C26.486 14.9531 26.0629 14.53 26.0629 14.0156V8.38123C26.0629 7.86685 26.486 7.44373 27.0004 7.44373C27.5147 7.44373 27.9379 7.86685 27.9379 8.38123V14.0156Z" fill="#6D74E8"/>
<path d="M22.0012 3.41687C22.0012 2.89937 21.5812 2.47937 21.0637 2.47937H17.5625C17.045 2.47937 16.625 2.89937 16.625 3.41687V20.2537H22.0012V3.41687Z" fill="#6D74E8"/>
<path d="M31.0625 22.1288H0.9375C0.42 22.1288 0 22.5488 0 23.0663V25.8788C0 26.3963 0.42 26.8163 0.9375 26.8163H1.875V28.6188C1.875 29.1369 2.295 29.5563 2.8125 29.5563C3.33 29.5563 3.75 29.1369 3.75 28.6188V26.8163H28.25V28.6188C28.25 29.1369 28.67 29.5563 29.1875 29.5563C29.705 29.5563 30.125 29.1369 30.125 28.6188V26.8163H31.0625C31.58 26.8163 32 26.3963 32 25.8788V23.0663C32 22.5488 31.58 22.1288 31.0625 22.1288Z" fill="#6D74E8"/>
</svg>
