<svg width="32" height="32" viewBox="0 0 32 32" fill="none" xmlns="http://www.w3.org/2000/svg">
<g clipPath="url(#clip0_891_6724)">
<path d="M27.8592 25.7379C27.8597 25.7373 27.8602 25.7368 27.8606 25.7363V24.0288C27.8606 22.4288 26.5588 21.1269 24.9587 21.1269H16.9375C16.9375 20.2623 16.9375 19.3977 16.9375 18.5331H17.555C18.9675 18.5331 20.1169 17.3844 20.1169 15.9719V15.4581H11.8831V15.9719C11.8831 17.3844 13.0325 18.5331 14.4444 18.5331H15.0625V21.1269H7.04125C5.44125 21.1269 4.13938 22.4288 4.13938 24.0288V25.7363C4.13975 25.7368 4.14013 25.7374 4.1405 25.7379C2.83481 26.1424 1.875 27.3669 1.875 28.7981C1.875 30.5546 3.32038 32 5.07688 32C6.83337 32 8.27875 30.5546 8.27875 28.7981C8.27875 27.3664 7.31838 26.1417 6.01206 25.7376C6.01281 25.7372 6.01363 25.7367 6.01438 25.7363V24.0288C6.01438 23.4625 6.475 23.0019 7.04125 23.0019H15.0625V25.7363C15.0627 25.7369 15.0629 25.7375 15.063 25.7381C13.7576 26.1428 12.7981 27.3671 12.7981 28.7981C12.7981 30.5546 14.2435 32 16 32C17.7565 32 19.2019 30.5546 19.2019 28.7981C19.2019 27.3669 18.2423 26.1426 16.9367 25.7381C16.9369 25.7374 16.9373 25.7369 16.9375 25.7363V23.0019H24.9587C25.525 23.0019 25.9856 23.4625 25.9856 24.0288V25.7363C25.9863 25.7368 25.9869 25.7373 25.9876 25.7377C24.6815 26.1419 23.7213 27.3665 23.7213 28.7981C23.7213 30.5546 25.1666 32 26.9231 32C28.6796 32 30.125 30.5546 30.125 28.7981C30.125 27.3668 29.1651 26.1422 27.8592 25.7379Z" fill="#53C749"/>
<path d="M11.186 12.2619C11.5685 12.6169 11.8097 13.0881 11.8685 13.5831H15.0622V8.65063L13.496 7.01937C13.1397 6.64812 13.1516 6.05 13.5229 5.69375C13.8941 5.3375 14.4922 5.34937 14.8485 5.72062L15.9997 6.91937L17.151 5.72062C17.5097 5.34687 18.1035 5.335 18.4766 5.69375C18.8504 6.05188 18.8622 6.64562 18.5035 7.01937L16.9372 8.65063V13.5831H20.131C20.1885 13.0869 20.4235 12.6213 20.7947 12.2794C22.2441 10.9431 23.0754 9.04625 23.0754 7.07562C23.0754 5.17625 22.3329 3.39313 20.9854 2.055C19.6491 0.728125 17.8785 0.00125 15.9997 0H15.9491C12.1097 0.0275 8.95848 3.1725 8.9241 7.01125C8.9066 8.99687 9.73098 10.9106 11.186 12.2619Z" fill="#53C749"/>
</g>
<defs>
<clipPath id="clip0_891_6724">
<rect width="32" height="32" fill="white"/>
</clipPath>
</defs>
</svg>
