<svg width="158" height="159" viewBox="0 0 158 159" fill="none" xmlns="http://www.w3.org/2000/svg">
<path d="M78.7902 159C122.305 159 157.58 123.407 157.58 79.5C157.58 35.5934 122.305 0 78.7902 0C35.2756 0 0 35.5934 0 79.5C0 123.407 35.2756 159 78.7902 159Z" fill="url(#paint0_linear_1452_19727)"/>
<path d="M34.9368 65.4835L14.9173 70.1235L10.9759 46.4288C9.79467 41.3291 12.9909 36.233 18.1145 35.0459C23.238 33.8588 28.3481 37.0295 29.5294 42.1292L34.9377 65.4844L34.9368 65.4835Z" fill="#509DFF"/>
<path d="M78.6249 38.7629L19.3527 47.9875C16.3651 48.4525 14.3205 51.2522 14.7844 54.2411L27.2588 131.984C27.7235 134.973 30.5222 137.018 33.5098 136.554L92.628 128.822C95.6156 128.357 97.6602 125.557 97.1963 122.569L84.8751 43.3331C84.4103 40.3443 81.6116 38.2988 78.624 38.7629H78.6249Z" fill="#606C9C"/>
<path d="M33.4555 133.372L32.6953 133.491L32.8106 134.233L33.5708 134.114L33.4555 133.372Z" fill="#808CBC"/>
<path d="M82.6288 38.1404L23.3566 47.3649C20.369 47.8299 18.3244 50.6297 18.7883 53.6185L31.2627 131.361C31.7275 134.35 34.5261 136.396 37.5137 135.932L96.6319 128.2C99.6195 127.735 101.664 124.935 101.2 121.946L88.879 42.7105C88.4142 39.7217 85.6155 37.6763 82.6279 38.1404H82.6288Z" fill="#808CBC"/>
<path d="M103.251 118.957L52.6532 126.831C45.9033 127.881 39.5976 123.209 38.6358 116.443L28.5355 48.5089C26.6244 36.972 21.8045 34.9839 18.5625 34.8666L73.9686 26.7835C80.7597 25.7943 87.1003 30.403 88.2592 37.17L103.252 118.957H103.251Z" fill="white"/>
<path d="M113.265 101.79L57.3274 109.891C62.6471 113.395 61.5303 124.861 53.6914 126.721L109.013 118.112C116.852 116.252 118.584 105.295 113.265 101.791L113.265 101.79Z" fill="#509DFF"/>
<path d="M71.1321 41.838C71.1903 42.2152 71.0918 42.5798 70.8831 42.8629C70.6771 43.1487 70.3601 43.353 69.983 43.4112L36.9993 48.7689C36.247 48.8854 35.544 48.3711 35.4267 47.6185C35.3685 47.244 35.467 46.8794 35.6765 46.5963C35.8825 46.3105 36.1996 46.1062 36.5766 46.048L69.5603 40.6903C70.3126 40.5738 71.0156 41.0881 71.1321 41.838Z" fill="#D6E0FD"/>
<path d="M53.8457 50.7633C53.9039 51.1378 53.8054 51.5024 53.5968 51.7882C53.3881 52.074 53.0711 52.2783 52.6967 52.3365L38.1321 54.5997C37.3798 54.7161 36.6768 54.2019 36.5595 53.4493C36.5013 53.0739 36.5998 52.7101 36.8094 52.427C37.0153 52.1412 37.3324 51.9369 37.7094 51.8787L52.274 49.6156C53.0263 49.4991 53.7293 50.0134 53.8457 50.7633Z" fill="#D6E0FD"/>
<path d="M76.4875 65.5543C76.5457 65.9315 76.4472 66.2961 76.2386 66.5792C76.0326 66.865 75.7155 67.0693 75.3385 67.1275L42.3548 72.4852C41.6025 72.6017 40.8995 72.0874 40.7821 71.3348C40.7239 70.9603 40.8224 70.5957 41.032 70.3126C41.238 70.0268 41.555 69.8225 41.9321 69.7643L74.9158 64.4066C75.6681 64.2901 76.3711 64.8044 76.4875 65.5543Z" fill="#D6E0FD"/>
<path d="M59.2012 74.4796C59.2594 74.8541 59.1609 75.2187 58.9522 75.5045C58.7436 75.7903 58.4265 75.9946 58.0522 76.0528L43.4876 78.316C42.7353 78.4324 42.0323 77.9182 41.915 77.1656C41.8567 76.7902 41.9553 76.4264 42.1648 76.1433C42.3708 75.8575 42.6878 75.6532 43.0649 75.595L57.6295 73.3319C58.3818 73.2154 59.0848 73.7297 59.2012 74.4796Z" fill="#D6E0FD"/>
<path d="M81.843 89.2711C81.9012 89.6483 81.8027 90.0129 81.594 90.296C81.3881 90.5818 81.071 90.7861 80.694 90.8443L47.7102 96.202C46.958 96.3185 46.2549 95.8042 46.1376 95.0516C46.0794 94.6771 46.1779 94.3125 46.3875 94.0294C46.5935 93.7436 46.9105 93.5393 47.2875 93.4811L80.2713 88.1234C81.0236 88.0069 81.7266 88.5212 81.843 89.2711Z" fill="#D6E0FD"/>
<path d="M64.5567 98.1954C64.6149 98.5699 64.5164 98.9345 64.3077 99.2203C64.099 99.5061 63.782 99.7104 63.4077 99.7687L48.843 102.032C48.0908 102.148 47.3877 101.634 47.2704 100.881C47.2122 100.506 47.3107 100.142 47.5203 99.8591C47.7263 99.5733 48.0433 99.3691 48.4203 99.3108L62.985 97.0477C63.7372 96.9312 64.4402 97.4455 64.5567 98.1954Z" fill="#D6E0FD"/>
<path d="M120.259 53.1901C120.259 53.1901 112.068 53.6139 108.127 52.236C108.127 52.236 107.768 58.8023 107.492 61.8664C107.492 61.8664 101.013 58.9841 95.4004 47.8782C94.0364 45.1769 92.7226 41.9928 91.5656 38.2424C90.7434 35.577 90.001 32.6303 89.375 29.3682L98.5716 28.2886C98.5716 28.2886 99.5003 31.6609 102.003 36.0877C103.163 38.1376 104.662 40.4168 106.565 42.688C109.83 46.5943 114.285 50.4853 120.259 53.1901Z" fill="#FFCD3B"/>
<path d="M106.564 42.688C106.542 42.7193 106.52 42.7507 106.496 42.7803C105.395 43.9253 103.314 44.2478 102.588 44.2675C101.155 44.306 99.6068 44.4575 98.5088 45.3838C97.5443 46.1983 96.9712 47.6264 95.7281 47.8495C95.6206 47.871 95.5078 47.8781 95.4012 47.8781C94.0373 45.1769 92.7235 41.9927 91.5664 38.2424C92.2309 37.3339 93.1793 36.5992 94.2209 36.1745C96.3452 35.3055 98.7498 35.4694 101.008 35.8816C101.339 35.9416 101.671 36.0088 102.004 36.0876C103.164 38.1375 104.663 40.4168 106.566 42.688H106.564Z" fill="#F57F35"/>
<path d="M93.8534 46.0478C93.5632 47.5718 93.222 49.0106 92.8396 50.3715C89.2081 63.4316 82.1779 69.1476 82.1779 69.1476C81.4238 66.1633 80.0366 59.7367 80.0366 59.7367C76.3621 61.7177 68.207 62.5903 68.207 62.5903C74.9623 58.1321 79.1527 52.2503 81.7292 47.0288C84.0451 42.3413 85.0598 38.1833 85.4646 36.0662C85.6482 35.121 85.7082 34.5816 85.7082 34.5816L94.9603 34.2026C94.946 38.599 94.5287 42.5402 93.8534 46.0478Z" fill="#FFCD3B"/>
<path d="M93.8517 46.0479C93.5615 47.5719 93.2203 49.0108 92.8379 50.3717C92.4662 50.4523 92.0184 50.3842 91.5205 50.3815C90.153 50.3771 88.8392 50.8609 87.4797 50.9334C86.2975 50.9979 84.9918 50.6897 84.2897 49.7392C83.8249 49.1102 83.6762 48.277 83.1425 47.7081C82.7627 47.304 82.2675 47.1006 81.7266 47.0299C84.0425 42.3423 85.0572 38.1843 85.462 36.0672C85.7226 36.0206 85.9841 35.9767 86.2465 35.9409C87.9714 35.7035 89.8753 35.7608 91.2491 36.8314C92.657 37.9245 93.171 39.8024 93.4495 41.5638C93.6699 42.9354 93.7979 44.3206 93.8382 45.7084C93.8409 45.8186 93.8454 45.9305 93.8508 46.0488L93.8517 46.0479Z" fill="#F57F35"/>
<path d="M107.849 31.41C106.883 32.3212 106.442 33.6767 106.691 34.9812C107.069 36.9675 106.576 39.1016 105.162 40.7591C103.748 42.4166 101.719 43.2399 99.6986 43.179C98.3714 43.1387 97.1033 43.7864 96.3563 44.8849C95.2199 46.5558 93.3634 47.7142 91.1934 47.8862C89.0234 48.0583 87.0075 47.2062 85.6221 45.7351C84.7113 44.7684 83.3572 44.3285 82.0523 44.5767C80.066 44.9547 77.9336 44.4611 76.2768 43.0473C74.62 41.6335 73.797 39.6042 73.8579 37.5821C73.8973 36.2543 73.2498 34.9848 72.1518 34.2376C70.4816 33.1007 69.3227 31.2434 69.1508 29.0725C68.9788 26.9008 69.8314 24.884 71.3028 23.4971C72.2692 22.5869 72.708 21.2322 72.4599 19.9277C72.082 17.9415 72.5763 15.8073 73.9896 14.1499C75.4028 12.4924 77.4312 11.669 79.4525 11.7299C80.7797 11.7694 82.0488 11.1216 82.7957 10.0232C83.9321 8.35228 85.7887 7.19294 87.9586 7.02092C90.1286 6.8489 92.1445 7.70183 93.529 9.17296C94.4398 10.1397 95.7948 10.5805 97.0988 10.3314C99.0842 9.95331 101.217 10.447 102.874 11.8617C104.531 13.2763 105.354 15.3047 105.294 17.3259C105.255 18.6528 105.901 19.9215 106.998 20.6687C108.67 21.8065 109.828 23.6638 110 25.8355C110.172 28.0064 109.32 30.0231 107.849 31.4082V31.41Z" fill="#538FFF"/>
<path d="M99.6423 37.5262C105.202 31.9641 105.202 22.9461 99.6423 17.384C94.0825 11.8219 85.0682 11.8219 79.5084 17.384C73.9485 22.9461 73.9485 31.9641 79.5084 37.5262C85.0682 43.0883 94.0825 43.0883 99.6423 37.5262Z" fill="#3E7ADB"/>
<path d="M100.443 34.4257C98.3888 37.5704 94.9534 39.76 90.9233 40.079C84.0123 40.6282 77.9681 35.4667 77.4227 28.5564C77.1173 24.6994 78.5869 21.113 81.1446 18.6017C83.1731 16.6073 85.8858 15.2903 88.9415 15.0502C95.8526 14.5019 101.897 19.6625 102.442 26.5728C102.67 29.4532 101.909 32.1831 100.443 34.4257Z" fill="white"/>
<path d="M100.443 34.4255C98.3888 37.5703 94.9534 39.7599 90.9233 40.0789C84.0123 40.6281 77.9681 35.4666 77.4227 28.5563C77.1173 24.6993 78.5869 21.1129 81.1446 18.6016C81.0614 19.1579 80.8366 19.7125 80.636 20.2187C80.0529 21.68 79.8067 23.2622 79.8837 24.8328C79.9697 26.6022 80.464 28.361 81.3497 29.8966C83.5331 33.6739 86.124 37.0847 90.4693 37.4359C92.8426 37.6258 96.938 36.2031 99.0891 35.1835C99.5548 34.964 100.01 34.7096 100.443 34.4264V34.4255Z" fill="#D6E0FD"/>
<path d="M95.8119 27.0117C95.6274 27.3352 95.614 27.7294 95.777 28.0662L97.4839 31.5998C97.8905 32.4456 97.1526 33.3935 96.2346 33.2026L92.3926 32.4079C92.0604 32.3407 91.7183 32.4241 91.4585 32.6301C91.4317 32.6516 91.4048 32.6758 91.3779 32.7L88.5444 35.4165C87.8673 36.0669 86.738 35.6575 86.6341 34.723L86.2033 30.8203C86.1604 30.4512 85.9409 30.1242 85.6123 29.9477L82.1554 28.0931C81.3288 27.6487 81.3691 26.4473 82.2252 26.0611L85.7994 24.4449C86.1389 24.2899 86.3825 23.979 86.4469 23.6126L87.1428 19.7502C87.167 19.614 87.2153 19.4877 87.2789 19.3784C87.6398 18.7494 88.5578 18.5971 89.096 19.1884L91.7371 22.0895C91.9887 22.3654 92.3604 22.4989 92.7293 22.4478L96.617 21.9183C97.5457 21.7893 98.2201 22.7856 97.7544 23.6018L95.8119 27.0117Z" fill="#FFCD3B"/>
<path d="M119.69 125.016C119.58 125.016 119.472 124.97 119.394 124.885C119.279 124.759 119.257 124.574 119.336 124.425C119.356 124.385 119.419 124.221 119.48 124.064C121.397 119.106 123.504 116.091 125.743 115.104C127.443 114.355 128.978 114.506 129.849 115.508C130.595 116.369 130.663 117.647 130.016 118.688C128.477 121.165 120.202 124.829 119.851 124.983C119.799 125.006 119.744 125.017 119.689 125.017L119.69 125.016ZM127.77 115.427C127.266 115.427 126.689 115.563 126.067 115.837C124.106 116.702 122.211 119.391 120.433 123.834C122.64 122.804 128.205 120.08 129.334 118.263C129.794 117.523 129.757 116.627 129.243 116.034C128.893 115.63 128.386 115.427 127.771 115.427H127.77Z" fill="black"/>
<path d="M118.876 124.489C118.866 124.489 118.856 124.489 118.845 124.488C114.126 124.131 108.706 118.576 108.105 114.691C107.86 113.104 108.453 111.937 109.777 111.405C114.749 109.404 120.524 122.842 120.767 123.415C120.811 123.518 120.81 123.635 120.764 123.737C120.718 123.839 120.632 123.917 120.526 123.953L119.005 124.468C118.964 124.482 118.92 124.489 118.876 124.489V124.489ZM110.833 112.004C110.575 112.004 110.322 112.05 110.076 112.15C109.107 112.539 108.71 113.353 108.898 114.568C109.442 118.084 114.528 123.296 118.827 123.68L119.857 123.332C118.251 119.691 114.137 112.005 110.834 112.005L110.833 112.004Z" fill="black"/>
<path d="M122.276 122.935L120.855 155.906L109.057 155.182L101.663 154.73L91.5664 154.111L92.8578 124.162L102.999 123.739L110.426 123.431L122.276 122.935Z" fill="#FFCD3B"/>
<path d="M143.631 126.048L142.339 156L132.006 155.956L131.189 155.95L120.855 155.905L122.277 122.935L129.272 123.955L132.547 124.432L133.36 124.551L136.638 125.029L143.631 126.048Z" fill="#F57F35"/>
<path d="M109.743 139.24L110.424 123.43L102.998 123.739L102.344 138.92L109.743 139.24Z" fill="#F57F35"/>
<path d="M136.635 125.029L136.371 131.17L128.922 132.019L129.269 123.955L136.635 125.029Z" fill="#FFCD3B"/>
<path d="M133.359 124.551L132.005 155.956L131.188 155.95L132.546 124.432L133.359 124.551Z" fill="#FFCD3B"/>
<path d="M95.8142 27.0116C95.6297 27.335 95.6163 27.7292 95.7793 28.0661L97.4862 31.5996C97.8928 32.4454 97.1549 33.3933 96.2369 33.2025L92.3949 32.4078C92.0627 32.3406 91.7206 32.4239 91.4609 32.63C91.5683 32.0942 91.7501 31.5513 92.2158 31.2941C92.772 30.9886 93.4517 31.2457 94.067 31.4061C94.6822 31.5665 95.4981 31.5289 95.7497 30.9456C95.902 30.5926 95.7659 30.1751 95.5438 29.8615C95.3217 29.5462 95.0216 29.2944 94.7924 28.9862C94.0804 28.0383 94.1959 26.569 95.044 25.742C95.3888 25.4043 95.8303 25.1722 96.1411 24.8049C96.4519 24.4358 96.5907 23.8382 96.2584 23.4905C95.8894 23.1026 95.25 23.271 94.7574 23.4825C93.6362 23.9618 92.3761 24.5209 91.2468 24.0604C90.1578 23.6187 89.6384 22.4118 89.1064 21.3627C88.6945 20.5519 88.0846 19.6981 87.2812 19.3764C87.6422 18.7475 88.5601 18.5952 89.0984 19.1865L91.7394 22.0875C91.991 22.3635 92.3627 22.497 92.7317 22.4459L96.6193 21.9164C97.548 21.7874 98.2224 22.7837 97.7567 23.5998L95.8142 27.0098V27.0116Z" fill="#F57F35"/>
<path d="M117.756 79.2226C117.837 79.0658 125.029 69.9909 126.285 69.4784C127.54 68.966 135.051 66.1545 139.009 67.9724C142.967 69.7902 141.922 73.8649 141.922 73.8649C141.922 73.8649 143.294 74.4473 143.812 76.0895C144.33 77.7318 143.601 79.1957 143.601 79.1957C143.601 79.1957 145.769 81.9964 144.357 84.3966C142.946 86.7968 133.73 94.4024 125.286 92.3552L117.765 81.4813L117.102 80.3282L117.755 79.2217L117.756 79.2226Z" fill="#FBA986"/>
<path d="M141.922 73.8656C141.922 73.8656 142.04 75.3296 138.973 76.7183C135.905 78.1078 132.387 78.029 131.925 75.8178C131.464 73.6067 134 71.7216 137.25 71.0972" fill="#FBA986"/>
<path d="M135.047 77.7808C134.256 77.7808 133.551 77.6428 132.997 77.3615C132.35 77.0327 131.934 76.5077 131.796 75.8447C131.642 75.1073 131.796 74.3861 132.251 73.7016C133.103 72.4231 134.962 71.4009 137.225 70.9654C137.299 70.9511 137.367 70.9986 137.382 71.0721C137.395 71.1446 137.348 71.2145 137.276 71.2288C135.082 71.6508 133.286 72.6301 132.474 73.8503C132.059 74.473 131.92 75.1262 132.059 75.79C132.181 76.3796 132.539 76.8275 133.119 77.1232C134.426 77.7871 136.757 77.5756 138.92 76.5964C141.868 75.2614 141.792 73.8898 141.791 73.8763C141.784 73.8029 141.84 73.7384 141.913 73.7321C141.989 73.7267 142.051 73.7805 142.058 73.8548C142.063 73.9184 142.148 75.429 139.031 76.8401C137.661 77.4601 136.255 77.7808 135.049 77.7808H135.047Z" fill="#EF9672"/>
<path d="M143.601 79.1956C143.601 79.1956 141.886 81.0851 139.561 81.7947C137.236 82.5042 134.16 82.3788 133.674 80.7527C133.123 78.9062 134.404 77.8526 134.893 77.6411" fill="#FBA986"/>
<path d="M136.86 82.3368C135.92 82.3368 135.074 82.1782 134.487 81.8637C133.995 81.6003 133.679 81.2393 133.545 80.7913C133.002 78.9761 134.183 77.8025 134.839 77.5185C134.907 77.4889 134.985 77.5202 135.015 77.5883C135.044 77.6564 135.013 77.7353 134.945 77.7639C134.566 77.9279 133.261 78.9089 133.801 80.7143C133.914 81.0914 134.187 81.3987 134.613 81.6272C135.689 82.2042 137.707 82.2203 139.521 81.6666C141.782 80.9768 143.484 79.124 143.501 79.1052C143.551 79.0505 143.635 79.0469 143.69 79.0962C143.745 79.1464 143.749 79.2306 143.699 79.2852C143.628 79.3632 141.932 81.2106 139.599 81.9229C138.694 82.1988 137.736 82.3368 136.86 82.3368Z" fill="#EF9672"/>
<path d="M144.705 82.0791C144.705 82.0791 145.571 84.4336 140.678 85.816C135.784 87.1985 134.582 84.0466 134.782 83.2949C134.982 82.5432 135.726 82.1194 135.726 82.1194" fill="#FBA986"/>
<path d="M138.411 86.3001C136.938 86.3001 136.027 85.7733 135.481 85.2348C134.749 84.5136 134.554 83.6311 134.653 83.2611C134.865 82.4646 135.627 82.022 135.659 82.0041C135.724 81.9673 135.805 81.9897 135.841 82.0543C135.878 82.1188 135.855 82.2003 135.792 82.237C135.785 82.2406 135.093 82.6438 134.911 83.3301C134.841 83.5971 134.989 84.3747 135.669 85.044C136.406 85.7706 137.866 86.4721 140.641 85.6882C143.128 84.9858 144.063 84.0361 144.411 83.3632C144.768 82.6716 144.588 82.1474 144.58 82.125C144.555 82.056 144.591 81.979 144.661 81.9539C144.73 81.9288 144.807 81.9638 144.832 82.0336C144.841 82.0596 145.061 82.6787 144.654 83.4752C144.118 84.5279 142.792 85.3585 140.715 85.9453C139.825 86.1962 139.063 86.2992 138.412 86.2992L138.411 86.3001Z" fill="#EF9672"/>
<path d="M135.047 78.0452C134.212 78.0452 133.465 77.8992 132.877 77.6C132.154 77.2326 131.69 76.6449 131.535 75.8995C131.368 75.1003 131.539 74.2895 132.029 73.553C132.919 72.2163 134.843 71.151 137.175 70.7022C137.392 70.6601 137.603 70.8034 137.645 71.0211C137.687 71.2388 137.545 71.4494 137.327 71.4915C135.202 71.9 133.471 72.8372 132.697 73.9983C132.324 74.5592 132.196 75.1433 132.32 75.7355C132.426 76.2408 132.735 76.6279 133.24 76.8841C134.478 77.5131 136.715 77.2998 138.808 76.3519C141.498 75.1335 141.524 73.9087 141.523 73.8971C141.505 73.6758 141.67 73.4822 141.89 73.4643C142.107 73.4464 142.305 73.6113 142.323 73.8317C142.337 74.01 142.371 75.619 139.139 77.083C137.738 77.7173 136.294 78.0443 135.046 78.0443L135.047 78.0452Z" fill="#EF9672"/>
<path d="M136.828 82.6089C135.915 82.6089 135.036 82.4611 134.363 82.1001C133.807 81.8017 133.446 81.3878 133.291 80.8681C132.697 78.8801 134.007 77.5872 134.735 77.2728C134.939 77.185 135.175 77.2781 135.263 77.4824C135.351 77.6858 135.257 77.9223 135.053 78.0101C134.721 78.1544 133.576 79.0216 134.06 80.6379C134.151 80.9443 134.382 81.1979 134.742 81.3914C135.76 81.937 137.693 81.9451 139.445 81.4102C141.632 80.7427 143.289 78.9428 143.306 78.9249C143.455 78.7609 143.709 78.7493 143.873 78.898C144.037 79.0467 144.049 79.3012 143.9 79.4651C143.827 79.5458 142.083 81.4451 139.68 82.1789C138.831 82.4378 137.81 82.6089 136.829 82.6089H136.828Z" fill="#EF9672"/>
<path d="M138.409 86.5682C136.849 86.5682 135.877 86.002 135.293 85.4259C134.525 84.668 134.256 83.7102 134.394 83.1924C134.634 82.2884 135.49 81.792 135.527 81.7714C135.719 81.6621 135.965 81.7293 136.074 81.9219C136.184 82.1146 136.116 82.36 135.924 82.4693C135.919 82.472 135.322 82.8241 135.169 83.3984C135.122 83.574 135.258 84.2639 135.856 84.8534C136.542 85.5299 137.917 86.1794 140.567 85.4304C142.943 84.7594 143.833 83.8795 144.161 83.2596C144.472 82.6718 144.331 82.2319 144.325 82.2131C144.256 82.0053 144.365 81.7768 144.572 81.7042C144.779 81.6317 145.005 81.7356 145.081 81.9416C145.109 82.0178 145.341 82.713 144.891 83.5973C144.32 84.719 142.938 85.5962 140.786 86.2036C139.872 86.4616 139.085 86.5682 138.409 86.5682Z" fill="#EF9672"/>
<path d="M117.102 80.3278C117.102 80.3278 119.814 76.4994 118.659 73.1146C118.093 71.4553 116.962 69.3051 115.956 67.5446C114.889 65.6766 115.417 63.3023 117.174 62.0606C119.125 60.6799 121.832 61.2157 123.114 63.2342C125.363 66.7768 127.922 71.3917 130.566 70.9249" fill="#FBA986"/>
<path d="M130.181 71.3615C127.724 71.3615 125.557 67.8933 123.456 64.5327C123.227 64.1654 123.001 63.8025 122.777 63.4513C122.216 62.5679 121.343 61.9703 120.318 61.7687C119.294 61.5672 118.26 61.7876 117.407 62.3905C117.226 62.5186 116.975 62.4756 116.847 62.2947C116.719 62.1137 116.762 61.8628 116.943 61.7347C117.976 61.0036 119.229 60.7357 120.472 60.9803C121.715 61.2258 122.774 61.9497 123.453 63.0204C123.678 63.3743 123.905 63.738 124.135 64.1071C126.126 67.2931 128.379 70.9046 130.497 70.531C130.714 70.4933 130.923 70.6385 130.961 70.8571C131 71.0757 130.854 71.2836 130.635 71.3221C130.482 71.349 130.33 71.3624 130.179 71.3624L130.181 71.3615Z" fill="#EF9672"/>
<path d="M126.192 97.9315L124.621 98.8507C123.165 99.7037 121.428 99.6481 120.065 98.8507C119.417 98.4753 118.854 97.9288 118.449 97.2354L110.35 83.4004C110.286 83.2911 110.228 83.1827 110.174 83.0707C109.167 80.9733 109.921 78.419 111.963 77.2229L113.532 76.3046C115.683 75.0449 118.446 75.767 119.705 77.9191L127.804 91.7541C129.065 93.9052 128.341 96.67 126.193 97.9306L126.192 97.9315Z" fill="#808CBC"/>
<path d="M126.191 97.9315L124.62 98.8507C123.164 99.7037 121.427 99.6481 120.064 98.8507C120.396 98.7405 120.782 98.6958 121.121 98.6832C123.017 98.6053 125.187 98.1869 126.119 96.5339C126.631 95.6254 126.646 94.5019 126.384 93.4931C126.124 92.4833 125.612 91.5596 125.104 90.6476C123.603 87.9544 122.102 85.2603 120.601 82.5672C119.909 81.3254 119.153 80.0227 117.907 79.3418C116.386 78.5104 114.419 78.8374 112.995 79.8229C112.243 80.3426 111.621 81.0226 111.107 81.7743C110.833 82.1747 110.563 82.7159 110.174 83.0707C109.167 80.9733 109.921 78.419 111.963 77.2229L113.532 76.3046C115.683 75.0449 118.446 75.767 119.705 77.9191L127.804 91.7541C129.065 93.9052 128.341 96.67 126.193 97.9306L126.191 97.9315Z" fill="#606C9C"/>
<path d="M128.447 47.85C128.358 47.85 128.268 47.8196 128.197 47.7622C127.788 47.4352 126.629 46.5375 126.174 46.3198C125.719 46.1012 124.294 45.7589 123.783 45.6452C123.648 45.6147 123.538 45.517 123.491 45.3862C123.446 45.2554 123.47 45.1103 123.557 45.0019C123.884 44.5933 124.781 43.4331 124.999 42.978C125.217 42.5228 125.56 41.0974 125.674 40.5858C125.704 40.4505 125.802 40.3403 125.933 40.2946C126.063 40.2489 126.209 40.2731 126.317 40.36C126.725 40.6871 127.884 41.5848 128.338 41.8034C128.793 42.022 130.218 42.3651 130.729 42.4789C130.865 42.5094 130.975 42.607 131.02 42.7378C131.066 42.8687 131.042 43.0138 130.955 43.1222C130.628 43.5307 129.731 44.6901 129.513 45.1443C129.295 45.5995 128.953 47.0249 128.839 47.5356C128.808 47.6709 128.711 47.7811 128.58 47.8267C128.537 47.842 128.491 47.8491 128.447 47.8491L128.447 47.85ZM124.574 45.0046C125.196 45.156 126.108 45.397 126.521 45.595C126.934 45.793 127.693 46.3547 128.2 46.7445C128.352 46.1227 128.593 45.2097 128.79 44.7967C128.988 44.3837 129.55 43.6248 129.939 43.1177C129.318 42.9654 128.405 42.7244 127.993 42.5264C127.58 42.3284 126.821 41.7667 126.314 41.3769C126.162 41.9987 125.921 42.9117 125.723 43.3247C125.525 43.7377 124.964 44.4966 124.574 45.0046Z" fill="#509DFF"/>
<path d="M49.068 22.6332C48.9937 22.6332 48.9194 22.6126 48.8549 22.5714C48.7376 22.4979 48.6668 22.3689 48.6668 22.2301C48.6686 21.6558 48.6471 20.0467 48.5235 19.5046C48.3999 18.9626 47.7211 17.504 47.4703 16.988C47.4094 16.8634 47.4175 16.7165 47.4909 16.5991C47.5644 16.4818 47.7032 16.4029 47.8321 16.411C48.4008 16.4128 50.0146 16.3913 50.5565 16.2676C51.0983 16.144 52.5572 15.4658 53.073 15.2149C53.1975 15.154 53.3444 15.162 53.4617 15.2364C53.579 15.3108 53.6498 15.4389 53.6489 15.5778C53.6462 16.152 53.6677 17.7602 53.7913 18.3023C53.9148 18.8443 54.5928 20.3038 54.8435 20.8208C54.9035 20.9453 54.8964 21.0922 54.8221 21.2096C54.7486 21.3261 54.6205 21.3977 54.4826 21.3977C54.4629 21.3977 54.4226 21.3977 54.3895 21.3977C53.7518 21.3977 52.2733 21.4219 51.7574 21.5402C51.2156 21.6638 49.7576 22.3429 49.2418 22.5938C49.1862 22.6207 49.1262 22.6341 49.0662 22.6341L49.068 22.6332ZM48.4635 17.2101C48.7573 17.8445 49.1925 18.8273 49.3063 19.3263C49.42 19.8263 49.4549 20.9005 49.4648 21.5993C50.0988 21.3055 51.0813 20.8709 51.5801 20.7563C52.0798 20.6425 53.1536 20.6075 53.8513 20.5977C53.5575 19.9634 53.1232 18.9796 53.0094 18.4806C52.8957 17.9806 52.8617 16.9064 52.8509 16.2085C52.2168 16.5024 51.2344 16.9369 50.7347 17.0507C50.235 17.1645 49.1612 17.1994 48.4626 17.2101H48.4635Z" fill="#86BB6B"/>
<path d="M78.9674 145.651C78.8779 145.651 78.7883 145.621 78.7167 145.564C78.3083 145.236 77.1485 144.339 76.6936 144.121C76.2386 143.902 74.8138 143.56 74.3033 143.446C74.1681 143.416 74.0579 143.318 74.0113 143.188C73.9648 143.057 73.9898 142.912 74.0767 142.803C74.4036 142.395 75.301 141.234 75.5186 140.779C75.7371 140.324 76.0801 138.899 76.1938 138.387C76.2243 138.252 76.3219 138.142 76.4527 138.096C76.5834 138.05 76.7285 138.074 76.8368 138.161C77.2452 138.488 78.4041 139.386 78.8581 139.605C79.3131 139.823 80.7379 140.166 81.2493 140.28C81.3845 140.311 81.4947 140.408 81.5404 140.539C81.586 140.67 81.5619 140.815 81.475 140.923C81.1481 141.332 80.2508 142.491 80.0331 142.946C79.8146 143.401 79.4725 144.826 79.3588 145.337C79.3283 145.472 79.2307 145.582 79.0999 145.628C79.057 145.643 79.0113 145.65 78.9665 145.65L78.9674 145.651ZM75.0941 142.806C75.7156 142.957 76.6282 143.197 77.041 143.396C77.4539 143.594 78.2133 144.156 78.7202 144.546C78.8716 143.924 79.1125 143.011 79.3104 142.598C79.5083 142.185 80.0698 141.426 80.4594 140.919C79.8379 140.767 78.9253 140.526 78.5125 140.328C78.0996 140.13 77.3411 139.568 76.8342 139.178C76.6819 139.8 76.441 140.713 76.2431 141.126C76.0452 141.539 75.4836 142.298 75.0941 142.806Z" fill="#FF4A60"/>
<path d="M138.245 103.638C138.155 103.638 138.066 103.608 137.994 103.55C137.649 103.274 136.67 102.516 136.29 102.334C135.909 102.152 134.707 101.863 134.276 101.767C134.14 101.737 134.03 101.639 133.984 101.508C133.938 101.378 133.962 101.232 134.049 101.124C134.325 100.779 135.082 99.7999 135.265 99.4191C135.448 99.0384 135.737 97.8351 135.834 97.4042C135.864 97.2689 135.962 97.1587 136.093 97.113C136.223 97.0673 136.368 97.0915 136.477 97.1784C136.822 97.4552 137.8 98.2123 138.179 98.3951C138.56 98.5778 139.763 98.8672 140.193 98.964C140.329 98.9945 140.439 99.0921 140.485 99.2229C140.53 99.3537 140.506 99.4989 140.419 99.6073C140.143 99.9522 139.386 100.93 139.204 101.31C139.021 101.691 138.732 102.894 138.636 103.325C138.606 103.461 138.508 103.571 138.377 103.617C138.334 103.632 138.289 103.639 138.244 103.639L138.245 103.638ZM135.065 101.127C135.589 101.257 136.302 101.448 136.636 101.61C136.971 101.77 137.568 102.206 137.997 102.534C138.126 102.009 138.318 101.296 138.479 100.961C138.64 100.626 139.076 100.03 139.404 99.6001C138.879 99.4702 138.166 99.2776 137.831 99.1172C137.496 98.9568 136.9 98.5205 136.471 98.1926C136.341 98.7176 136.148 99.4308 135.988 99.7659C135.828 100.101 135.391 100.698 135.064 101.127H135.065Z" fill="#B078A7"/>
<defs>
<linearGradient id="paint0_linear_1452_19727" x1="78.7902" y1="0" x2="78.7902" y2="159" gradientUnits="userSpaceOnUse">
<stop stop-color="white" stop-opacity="0"/>
<stop offset="1" stop-color="#D9E8FF"/>
</linearGradient>
</defs>
</svg>
