<svg width="26" height="32" viewBox="0 0 26 32" fill="none" xmlns="http://www.w3.org/2000/svg">
<path d="M9.93768 14.4994C10.3964 14.9581 10.8708 15.3869 11.3521 15.7825C11.0089 15.9713 10.6702 16.1356 10.3396 16.2694C9.25518 16.7081 8.33643 16.7744 7.99956 16.4375C7.66268 16.1006 7.72893 15.1819 8.16768 14.0975C8.30143 13.7669 8.46581 13.4281 8.65456 13.085C9.05018 13.5663 9.47893 14.0406 9.93768 14.4994Z" fill="#235CD0"/>
<path d="M8.16768 8.77748C7.72893 7.69311 7.66268 6.77436 7.99956 6.43748C8.33643 6.10061 9.25518 6.16686 10.3396 6.60561C10.6702 6.73936 11.0089 6.90373 11.3521 7.09248C10.8708 7.48811 10.3964 7.91686 9.93768 8.37561C9.47893 8.83436 9.05018 9.30873 8.65456 9.78998C8.46581 9.44686 8.30143 9.10811 8.16768 8.77748Z" fill="#235CD0"/>
<path d="M14.7365 9.70124C14.1727 9.13812 13.5884 8.62687 13.0002 8.17749C12.4121 8.62687 11.8277 9.13812 11.264 9.70124C10.7009 10.265 10.1896 10.8494 9.74023 11.4375C10.1896 12.0256 10.7009 12.61 11.264 13.1737C11.8277 13.7369 12.4121 14.2481 13.0002 14.6975C13.5884 14.2481 14.1727 13.7369 14.7365 13.1737C15.2996 12.61 15.8109 12.0256 16.2602 11.4375C15.8109 10.8494 15.2996 10.265 14.7365 9.70124ZM13.0002 12.375C12.4827 12.375 12.0627 11.9556 12.0627 11.4375C12.0627 10.92 12.4827 10.5 13.0002 10.5C13.5177 10.5 13.9377 10.92 13.9377 11.4375C13.9377 11.9556 13.5177 12.375 13.0002 12.375Z" fill="#235CD0"/>
<path d="M17.8318 14.0975C18.2706 15.1819 18.3368 16.1006 18 16.4375C17.6631 16.7744 16.7443 16.7081 15.66 16.2694C15.3293 16.1356 14.9906 15.9713 14.6475 15.7825C15.1287 15.3869 15.6031 14.9581 16.0618 14.4994C16.5206 14.0406 16.9493 13.5663 17.345 13.085C17.5337 13.4281 17.6981 13.7669 17.8318 14.0975Z" fill="#235CD0"/>
<path d="M18 6.4375C18.3368 6.77438 18.2706 7.69313 17.8318 8.7775C17.6981 9.10813 17.5337 9.44688 17.345 9.79C16.9493 9.30875 16.5206 8.83438 16.0618 8.37563C15.6031 7.91688 15.1287 7.48813 14.6475 7.0925C14.9906 6.90375 15.3293 6.73938 15.66 6.60563C16.2837 6.35313 16.8531 6.22375 17.2881 6.22375C17.6087 6.22375 17.8568 6.29438 18 6.4375Z" fill="#235CD0"/>
<path d="M24.5606 0H4.8925C2.47062 0 0.5 1.96688 0.5 4.38438V23.8394C1.23937 23.3081 2.14625 22.995 3.125 22.995H25.5V0.9375C25.5 0.42 25.0794 0 24.5606 0ZM19.5694 13.3938C20.3362 15.2875 20.25 16.8394 19.3256 17.7631C18.8188 18.2706 18.1225 18.5256 17.2844 18.5256C16.5956 18.5256 15.8106 18.3531 14.9562 18.0069C14.32 17.7494 13.6613 17.4025 13 16.9819C12.3387 17.4025 11.68 17.7494 11.0437 18.0069C10.1894 18.3531 9.40438 18.5256 8.71562 18.5256C7.8775 18.5256 7.18125 18.2706 6.67437 17.7631C5.75 16.8394 5.66375 15.2875 6.43062 13.3938C6.68813 12.7575 7.035 12.0988 7.45562 11.4375C7.035 10.7762 6.68813 10.1175 6.43062 9.48125C5.66375 7.5875 5.75 6.03562 6.67437 5.11188C7.59812 4.1875 9.15 4.10125 11.0437 4.86812C11.68 5.12563 12.3387 5.4725 13 5.89313C13.6613 5.4725 14.32 5.12563 14.9562 4.86812C16.85 4.10125 18.4019 4.1875 19.3256 5.11188C20.25 6.03562 20.3362 7.5875 19.5694 9.48125C19.3119 10.1175 18.965 10.7762 18.5444 11.4375C18.965 12.0988 19.3119 12.7575 19.5694 13.3938Z" fill="#235CD0"/>
<path d="M12.8291 29.1726H24.6322C25.1112 29.1726 25.5 28.7844 25.5 28.3063V24.8701H12.8291V29.1726Z" fill="#235CD0"/>
<path d="M5.59088 31.2697C5.59076 31.5444 5.74595 31.7969 5.99132 31.9212C6.23682 32.0455 6.53263 32.0214 6.75463 31.8589L8.27057 30.7512L9.78701 31.8589C10.009 32.0214 10.3049 32.0455 10.5503 31.9212C10.7958 31.7969 10.9509 31.5444 10.9508 31.2697V24.8701H5.59082V31.2697H5.59088Z" fill="#235CD0"/>
<path d="M0.542969 27.0213C0.542969 28.2094 1.50784 29.1726 2.69809 29.1726H3.71172V24.8701H2.69809C1.50784 24.8701 0.542969 25.8332 0.542969 27.0213Z" fill="#235CD0"/>
</svg>
